<svg width="1172" height="1172" viewBox="0 0 1172 1172" fill="none" xmlns="http://www.w3.org/2000/svg">
<mask id="path-1-inside-1_22_49" fill="white">
<path d="M0 585.555C0 262.165 262.165 0 585.555 0V0C908.945 0 1171.11 262.165 1171.11 585.555V585.555C1171.11 908.945 908.945 1171.11 585.555 1171.11V1171.11C262.165 1171.11 0 908.945 0 585.555V585.555Z"/>
</mask>
<path d="M0 -480.445C0 -803.838 262.162 -1066 585.555 -1066C908.948 -1066 1171.11 -803.838 1171.11 -480.445V585.56C1171.11 679.913 1148.31 772.869 1104.65 856.513C1060.99 940.156 997.762 1012.01 920.353 1065.96L585.55 1066H250.728L250.757 1065.96C173.347 1012.01 110.121 940.156 66.4609 856.513C22.8007 772.869 -4.1243e-06 679.913 0 585.56L0 -480.445ZM1171.11 1171.11H0H1171.11ZM0 1171.11V0V1171.11ZM1171.11 0V1171.11V0Z" fill="black" fill-opacity="0.03" mask="url(#path-1-inside-1_22_49)"/>
<mask id="path-3-inside-2_22_49" fill="white">
<path d="M168.64 566.05C168.64 329.783 360.172 138.25 596.44 138.25V138.25C832.707 138.25 1024.24 329.783 1024.24 566.05V566.05C1024.24 802.317 832.707 993.85 596.44 993.85V993.85C360.172 993.85 168.64 802.317 168.64 566.05V566.05Z"/>
</mask>
<path d="M168.64 -146.95C168.64 -383.217 360.172 -574.75 596.44 -574.75C832.707 -574.75 1024.24 -383.217 1024.24 -146.95V566.05C1024.24 671.278 985.457 772.814 915.305 851.247L596.44 851.25H277.571L277.574 851.247C207.423 772.814 168.64 671.278 168.64 566.05L168.64 -146.95ZM1024.24 993.85H168.64H1024.24ZM168.64 993.85V138.25V993.85ZM1024.24 138.25V993.85V138.25Z" fill="#E1F5EB" mask="url(#path-3-inside-2_22_49)"/>
</svg>
