<svg width="51" height="50" viewBox="0 0 51 50" fill="none" xmlns="http://www.w3.org/2000/svg">
<g clip-path="url(#clip0_1_1234)">
<path d="M46.7437 37.1628L39.7507 32.4176C38.8183 31.7849 37.7694 31.4685 36.6039 31.4685C35.7048 31.4685 34.8723 31.6683 34.1064 32.0679C33.3405 32.4675 32.7244 33.0336 32.2582 33.7662L30.5599 36.0639C27.8626 34.299 24.9821 31.9347 21.9185 28.971C19.2545 26.4069 16.8236 23.5931 14.6258 20.5295L16.9235 18.981C17.7227 18.4149 18.3221 17.7073 18.7217 16.8581C19.1213 16.009 19.2878 15.1099 19.2212 14.1608C19.1546 13.2118 18.8383 12.3543 18.2722 11.5884L13.477 4.69529C12.9775 3.9627 12.3365 3.3966 11.5539 2.99699C10.7714 2.59739 9.96383 2.39759 9.13133 2.39759C8.56523 2.39759 7.98248 2.49749 7.38308 2.69729C6.78368 2.89709 6.18428 3.18015 5.58488 3.54644L4.63583 4.2957L4.38608 4.3956C4.15298 4.5621 3.98648 4.69529 3.88658 4.7952C2.75438 6.0606 1.92188 7.5258 1.38907 9.1908C0.756374 11.6217 0.839624 14.4106 1.63882 17.5574C2.43803 20.7043 3.8949 23.9594 6.00945 27.3227C8.12401 30.686 10.7297 33.8994 13.8266 36.963C17.756 40.8258 21.9435 43.8811 26.3891 46.1289C30.8346 48.3766 34.9056 49.5005 38.6019 49.5005C40.0338 49.5005 41.2159 49.3506 42.1483 49.0509C43.8799 48.6513 45.3285 47.8521 46.494 46.6533C46.7937 46.3869 47.0101 46.1538 47.1433 45.954L47.8426 45.005C48.2089 44.4056 48.492 43.8062 48.6918 43.2068C49.158 42.1412 49.2079 41.0423 48.8416 39.9101C48.4753 38.7779 47.776 37.8621 46.7437 37.1628ZM46.7437 42.5075C46.5106 43.007 46.2942 43.4232 46.0944 43.7562L45.445 44.6054C45.4117 44.672 45.3118 44.7719 45.1453 44.9051L45.0454 45.005C44.113 45.9374 42.9642 46.5534 41.5989 46.8531C40.6665 47.0862 39.6675 47.2028 38.6019 47.2028C35.172 47.2028 31.3841 46.1289 27.2382 43.981C23.0924 41.8332 19.138 38.9111 15.3751 35.2148C12.478 32.4842 10.0138 29.5205 7.98248 26.3237C6.01778 23.2601 4.63583 20.2631 3.83663 17.3327C3.03743 14.4023 2.92088 11.8548 3.48698 9.6903C3.91988 8.2917 4.55258 7.17615 5.38508 6.34365L5.78468 5.94405L6.63383 5.2947C7.29983 5.02829 7.78268 4.8285 8.08238 4.69529C8.48198 4.5621 8.83163 4.49549 9.13133 4.49549C9.63083 4.49549 10.1054 4.61205 10.5549 4.84515C11.0045 5.07825 11.3957 5.41125 11.7287 5.84415L16.6238 12.6873C17.1233 13.4199 17.2898 14.2191 17.1233 15.0849C16.9568 15.9507 16.5073 16.6167 15.7747 17.0829L12.6778 19.2807C12.4114 19.4139 12.2532 19.622 12.2033 19.9051C12.1533 20.1881 12.1949 20.4629 12.3281 20.7293C14.2262 23.7596 16.9485 26.998 20.495 30.4445C24.0414 33.8911 27.3298 36.5135 30.3601 38.3117C30.6265 38.4782 30.9012 38.5365 31.1843 38.4865C31.4673 38.4366 31.6755 38.2784 31.8087 38.012L34.0065 34.9151C34.4727 34.2158 35.1636 33.7829 36.0794 33.6164C36.9951 33.4499 37.8027 33.5997 38.502 34.0659L45.445 38.8611C46.0777 39.3273 46.5106 39.8934 46.7437 40.5594C46.9768 41.2254 46.9768 41.8748 46.7437 42.5075ZM43.1973 8.24175C40.833 5.94405 38.1606 4.13752 35.1803 2.82217C32.1999 1.50682 29.0614 0.73259 25.7647 0.499493C25.465 0.499493 25.1986 0.591064 24.9655 0.774216C24.7324 0.957367 24.6158 1.19047 24.6158 1.47352C24.6158 1.75657 24.7157 2.00632 24.9155 2.22277C25.1153 2.43922 25.3651 2.56409 25.6648 2.59739C28.6951 2.79719 31.5756 3.50482 34.3062 4.72027C37.0368 5.93572 39.476 7.5924 41.6238 9.6903C43.7717 11.7882 45.47 14.1858 46.7187 16.8831C47.9675 19.5804 48.6585 22.3943 48.7917 25.3247C48.7917 25.5578 48.8999 25.7742 49.1163 25.974C49.3328 26.1738 49.5742 26.2737 49.8406 26.2737H49.9405C50.2402 26.2737 50.49 26.1572 50.6898 25.9241C50.8896 25.691 50.9895 25.4246 50.9895 25.1249C50.7897 21.9281 50.0154 18.8728 48.6668 15.959C47.3181 13.0453 45.495 10.4729 43.1973 8.24175ZM25.2652 8.94105C27.5296 9.10755 29.6691 9.63202 31.6838 10.5145C33.6984 11.3969 35.4883 12.6207 37.0534 14.1858C38.6185 15.7509 39.8506 17.5158 40.7497 19.4805C41.6488 21.4452 42.1816 23.5265 42.3481 25.7243C42.3481 25.9907 42.4563 26.2154 42.6728 26.3986C42.8892 26.5817 43.1307 26.6733 43.3971 26.6733H43.497C43.7967 26.6733 44.0464 26.5651 44.2462 26.3486C44.446 26.1322 44.5459 25.8575 44.5459 25.5245C44.3794 23.0603 43.7883 20.7209 42.7727 18.5065C41.757 16.292 40.3668 14.3273 38.6019 12.6124C36.837 10.8974 34.814 9.53212 32.5329 8.51647C30.2519 7.50082 27.8626 6.9264 25.3651 6.7932C25.0654 6.7932 24.799 6.88477 24.5659 7.06792C24.3328 7.25107 24.2162 7.4592 24.2162 7.6923C24.2162 8.0586 24.3161 8.3583 24.5159 8.5914C24.7157 8.8245 24.9655 8.94105 25.2652 8.94105ZM24.8656 15.3347C26.3308 15.4346 27.7127 15.7676 29.0114 16.3337C30.3102 16.8998 31.459 17.6657 32.458 18.6314C33.457 19.5971 34.2479 20.7293 34.8306 22.028C35.4134 23.3267 35.7714 24.692 35.9046 26.1239C35.9046 26.3903 36.0045 26.615 36.2043 26.7982C36.4041 26.9813 36.6538 27.0729 36.9535 27.0729H37.0534C37.3531 27.0729 37.5945 26.9647 37.7777 26.7482C37.9608 26.5318 38.0524 26.2571 38.0524 25.9241C37.9525 24.2591 37.5529 22.669 36.8536 21.1538C36.1543 19.6387 35.2136 18.2817 34.0314 17.0829C32.8493 15.8841 31.4757 14.9517 29.9106 14.2857C28.3454 13.6197 26.6971 13.2368 24.9655 13.1369C24.6325 13.1369 24.3578 13.2284 24.1413 13.4116C23.9249 13.5947 23.8166 13.8278 23.8166 14.1109C23.8166 14.3939 23.9082 14.652 24.0914 14.8851C24.2745 15.1182 24.5326 15.2681 24.8656 15.3347Z" fill="#A4D69A"/>
</g>
<defs>
<clipPath id="clip0_1_1234">
<rect width="50.02" height="50" fill="white" transform="matrix(1 0 0 -1 0.959961 50)"/>
</clipPath>
</defs>
</svg>
