<svg width="51" height="50" viewBox="0 0 51 50" fill="none" xmlns="http://www.w3.org/2000/svg">
<g clip-path="url(#clip0_1_1241)">
<path d="M23.7374 7.24792e-05C23.5376 7.24792e-05 23.3711 0.0666733 23.2379 0.199875C20.2076 2.33108 17.2772 3.96278 14.4467 5.09498C10.7837 6.56018 6.63786 7.49258 2.00916 7.89218C1.70946 7.89218 1.45971 8.00041 1.25991 8.21686C1.06011 8.43331 0.960205 8.67473 0.960205 8.94113C0.960205 15.2348 1.52631 20.7626 2.65851 25.5245C3.72411 30.0201 5.30586 33.9495 7.40376 37.3128C9.33516 40.3098 11.7328 42.8905 14.5966 45.055C17.0941 46.9198 20.0411 48.5349 23.4377 49.9002C23.7707 50.0001 24.0538 50.0001 24.2869 49.9002C27.517 48.6015 30.3475 47.0697 32.7784 45.3048C35.509 43.2735 37.8067 40.8759 39.6715 38.112C41.7361 35.0817 43.3511 31.5519 44.5166 27.5226C45.7487 23.1269 46.4647 18.1153 46.6645 12.4876C46.6645 12.1546 46.5646 11.8799 46.3648 11.6634C46.165 11.447 45.8986 11.3387 45.5656 11.3387C45.2326 11.3387 44.9495 11.4386 44.7164 11.6384C44.4833 11.8382 44.3668 12.088 44.3668 12.3877C44.167 17.8489 43.4843 22.6774 42.3188 26.8732C41.2532 30.7027 39.7547 34.0327 37.8233 36.8632C36.0917 39.3607 33.9938 41.5252 31.5296 43.3567C29.3651 44.9884 26.8177 46.4037 23.8873 47.6025C20.7571 46.3371 18.0598 44.8219 15.7954 43.057C13.2313 41.1256 11.0668 38.7946 9.30186 36.064C7.40376 33.1003 5.97186 29.5539 5.00616 25.4246C3.94056 20.9957 3.39111 15.8509 3.35781 9.99009C7.72011 9.52388 11.6828 8.59148 15.2459 7.19288C18.2096 6.02738 21.0901 4.46228 23.8873 2.49758C26.8177 4.56218 29.8147 6.17723 32.8783 7.34273C36.6745 8.80793 40.8869 9.72368 45.5156 10.09C45.8153 10.1566 46.0901 10.0817 46.3398 9.86521C46.5896 9.64876 46.7394 9.38236 46.7894 9.06601C46.8393 8.74966 46.7561 8.47493 46.5396 8.24183C46.3232 8.00873 46.0484 7.85888 45.7154 7.79228C41.0867 7.35938 36.9409 6.44363 33.2779 5.04503C30.4141 3.91283 27.4837 2.29778 24.4867 0.199875C24.2203 0.0666733 23.9705 7.24792e-05 23.7374 7.24792e-05ZM33.7774 16.2338C33.5443 16.2338 33.2945 16.3837 33.0281 16.6834L22.189 29.4706L17.4937 24.9751C17.2939 24.7753 17.0358 24.6754 16.7194 24.6754C16.4031 24.6754 16.1284 24.7836 15.8953 25.0001C15.6622 25.2165 15.5456 25.4829 15.5456 25.7993C15.5456 26.1156 15.6455 26.3737 15.8453 26.5735L21.4897 31.9681C21.6895 32.2012 21.9475 32.3094 22.2639 32.2928C22.5802 32.2761 22.8716 32.1346 23.138 31.8682L34.6765 18.1319C34.8763 17.8655 34.9679 17.5908 34.9512 17.3078C34.9346 17.0247 34.818 16.775 34.6016 16.5585C34.3851 16.3421 34.1104 16.2338 33.7774 16.2338Z" fill="#D596C8"/>
</g>
<defs>
<clipPath id="clip0_1_1241">
<rect width="50.02" height="50" fill="white" transform="matrix(1 0 0 -1 0.950195 50)"/>
</clipPath>
</defs>
</svg>
