<svg width="51" height="50" viewBox="0 0 51 50" fill="none" xmlns="http://www.w3.org/2000/svg">
<g clip-path="url(#clip0_1_1263)">
<path d="M30.3308 28.4215V21.5783C30.3308 20.2463 29.8813 19.164 28.9822 18.3315C28.1497 17.5656 27.1424 17.1827 25.9602 17.1827C24.7781 17.1827 23.7707 17.549 22.9382 18.2816C22.0391 19.0808 21.5896 20.1797 21.5896 21.5783V28.4215C21.5896 29.7535 22.0391 30.8357 22.9382 31.6682C23.7707 32.4341 24.7781 32.8171 25.9602 32.8171C27.1424 32.8171 28.1497 32.4508 28.9822 31.7182C29.8813 30.919 30.3308 29.8201 30.3308 28.4215ZM23.4377 28.4215V21.5783C23.4377 20.7458 23.6958 20.1048 24.212 19.6552C24.7281 19.2057 25.3358 18.9809 26.0351 18.9809C26.7344 18.9809 27.3172 19.1807 27.7834 19.5803C28.3162 20.0798 28.5826 20.7458 28.5826 21.5783V28.4215C28.5826 29.254 28.3162 29.92 27.7834 30.4195C27.3172 30.8191 26.7344 31.0189 26.0351 31.0189C25.3358 31.0189 24.7281 30.8024 24.212 30.3695C23.6958 29.9366 23.4377 29.2873 23.4377 28.4215ZM14.4967 31.0189C13.7974 31.0189 13.2146 30.8191 12.7484 30.4195C12.1823 29.92 11.8993 29.254 11.8993 28.4215C11.8993 28.1884 11.8077 27.9802 11.6245 27.7971C11.4414 27.6139 11.2166 27.5224 10.9502 27.5224C10.6838 27.5224 10.459 27.6139 10.2759 27.7971C10.0927 27.9802 10.0012 28.1884 10.0012 28.4215C10.0012 29.7535 10.4674 30.8357 11.3998 31.6682C12.2323 32.4341 13.2396 32.8171 14.4217 32.8171C15.6039 32.8171 16.5946 32.4508 17.3938 31.7182C18.3262 30.919 18.7924 29.8201 18.7924 28.4215C18.7924 27.1561 18.3095 26.1571 17.3438 25.4245C16.7777 24.9583 15.8953 24.542 14.6965 24.1757C13.6642 23.8094 12.9649 23.4931 12.5986 23.2267C12.1324 22.8271 11.8993 22.2776 11.8993 21.5783C11.8993 20.7458 12.149 20.1048 12.6485 19.6552C13.148 19.2057 13.7557 18.9809 14.4717 18.9809C15.1876 18.9809 15.7787 19.1807 16.2449 19.5803C16.7444 20.0798 16.9942 20.7458 16.9942 21.5783C16.9942 21.8114 17.0857 22.0195 17.2689 22.2027C17.452 22.3858 17.6768 22.4774 17.9432 22.4774C18.2096 22.4774 18.4344 22.3858 18.6175 22.2027C18.8007 22.0195 18.8923 21.8114 18.8923 21.5783C18.8923 20.2463 18.4261 19.164 17.4937 18.3315C16.6612 17.5656 15.6622 17.1827 14.4967 17.1827C13.3312 17.1827 12.3322 17.549 11.4997 18.2816C10.6006 19.0808 10.151 20.1797 10.151 21.5783C10.151 22.8437 10.6006 23.8427 11.4997 24.5753C12.0658 25.0415 12.9649 25.4578 14.197 25.8241C15.2626 26.1904 15.9619 26.5067 16.2949 26.7731C16.7611 27.1727 16.9942 27.7222 16.9942 28.4215C16.9942 29.254 16.7444 29.92 16.2449 30.4195C15.7787 30.8191 15.196 31.0189 14.4967 31.0189ZM37.4237 18.9809C38.123 18.9809 38.7058 19.1807 39.172 19.5803C39.7381 20.0798 40.0211 20.7458 40.0211 21.5783C40.0211 21.8114 40.1127 22.0195 40.2959 22.2027C40.479 22.3858 40.7038 22.4774 40.9702 22.4774C41.2366 22.4774 41.4614 22.3858 41.6445 22.2027C41.8277 22.0195 41.9192 21.8114 41.9192 21.5783C41.9192 20.2463 41.453 19.164 40.5206 18.3315C39.6881 17.5656 38.6808 17.1827 37.4987 17.1827C36.3165 17.1827 35.3258 17.549 34.5266 18.2816C33.5942 19.0808 33.128 20.1797 33.128 21.5783C33.128 22.8437 33.5942 23.8427 34.5266 24.5753C35.0927 25.0415 35.9918 25.4578 37.2239 25.8241C38.2562 26.1904 38.9555 26.5067 39.3218 26.7731C39.788 27.1727 40.0211 27.7222 40.0211 28.4215C40.0211 29.254 39.7714 29.895 39.2719 30.3445C38.7724 30.7941 38.1647 31.0189 37.4487 31.0189C36.7328 31.0189 36.1417 30.8191 35.6755 30.4195C35.176 29.92 34.9262 29.254 34.9262 28.4215C34.9262 28.1884 34.8347 27.9802 34.6515 27.7971C34.4684 27.6139 34.2436 27.5224 33.9772 27.5224C33.7108 27.5224 33.486 27.6139 33.3029 27.7971C33.1197 27.9802 33.0281 28.1884 33.0281 28.4215C33.0281 29.7535 33.4943 30.8357 34.4267 31.6682C35.2592 32.4341 36.2582 32.8171 37.4237 32.8171C38.5892 32.8171 39.5882 32.4508 40.4207 31.7182C41.3198 30.919 41.7694 29.8201 41.7694 28.4215C41.7694 27.1561 41.3198 26.1571 40.4207 25.4245C39.8546 24.9583 38.9555 24.542 37.7234 24.1757C36.6578 23.8094 35.9585 23.4931 35.6255 23.2267C35.1593 22.8271 34.9262 22.2776 34.9262 21.5783C34.9262 20.7458 35.176 20.0798 35.6755 19.5803C36.1417 19.1807 36.7244 18.9809 37.4237 18.9809ZM5.55561 38.861C5.55561 39.1274 5.64718 39.3522 5.83033 39.5353C6.01348 39.7185 6.23826 39.8101 6.50466 39.8101H45.5656C45.7987 39.8101 46.0068 39.7185 46.19 39.5353C46.3731 39.3522 46.4647 39.1274 46.4647 38.861C46.4647 38.5946 46.3731 38.3698 46.19 38.1867C46.0068 38.0035 45.7987 37.912 45.5656 37.912H6.50466C6.23826 37.912 6.01348 38.0035 5.83033 38.1867C5.64718 38.3698 5.55561 38.5946 5.55561 38.861ZM46.3648 11.1387C46.3648 10.8723 46.2732 10.6476 46.0901 10.4644C45.9069 10.2813 45.6821 10.1897 45.4157 10.1897H6.50466C6.23826 10.1897 6.01348 10.2813 5.83033 10.4644C5.64718 10.6476 5.55561 10.8723 5.55561 11.1387C5.55561 11.4051 5.64718 11.6299 5.83033 11.8131C6.01348 11.9962 6.23826 12.0878 6.50466 12.0878H45.5656C45.7654 12.0878 45.9485 11.9962 46.115 11.8131C46.2815 11.6299 46.3648 11.4051 46.3648 11.1387ZM50.0112 28.7711C49.7448 28.7711 49.52 28.8627 49.3368 29.0458C49.1537 29.229 49.0621 29.4371 49.0621 29.6702V43.5563C49.0621 44.5886 48.7791 45.4378 48.213 46.1038C47.7801 46.57 47.214 46.903 46.5146 47.1028C46.0817 47.236 45.6821 47.3026 45.3158 47.3026H6.50466C5.77206 47.3026 5.10606 47.1361 4.50666 46.8031C3.40776 46.1704 2.85831 45.0881 2.85831 43.5563V25.924H6.50466C6.73776 25.924 6.94589 25.8324 7.12904 25.6492C7.31219 25.4661 7.40376 25.2496 7.40376 24.9999C7.40376 24.7501 7.31219 24.5337 7.12904 24.3505C6.94589 24.1674 6.73776 24.0758 6.50466 24.0758H1.90926C1.64286 24.0758 1.41808 24.1674 1.23493 24.3505C1.05178 24.5337 0.960205 24.7418 0.960205 24.9749V43.4564C0.960205 44.7884 1.29321 45.904 1.95921 46.8031C2.49201 47.569 3.22461 48.1351 4.15701 48.5014C4.92291 48.8011 5.70546 48.9509 6.50466 48.9509H45.5656C46.2982 48.9509 47.0475 48.8011 47.8134 48.5014C48.7458 48.1018 49.495 47.5357 50.0611 46.8031C50.7271 45.904 51.0601 44.7884 51.0601 43.4564V29.5703C50.9935 29.3705 50.8686 29.1874 50.6855 29.0209C50.5023 28.8544 50.2776 28.7711 50.0112 28.7711ZM45.4157 1.04883H6.50466C5.70546 1.04883 4.92291 1.19868 4.15701 1.49838C3.22461 1.86468 2.49201 2.43078 1.95921 3.19668C1.29321 4.09578 0.960205 5.21133 0.960205 6.54333V20.4295C0.960205 20.6959 1.05178 20.9206 1.23493 21.1038C1.41808 21.2869 1.64286 21.3785 1.90926 21.3785C2.17566 21.3785 2.40043 21.2869 2.58358 21.1038C2.76673 20.9206 2.85831 20.6959 2.85831 20.4295V6.54333C2.85831 5.51104 3.14136 4.66188 3.70746 3.99588C4.14036 3.52968 4.70646 3.19668 5.40576 2.99688C5.80536 2.86368 6.17166 2.79708 6.50466 2.79708H45.5656C46.2982 2.79708 46.9642 2.96358 47.5636 3.29659C48.7291 3.92928 49.3119 5.01154 49.3119 6.54333V24.1757H45.5656C45.2992 24.1757 45.0744 24.2673 44.8913 24.4504C44.7081 24.6336 44.6165 24.85 44.6165 25.0998C44.6165 25.3495 44.7081 25.566 44.8913 25.7491C45.0744 25.9323 45.2992 26.0239 45.5656 26.0239H50.1111C50.3775 26.0239 50.6022 25.9323 50.7854 25.7491C50.9685 25.566 51.0601 25.3579 51.0601 25.1248V6.54333C51.0268 5.21133 50.6772 4.09578 50.0112 3.19668C49.4451 2.43078 48.6958 1.86468 47.7634 1.49838C46.9975 1.19868 46.215 1.04883 45.4157 1.04883Z" fill="#E49898"/>
</g>
<defs>
<clipPath id="clip0_1_1263">
<rect width="50.02" height="50" fill="white" transform="matrix(1 0 0 -1 0.950195 50)"/>
</clipPath>
</defs>
</svg>
