<svg width="51" height="50" viewBox="0 0 51 50" fill="none" xmlns="http://www.w3.org/2000/svg">
<g clip-path="url(#clip0_1_1255)">
<path d="M7.31338 45.7541V40.5094H5.66503C4.79923 40.5094 4.00835 40.2929 3.2924 39.86C2.57645 39.4271 2.01035 38.8527 1.5941 38.1367C1.17785 37.4208 0.969727 36.6466 0.969727 35.8141V22.6273C0.969727 21.7615 1.18618 20.9706 1.61908 20.2546C2.05198 19.5387 2.6264 18.9726 3.34235 18.5563C4.0583 18.1401 4.83253 17.9319 5.66503 17.9319H16.5042C16.8039 17.9319 17.0703 18.0402 17.3034 18.2566C17.5365 18.4731 17.653 18.7395 17.653 19.0558C17.653 19.3722 17.5365 19.6469 17.3034 19.88C17.0703 20.1131 16.8039 20.2297 16.5042 20.2297H5.66503C4.99903 20.2297 4.41628 20.4711 3.91678 20.9539C3.41728 21.4368 3.16753 21.9946 3.16753 22.6273V35.8141C3.16753 36.5134 3.40895 37.0878 3.8918 37.5373C4.37465 37.9869 4.96573 38.2117 5.66503 38.2117H8.46223C8.79523 38.2117 9.06996 38.3282 9.28641 38.5613C9.50286 38.7944 9.61108 39.0608 9.61108 39.3605V43.0069L14.3064 38.5613C14.5062 38.3282 14.7892 38.2117 15.1555 38.2117H27.4433C28.1093 38.2117 28.692 37.9702 29.1915 37.4874C29.691 37.0045 29.9408 36.4468 29.9408 35.8141V29.1707C29.9408 28.8377 30.049 28.563 30.2654 28.3465C30.4819 28.1301 30.7483 28.0219 31.0646 28.0219C31.381 28.0219 31.6557 28.1301 31.8888 28.3465C32.1219 28.563 32.2385 28.8377 32.2385 29.1707V35.914C32.2385 36.7798 32.022 37.5706 31.5891 38.2866C31.1562 39.0025 30.5735 39.5686 29.8409 39.9849C29.1083 40.4011 28.3424 40.6093 27.5432 40.6093H15.5551L9.31138 46.6532C9.04498 46.7864 8.78691 46.853 8.53716 46.853C8.28741 46.853 8.12923 46.8197 8.06263 46.7531C7.82953 46.6532 7.64638 46.5117 7.51318 46.3286C7.37998 46.1454 7.31338 45.9373 7.31338 45.7042V45.7541ZM36.2844 26.0239H24.2964C23.4639 26.0239 22.673 25.8074 21.9238 25.3745C21.1745 24.9416 20.5834 24.3589 20.1505 23.6263C19.7176 22.8937 19.5012 22.0945 19.5012 21.2287V7.94194C19.5012 7.07614 19.7176 6.27694 20.1505 5.54434C20.5834 4.81174 21.1745 4.22898 21.9238 3.79609C22.673 3.36319 23.4639 3.14674 24.2964 3.14674H46.1745C47.0403 3.14674 47.8395 3.36319 48.5721 3.79609C49.3047 4.22898 49.8875 4.81174 50.3204 5.54434C50.7533 6.27694 50.9697 7.07614 50.9697 7.94194V21.2287C50.9697 22.0945 50.7533 22.8937 50.3204 23.6263C49.8875 24.3589 49.3047 24.9416 48.5721 25.3745C47.8395 25.8074 47.0403 26.0239 46.1745 26.0239H44.5262V31.2686C44.5262 31.7348 44.3097 32.0678 43.8768 32.2676C43.8102 32.3675 43.6687 32.4175 43.4522 32.4175C43.2358 32.4175 42.9611 32.3009 42.6281 32.0678L36.2844 26.0239ZM24.2964 23.7262H36.684C36.9504 23.7262 37.2335 23.8427 37.5332 24.0758L42.2285 28.5214V24.875C42.2285 24.5753 42.3367 24.3172 42.5531 24.1008C42.7696 23.8843 43.0443 23.7761 43.3773 23.7761H46.1745C46.8405 23.7761 47.4233 23.5264 47.9228 23.0269C48.4223 22.5274 48.672 21.9779 48.672 21.3785V7.94194C48.672 7.24264 48.4306 6.66821 47.9477 6.21866C47.4649 5.76911 46.8738 5.54434 46.1745 5.54434H24.2964C23.6304 5.54434 23.0476 5.78576 22.5481 6.26861C22.0486 6.75146 21.7989 7.30924 21.7989 7.94194V21.2287C21.8655 21.928 22.1319 22.5274 22.5981 23.0269C23.0643 23.5264 23.6304 23.7761 24.2964 23.7761V23.7262ZM35.2355 13.4364C34.8359 13.4364 34.4779 13.5946 34.1615 13.911C33.8452 14.2273 33.687 14.5936 33.687 15.0099C33.687 15.4261 33.8452 15.7924 34.1615 16.1088C34.4779 16.4251 34.8442 16.5833 35.2604 16.5833C35.6767 16.5833 36.0347 16.4251 36.3344 16.1088C36.6341 15.7924 36.8006 15.4261 36.8339 15.0099C36.8672 14.5936 36.7256 14.2273 36.4093 13.911C36.0929 13.5946 35.7017 13.4364 35.2355 13.4364ZM41.1795 16.6832C41.5791 16.6832 41.9371 16.525 42.2534 16.2087C42.5698 15.8923 42.728 15.526 42.728 15.1098C42.728 14.6935 42.5698 14.3272 42.2534 14.0109C41.9371 13.6945 41.5708 13.5363 41.1545 13.5363C40.7383 13.5363 40.3803 13.6945 40.0806 14.0109C39.7809 14.3272 39.6311 14.6935 39.6311 15.1098C39.6311 15.526 39.7809 15.8923 40.0806 16.2087C40.3803 16.525 40.7466 16.6832 41.1795 16.6832ZM29.2914 13.4364C28.8918 13.4364 28.5338 13.5946 28.2175 13.911C27.9011 14.2273 27.743 14.5936 27.743 15.0099C27.743 15.4261 27.9011 15.7924 28.2175 16.1088C28.5338 16.4251 28.9001 16.5833 29.3164 16.5833C29.7326 16.5833 30.0989 16.4251 30.4153 16.1088C30.7316 15.7924 30.8898 15.4261 30.8898 15.0099C30.8898 14.5936 30.7316 14.2273 30.4153 13.911C30.0989 13.5946 29.7243 13.4364 29.2914 13.4364Z" fill="#8DBADD"/>
</g>
<defs>
<clipPath id="clip0_1_1255">
<rect width="50.02" height="50" fill="white" transform="matrix(1 0 0 -1 0.959961 50)"/>
</clipPath>
</defs>
</svg>
