<svg width="51" height="50" viewBox="0 0 51 50" fill="none" xmlns="http://www.w3.org/2000/svg">
<g clip-path="url(#clip0_1_1248)">
<path d="M45.9947 26.2239H38.752L32.8079 9.39071C32.708 9.091 32.5166 8.8912 32.2335 8.7913C31.9505 8.6914 31.6674 8.69973 31.3843 8.81628C31.1013 8.93283 30.9431 9.1576 30.9098 9.4906L23.9668 37.063L17.4233 16.6335C17.3234 16.3338 17.1403 16.1256 16.8739 16.0091C16.6075 15.8925 16.3411 15.8842 16.0747 15.9841C15.8083 16.084 15.6085 16.2672 15.4753 16.5336L11.5792 26.2239H1.98875C1.72235 26.2239 1.48925 26.3238 1.28945 26.5236C1.08965 26.7234 0.989746 26.9648 0.989746 27.2478C0.989746 27.5309 1.08965 27.7723 1.28945 27.9721C1.48925 28.1719 1.72235 28.2718 1.98875 28.2718H12.3284C12.5282 28.2718 12.7114 28.2052 12.8779 28.072C13.0444 27.9388 13.1609 27.8056 13.2275 27.6724L16.2745 19.9801L23.0177 41.0091C23.1176 41.3421 23.3091 41.5585 23.5921 41.6584C23.8752 41.7583 24.1582 41.7417 24.4413 41.6085C24.7243 41.4753 24.8992 41.2422 24.9658 40.9092L31.9088 13.1869L36.9038 27.5725C36.9704 27.7723 37.0953 27.9388 37.2785 28.072C37.4616 28.2052 37.6697 28.2718 37.9028 28.2718H45.8948C46.0946 28.738 46.411 29.1126 46.8439 29.3957C47.2768 29.6787 47.743 29.8203 48.2425 29.8203C48.9418 29.8203 49.5412 29.5705 50.0407 29.071C50.5402 28.5715 50.7899 27.9638 50.7899 27.2478C50.7899 26.5319 50.5402 25.9242 50.0407 25.4247C49.5412 24.9252 48.9418 24.6754 48.2425 24.6754C47.7763 24.6754 47.3351 24.8169 46.9188 25.1C46.5026 25.383 46.1945 25.7577 45.9947 26.2239Z" fill="#9A95DC"/>
</g>
<defs>
<clipPath id="clip0_1_1248">
<rect width="50.02" height="50" fill="white" transform="matrix(1 0 0 -1 0.97998 50)"/>
</clipPath>
</defs>
</svg>
