<svg width="51" height="50" viewBox="0 0 51 50" fill="none" xmlns="http://www.w3.org/2000/svg">
<g clip-path="url(#clip0_1_1226)">
<path d="M50.8898 11.7882C50.8898 11.6883 50.8982 11.5634 50.9148 11.4136C50.9315 11.2637 50.9398 11.1472 50.9398 11.0639C50.9398 10.9807 50.8898 10.9058 50.7899 10.8392C50.6234 10.706 50.4736 10.6227 50.3404 10.5894C50.2072 10.5561 50.074 10.5728 49.9408 10.6394L34.756 15.6344L27.9628 13.3367L27.3634 15.6344L33.9068 17.8322V46.8531L17.5732 42.8072V36.7632H15.5752V42.8072L3.08765 47.003V25.6244H1.08965V48.7512C1.08965 49.1508 1.25615 49.4672 1.58915 49.7003C1.72235 49.9001 1.9388 50 2.2385 50C2.3717 50 2.5049 49.9667 2.6381 49.9001L16.8239 45.005L34.6561 49.6004C34.7227 49.6337 34.8892 49.6337 35.1556 49.6004H35.3554L50.5901 43.7562C50.7566 43.6896 50.8565 43.5981 50.8898 43.4815C50.9231 43.365 50.9231 43.1901 50.8898 42.957V42.6074V11.7882ZM48.8918 41.7582L35.8049 46.7532V17.8322L48.8918 13.4366V41.7582ZM11.9288 31.8681C11.9621 32.1345 12.0953 32.3427 12.3284 32.4925C12.5615 32.6424 12.8113 32.7173 13.0777 32.7173C13.3441 32.7173 13.5855 32.6424 13.8019 32.4925C14.0184 32.3427 14.1599 32.1345 14.2265 31.8681C14.726 30.1365 15.5252 28.4715 16.6241 26.8731C17.2901 25.9407 18.3557 24.6587 19.8209 23.027L19.9708 22.8771C21.1363 21.5451 21.9854 20.5461 22.5182 19.8801C23.3507 18.7146 23.9834 17.5824 24.4163 16.4835C24.9158 15.1515 25.1656 13.7196 25.1656 12.1878C25.1656 10.0566 24.5995 8.02531 23.4673 6.09391C22.3684 4.26241 20.8865 2.78888 19.0217 1.67333C17.1569 0.557777 15.1672 0 13.0527 0C10.9381 0 8.95678 0.557777 7.10863 1.67333C5.26048 2.78888 3.77862 4.27073 2.66307 6.11888C1.54752 7.96703 0.989746 9.95671 0.989746 12.0879C0.989746 13.6197 1.2395 15.0516 1.739 16.3836C2.1719 17.4825 2.8046 18.6147 3.6371 19.7802C4.1366 20.4462 4.9691 21.4452 6.1346 22.7772L6.58415 23.2268C7.98275 24.8252 8.9984 26.0906 9.6311 27.023C10.6634 28.5881 11.4293 30.2031 11.9288 31.8681ZM13.0777 2.3976C14.7427 2.3976 16.3244 2.84715 17.8229 3.74625C19.3214 4.64536 20.5202 5.84416 21.4193 7.34266C22.3184 8.84116 22.768 10.4229 22.768 12.0879C22.768 13.32 22.5515 14.5022 22.1186 15.6344C21.7523 16.5668 21.2029 17.5325 20.4703 18.5315C20.0041 19.1309 19.2382 20.03 18.1726 21.2288L17.6731 21.8282C16.5742 23.027 15.7583 23.976 15.2255 24.6753C14.3264 25.8741 13.6105 27.0563 13.0777 28.2218C12.5782 27.1562 11.9122 26.0739 11.0797 24.975C10.5802 24.3423 9.8309 23.4432 8.8319 22.2777L7.9328 21.2288C6.8672 20.03 6.11795 19.1309 5.68505 18.5315C4.95245 17.5325 4.403 16.5668 4.0367 15.6344C3.6038 14.5022 3.38735 13.32 3.38735 12.0879C3.38735 10.4562 3.8369 8.89111 4.736 7.39261C5.6351 5.89411 6.8339 4.68698 8.3324 3.77123C9.8309 2.85548 11.4127 2.3976 13.0777 2.3976ZM13.0777 16.983C13.9435 16.983 14.7593 16.7666 15.5252 16.3337C16.2911 15.9008 16.8905 15.318 17.3234 14.5854C17.7563 13.8528 17.9728 13.0536 17.9728 12.1878C17.9728 10.8558 17.4982 9.72361 16.5492 8.79121C15.6001 7.85881 14.443 7.39261 13.0777 7.39261C12.1786 7.35931 11.3544 7.55079 10.6051 7.96703C9.85588 8.38329 9.2648 8.95771 8.8319 9.69031C8.399 10.4229 8.18255 11.2304 8.18255 12.1129C8.18255 12.9953 8.399 13.8112 8.8319 14.5604C9.2648 15.3097 9.85588 15.9008 10.6051 16.3337C11.3544 16.7666 12.1786 16.983 13.0777 16.983ZM13.0777 9.69031C13.7437 9.69031 14.3098 9.92341 14.776 10.3896C15.2422 10.8558 15.4753 11.4219 15.4753 12.0879C15.4753 12.7539 15.2422 13.32 14.776 13.7862C14.3098 14.2524 13.7437 14.4855 13.0777 14.4855C12.4117 14.4855 11.8456 14.2524 11.3794 13.7862C10.9132 13.32 10.6801 12.7539 10.6801 12.0879C10.6801 11.4219 10.9132 10.8558 11.3794 10.3896C11.8456 9.92341 12.4117 9.69031 13.0777 9.69031Z" fill="#DDBD78"/>
</g>
<defs>
<clipPath id="clip0_1_1226">
<rect width="50.02" height="50" fill="white" transform="matrix(1 0 0 -1 0.97998 50)"/>
</clipPath>
</defs>
</svg>
