<svg width="41" height="41" viewBox="0 0 41 41" fill="none" xmlns="http://www.w3.org/2000/svg">
<g clip-path="url(#clip0_1_1641)">
<path d="M36.2644 0.899361C36.2378 0.846081 36.1978 0.806122 36.1446 0.77948V0.739521C36.1179 0.712883 36.0779 0.699562 36.0247 0.699562C35.9714 0.699562 35.8781 0.632961 35.7449 0.49976C35.6917 0.419842 35.5984 0.379883 35.4652 0.379883H35.1455C25.1023 4.40253 18.8685 10.1701 16.4442 17.6826C15.4053 20.9593 15.1389 24.4491 15.645 28.1521C16.018 30.8694 16.7906 33.5867 17.9627 36.304C18.5488 37.6892 19.1749 38.9413 19.8409 40.0602L20.0806 40.26C20.1339 40.2866 20.1605 40.3266 20.1605 40.3799H20.68L20.8399 40.3399C22.2518 39.9137 23.6371 39.3942 24.9957 38.7815C27.6064 37.6093 29.9374 36.1708 31.9887 34.4658C34.7593 32.1748 36.8505 29.5108 38.2624 26.4738C39.8608 22.9573 40.5002 19.0545 40.1805 14.7655C39.8608 10.4765 38.5555 5.85441 36.2644 0.899361ZM20.4802 37.4628C19.1749 34.8254 18.2558 32.2014 17.723 29.5907C16.8971 25.4615 17.0436 21.6519 18.1625 18.1621C19.1482 14.9919 20.9731 12.1148 23.6371 9.53073C26.3011 6.94665 29.7376 4.73553 33.9467 2.89737L20.4802 37.4628ZM36.664 25.7945C35.1455 29.0978 32.6813 31.9483 29.2714 34.3459C27.1402 35.8644 24.7027 37.1431 21.9587 38.1821L35.4652 3.49677C39.0883 12.2081 39.4879 19.6406 36.664 25.7945ZM16.5641 37.1831C13.7936 36.0109 11.3693 34.5324 9.2914 32.7475C6.54748 30.4298 4.57612 27.7125 3.37731 24.5957C2.25843 21.7185 1.81221 18.5417 2.03865 15.0652C2.26509 11.5887 3.17751 7.86573 4.77592 3.89637L12.0486 21.1991C12.1019 21.3323 12.2018 21.4455 12.3483 21.5387C12.4949 21.632 12.6614 21.6786 12.8478 21.6786C12.981 21.6786 13.0876 21.6519 13.1675 21.5987C13.3806 21.4921 13.5272 21.3256 13.6071 21.0992C13.687 20.8727 13.6737 20.6396 13.5671 20.3999L6.25444 3.17709C10.7033 4.98861 14.2997 7.22637 17.0436 9.89037C17.2568 10.0236 17.4765 10.0902 17.703 10.0902C17.9294 10.0902 18.1159 10.0169 18.2624 9.87039C18.4089 9.72387 18.4822 9.52407 18.4822 9.27099C18.4822 9.01791 18.4023 8.82477 18.2424 8.69157C15.1256 5.65461 10.73 3.05721 5.05564 0.899361L2.61807 -0.0596809C2.53815 -0.086319 2.83119 0.0335617 3.49719 0.299961C4.42959 0.699562 4.88248 0.899361 4.85584 0.899361H4.65603C4.52283 0.899361 4.42959 0.926003 4.37631 0.979282C4.32303 0.926003 4.27641 0.912682 4.23645 0.939323C4.19649 0.965961 4.17651 1.01924 4.17651 1.09916L4.05663 1.17908V1.21904C4.02999 1.27232 4.00335 1.29896 3.97671 1.29896C1.97871 5.88105 0.793231 10.1768 0.420271 14.1861C0.0473102 18.1954 0.500191 21.8651 1.77891 25.1951C3.08427 28.5517 5.18884 31.4821 8.0926 33.9863C10.2771 35.8777 12.8612 37.4761 15.8448 38.7815C15.8981 38.7815 15.9581 38.7948 16.0247 38.8214C16.0913 38.8481 16.1379 38.8614 16.1645 38.8614C16.4842 38.8614 16.7506 38.7016 16.9637 38.3819C17.0703 38.1688 17.0769 37.9423 16.9837 37.7026C16.8905 37.4628 16.7506 37.2896 16.5641 37.1831Z" fill="#289C28"/>
</g>
<defs>
<clipPath id="clip0_1_1641">
<rect width="40.02" height="40" fill="white" transform="matrix(1 0 0 -1 0.410156 40.3799)"/>
</clipPath>
</defs>
</svg>
