<svg width="41" height="41" viewBox="0 0 41 41" fill="none" xmlns="http://www.w3.org/2000/svg">
<g clip-path="url(#clip0_1_1659)">
<path d="M15.715 26.8734C17.6597 26.8734 19.4579 26.3939 21.1096 25.4348C22.7613 24.4758 24.0666 23.1837 25.0257 21.5587C26.038 19.8804 26.5442 18.0555 26.5442 16.0842C26.5442 14.1128 26.0513 12.288 25.0656 10.6097C24.1332 8.98461 22.8479 7.69257 21.2095 6.73353C19.5711 5.77449 17.7796 5.29497 15.8349 5.29497C13.8902 5.29497 12.092 5.76783 10.4403 6.71355C8.78859 7.65927 7.48323 8.94465 6.52419 10.5697C5.53851 12.248 5.04566 14.0862 5.04566 16.0842C5.04566 18.0822 5.52519 19.9203 6.48423 21.5987C7.44327 23.2237 8.73531 24.5091 10.3604 25.4548C11.9854 26.4005 13.7703 26.8734 15.715 26.8734ZM15.8349 6.89337C17.4599 6.89337 18.9651 7.29963 20.3504 8.11215C21.7356 8.92467 22.8279 10.0302 23.6271 11.4288C24.4263 12.8274 24.8259 14.3459 24.8259 15.9843C24.8259 17.6226 24.4263 19.1411 23.6271 20.5397C22.8279 21.9383 21.7356 23.0439 20.3504 23.8564C18.9651 24.6689 17.4533 25.0752 15.8149 25.0752C14.1765 25.0752 12.6714 24.6689 11.2994 23.8564C9.92745 23.0439 8.84187 21.9383 8.04267 20.5397C7.24347 19.1411 6.84387 17.6293 6.84387 16.0043C6.84387 14.3792 7.24347 12.8674 8.04267 11.4688C8.84187 10.0702 9.92079 8.95797 11.2794 8.13213C12.6914 7.30629 14.2098 6.89337 15.8349 6.89337ZM15.8349 23.9963C16.1013 23.9963 16.3144 23.9163 16.4742 23.7565C16.6341 23.5967 16.714 23.3835 16.714 23.1171C16.714 22.8507 16.6274 22.631 16.4543 22.4578C16.2811 22.2846 16.0746 22.1981 15.8349 22.1981C14.716 22.1981 13.6837 21.9183 12.738 21.3589C11.7923 20.7995 11.0397 20.0402 10.4802 19.0812C9.92079 18.1221 9.64107 17.0832 9.64107 15.9643C9.64107 15.7245 9.56115 15.5181 9.40131 15.3449C9.24147 15.1718 9.01503 15.0852 8.72199 15.0852C8.13591 15.0852 7.84287 15.3782 7.84287 15.9643C7.86951 17.4561 8.24247 18.8148 8.96175 20.0402C9.68103 21.2657 10.6467 22.2314 11.8589 22.9373C13.071 23.6433 14.3963 23.9963 15.8349 23.9963ZM25.0257 8.09217L26.5442 6.49377C26.6774 6.33393 26.744 6.12747 26.744 5.87439C26.744 5.62131 26.6707 5.42151 26.5242 5.27499C26.3777 5.12847 26.1779 5.05521 25.9248 5.05521C25.6717 5.05521 25.4786 5.13513 25.3454 5.29497L23.8269 6.89337C23.667 7.02657 23.5871 7.21971 23.5871 7.47279C23.5871 7.72587 23.667 7.92567 23.8269 8.07219C23.9867 8.21871 24.1865 8.29197 24.4263 8.29197C24.666 8.29197 24.8658 8.22537 25.0257 8.09217ZM7.92279 23.9963C7.78959 23.8364 7.59645 23.7565 7.34337 23.7565C7.09029 23.7565 6.88383 23.8364 6.72399 23.9963L5.24547 25.5947C5.08563 25.7279 5.0057 25.921 5.0057 26.1741C5.0057 26.4272 5.07897 26.627 5.22549 26.7735C5.37201 26.92 5.57181 26.9933 5.82489 26.9933C6.07797 26.9933 6.28443 26.9267 6.44427 26.7935L7.92279 25.1951C8.13591 25.0352 8.24247 24.8421 8.24247 24.6156C8.24247 24.3892 8.13591 24.1827 7.92279 23.9963ZM27.9428 16.8834H30.0207C30.2871 16.8834 30.5069 16.8035 30.68 16.6436C30.8532 16.4838 30.9398 16.2573 30.9398 15.9643C30.9398 15.3782 30.6334 15.0852 30.0207 15.0852H27.9428C27.6764 15.0852 27.4566 15.1651 27.2834 15.3249C27.1103 15.4848 27.0237 15.7046 27.0237 15.9843C27.0237 16.264 27.1103 16.4838 27.2834 16.6436C27.4566 16.8035 27.6764 16.8834 27.9428 16.8834ZM3.72698 15.1651H1.64906C1.38266 15.1651 1.16288 15.245 0.989721 15.4049C0.816561 15.5647 0.72998 15.7911 0.72998 16.0842C0.72998 16.3772 0.803241 16.5837 0.949761 16.7036C1.09628 16.8234 1.32938 16.8834 1.64906 16.8834H3.72698C3.99338 16.8834 4.21316 16.8035 4.38632 16.6436C4.55948 16.4838 4.64606 16.2573 4.64606 15.9643C4.64606 15.4315 4.3397 15.1651 3.72698 15.1651ZM25.0257 23.9963C24.8658 23.8364 24.666 23.7565 24.4263 23.7565C24.1865 23.7565 23.9867 23.8298 23.8269 23.9763C23.667 24.1228 23.5871 24.3226 23.5871 24.5757C23.5871 24.8288 23.667 25.0352 23.8269 25.1951L25.3454 26.7935C25.4786 26.9267 25.6717 26.9933 25.9248 26.9933C26.1779 26.9933 26.3777 26.92 26.5242 26.7735C26.6707 26.627 26.744 26.4272 26.744 26.1741C26.744 25.921 26.6774 25.7279 26.5442 25.5947L25.0257 23.9963ZM6.64407 8.09217C6.77727 8.22537 6.97041 8.29197 7.22349 8.29197C7.47657 8.29197 7.67637 8.21871 7.82289 8.07219C7.96941 7.92567 8.04267 7.72587 8.04267 7.47279C8.04267 7.21971 7.97607 7.02657 7.84287 6.89337L6.44427 5.29497C6.28443 5.13513 6.07797 5.05521 5.82489 5.05521C5.57181 5.05521 5.37201 5.12847 5.22549 5.27499C5.07897 5.42151 5.0057 5.62131 5.0057 5.87439C5.0057 6.12747 5.08563 6.33393 5.24547 6.49377L6.64407 8.09217ZM15.0357 28.1921V30.3899C15.0357 30.6563 15.1156 30.8694 15.2754 31.0292C15.4353 31.1891 15.6484 31.269 15.9148 31.269C16.1812 31.269 16.401 31.1824 16.5741 31.0093C16.7473 30.8361 16.8339 30.6296 16.8339 30.3899V28.1921C16.8339 27.9257 16.754 27.7059 16.5941 27.5327C16.4343 27.3596 16.2078 27.273 15.9148 27.273C15.3287 27.3796 15.0357 27.6859 15.0357 28.1921ZM15.8349 4.77549C16.0746 4.77549 16.2811 4.68891 16.4543 4.51575C16.6274 4.34259 16.714 4.13613 16.714 3.89637V1.77848C16.714 1.48545 16.6341 1.26567 16.4742 1.11914C16.3144 0.972626 16.1013 0.899364 15.8349 0.899364C15.5685 0.899364 15.3487 0.972626 15.1755 1.11914C15.0024 1.26567 14.9158 1.48545 14.9158 1.77848V3.89637C14.9691 4.16277 15.0756 4.37589 15.2355 4.53573C15.3953 4.69557 15.5951 4.77549 15.8349 4.77549ZM31.2195 33.4668C30.9797 33.4668 30.7733 33.5534 30.6001 33.7265C30.427 33.8997 30.3404 34.1195 30.3404 34.3859V36.8634L22.0287 28.4718C21.8688 28.3386 21.669 28.272 21.4293 28.272C21.1895 28.272 20.9897 28.3453 20.8299 28.4918C20.67 28.6383 20.5901 28.8381 20.5901 29.0912C20.5901 29.3443 20.67 29.5374 20.8299 29.6706L29.0217 37.8624H26.744C26.4776 37.8624 26.2578 37.9423 26.0846 38.1022C25.9115 38.262 25.8249 38.4884 25.8249 38.7815C25.8249 39.0745 25.9115 39.2943 26.0846 39.4408C26.2578 39.5873 26.4776 39.6606 26.744 39.6606H31.2195C31.3527 39.6606 31.4593 39.6406 31.5392 39.6007C31.6191 39.5607 31.719 39.4874 31.8389 39.3809C31.9588 39.2743 32.0387 39.1811 32.0786 39.1012C32.1186 39.0212 32.1386 38.9147 32.1386 38.7815V34.266C32.0853 34.0262 31.9721 33.8331 31.7989 33.6866C31.6258 33.5401 31.4326 33.4668 31.2195 33.4668ZM39.9308 25.6746C39.691 25.6746 39.4779 25.7612 39.2914 25.9343C39.1049 26.1075 39.0117 26.3273 39.0117 26.5937V29.1911L30.74 20.6796C30.5801 20.5197 30.3737 20.4398 30.1206 20.4398C29.8675 20.4398 29.6677 20.5197 29.5212 20.6796C29.3747 20.8394 29.3014 21.0392 29.3014 21.279C29.3014 21.5187 29.3813 21.7185 29.5412 21.8784L37.733 30.0702H35.5352C35.2688 30.0702 35.049 30.1568 34.8758 30.3299C34.7027 30.5031 34.6161 30.7162 34.6161 30.9693C34.6161 31.2224 34.7027 31.4355 34.8758 31.6087C35.049 31.7818 35.2688 31.8684 35.5352 31.8684H40.0107C40.2771 31.8684 40.4969 31.7818 40.67 31.6087C40.8432 31.4355 40.9298 31.229 40.9298 30.9893V26.4738C40.8232 26.234 40.6834 26.0409 40.5102 25.8944C40.337 25.7479 40.1439 25.6746 39.9308 25.6746ZM18.6321 33.6666C18.3923 33.6666 18.1792 33.7532 17.9927 33.9263C17.8062 34.0995 17.713 34.3193 17.713 34.5857V37.1831L9.44127 28.7915C9.28143 28.6316 9.07497 28.5517 8.82189 28.5517C8.56881 28.5517 8.36901 28.625 8.22249 28.7715C8.07597 28.918 8.00271 29.1178 8.00271 29.3709C8.00271 29.624 8.08263 29.8304 8.24247 29.9903L16.4343 38.1821H14.2365C13.9701 38.1821 13.7503 38.2687 13.5771 38.4418C13.404 38.615 13.3174 38.8281 13.3174 39.0812C13.3174 39.3343 13.404 39.5474 13.5771 39.7205C13.7503 39.8937 13.9701 39.9803 14.2365 39.9803H18.712C18.8718 39.9803 18.9851 39.9603 19.0517 39.9203C19.1183 39.8804 19.2115 39.8005 19.3314 39.6806C19.4513 39.5607 19.5312 39.4675 19.5711 39.4009C19.6111 39.3343 19.6311 39.221 19.6311 39.0612V34.5857C19.5245 34.2926 19.3847 34.0662 19.2115 33.9064C19.0383 33.7465 18.8452 33.6666 18.6321 33.6666Z" fill="#289C28"/>
</g>
<defs>
<clipPath id="clip0_1_1659">
<rect width="40.02" height="40" fill="white" transform="matrix(1 0 0 -1 0.720215 40.3799)"/>
</clipPath>
</defs>
</svg>
