<svg width="61" height="61" viewBox="0 0 61 61" fill="none" xmlns="http://www.w3.org/2000/svg">
<g clip-path="url(#clip0_1_1715)">
<path d="M58.1126 44.0263C58.9118 44.0263 59.5911 43.7366 60.1506 43.1571C60.71 42.5777 60.9897 41.8684 60.9897 41.0293V32.1581C60.9897 31.4788 60.8599 30.7495 60.6001 29.9703C60.3404 29.1911 60.0307 28.5417 59.6711 28.0223L54.2165 20.3499C53.8169 19.7905 53.2575 19.321 52.5382 18.9413C51.8189 18.5617 51.0996 18.3719 50.3804 18.3719H41.689V15.5547C41.689 14.1961 41.1995 13.0273 40.2205 12.0482C39.2415 11.0692 38.0926 10.5797 36.774 10.5797H5.84489C4.48625 10.5797 3.3374 11.0692 2.39834 12.0482C1.45928 13.0273 0.989746 14.1961 0.989746 15.5547V39.1711C0.989746 40.5298 1.45928 41.6786 2.39834 42.6177C3.3374 43.5567 4.48625 44.0263 5.84489 44.0263H6.92381C7.08365 45.5447 7.72301 46.8634 8.84189 47.9823H1.94879C1.66907 47.9823 1.4393 48.0822 1.25948 48.282C1.07966 48.4818 0.989746 48.7216 0.989746 49.0013C0.989746 49.281 1.07966 49.5108 1.25948 49.6906C1.4393 49.8704 1.66907 49.9603 1.94879 49.9603H18.3124C18.5921 49.9603 18.8219 49.8604 19.0017 49.6606C19.1816 49.4608 19.2715 49.2311 19.2715 48.9713C19.2715 48.7116 19.1716 48.4818 18.9718 48.282C18.772 48.0822 18.5522 47.9823 18.3124 47.9823H18.2525C19.3714 46.8634 20.0307 45.5447 20.2305 44.0263H43.6671C43.8269 45.5447 44.4663 46.8634 45.5852 47.9823H43.5472C43.2675 47.9823 43.0377 48.0822 42.8579 48.282C42.6781 48.4818 42.5881 48.7216 42.5881 49.0013C42.5881 49.281 42.688 49.5108 42.8878 49.6906C43.0876 49.8704 43.3074 49.9603 43.5472 49.9603H60.0307C60.3104 49.9603 60.5402 49.8604 60.72 49.6606C60.8998 49.4608 60.9897 49.2311 60.9897 48.9713C60.9897 48.7116 60.8898 48.4818 60.69 48.282C60.4902 48.0822 60.2705 47.9823 60.0307 47.9823H55.0557C56.2145 46.8634 56.8739 45.5447 57.0337 44.0263H58.1126ZM13.5772 47.9823C12.2585 47.9823 11.1096 47.5028 10.1306 46.5437C9.15158 45.5847 8.66207 44.4359 8.66207 43.0972C8.66207 41.7585 9.14159 40.5997 10.1006 39.6207C11.0597 38.6416 12.2085 38.1521 13.5472 38.1521C14.8858 38.1521 16.0347 38.6416 16.9937 39.6207C17.9528 40.5997 18.4323 41.7585 18.4323 43.0972C18.4323 44.4359 17.9528 45.5847 16.9937 46.5437C16.0347 47.5028 14.8958 47.9823 13.5772 47.9823ZM39.711 42.1082H20.2904C20.0507 40.3899 19.3014 38.9713 18.0427 37.8524C16.784 36.7336 15.3154 36.1741 13.6371 36.1741C11.9588 36.1741 10.4902 36.7336 9.2315 37.8524C7.97276 38.9713 7.22351 40.3899 6.98375 42.1082H5.84489C5.04569 42.1082 4.36637 41.8185 3.80693 41.239C3.24749 40.6596 2.96777 39.9503 2.96777 39.1112V15.5547C2.96777 14.7555 3.24749 14.0662 3.80693 13.4868C4.36637 12.9074 5.04569 12.6177 5.84489 12.6177H36.774C37.5732 12.6177 38.2625 12.9074 38.8419 13.4868C39.4213 14.0662 39.711 14.7555 39.711 15.5547V42.1082ZM50.3204 47.9823C49.0017 47.9823 47.8529 47.5028 46.8739 46.5437C45.8948 45.5847 45.4053 44.4359 45.4053 43.0972C45.4053 41.7585 45.8848 40.5997 46.8439 39.6207C47.8029 38.6416 48.9518 38.1521 50.2904 38.1521C51.6291 38.1521 52.778 38.6416 53.737 39.6207C54.696 40.5997 55.1756 41.7585 55.1756 43.0972C55.1756 44.4359 54.696 45.5847 53.737 46.5437C52.778 47.5028 51.6391 47.9823 50.3204 47.9823ZM50.3204 36.1741C48.6421 36.1741 47.1736 36.7336 45.9148 37.8524C44.6561 38.9713 43.9068 40.3899 43.6671 42.1082H41.689V20.4099H50.3804C50.78 20.4099 51.2095 20.5397 51.6691 20.7995C52.1286 21.0592 52.4583 21.3489 52.6581 21.6686L58.1126 29.2211C58.3524 29.6207 58.5622 30.1102 58.742 30.6896C58.9218 31.269 59.0117 31.7785 59.0117 32.2181V41.1491C59.0117 41.4289 58.9218 41.6686 58.742 41.8684C58.5622 42.0682 58.3524 42.1681 58.1126 42.1681H57.0337C56.7939 40.4498 56.0447 39.0213 54.7859 37.8824C53.5272 36.7435 52.0387 36.1741 50.3204 36.1741ZM31.9188 24.3659H8.78195C8.50223 24.3659 8.27246 24.4558 8.09264 24.6357C7.91282 24.8155 7.82291 25.0452 7.82291 25.325C7.82291 25.6047 7.92281 25.8444 8.12261 26.0442C8.32241 26.244 8.54219 26.3439 8.78195 26.3439H31.9188C32.1985 26.3439 32.4283 26.244 32.6081 26.0442C32.7879 25.8444 32.8878 25.6147 32.9078 25.3549C32.9278 25.0952 32.8379 24.8654 32.6381 24.6656C32.4383 24.4658 32.1985 24.3659 31.9188 24.3659ZM31.9188 16.5138H8.78195C8.50223 16.5138 8.27246 16.6137 8.09264 16.8135C7.91282 17.0133 7.82291 17.253 7.82291 17.5328C7.82291 17.8125 7.92281 18.0323 8.12261 18.1921C8.32241 18.3519 8.54219 18.4319 8.78195 18.4319H31.9188C32.1985 18.4319 32.4283 18.3419 32.6081 18.1621C32.7879 17.9823 32.8878 17.7625 32.9078 17.5028C32.9278 17.243 32.8379 17.0133 32.6381 16.8135C32.4383 16.6137 32.1985 16.5138 31.9188 16.5138ZM31.9188 32.2181H8.78195C8.50223 32.2181 8.27246 32.318 8.09264 32.5178C7.91282 32.7176 7.82291 32.9573 7.82291 33.2371C7.82291 33.5168 7.92281 33.7665 8.12261 33.9863C8.32241 34.2061 8.54219 34.316 8.78195 34.316H31.9188C32.1985 34.316 32.4283 34.2161 32.6081 34.0163C32.7879 33.8165 32.8878 33.5767 32.9078 33.297C32.9278 33.0173 32.8379 32.7675 32.6381 32.5477C32.4383 32.328 32.1985 32.2181 31.9188 32.2181ZM39.2315 47.9823H22.748C22.4683 47.9823 22.2385 48.0822 22.0587 48.282C21.8789 48.4818 21.7889 48.7216 21.7889 49.0013C21.7889 49.281 21.8888 49.5108 22.0886 49.6906C22.2884 49.8704 22.5082 49.9603 22.748 49.9603H39.1716C39.4113 49.9603 39.6211 49.8604 39.8009 49.6606C39.9808 49.4608 40.0807 49.241 40.1006 49.0013C40.1206 48.7615 40.0407 48.5318 39.8609 48.312C39.6811 48.0922 39.4713 47.9823 39.2315 47.9823ZM51.1596 23.8265C50.9598 23.5068 50.6801 23.3469 50.3204 23.3469H44.5062C44.2265 23.3469 43.9967 23.4468 43.8169 23.6466C43.6371 23.8464 43.5472 24.0862 43.5472 24.3659V30.3C43.5472 30.5397 43.6471 30.7695 43.8469 30.9893C44.0467 31.2091 44.2665 31.319 44.5062 31.319H54.1566C54.5162 31.319 54.7959 31.1192 54.9957 30.7196C55.0757 30.5997 55.1156 30.4398 55.1156 30.24C55.1156 30.0402 55.0357 29.8604 54.8759 29.7006L51.1596 23.8265ZM45.5252 29.3409V25.3849H49.8409L52.4783 29.3409H45.5252Z" fill="white"/>
</g>
<defs>
<clipPath id="clip0_1_1715">
<rect width="60.02" height="60" fill="white" transform="matrix(1 0 0 -1 0.97998 60.27)"/>
</clipPath>
</defs>
</svg>
