<svg width="61" height="61" viewBox="0 0 61 61" fill="none" xmlns="http://www.w3.org/2000/svg">
<g clip-path="url(#clip0_1_1723)">
<path d="M34.0862 30.6596C34.0462 30.6596 34.0263 30.6596 34.0263 30.6596H34.0862C32.5278 30.6596 31.1991 31.1991 30.1002 32.278C29.0013 33.3569 28.4518 34.6956 28.4518 36.294C28.4518 37.293 28.7116 38.2121 29.2311 39.0512C29.7505 39.8904 30.4398 40.5597 31.299 41.0592C32.1581 41.5587 33.0872 41.8085 34.0862 41.8085C35.6446 41.8085 36.9733 41.269 38.0722 40.1901C39.1711 39.1112 39.7206 37.8025 39.7206 36.264C39.7206 34.7256 39.1611 33.4069 38.0422 32.308C36.9234 31.2091 35.6047 30.6596 34.0862 30.6596ZM34.0862 39.8904C33.0472 39.8904 32.1681 39.5308 31.4488 38.8115C30.7296 38.0922 30.3699 37.2231 30.3699 36.2041C30.3699 35.1851 30.7395 34.306 31.4788 33.5667C32.2181 32.8275 33.0972 32.4778 34.1162 32.5178C35.1352 32.5577 36.0043 32.9274 36.7236 33.6267C37.4428 34.326 37.8025 35.2151 37.8025 36.294C37.8025 37.253 37.4329 38.0922 36.6936 38.8115C35.9543 39.5308 35.0852 39.8904 34.0862 39.8904ZM45.7745 36.3539C46.254 35.7545 46.4538 35.0752 46.3739 34.316C46.294 33.5567 45.9343 32.9374 45.295 32.4578L44.4558 31.7985C44.2161 31.6387 44.0962 31.3589 44.0962 30.9593L44.1561 30.0003C44.276 29.241 44.0562 28.5417 43.4968 27.9024C43.0572 27.3829 42.3979 27.0632 41.5188 26.9433L40.5597 26.8235C40.24 26.8235 39.9803 26.6636 39.7805 26.3439L39.301 25.5048C38.9413 24.8255 38.3819 24.3759 37.6227 24.1561C36.8634 23.9364 36.1641 24.0063 35.5248 24.3659H35.4049L34.4458 25.0253C34.1262 25.2251 33.8065 25.2251 33.4868 25.0253L32.6476 24.5457C31.9683 24.1861 31.259 24.1062 30.5198 24.306C29.7805 24.5058 29.2111 24.9453 28.8115 25.6247V25.6846L28.3919 26.5837C28.1521 26.8634 27.8924 27.0033 27.6127 27.0033H26.6536C25.8944 27.0832 25.245 27.4129 24.7056 27.9923C24.1661 28.5717 23.9164 29.241 23.9563 30.0003L24.0762 31.0193C24.0762 31.4189 23.9563 31.7186 23.7166 31.9184L22.9373 32.4578C22.3379 32.8974 21.9683 33.5068 21.8285 34.286C21.6886 35.0652 21.8384 35.7545 22.278 36.3539L22.9373 37.253C23.1771 37.5727 23.2171 37.8524 23.0572 38.0922L22.6376 38.9314C22.3579 39.6506 22.3779 40.3599 22.6976 41.0592C23.0173 41.7585 23.5367 42.248 24.256 42.5278H24.3759L25.335 42.8275C25.4548 42.8674 25.5747 42.9573 25.6946 43.0972C25.8145 43.2371 25.8744 43.3669 25.8744 43.4868L25.9943 44.0862L23.7166 51.3989C23.5967 51.6387 23.6067 51.8784 23.7465 52.1182C23.8864 52.3579 24.0962 52.4978 24.3759 52.5378C24.5757 52.6576 24.7555 52.6576 24.9154 52.5378L28.0922 51.5787L30.0103 54.1561C30.1701 54.4359 30.4099 54.5757 30.7296 54.5757H30.9094C31.309 54.4558 31.5687 54.2361 31.6886 53.9164L33.4868 48.1022C33.8864 48.1821 34.266 48.1821 34.6257 48.1022L36.5437 53.9164C36.6237 54.2361 36.8834 54.4558 37.323 54.5757H37.5028C37.8624 54.5757 38.1222 54.4359 38.282 54.1561L40.2001 51.5787L43.317 52.5378C43.5567 52.6576 43.7965 52.6576 44.0362 52.5378C44.276 52.4179 44.4458 52.248 44.5457 52.0283C44.6456 51.8085 44.6556 51.5987 44.5757 51.3989L42.298 44.3859L42.4778 43.4868C42.5977 43.1272 42.7775 42.9074 43.0173 42.8275L43.9763 42.5278C44.6956 42.288 45.2351 41.8185 45.5947 41.1192C45.9543 40.4199 45.9943 39.7306 45.7146 39.0512V38.9314L45.295 38.0922C45.1751 37.6926 45.2151 37.4129 45.4149 37.253L45.7745 36.3539ZM30.3699 51.6986L29.1112 50.0802C28.7915 49.7206 28.4518 49.6007 28.0922 49.7206L26.0542 50.3799L27.313 46.3639C28.0722 46.8035 28.8115 46.9234 29.5308 46.7236L30.4299 46.5437C30.5897 46.5038 30.7495 46.5138 30.9094 46.5737C31.0692 46.6337 31.2091 46.7236 31.329 46.8434L31.8085 47.323L30.3699 51.6986ZM39.9603 49.7206C39.7605 49.6406 39.5607 49.6307 39.3609 49.6906C39.1611 49.7505 39.0213 49.8804 38.9413 50.0802L37.6826 51.6986L36.1841 47.2031L36.7236 46.6636C36.9234 46.4638 37.2231 46.3639 37.6227 46.3639L38.5817 46.5437C39.261 46.7435 39.9403 46.6436 40.6197 46.244L41.9983 50.26L39.9603 49.7206ZM44.276 35.1551L43.6766 35.8744C43.3969 36.274 43.2171 36.7136 43.1371 37.1931C43.0572 37.6726 43.1172 38.1322 43.317 38.5717L43.6766 39.4109C43.7965 39.6506 43.8065 39.8804 43.7066 40.1002C43.6067 40.32 43.4368 40.4698 43.1971 40.5497L42.298 40.8494C41.8185 40.9693 41.4189 41.2291 41.0992 41.6287C40.7795 42.0283 40.5597 42.4678 40.4398 42.9473L40.26 43.9064C40.2201 44.1461 40.0902 44.3459 39.8704 44.5058C39.6506 44.6656 39.4408 44.7056 39.241 44.6257L38.282 44.4458C37.8025 44.3659 37.323 44.3959 36.8434 44.5358C36.3639 44.6756 35.9443 44.9054 35.5847 45.2251L34.9254 45.8844C34.7256 46.0842 34.5058 46.1841 34.266 46.1841C34.0263 46.1841 33.8065 46.0842 33.6067 45.8844L32.9473 45.2251C32.3479 44.6656 31.6686 44.3859 30.9094 44.3859C30.5897 44.3859 30.3699 44.4059 30.25 44.4458L29.291 44.6257C29.0512 44.7056 28.8315 44.6756 28.6317 44.5358C28.4319 44.3959 28.272 44.2061 28.1521 43.9663L27.9723 43.0073C27.8924 42.5677 27.6826 42.1581 27.3429 41.7785C27.0033 41.3989 26.6137 41.1092 26.1741 40.9094L25.2151 40.6696C24.9753 40.5497 24.7955 40.3799 24.6756 40.1601C24.5557 39.9403 24.5357 39.7306 24.6157 39.5308L25.0353 38.6317C25.3949 37.7126 25.255 36.7935 24.6157 35.8744L24.0762 35.0952C23.9164 34.9354 23.8564 34.7256 23.8964 34.4658C23.9363 34.2061 24.0562 34.0163 24.256 33.8964L25.0353 33.297C25.4349 33.0173 25.7346 32.6576 25.9344 32.2181C26.1342 31.7785 26.2141 31.319 26.1741 30.8395L26.0542 29.8804C26.0143 29.6406 26.0842 29.4209 26.264 29.2211C26.4438 29.0213 26.6736 28.9214 26.9533 28.9214L27.9723 28.8614C28.4518 28.7815 28.9114 28.6117 29.3509 28.3519C29.7905 28.0922 30.1302 27.7425 30.3699 27.303L30.8494 26.4638C30.9294 26.2241 31.0892 26.0742 31.329 26.0143C31.5687 25.9543 31.8085 25.9843 32.0482 26.1042L32.9473 26.5238C33.3469 26.7635 33.7965 26.8834 34.296 26.8834C34.7955 26.8834 35.265 26.7635 35.7046 26.5238L36.5437 26.1042C36.7835 25.9443 37.0233 25.9044 37.263 25.9843C37.5028 26.0642 37.6826 26.2241 37.8025 26.4638L38.282 27.303C38.5218 27.7425 38.8414 28.0922 39.241 28.3519C39.6406 28.6117 40.1002 28.7815 40.6197 28.8614L41.5787 28.9214C41.8185 28.9214 42.0283 29.0213 42.2081 29.2211C42.3879 29.4209 42.4778 29.6406 42.4778 29.8804L42.3579 30.8395C42.318 31.319 42.3979 31.7785 42.5977 32.2181C42.7975 32.6576 43.0972 33.0173 43.4968 33.297L44.276 33.8964C44.3559 34.0562 44.4059 34.256 44.4259 34.4958C44.4458 34.7356 44.3959 34.9354 44.276 35.0952V35.1551ZM13.7066 17.5927C13.5068 17.3929 13.277 17.293 13.0173 17.293C12.7575 17.293 12.5477 17.3929 12.3879 17.5927L9.63066 20.3499L7.95234 18.8514C7.79249 18.6516 7.58271 18.5517 7.32296 18.5517C7.06322 18.5517 6.83345 18.6516 6.63365 18.8514C6.43385 19.0512 6.33395 19.271 6.33395 19.5108C6.33395 19.7505 6.43385 19.9703 6.63365 20.1701L8.91138 22.3879C9.11118 22.5477 9.34095 22.6277 9.60069 22.6277C9.86043 22.6277 10.0902 22.5477 10.29 22.3879L13.7066 18.9114C13.9064 18.7515 14.0063 18.5417 14.0063 18.282C14.0063 18.0223 13.9064 17.7925 13.7066 17.5927ZM29.2311 19.9903C29.2311 19.7505 29.1411 19.5308 28.9613 19.331C28.7815 19.1312 28.5517 19.0313 28.272 19.0313H16.8235C16.5437 19.0313 16.314 19.1212 16.1342 19.301C15.9543 19.4808 15.8644 19.7006 15.8644 19.9603C15.8644 20.2201 15.9543 20.4498 16.1342 20.6496C16.314 20.8494 16.5437 20.9493 16.8235 20.9493H28.272C28.5118 20.9493 28.7316 20.8494 28.9314 20.6496C29.1312 20.4498 29.2311 20.2301 29.2311 19.9903ZM22.0982 29.341C22.0982 29.0612 22.0083 28.8315 21.8285 28.6516C21.6486 28.4718 21.4189 28.3819 21.1391 28.3819H16.8235C16.5437 28.3819 16.314 28.4618 16.1342 28.6217C15.9543 28.7815 15.8644 29.0013 15.8644 29.281C15.8644 29.5607 15.9543 29.7905 16.1342 29.9703C16.314 30.1501 16.5437 30.24 16.8235 30.24H21.1391C21.3789 30.24 21.5987 30.1501 21.7985 29.9703C21.9983 29.7905 22.0982 29.5807 22.0982 29.341ZM16.8235 37.7925C16.5437 37.7925 16.314 37.8824 16.1342 38.0622C15.9543 38.242 15.8644 38.4618 15.8644 38.7216C15.8644 38.9813 15.9543 39.2111 16.1342 39.4109C16.314 39.6107 16.5437 39.7106 16.8235 39.7106H19.7006C19.9803 39.7106 20.2101 39.6207 20.3899 39.4408C20.5697 39.261 20.6596 39.0412 20.6596 38.7815C20.6596 38.5218 20.5697 38.292 20.3899 38.0922C20.2101 37.8924 19.9803 37.7925 19.7006 37.7925H16.8235ZM13.7066 27.0033C13.5068 26.8434 13.277 26.7635 13.0173 26.7635C12.7575 26.7635 12.5477 26.8434 12.3879 27.0033L9.63066 29.8205L7.95234 28.262C7.79249 28.0622 7.58271 27.9623 7.32296 27.9623C7.06322 27.9623 6.83345 28.0622 6.63365 28.262C6.43385 28.4618 6.33395 28.6916 6.33395 28.9513C6.33395 29.2111 6.43385 29.4209 6.63365 29.5807L8.91138 31.6786C9.11118 31.8784 9.34095 31.9783 9.60069 31.9783C9.86043 31.9783 10.0902 31.8784 10.29 31.6786L13.7066 28.262C13.9064 28.0622 14.0063 27.8424 14.0063 27.6027C14.0063 27.3629 13.9064 27.1631 13.7066 27.0033ZM12.3879 36.3539L9.63066 39.1112L7.95234 37.6127C7.79249 37.4129 7.58271 37.313 7.32296 37.313C7.06322 37.313 6.83345 37.4129 6.63365 37.6127C6.43385 37.8125 6.33395 38.0323 6.33395 38.272C6.33395 38.5118 6.43385 38.7316 6.63365 38.9314L8.91138 41.1491C9.11118 41.309 9.34095 41.3889 9.60069 41.3889C9.86043 41.3889 10.0902 41.309 10.29 41.1491L13.7066 37.6726C13.8265 37.5128 13.8664 37.293 13.8265 37.0133C13.7865 36.7336 13.6766 36.5238 13.4968 36.3839C13.317 36.244 13.1272 36.1741 12.9274 36.1741C12.7276 36.1741 12.5477 36.2341 12.3879 36.3539ZM33.9663 54.7555C33.6866 54.7555 33.4568 54.8454 33.277 55.0253C33.0972 55.2051 33.0073 55.4349 33.0073 55.7146C33.0073 56.4738 32.7276 57.1132 32.1681 57.6327C31.6087 58.1521 30.9493 58.3919 30.1901 58.3519H5.43485C4.63565 58.3519 3.95633 58.1022 3.39689 57.6027C2.83745 57.1032 2.55773 56.4738 2.55773 55.7146V4.82547C2.55773 4.06622 2.84744 3.42686 3.42686 2.90738C4.00628 2.3879 4.67561 2.14814 5.43485 2.1881H10.1701V3.20708C10.1701 3.96632 10.3999 4.60569 10.8594 5.12516C11.319 5.64465 11.8884 5.90438 12.5677 5.90438H23.0572C23.6966 5.90438 24.246 5.63465 24.7056 5.0952C25.1651 4.55574 25.3949 3.92636 25.3949 3.20708V2.1881H30.1901C30.9493 2.1881 31.6087 2.43785 32.1681 2.93736C32.7276 3.43686 33.0073 4.06622 33.0073 4.82547V22.268C33.0073 22.5078 33.0972 22.7276 33.277 22.9274C33.4568 23.1272 33.6866 23.2271 33.9663 23.2271C34.246 23.2271 34.4758 23.1372 34.6556 22.9573C34.8354 22.7775 34.9254 22.5477 34.9254 22.268V4.82547C34.9254 3.54675 34.4558 2.46782 33.5168 1.5887C32.5777 0.709579 31.4688 0.27002 30.1901 0.27002H5.43485C4.11617 0.27002 2.9873 0.709579 2.04824 1.5887C1.10918 2.46782 0.639648 3.54675 0.639648 4.82547V55.7146C0.639648 56.9933 1.10918 58.0722 2.04824 58.9513C2.9873 59.8305 4.11617 60.27 5.43485 60.27H30.1901C31.4688 60.27 32.5777 59.8305 33.5168 58.9513C34.4558 58.0722 34.9254 56.9933 34.9254 55.7146C34.9254 55.4748 34.8255 55.255 34.6257 55.0552C34.4259 54.8554 34.2061 54.7555 33.9663 54.7555ZM12.0882 2.1881H23.5367V3.20708C23.4968 3.44684 23.4269 3.63665 23.327 3.77652C23.2271 3.91637 23.1371 3.98631 23.0572 3.98631H12.5677C12.4478 3.98631 12.3379 3.91637 12.238 3.77652C12.1381 3.63665 12.0882 3.44684 12.0882 3.20708V2.1881Z" fill="white"/>
</g>
<defs>
<clipPath id="clip0_1_1723">
<rect width="60.02" height="60" fill="white" transform="matrix(1 0 0 -1 0.629883 60.27)"/>
</clipPath>
</defs>
</svg>
