<svg width="41" height="41" viewBox="0 0 41 41" fill="none" xmlns="http://www.w3.org/2000/svg">
<g clip-path="url(#clip0_1_1671)">
<path d="M5.64507 16.3639H3.44726C3.23414 16.3639 3.03434 16.4705 2.84786 16.6836C2.71466 16.8168 2.64806 17.0166 2.64806 17.283C2.72798 19.7872 3.2741 22.1848 4.28642 24.4758C5.27211 26.6603 6.61743 28.5917 8.32239 30.27C10.0274 31.9483 11.9588 33.2537 14.1166 34.1861V36.264C14.1166 37.2763 14.4696 38.1288 15.1755 38.8215C15.8815 39.5141 16.7273 39.8604 17.713 39.8604H25.745C26.7306 39.8604 27.5765 39.5141 28.2824 38.8215C28.9884 38.1288 29.3414 37.2763 29.3414 36.264V34.1861C31.4992 33.227 33.4106 31.9017 35.0756 30.2101C36.7406 28.5184 38.066 26.567 39.0517 24.3559C40.0373 22.0915 40.5968 19.6939 40.73 17.1631C40.73 16.9233 40.6567 16.7302 40.5102 16.5837C40.3637 16.4372 40.1705 16.3639 39.9308 16.3639H35.735L40.0107 11.289C40.5701 10.623 40.8299 9.8704 40.7899 9.03124C40.75 8.19208 40.4303 7.48612 39.8309 6.91336C39.2315 6.3406 38.4989 6.08086 37.6331 6.13414C36.7673 6.18742 36.068 6.53374 35.5352 7.1731L27.6231 16.284H26.0247C25.9181 14.952 25.9314 13.5534 26.0646 12.0882C26.2245 9.95698 26.6241 8.11882 27.2634 6.5737C28.0893 4.60234 29.2748 3.24369 30.8199 2.49777C31.1929 2.25801 31.3261 1.95165 31.2195 1.57869C31.1662 1.36557 31.073 1.19907 30.9398 1.07919C30.8066 0.959312 30.6334 0.899372 30.4203 0.899372V0.859413C29.5412 0.832771 28.5954 0.912693 27.5831 1.09917C25.5851 1.44549 23.8668 2.16477 22.4283 3.25702C20.4836 4.72222 19.2182 6.80014 18.6321 9.49078C16.3943 7.8391 14.1299 6.8401 11.8389 6.49378C11.5725 6.49378 11.3327 6.58702 11.1196 6.7735C10.9864 6.9067 10.9198 7.1731 10.9198 7.5727L11.1196 8.7715C10.054 7.89238 8.85519 7.0399 7.52319 6.21406C5.76495 5.12181 3.90014 4.14946 1.92878 3.29697C1.6091 3.19041 1.3427 3.19041 1.12958 3.29697C0.863181 3.56337 0.72998 3.78981 0.72998 3.9763C0.72998 4.66894 0.796581 5.45481 0.929781 6.33394C1.1429 8.09218 1.55582 9.71722 2.16854 11.2091C3.02102 13.287 4.17986 15.0053 5.64507 16.3639ZM36.6141 8.3719C36.8539 8.07886 37.1669 7.91902 37.5532 7.89238C37.9394 7.86574 38.2724 7.9723 38.5522 8.21206C38.8319 8.45182 38.9917 8.75818 39.0317 9.13114C39.0716 9.5041 38.9717 9.82378 38.732 10.0902L33.4173 16.1641H29.741L36.6141 8.3719ZM27.5432 36.3839C27.5432 36.9433 27.3633 37.3962 27.0037 37.7425C26.6441 38.0889 26.1845 38.262 25.6251 38.262H17.6331C17.0736 38.262 16.6141 38.0889 16.2545 37.7425C15.8948 37.3962 15.715 36.9433 15.715 36.3839V34.8654C17.5265 35.4781 19.4979 35.7845 21.6291 35.7845C23.7603 35.7845 25.7316 35.4781 27.5432 34.8654V36.3839ZM21.6291 34.0662C18.6454 34.0662 15.8482 33.3469 13.2375 31.9084C10.7333 30.5231 8.69535 28.6183 7.12359 26.1941C5.49855 23.7166 4.56614 20.9726 4.32638 17.9623H39.0117C38.7719 20.9726 37.8262 23.7166 36.1745 26.1941C34.5761 28.6183 32.5249 30.5231 30.0207 31.9084C27.41 33.3469 24.6128 34.0662 21.6291 34.0662ZM27.6231 2.77749C26.2112 4.32262 25.2388 6.4405 24.706 9.13114C24.3064 10.9959 24.1466 13.0472 24.2265 15.285C22.8146 13.4468 21.4426 11.9417 20.1106 10.7695C20.4836 8.21206 21.4959 6.22738 23.1476 4.81546C24.3464 3.7765 25.8382 3.09718 27.6231 2.77749ZM11.9188 11.7685C12.1053 12.0083 12.3251 12.1148 12.5781 12.0882C12.8312 12.0615 13.0377 11.9417 13.1975 11.7285C13.3574 11.5154 13.3973 11.2623 13.3174 10.9693L12.718 8.49178C14.7959 9.02458 16.8206 10.1301 18.7919 11.8085C20.2571 13.0605 21.6424 14.5524 22.9478 16.284H8.32239C6.37767 15.0585 4.8725 13.2071 3.8069 10.7295C3.11426 9.1045 2.66138 7.31962 2.44826 5.3749C5.11227 6.62698 7.48323 8.06554 9.56115 9.69058C10.6268 10.5164 11.4126 11.2091 11.9188 11.7685Z" fill="#289C28"/>
</g>
<defs>
<clipPath id="clip0_1_1671">
<rect width="40.02" height="40" fill="white" transform="matrix(1 0 0 -1 0.720215 40.3799)"/>
</clipPath>
</defs>
</svg>
