<svg width="41" height="41" viewBox="0 0 41 41" fill="none" xmlns="http://www.w3.org/2000/svg">
<g clip-path="url(#clip0_1_1649)">
<path d="M34.306 15.1651C35.2917 15.2983 36.2308 15.1718 37.1232 14.7855C38.0157 14.3992 38.7549 13.8264 39.341 13.0672C39.9271 12.308 40.2867 11.4488 40.4199 10.4898C40.5531 9.53074 40.4332 8.605 40.0603 7.71256C39.6873 6.82012 39.1146 6.0742 38.342 5.4748C37.5694 4.8754 36.697 4.50909 35.7246 4.3759C34.7523 4.24269 33.8199 4.36924 32.9274 4.75552C32.035 5.1418 31.2957 5.72122 30.7096 6.49378C30.1236 7.26634 29.7639 8.13214 29.6307 9.09118C29.4709 10.2101 29.6374 11.2623 30.1302 12.248C30.6231 13.2337 31.349 14.0063 32.308 14.5657L31.309 18.4818C30.6164 18.2687 29.8971 18.1621 29.1512 18.1621C28.4053 18.1621 27.4329 18.2953 26.2341 18.5617L21.4389 10.5697L21.7186 10.29C21.9584 10.0769 22.1315 9.9037 22.2381 9.7705C22.691 9.21106 23.024 8.59168 23.2371 7.91236C23.4502 7.23304 23.5168 6.56038 23.4369 5.89438C23.357 4.93534 23.0706 4.07619 22.5778 3.31696C22.0849 2.55771 21.4456 1.96497 20.6597 1.53873C19.8738 1.11249 19.028 0.899372 18.1222 0.899372C16.9234 0.899372 15.8578 1.23237 14.9254 1.89837C14.0729 2.56437 13.4536 3.41685 13.0673 4.45581C12.681 5.49478 12.6077 6.53374 12.8475 7.5727C13.1139 8.71822 13.7 9.69058 14.6057 10.4898C15.325 11.1025 16.1575 11.5088 17.1032 11.7086C18.049 11.9084 18.9481 11.8351 19.8005 11.4888L24.5158 19.4808C22.9174 20.3866 21.7186 21.4255 20.9194 22.5977L12.5278 17.7625C13.0873 16.5637 13.2205 15.4315 12.9274 14.3659C12.7942 13.5667 12.4745 12.8274 11.9684 12.1481C11.4622 11.4688 10.8362 10.936 10.0903 10.5497C9.34433 10.1634 8.54513 9.9703 7.69265 9.9703C6.84017 9.9703 6.01433 10.1768 5.21513 10.5897C4.41593 11.0026 3.74993 11.5953 3.21712 12.3679C2.4712 13.5667 2.2048 14.8587 2.41792 16.244C2.63104 17.5227 3.21712 18.6017 4.17617 19.4808C5.18849 20.4132 6.37397 20.8794 7.73261 20.8794C8.45189 20.8794 9.15785 20.7262 9.85049 20.4199C10.5431 20.1135 11.1292 19.6673 11.6087 19.0812L20.1202 23.9963C19.4542 25.2217 19.1212 26.6869 19.1212 28.3919C19.1212 29.4841 19.321 30.5764 19.7206 31.6686L11.0093 33.6666C10.7696 32.4145 10.1569 31.3689 9.17117 30.5297C8.18549 29.6906 7.06661 29.271 5.81453 29.271C4.82885 29.271 3.92309 29.5174 3.09724 30.0103C2.2714 30.5031 1.61872 31.1691 1.1392 32.0083C0.659682 32.8474 0.419922 33.7732 0.419922 34.7855C0.419922 35.6646 0.659682 36.4971 1.1392 37.283C1.61872 38.0689 2.2714 38.6949 3.09724 39.1611C3.92309 39.6273 4.82885 39.8604 5.81453 39.8604C6.69365 39.8604 7.52615 39.654 8.31203 39.241C9.09791 38.8281 9.73727 38.2554 10.2301 37.5228C10.723 36.7901 11.0227 35.971 11.1292 35.0652L20.32 32.9873C21.1725 34.559 22.378 35.8178 23.9364 36.7635C25.4948 37.7092 27.1865 38.1821 29.0113 38.1821C30.8362 38.1821 32.5012 37.7359 34.0063 36.8434C35.5115 35.951 36.7036 34.7455 37.5828 33.227C38.4619 31.7086 38.9014 30.0302 38.9014 28.1921C38.9014 26.1408 38.342 24.2827 37.2231 22.6177C36.1042 20.9527 34.639 19.7339 32.8275 18.9613L33.7066 15.0852C33.9198 15.1385 34.1196 15.1651 34.306 15.1651ZM15.7246 9.09118C15.0853 8.53174 14.6723 7.86574 14.4859 7.09318C14.326 6.34726 14.3793 5.62132 14.6457 4.91536C14.9121 4.2094 15.3517 3.62997 15.9644 3.17709C16.5771 2.72421 17.2964 2.49777 18.1222 2.49777C19.0813 2.49777 19.9271 2.81746 20.6597 3.45681C21.3923 4.09618 21.7852 4.9087 21.8385 5.89438C21.8918 6.80014 21.5788 7.6393 20.8994 8.41186C20.2201 9.18442 19.4009 9.65062 18.4419 9.81046C17.4296 9.99694 16.5238 9.75718 15.7246 9.09118ZM7.73261 18.9613C6.80021 18.9613 5.99435 18.6483 5.31503 18.0222C4.63571 17.3962 4.22279 16.6236 4.07627 15.7046C3.92975 14.7855 4.10957 13.9397 4.61573 13.1671C4.96205 12.6343 5.41493 12.2214 5.97437 11.9283C6.53381 11.6353 7.11989 11.4888 7.73261 11.4888C8.55845 11.4888 9.31769 11.7685 10.0103 12.3279C10.703 12.8874 11.1692 13.6067 11.4089 14.4858C11.5688 15.2317 11.5022 15.951 11.2091 16.6436C10.9161 17.3363 10.4566 17.8957 9.83051 18.322C9.20447 18.7482 8.50517 18.9613 7.73261 18.9613ZM5.81453 38.262C4.77557 38.262 3.90311 37.8824 3.19714 37.1231C2.49118 36.3639 2.1382 35.4581 2.1382 34.4059C2.1382 33.3536 2.49784 32.4678 3.21712 31.7485C3.93641 31.0292 4.80887 30.6696 5.83451 30.6696C6.86015 30.6696 7.73261 31.0426 8.45189 31.7885C9.17117 32.5344 9.53081 33.4268 9.53081 34.4658C9.55745 35.1584 9.41093 35.7978 9.09125 36.3839C8.77157 36.97 8.31869 37.4295 7.73261 37.7625C7.14653 38.0955 6.50717 38.262 5.81453 38.262ZM37.4229 28.1921C37.4229 29.6573 37.05 31.0292 36.304 32.308C35.5581 33.5867 34.5591 34.599 33.307 35.3449C32.055 36.0908 30.6897 36.4638 29.2111 36.4638C27.7326 36.4638 26.3673 36.0908 25.1152 35.3449C23.8631 34.599 22.8708 33.5867 22.1382 32.308C21.4056 31.0292 21.0393 29.6573 21.0393 28.1921C20.9594 26.5138 21.3323 25.0086 22.1582 23.6766C22.9041 22.4778 23.9297 21.5321 25.2351 20.8394C26.4872 20.2001 27.7792 19.8804 29.1112 19.8804C30.6297 19.8804 32.0217 20.2534 33.2871 20.9993C34.5525 21.7452 35.5581 22.7509 36.304 24.0163C37.05 25.2817 37.4229 26.6736 37.4229 28.1921ZM31.309 9.29098C31.4156 8.38522 31.8219 7.62598 32.5278 7.01326C33.2338 6.40054 34.0663 6.09418 35.0253 6.09418H35.5048C36.1708 6.1741 36.7702 6.42052 37.303 6.83344C37.8358 7.24636 38.2288 7.75918 38.4819 8.3719C38.7349 8.98462 38.8215 9.61732 38.7416 10.27C38.6617 10.9227 38.4153 11.5154 38.0023 12.0482C37.5894 12.581 37.0699 12.9806 36.4439 13.247C35.8179 13.5134 35.1718 13.5933 34.5058 13.4868C33.4669 13.3269 32.641 12.8474 32.0283 12.0482C31.4156 11.249 31.1758 10.3299 31.309 9.29098ZM5.81453 35.7845C5.46821 35.7845 5.18183 35.6579 4.95539 35.4049C4.72895 35.1518 4.61573 34.8388 4.61573 34.4658C4.61573 34.226 4.54247 34.0329 4.39595 33.8864C4.24943 33.7399 4.05629 33.6666 3.81653 33.6666C3.57677 33.6666 3.38363 33.7399 3.2371 33.8864C3.09058 34.0329 3.01732 34.226 3.01732 34.4658C2.96404 35.265 3.22378 35.951 3.79655 36.5237C4.36931 37.0965 5.08193 37.3829 5.93441 37.3829C6.17417 37.3829 6.36731 37.3096 6.51383 37.1631C6.66035 37.0166 6.73361 36.8234 6.73361 36.5837C6.62705 36.0509 6.32069 35.7845 5.81453 35.7845ZM17.1232 5.3749C17.2564 5.2417 17.3097 5.04856 17.2831 4.79548C17.2564 4.5424 17.1698 4.33593 17.0233 4.17609C16.8768 4.01625 16.677 3.943 16.4239 3.95631C16.1708 3.96964 15.9644 4.08286 15.8045 4.29597C15.2717 4.93534 15.0386 5.65462 15.1052 6.45382C15.1718 7.25302 15.5115 7.93234 16.1242 8.49178C16.3107 8.67826 16.5238 8.75818 16.7636 8.73154C17.0033 8.7049 17.2165 8.58502 17.4029 8.3719C17.5628 8.2387 17.6294 8.04556 17.6027 7.79248C17.5761 7.5394 17.4829 7.33294 17.323 7.1731C17.0833 6.98662 16.9367 6.7069 16.8835 6.33394C16.8302 5.96098 16.9101 5.6413 17.1232 5.3749ZM35.1052 8.49178C35.3716 8.54506 35.5914 8.48512 35.7646 8.31196C35.9377 8.1388 36.0243 7.93234 36.0243 7.69258C36.0776 7.5061 36.051 7.32628 35.9444 7.15312C35.8378 6.97996 35.6647 6.89338 35.4249 6.89338C35.052 6.8401 34.6657 6.86674 34.2661 6.9733C33.8665 7.07986 33.5135 7.24636 33.2071 7.4728C32.9008 7.69924 32.641 7.99894 32.4279 8.3719C32.2681 8.66494 32.1349 9.0379 32.0283 9.49078C31.975 9.67726 32.015 9.85708 32.1482 10.0302C32.2814 10.2034 32.4679 10.3166 32.7076 10.3699H32.8275C33.014 10.3699 33.1805 10.3033 33.327 10.1701C33.4735 10.0369 33.5734 9.8371 33.6267 9.5707L33.6667 9.49078C33.7999 9.06454 33.9464 8.82478 34.1062 8.7715C34.2661 8.6383 34.4392 8.54506 34.6257 8.49178C34.8122 8.4385 34.972 8.4385 35.1052 8.49178ZM9.61073 14.0862C9.42425 14.1395 9.26441 14.2593 9.13121 14.4458C8.99801 14.6323 8.93141 14.8454 8.93141 15.0852C9.01133 15.4315 8.95139 15.7379 8.75159 16.0043C8.55179 16.2707 8.27873 16.4571 7.93241 16.5637C7.71929 16.617 7.54613 16.7369 7.41293 16.9233C7.27973 17.1098 7.21313 17.3229 7.21313 17.5627C7.26641 17.7758 7.36631 17.949 7.51283 18.0822C7.65935 18.2154 7.82585 18.282 8.01233 18.282C8.43857 18.282 8.87147 18.1155 9.31103 17.7825C9.75059 17.4495 10.0836 17.0099 10.31 16.4638C10.5365 15.9177 10.6097 15.3516 10.5298 14.7655C10.5831 14.4991 10.5165 14.306 10.33 14.1861C10.1435 14.0662 9.90377 14.0329 9.61073 14.0862ZM23.5168 28.1921C23.5168 27.9257 23.4436 27.7259 23.297 27.5927C23.1505 27.4595 22.9574 27.3929 22.7176 27.3929C22.4779 27.3929 22.2847 27.4595 22.1382 27.5927C21.9917 27.7259 21.9184 27.9257 21.9184 28.1921C21.9184 29.4974 22.2381 30.7096 22.8775 31.8284C23.5168 32.9473 24.3893 33.8331 25.4948 34.4858C26.6004 35.1385 27.8059 35.4648 29.1112 35.4648C29.3776 35.4648 29.5774 35.3982 29.7106 35.265C29.8438 35.1318 29.9104 34.9387 29.9104 34.6856C29.9104 34.4325 29.8438 34.2327 29.7106 34.0862C29.5774 33.9397 29.3776 33.8664 29.1112 33.8664C28.0989 33.8398 27.1665 33.5667 26.314 33.0472C25.4615 32.5277 24.7822 31.8418 24.2761 30.9893C23.7699 30.1368 23.5168 29.2044 23.5168 28.1921Z" fill="#289C28"/>
</g>
<defs>
<clipPath id="clip0_1_1649">
<rect width="40.02" height="40" fill="white" transform="matrix(1 0 0 -1 0.410156 40.3799)"/>
</clipPath>
</defs>
</svg>
