<svg width="61" height="61" viewBox="0 0 61 61" fill="none" xmlns="http://www.w3.org/2000/svg">
<g clip-path="url(#clip0_1_1707)">
<path d="M40.2497 20.8294L33.956 19.8704L31.1987 14.1161C31.0389 13.9163 30.8391 13.7665 30.5993 13.6666C30.3596 13.5667 30.1198 13.5667 29.88 13.6666C29.6403 13.7665 29.4804 13.9163 29.4005 14.1161L26.5833 19.8704L20.2896 20.8294C20.0099 20.8694 19.8001 20.9893 19.6603 21.1891C19.5204 21.3889 19.4704 21.6186 19.5104 21.8784C19.5504 22.1381 19.6503 22.3079 19.8101 22.3879L24.3056 26.8234L23.2866 33.0572C23.2467 33.257 23.2667 33.4468 23.3466 33.6266C23.4265 33.8064 23.5264 33.9363 23.6463 34.0162C24.0059 34.256 24.3656 34.296 24.7252 34.1361L30.3596 31.1391L35.934 34.0162C36.0139 34.0962 36.1737 34.1361 36.4135 34.1361C36.6533 34.1361 36.8431 34.0962 36.9829 34.0162C37.1228 33.9363 37.2327 33.8064 37.3126 33.6266C37.3925 33.4468 37.4125 33.257 37.3725 33.0572L36.2337 27.0032L40.7292 22.5077C40.929 22.3079 41.0289 22.0682 41.0289 21.7885C41.0289 21.5087 40.929 21.269 40.7292 21.0692C40.6493 20.9093 40.4894 20.8294 40.2497 20.8294ZM34.5554 25.8644C34.4355 25.9843 34.3456 26.1241 34.2856 26.284C34.2257 26.4438 34.2157 26.5837 34.2557 26.7035L35.0948 31.4988L30.7791 29.221C30.4994 29.0212 30.1997 29.0212 29.88 29.221L25.5644 31.4988L26.4035 26.7035C26.4435 26.5837 26.4335 26.4438 26.3735 26.284C26.3136 26.1241 26.2237 25.9843 26.1038 25.8644L22.5674 22.5077L27.3026 21.8484C27.5823 21.8484 27.8421 21.6486 28.0818 21.249L30.2397 16.8734L32.3975 21.249C32.5973 21.5687 32.8371 21.7685 33.1168 21.8484L37.912 22.5077L34.5554 25.8644ZM30.3596 7.22303C27.1628 7.22303 24.1857 8.02223 21.4285 9.62063C18.7512 11.219 16.6133 13.3369 15.0149 15.9743C13.4165 18.7315 12.6173 21.7085 12.6173 24.9053C12.6173 28.1021 13.4165 31.0792 15.0149 33.8364C16.6133 36.5137 18.7512 38.6316 21.4285 40.1901C24.1857 41.8284 27.1528 42.6476 30.3296 42.6476C33.5064 42.6476 36.4734 41.8284 39.2307 40.1901C41.908 38.6316 44.0459 36.5137 45.6443 33.8364C47.2427 31.0792 48.0419 28.1021 48.0419 24.9053C48.0419 21.7085 47.2427 18.7315 45.6443 15.9743C44.0459 13.3369 41.908 11.219 39.2307 9.62063C36.4734 8.02223 33.5164 7.22303 30.3596 7.22303ZM30.3596 40.6696C27.4824 40.6696 24.8351 39.9703 22.4175 38.5717C19.9999 37.1731 18.0918 35.265 16.6932 32.8474C15.2946 30.4298 14.5953 27.7925 14.5953 24.9353C14.5953 22.0782 15.2946 19.4408 16.6932 17.0232C18.0918 14.6056 19.9999 12.6976 22.4175 11.299C24.8351 9.90035 27.4724 9.20105 30.3296 9.20105C33.1867 9.20105 35.8241 9.90035 38.2417 11.299C40.6593 12.6976 42.5674 14.6056 43.966 17.0232C45.3646 19.4408 46.0639 22.0782 46.0639 24.9353C46.0639 27.7925 45.3646 30.4298 43.966 32.8474C42.5674 35.265 40.6593 37.1731 38.2417 38.5717C35.8241 39.9703 33.1767 40.6696 30.2996 40.6696H30.3596ZM60.0299 45.1051L50.8591 35.8744L50.4994 31.3789L53.3765 28.0222C54.1757 27.1031 54.5753 26.0342 54.5753 24.8154C54.5753 23.5967 54.1757 22.5477 53.3765 21.6686L50.4994 18.3719L50.8591 13.9363C50.939 12.7375 50.6293 11.6586 49.93 10.6996C49.2307 9.74051 48.2816 9.14111 47.0828 8.90135L42.8271 7.94231L40.5494 4.10614C39.95 3.06718 39.0609 2.36788 37.882 2.00824C36.7032 1.6486 35.5544 1.68856 34.4355 2.12812L30.4195 3.92632L26.4035 2.248C25.2846 1.76848 24.1558 1.71853 23.0169 2.09815C21.878 2.47777 20.969 3.18706 20.2896 4.22602L18.0718 7.94231L13.7562 8.96129C12.5574 9.24101 11.6083 9.88037 10.909 10.8794C10.2097 11.8784 9.90002 12.9573 9.97994 14.1161L10.3396 18.5517L7.46246 21.9083C6.66326 22.8674 6.26366 23.9463 6.26366 25.1451C6.26366 26.3439 6.66326 27.4028 7.46246 28.3219L10.3396 31.5587L9.97994 35.6946L0.62929 45.1051C0.42949 45.265 0.32959 45.4848 0.32959 45.7645C0.32959 46.0442 0.4195 46.284 0.59932 46.4838C0.77914 46.6836 1.00891 46.7835 1.28863 46.7835L12.4974 46.6636V57.9323C12.4974 58.3719 12.6972 58.6916 13.0968 58.8914H13.4565C13.6962 58.8914 13.916 58.7915 14.1158 58.5917L21.2487 51.4588C21.4085 51.259 21.4884 51.0192 21.4884 50.7395C21.4884 50.4598 21.3985 50.23 21.2187 50.0502C21.0389 49.8704 20.8091 49.7805 20.5294 49.7805C20.2497 49.7805 20.0099 49.8804 19.8101 50.0802L14.4754 55.4148L14.5953 45.4648C14.5953 45.1051 14.4954 44.8854 14.2956 44.8054C14.0958 44.6056 13.876 44.5057 13.6363 44.5057L3.68623 44.6856L10.2796 38.0322C10.5594 38.7915 11.0089 39.4408 11.6283 39.9803C12.2477 40.5197 12.957 40.8694 13.7562 41.0292L18.0718 41.9883L20.2896 45.8244C20.7691 46.5437 21.3686 47.1031 22.0878 47.5027C22.8071 47.9023 23.5863 48.1021 24.4255 48.1021C25.1448 48.1021 25.8041 47.9623 26.4035 47.6826L30.4195 46.0042L34.4355 47.6826C35.5544 48.1621 36.6832 48.212 37.8221 47.8324C38.961 47.4528 39.87 46.7635 40.5494 45.7645L42.8271 41.8684L47.0828 40.8494C47.8421 40.6896 48.5114 40.3599 49.0908 39.8604C49.6702 39.3609 50.0998 38.7915 50.3795 38.1521L56.9729 44.6856L47.0229 44.5057C46.6633 44.5057 46.4435 44.6056 46.3636 44.8054C46.1638 45.0052 46.0639 45.225 46.0639 45.4648L46.1837 55.4148L40.8491 50.0802C40.6493 49.8804 40.4095 49.7805 40.1298 49.7805C39.8501 49.7805 39.6203 49.8704 39.4405 50.0502C39.2607 50.23 39.1707 50.4598 39.1707 50.7395C39.1707 51.0192 39.2507 51.259 39.4105 51.4588L46.5434 58.5917C46.7432 58.7915 46.953 58.8914 47.1727 58.8914C47.3925 58.8914 47.5224 58.8514 47.5624 58.7715C47.962 58.5717 48.1618 58.252 48.1618 57.8124L48.0419 46.4838L59.3106 46.6036C59.4704 46.6036 59.6403 46.5437 59.8201 46.4238C59.9999 46.3039 60.1398 46.1741 60.2397 46.0342C60.3396 45.8944 60.3695 45.7345 60.3296 45.5547C60.2896 45.3749 60.1897 45.225 60.0299 45.1051ZM46.6633 39.1111L41.928 40.1901C41.6483 40.3099 41.4285 40.4698 41.2687 40.6696L38.871 44.8054C38.4714 45.4048 37.932 45.8244 37.2527 46.0642C36.5733 46.3039 35.894 46.284 35.2147 46.0042L30.7791 44.1461C30.5394 44.0662 30.2996 44.0662 30.0599 44.1461L25.6243 46.0042C24.9849 46.284 24.3156 46.3239 23.6163 46.1241C22.917 45.9243 22.3676 45.5047 21.968 44.8654L19.4505 40.7895C19.3705 40.5897 19.1508 40.4298 18.7911 40.3099L14.1158 39.1711C13.3965 39.0512 12.8271 38.6916 12.4075 38.0922C11.9879 37.4928 11.7981 36.8134 11.8381 36.0542L12.2577 31.3189C12.2577 31.0392 12.1977 30.7795 12.0778 30.5397L8.84108 27.0032C8.40152 26.4438 8.18174 25.8044 8.18174 25.0852C8.18174 24.3659 8.40152 23.7265 8.84108 23.1671L11.958 19.5107C12.1578 19.271 12.2177 19.0112 12.1378 18.7315L11.6583 13.9363C11.6183 13.217 11.8081 12.5577 12.2277 11.9583C12.6473 11.3589 13.2167 10.9993 13.936 10.8794L18.6113 9.74051C18.891 9.66059 19.1108 9.50075 19.2706 9.26099L21.7282 5.12513C22.0878 4.52572 22.6173 4.10614 23.3166 3.86638C24.0159 3.62663 24.7052 3.6466 25.3845 3.92632L29.7602 5.78447C29.9999 5.86438 30.2597 5.86438 30.5394 5.78447L34.915 3.92632C35.5943 3.6466 36.2836 3.61663 36.9829 3.83641C37.6822 4.05619 38.2117 4.46579 38.5713 5.06519L41.2087 9.20105C41.2886 9.40085 41.5084 9.54071 41.868 9.62063L46.5434 10.6996C47.2627 10.8194 47.8321 11.1691 48.2517 11.7485C48.6712 12.3279 48.8611 12.9973 48.8211 13.7565L48.4015 18.5517C48.4015 18.7915 48.4615 19.0512 48.5813 19.3309L51.8181 22.9873C52.2577 23.5467 52.4774 24.1861 52.4774 24.9053C52.4774 25.6246 52.2577 26.264 51.8181 26.8234L48.7012 30.4798C48.5014 30.6796 48.4415 30.9193 48.5214 31.1991L49.0009 35.9943C49.0009 36.7135 48.7811 37.3629 48.3416 37.9423C47.902 38.5217 47.3426 38.9113 46.6633 39.1111Z" fill="white"/>
</g>
<defs>
<clipPath id="clip0_1_1707">
<rect width="60.02" height="60" fill="white" transform="matrix(1 0 0 -1 0.319824 60.27)"/>
</clipPath>
</defs>
</svg>
