<svg width="41" height="41" viewBox="0 0 41 41" fill="none" xmlns="http://www.w3.org/2000/svg">
<g clip-path="url(#clip0_1_1645)">
<path d="M12.328 7.81248C11.9551 8.18544 11.2624 8.958 10.2501 10.1302C8.78489 11.8618 7.42625 13.5667 6.17417 15.245C4.49585 17.5627 3.17716 19.6673 2.21812 21.5587C1.01932 23.9031 0.419922 25.8478 0.419922 27.3929C0.419922 29.6839 0.992683 31.7885 2.1382 33.7066C3.23044 35.598 4.72229 37.0899 6.61373 38.1821C8.58509 39.3276 10.7096 39.9004 12.9874 39.9004C15.2651 39.9004 17.3896 39.3276 19.361 38.1821C21.2524 37.0899 22.7576 35.598 23.8765 33.7066C25.022 31.7619 25.5947 29.6573 25.5947 27.3929C25.5947 25.8744 24.9953 23.943 23.7965 21.5987C22.8375 19.7072 21.5055 17.5894 19.8005 15.245C18.5485 13.5134 17.1898 11.7818 15.7246 10.0502C14.5791 8.71824 13.8731 7.93236 13.6067 7.6926C13.3936 7.50612 13.1605 7.41954 12.9074 7.43286C12.6544 7.44618 12.4612 7.57272 12.328 7.81248ZM13.0073 38.2221C11.0093 38.2221 9.18449 37.7425 7.53281 36.7835C5.88113 35.8245 4.57577 34.5191 3.61673 32.8674C2.65768 31.2157 2.17816 29.3909 2.17816 27.3929C2.17816 25.8211 2.9374 23.7033 4.45589 21.0393C5.62805 18.988 7.19981 16.6969 9.17117 14.1661C10.4233 12.5677 11.702 11.0359 13.0073 9.57072C14.2861 10.9826 15.5781 12.5411 16.8835 14.246C18.8548 16.7768 20.4133 19.0546 21.5588 21.0792C23.0773 23.7432 23.8365 25.8478 23.8365 27.3929C23.8365 29.3643 23.3503 31.1758 22.378 32.8275C21.4056 34.4791 20.0869 35.7912 18.4219 36.7635C16.7569 37.7359 14.9521 38.2221 13.0073 38.2221ZM6.25409 25.6347C6.25409 25.3949 6.18083 25.1884 6.03431 25.0153C5.88779 24.8421 5.68133 24.7555 5.41493 24.7555C5.14853 24.7555 4.93541 24.8355 4.77557 24.9953C4.61573 25.1551 4.53581 25.3683 4.53581 25.6347C4.53581 27.5527 5.01533 29.3376 5.97437 30.9893C6.90677 32.5611 8.19215 33.8198 9.83051 34.7655C11.4689 35.7112 13.2471 36.1841 15.1652 36.1841C15.4049 36.1841 15.6114 36.1108 15.7846 35.9643C15.9577 35.8178 16.0443 35.598 16.0443 35.305C16.0443 34.7189 15.7513 34.4259 15.1652 34.4259C13.5401 34.4525 12.0483 34.0729 10.6897 33.287C9.33101 32.5011 8.25875 31.4355 7.47287 30.0902C6.68699 28.7449 6.29405 27.2597 6.29405 25.6347H6.25409ZM30.39 0.859428C28.5518 0.859428 26.8668 1.30565 25.335 2.19809C23.8032 3.09053 22.5844 4.30265 21.6787 5.83445C20.7729 7.36626 20.32 9.03126 20.32 10.8295C20.32 12.6277 20.7729 14.286 21.6787 15.8045C22.5844 17.323 23.8032 18.5284 25.335 19.4209C26.8668 20.3133 28.5451 20.7595 30.37 20.7595C32.1948 20.7595 33.8731 20.3133 35.4049 19.4209C36.9367 18.5284 38.1555 17.323 39.0613 15.8045C39.967 14.286 40.4199 12.6277 40.4199 10.8295C40.4199 9.03126 39.967 7.36626 39.0613 5.83445C38.1555 4.30265 36.9367 3.09053 35.4049 2.19809C33.8731 1.30565 32.2015 0.859428 30.39 0.859428ZM30.4699 19.1212C28.9514 19.1212 27.5528 18.7482 26.2741 18.0023C24.9953 17.2564 23.9764 16.2507 23.2171 14.9853C22.4579 13.7199 22.0783 12.3346 22.0783 10.8295C22.0783 9.3243 22.4579 7.93902 23.2171 6.67361C23.9764 5.40821 24.9953 4.40255 26.2741 3.65663C27.5528 2.91071 28.9447 2.53775 30.4499 2.53775C31.9551 2.53775 33.3537 2.91071 34.6457 3.65663C35.9377 4.40255 36.9634 5.40821 37.7226 6.67361C38.4819 7.93902 38.8615 9.3243 38.8615 10.8295C38.8615 12.3346 38.4819 13.7199 37.7226 14.9853C36.9634 16.2507 35.9377 17.2564 34.6457 18.0023C33.3537 18.7482 31.9617 19.1212 30.4699 19.1212ZM30.4699 15.8045C29.5641 15.8045 28.7316 15.578 27.9724 15.1252C27.2131 14.6723 26.6071 14.0662 26.1542 13.307C25.7013 12.5477 25.4749 11.7152 25.4749 10.8095C25.4749 10.5697 25.4016 10.3633 25.2551 10.1901C25.1086 10.0169 24.9021 9.93036 24.6357 9.93036C24.3693 9.93036 24.1562 10.0103 23.9963 10.1701C23.8365 10.33 23.7566 10.5431 23.7566 10.8095C23.7566 12.0083 24.0563 13.1138 24.6557 14.1262C25.2551 15.1385 26.0676 15.9443 27.0933 16.5437C28.1189 17.1431 29.2444 17.4428 30.4699 17.4428C30.683 17.4428 30.8828 17.3563 31.0693 17.1831C31.2558 17.0099 31.3357 16.8101 31.309 16.5837C31.2824 16.3573 31.1958 16.1708 31.0493 16.0243C30.9028 15.8777 30.7096 15.8045 30.4699 15.8045Z" fill="#289C28"/>
</g>
<defs>
<clipPath id="clip0_1_1645">
<rect width="40.02" height="40" fill="white" transform="matrix(1 0 0 -1 0.410156 40.3799)"/>
</clipPath>
</defs>
</svg>
