<svg width="41" height="41" viewBox="0 0 41 41" fill="none" xmlns="http://www.w3.org/2000/svg">
<g clip-path="url(#clip0_1_1654)">
<path d="M20.4358 0.379883C17.532 0.379883 14.7748 0.979282 12.164 2.17808C9.65988 3.35024 7.46874 4.97528 5.59061 7.05321C3.71249 9.13113 2.32055 11.5021 1.41479 14.1661C0.402468 17.3096 0.162708 20.4931 0.695508 23.7165C1.22831 26.7801 2.41379 29.584 4.25195 32.1281C6.09011 34.6723 8.38116 36.6636 11.1251 38.1022C14.0022 39.6206 17.1058 40.3799 20.4358 40.3799C23.1264 40.3799 25.7105 39.8604 28.188 38.8214C30.5856 37.7825 32.7035 36.3439 34.5417 34.5058C36.3798 32.6676 37.8184 30.5497 38.8573 28.1521C39.8963 25.6746 40.4158 23.0838 40.4158 20.3799C40.4158 17.6759 39.8963 15.0852 38.8573 12.6077C37.8184 10.2101 36.3798 8.09217 34.5417 6.25401C32.7035 4.41584 30.5856 2.97728 28.188 1.93832C25.7105 0.899361 23.1264 0.379883 20.4358 0.379883ZM2.73347 15.3649C6.30323 16.5104 9.8064 17.8025 13.243 19.241C18.2246 21.3189 22.4205 23.4368 25.8304 25.5947C25.2976 25.7279 24.6582 25.9543 23.9123 26.274C18.1847 22.944 10.9919 20.0136 2.33387 17.4828C2.36051 17.243 2.42045 16.89 2.51369 16.4238C2.60693 15.9576 2.68019 15.6047 2.73347 15.3649ZM2.13407 19.1611C10.3126 21.6653 16.8793 24.276 21.8344 26.9933C21.5946 27.0732 21.2083 27.213 20.6755 27.4128C20.1427 27.6126 19.7564 27.7658 19.5167 27.8724C14.0821 25.3949 8.28792 23.2637 2.13407 21.4788C2.02751 20.7595 2.02751 19.9869 2.13407 19.1611ZM2.33387 23.1971C7.90164 24.8487 12.9632 26.7135 17.5187 28.7915C17.2789 28.8714 16.9259 29.0312 16.4597 29.271C15.9935 29.5108 15.6406 29.6839 15.4008 29.7905C14.3352 29.1245 12.244 28.3253 9.12708 27.3929C7.12908 26.7801 5.06447 26.2074 2.93327 25.6746L2.73347 24.9553C2.49371 24.1827 2.36051 23.5967 2.33387 23.1971ZM3.61259 27.6726C5.53067 28.1788 7.3422 28.6982 9.04716 29.231C11.0452 29.8438 12.537 30.3632 13.5227 30.7895C12.244 31.4555 10.4058 32.5211 8.0082 33.9863C6.06347 32.0149 4.59827 29.9104 3.61259 27.6726ZM20.4358 38.6616C19.8763 38.6616 18.9972 38.595 17.7984 38.4618C22.4871 36.3572 27.855 34.4658 33.9023 32.7875C32.224 34.6256 30.226 36.0509 27.9083 37.0632C25.5107 38.1288 23.0199 38.6616 20.4358 38.6616ZM35.7005 30.5897C32.3971 31.4688 29.1604 32.4678 25.9902 33.5867C21.9942 34.972 18.3978 36.4372 15.201 37.9823L14.4018 37.6626C13.6559 37.3962 13.1231 37.1964 12.8034 37.0632C16.3465 35.1451 20.4757 33.3336 25.191 31.6286C29.0272 30.2434 33.0365 28.9913 37.219 27.8724L35.7005 30.5897ZM37.8983 25.8744C33.2097 27.0732 28.8007 28.4185 24.6715 29.9104C19.3435 31.8551 14.7881 33.9064 11.0052 36.0642L10.5656 35.7845C10.0595 35.4382 9.6732 35.1718 9.4068 34.9853C13.2962 32.4811 18.2779 30.1102 24.3519 27.8724C28.7475 26.2473 33.4627 24.7821 38.4977 23.4768L38.3379 24.3159C38.178 25.0352 38.0315 25.5547 37.8983 25.8744ZM27.7085 24.8754C24.2986 22.5577 19.903 20.28 14.5217 18.0422C10.9519 16.5504 7.18236 15.1651 3.21299 13.8864C4.11875 11.5953 5.43077 9.55737 7.14906 7.77249C8.86734 5.98761 10.8454 4.60233 13.0831 3.61665C15.4274 2.60432 17.8783 2.09816 20.4358 2.09816C23.7391 2.09816 26.8161 2.924 29.6665 4.57568C32.4105 6.20073 34.5949 8.38521 36.22 11.1291C37.8717 13.9796 38.6975 17.0565 38.6975 20.3599C38.6975 20.9193 38.6709 21.3589 38.6176 21.6786C35.181 22.6376 31.5447 23.7032 27.7085 24.8754ZM28.7075 14.1661C27.9616 14.1661 27.2689 14.3592 26.6296 14.7455C25.9902 15.1318 25.4774 15.6446 25.0911 16.284C24.7048 16.9233 24.5117 17.6226 24.5117 18.3819C24.5117 19.1411 24.7048 19.8471 25.0911 20.4998C25.4774 21.1524 25.9902 21.6786 26.6296 22.0782C27.2689 22.4778 27.9682 22.6776 28.7275 22.6776C29.4867 22.6776 30.186 22.4844 30.8254 22.0982C31.4647 21.7119 31.9709 21.1924 32.3439 20.5397C32.7168 19.887 32.9033 19.1744 32.9033 18.4019C32.9033 17.6293 32.7168 16.9233 32.3439 16.284C31.9709 15.6446 31.4647 15.1318 30.8254 14.7455C30.186 14.3592 29.4801 14.1661 28.7075 14.1661ZM28.7075 21.0792C28.0149 21.0792 27.4088 20.8194 26.8893 20.3C26.3698 19.7805 26.1101 19.1744 26.1101 18.4818C26.1101 17.7891 26.3698 17.1831 26.8893 16.6636C27.4088 16.1441 28.0149 15.8844 28.7075 15.8844C29.4001 15.8844 30.0062 16.1441 30.5257 16.6636C31.0452 17.1831 31.2916 17.7958 31.2649 18.5018C31.2383 19.2077 30.9786 19.8138 30.4857 20.3199C29.9929 20.8261 29.4001 21.0792 28.7075 21.0792ZM15.8004 8.49177C14.9479 8.49177 14.2353 8.77815 13.6625 9.35091C13.0898 9.92367 12.8034 10.6363 12.8034 11.4888C12.8034 12.3413 13.0898 13.0539 13.6625 13.6266C14.2353 14.1994 14.9479 14.4858 15.8004 14.4858C16.6529 14.4858 17.3655 14.1994 17.9383 13.6266C18.511 13.0539 18.7974 12.3413 18.7974 11.4888C18.7974 10.6363 18.511 9.92367 17.9383 9.35091C17.3655 8.77815 16.6529 8.49177 15.8004 8.49177ZM15.8004 12.7675C15.4541 12.7675 15.1544 12.641 14.9013 12.3879C14.6482 12.1348 14.5217 11.8351 14.5217 11.4888C14.5217 11.1425 14.6482 10.8361 14.9013 10.5697C15.1544 10.3033 15.4674 10.1701 15.8404 10.1701C16.2133 10.1701 16.5197 10.2966 16.7594 10.5497C16.9992 10.8028 17.1324 11.1092 17.159 11.4688C17.1857 11.8284 17.0658 12.1348 16.7994 12.3879C16.533 12.641 16.2 12.7675 15.8004 12.7675Z" fill="#289C28"/>
</g>
<defs>
<clipPath id="clip0_1_1654">
<rect width="40.02" height="40" fill="white" transform="matrix(1 0 0 -1 0.410156 40.3799)"/>
</clipPath>
</defs>
</svg>
