<svg width="41" height="41" viewBox="0 0 41 41" fill="none" xmlns="http://www.w3.org/2000/svg">
<g clip-path="url(#clip0_1_1663)">
<path d="M40.3903 37.3829C39.4579 36.6369 38.6321 35.598 37.9128 34.266C37.3001 33.2004 36.7406 31.8817 36.2345 30.3099C35.9414 29.4042 35.5685 28.0988 35.1156 26.3939C34.7426 25.0619 34.4762 24.1561 34.3164 23.6766C34.05 22.8774 33.7769 22.3779 33.4972 22.1781C33.2175 21.9783 32.9578 21.8784 32.718 21.8784C32.2118 21.8784 31.7323 22.1581 31.2794 22.7175C30.9864 23.1171 30.6001 23.8098 30.1206 24.7955C29.8276 25.3549 29.5212 25.8877 29.2015 26.3939C28.7753 27.0599 28.4822 27.3929 28.3224 27.3929C27.5498 27.4195 26.7773 27.1931 26.0047 26.7135C25.2854 26.2873 24.7859 25.7745 24.5062 25.1751C24.2265 24.5757 23.687 24.1095 22.8878 23.7765C22.0886 23.4435 21.1962 23.3436 20.2105 23.4768C19.1183 23.61 18.1193 24.0096 17.2135 24.6756C15.8282 25.6613 14.4962 26.1208 13.2175 26.0542C11.9388 25.9876 10.74 25.3682 9.62109 24.1961C9.03501 23.5567 8.50221 23.0972 8.02269 22.8174C7.54317 22.5377 7.07697 22.3979 6.62409 22.3979C5.93145 22.3979 5.34537 22.7442 4.86584 23.4368C4.46624 24.0229 4.11992 24.9153 3.82688 26.1141C3.6404 26.8601 3.40064 28.0722 3.1076 29.7505C2.76128 31.6952 2.46824 33.1205 2.22848 34.0262C1.82888 35.5713 1.36268 36.7835 0.829881 37.6626C0.69668 37.8757 0.69668 38.1421 0.829881 38.4618C0.963081 38.595 1.06964 38.6882 1.14956 38.7415C1.28276 38.8214 1.4426 38.8614 1.62908 38.8614H39.9907C40.1506 38.8614 40.3171 38.8014 40.4902 38.6816C40.6634 38.5617 40.7766 38.4218 40.8299 38.262C40.8299 37.8624 40.6834 37.5693 40.3903 37.3829ZM2.9078 37.0632C3.28076 36.2373 3.6404 35.1051 3.98672 33.6666C4.19984 32.8141 4.47956 31.4954 4.82588 29.7105C5.19884 27.7392 5.49189 26.3939 5.70501 25.6746C6.02469 24.5557 6.35769 23.9963 6.70401 23.9963C7.10361 23.9963 7.70301 24.4225 8.50221 25.275C9.91413 26.7935 11.4992 27.5927 13.2575 27.6726C14.9358 27.7791 16.6141 27.2197 18.2924 25.9943C18.8519 25.5414 19.5045 25.2617 20.2505 25.1551C20.8898 25.0485 21.4892 25.0619 22.0487 25.1951C22.6081 25.3283 22.9677 25.5281 23.1276 25.7945C23.5272 26.7269 24.2598 27.5127 25.3254 28.1521C26.391 28.7915 27.4566 29.0712 28.5222 28.9913C29.0816 28.938 29.6411 28.5783 30.2005 27.9123C30.5202 27.5394 30.9598 26.8467 31.5192 25.8344L31.719 25.4748C31.8256 25.2617 32.0254 24.902 32.3184 24.3959L32.718 23.6766C32.8512 24.0229 33.0643 24.7955 33.3574 25.9943C33.9701 28.3652 34.5295 30.2167 35.0357 31.5487C35.8882 33.8664 36.8738 35.7045 37.9927 37.0632H2.9078ZM34.7959 17.7625C35.5685 17.7625 36.2744 17.576 36.9138 17.203C37.5532 16.8301 38.0593 16.3239 38.4323 15.6846C38.8052 15.0452 38.9917 14.3392 38.9917 13.5667C38.9917 12.3679 38.5921 11.3689 37.7929 10.5697C36.9937 9.77048 35.9947 9.37088 34.7959 9.37088C34.05 9.37088 33.3574 9.56402 32.718 9.9503C32.0786 10.3366 31.5658 10.8494 31.1795 11.4888C30.7933 12.1281 30.6001 12.8274 30.6001 13.5867C30.6001 14.3459 30.7866 15.0452 31.1596 15.6846C31.5325 16.3239 32.0387 16.8301 32.678 17.203C33.3174 17.576 34.0234 17.7625 34.7959 17.7625ZM34.7959 10.9693C35.5152 10.9693 36.1146 11.2157 36.5941 11.7085C37.0736 12.2014 37.3134 12.7941 37.3134 13.4868C37.3134 14.1794 37.0736 14.7655 36.5941 15.245C36.1146 15.7245 35.5219 15.9643 34.8159 15.9643C34.1099 15.9643 33.5172 15.7245 33.0377 15.245C32.5582 14.7655 32.3184 14.1727 32.3184 13.4668C32.3184 12.7608 32.5515 12.1681 33.0177 11.6886C33.4839 11.209 34.0766 10.9693 34.7959 10.9693ZM24.3264 20.0802C24.9924 20.0802 25.6184 19.9003 26.2045 19.5407C26.7906 19.1811 27.2568 18.7015 27.6031 18.1021C27.9494 17.5027 28.1226 16.8634 28.1226 16.1841C28.1226 15.5047 27.9428 14.8654 27.5831 14.266C27.2235 13.6666 26.7506 13.1871 26.1645 12.8274C25.5785 12.4678 24.9657 12.288 24.3264 12.288C23.2608 12.288 22.355 12.6609 21.6091 13.4068C20.8632 14.1528 20.4902 15.0718 20.4902 16.1641C20.4636 16.8567 20.6234 17.5027 20.9697 18.1021C21.3161 18.7015 21.7889 19.1811 22.3883 19.5407C22.9877 19.9003 23.6337 20.0802 24.3264 20.0802ZM24.3264 13.9663C24.9125 13.9663 25.4253 14.1861 25.8648 14.6256C26.3044 15.0652 26.5242 15.5847 26.5242 16.1841C26.5242 16.7835 26.3044 17.2963 25.8648 17.7225C25.4253 18.1488 24.9058 18.3619 24.3064 18.3619C23.707 18.3619 23.1942 18.1488 22.7679 17.7225C22.3417 17.2963 22.1286 16.7768 22.1286 16.1641C22.1286 15.5514 22.335 15.0319 22.748 14.6056C23.1609 14.1794 23.687 13.9663 24.3264 13.9663ZM14.4163 15.5647C15.3221 15.5647 16.1612 15.3382 16.9338 14.8854C17.7063 14.4325 18.3124 13.8131 18.752 13.0272C19.1915 12.2413 19.4113 11.3889 19.4113 10.4698C19.4113 9.5507 19.1849 8.70488 18.732 7.93232C18.2791 7.15976 17.6664 6.54037 16.8938 6.07418C16.1213 5.60798 15.2821 5.37487 14.3763 5.37487C13.4706 5.37487 12.6381 5.60798 11.8788 6.07418C11.1196 6.54037 10.5202 7.15976 10.0806 7.93232C9.64107 8.70488 9.42129 9.5507 9.42129 10.4698C9.42129 11.3889 9.64773 12.2413 10.1006 13.0272C10.5535 13.8131 11.1662 14.4325 11.9388 14.8854C12.7113 15.3382 13.5372 15.5647 14.4163 15.5647ZM14.4163 7.09316C15.3221 7.09316 16.0946 7.4195 16.734 8.07218C17.3733 8.72486 17.693 9.52406 17.693 10.4698C17.693 11.4155 17.3733 12.2214 16.734 12.8874C16.0946 13.5534 15.3221 13.8864 14.4163 13.8864C13.5105 13.8864 12.7313 13.5534 12.0786 12.8874C11.426 12.2214 11.0996 11.4288 11.0996 10.5097C11.0996 9.59066 11.426 8.79146 12.0786 8.11214C12.7313 7.43282 13.5105 7.09316 14.4163 7.09316ZM27.3234 8.69156C28.2291 8.69156 29.0017 8.35856 29.6411 7.69256C30.2804 7.02656 30.6001 6.2207 30.6001 5.27497C30.6001 4.32925 30.2804 3.53005 29.6411 2.87737C29.0017 2.22469 28.2291 1.89835 27.3234 1.89835C26.4176 1.89835 25.6384 2.22469 24.9857 2.87737C24.333 3.53005 24.0067 4.33591 24.0067 5.29495C23.9801 5.88103 24.1066 6.43382 24.3863 6.9533C24.666 7.47278 25.0656 7.89236 25.5851 8.21204C26.1046 8.53172 26.684 8.69156 27.3234 8.69156ZM27.3234 3.57667C27.7763 3.57667 28.1692 3.74983 28.5022 4.09615C28.8352 4.44247 29.0017 4.84208 29.0017 5.29495C29.0017 5.74783 28.8352 6.14077 28.5022 6.47377C28.1692 6.80677 27.7763 6.97328 27.3234 6.97328C26.8705 6.97328 26.4709 6.80677 26.1246 6.47377C25.7783 6.14077 25.6051 5.73452 25.6051 5.25499C25.6051 4.77547 25.7649 4.37587 26.0846 4.05619C26.4043 3.73651 26.8172 3.57667 27.3234 3.57667ZM5.90481 21.6786C6.97041 21.6786 7.86951 21.3056 8.60211 20.5597C9.33471 19.8138 9.70101 18.9213 9.70101 17.8824C9.70101 17.1897 9.52785 16.5437 9.18153 15.9443C8.83521 15.3449 8.36901 14.8654 7.78293 14.5057C7.19685 14.1461 6.57081 13.9663 5.90481 13.9663C5.23881 13.9663 4.61942 14.1461 4.04666 14.5057C3.4739 14.8654 3.0077 15.3449 2.64806 15.9443C2.28842 16.5437 2.1086 17.1897 2.1086 17.8824C2.1086 18.9213 2.48156 19.8138 3.22748 20.5597C3.9734 21.3056 4.86584 21.6786 5.90481 21.6786ZM5.90481 15.5647C6.51753 15.5647 7.03701 15.7845 7.46325 16.224C7.88949 16.6636 8.10261 17.1831 8.10261 17.7825C8.10261 18.3819 7.88949 18.8947 7.46325 19.3209C7.03701 19.7472 6.52419 19.9603 5.92479 19.9603C5.32539 19.9603 4.8059 19.7472 4.36634 19.3209C3.92678 18.8947 3.707 18.3819 3.707 17.7825C3.707 17.1831 3.92678 16.6636 4.36634 16.224C4.8059 15.7845 5.31873 15.5647 5.90481 15.5647Z" fill="#289C28"/>
</g>
<defs>
<clipPath id="clip0_1_1663">
<rect width="40.02" height="40" fill="white" transform="matrix(1 0 0 -1 0.720215 40.3799)"/>
</clipPath>
</defs>
</svg>
