<svg width="41" height="41" viewBox="0 0 41 41" fill="none" xmlns="http://www.w3.org/2000/svg">
<g clip-path="url(#clip0_1_1667)">
<path d="M20.75 0.379883C18.0327 0.379883 15.4353 0.899361 12.9578 1.93832C10.5602 2.97728 8.44227 4.41584 6.60411 6.25401C4.76594 8.09217 3.32738 10.2101 2.28842 12.6077C1.24946 15.0852 0.72998 17.6759 0.72998 20.3799C0.72998 23.0838 1.24946 25.6746 2.28842 28.1521C3.32738 30.5497 4.76594 32.6676 6.60411 34.5058C8.44227 36.3439 10.5602 37.7825 12.9578 38.8214C15.4353 39.8604 18.0327 40.3799 20.75 40.3799C23.2008 40.3799 25.6251 39.9004 28.0227 38.9413C30.4203 37.9823 32.5648 36.6236 34.4563 34.8654C36.401 33.0539 37.9195 30.9493 39.0117 28.5517C40.1572 25.9943 40.73 23.2637 40.73 20.3599C40.73 17.6693 40.2105 15.0852 39.1715 12.6077C38.1326 10.2101 36.694 8.09217 34.8559 6.25401C33.0177 4.41584 30.8998 2.97728 28.5022 1.93832C26.0247 0.899361 23.4406 0.379883 20.75 0.379883ZM20.75 38.6616C17.6864 38.6616 14.8226 37.9556 12.1586 36.5437C9.54783 35.1851 7.40331 33.307 5.72499 30.9094C3.99338 28.4585 2.92778 25.7545 2.52818 22.7975H14.6361L20.1106 29.5907C20.3237 29.7772 20.5635 29.8704 20.8299 29.8704H21.0297C21.1895 29.8171 21.3227 29.7505 21.4293 29.6706C21.5358 29.5907 21.6424 29.4575 21.749 29.271L23.8269 22.6776H39.1316C38.7053 25.6613 37.6198 28.3719 35.8748 30.8095C34.1299 33.247 31.9521 35.1584 29.3414 36.5437C26.6507 37.9556 23.7736 38.6616 20.71 38.6616H20.75ZM23.0277 21.0792C22.8678 21.0792 22.708 21.1325 22.5482 21.239C22.3883 21.3456 22.2818 21.4921 22.2285 21.6786L20.5102 27.3929L15.715 21.4788C15.5285 21.2923 15.3021 21.1991 15.0357 21.1991H2.44826V20.3999C2.44826 17.0699 3.2741 13.9796 4.92579 11.1291C6.55083 8.38521 8.73531 6.20073 11.4792 4.57568C14.3297 2.924 17.4133 2.09816 20.73 2.09816C24.0467 2.09816 27.1302 2.924 29.9807 4.57568C32.7247 6.20073 34.9091 8.38521 36.5342 11.1291C38.1859 13.9796 39.0117 17.0699 39.0117 20.3999V21.0792H23.0277ZM19.5112 12.288C18.6587 12.288 17.9128 12.601 17.2734 13.227C16.6341 13.8531 16.3144 14.6256 16.3144 15.5447C16.3144 16.4638 16.6341 17.2497 17.2734 17.9024C17.9128 18.555 18.6787 18.8814 19.5711 18.8814C20.4636 18.8814 21.2295 18.5684 21.8688 17.9423C22.5082 17.3163 22.8279 16.5304 22.8279 15.5847C22.8279 14.639 22.5149 13.8531 21.8888 13.227C21.2628 12.601 20.4702 12.288 19.5112 12.288ZM19.5112 17.1631C19.1116 17.1631 18.7453 16.9966 18.4123 16.6636C18.0793 16.3306 17.9128 15.9643 17.9128 15.5647C17.9128 15.1651 18.0793 14.7988 18.4123 14.4658C18.7453 14.1328 19.1249 13.9663 19.5512 13.9663C19.9774 13.9663 20.3504 14.1328 20.67 14.4658C20.9897 14.7988 21.1496 15.1718 21.1496 15.5847C21.1496 15.9976 20.9897 16.3639 20.67 16.6836C20.3504 17.0033 19.9641 17.1631 19.5112 17.1631ZM27.3434 34.6656C28.036 34.6656 28.6221 34.4258 29.1016 33.9463C29.5811 33.4668 29.8209 32.8807 29.8209 32.1881C29.8209 31.4954 29.5678 30.9027 29.0616 30.4099C28.5555 29.917 27.9627 29.6706 27.2834 29.6706C26.6041 29.6706 26.0247 29.917 25.5452 30.4099C25.0656 30.9027 24.8259 31.4954 24.8259 32.1881C24.8259 32.8807 25.0656 33.4668 25.5452 33.9463C26.0247 34.4258 26.6241 34.6656 27.3434 34.6656ZM27.3434 31.3889C27.5831 31.3889 27.7763 31.4555 27.9228 31.5887C28.0693 31.7219 28.1426 31.915 28.1426 32.1681C28.1426 32.4212 28.0626 32.621 27.9028 32.7675C27.743 32.914 27.5432 32.9873 27.3034 32.9873C27.0636 32.9873 26.8772 32.914 26.744 32.7675C26.6108 32.621 26.5442 32.4212 26.5442 32.1681C26.5442 31.915 26.6108 31.7219 26.744 31.5887C26.8772 31.4555 27.077 31.3889 27.3434 31.3889ZM33.2175 29.5907C34.0966 29.5907 34.8692 29.271 35.5352 28.6316C36.2012 27.9923 36.5342 27.2197 36.5342 26.3139C36.5342 25.4082 36.2078 24.6423 35.5552 24.0162C34.9025 23.3902 34.1233 23.0772 33.2175 23.0772C32.3117 23.0772 31.5392 23.3902 30.8998 24.0162C30.2605 24.6423 29.9408 25.3949 29.9408 26.274C29.9941 27.233 30.3337 28.0256 30.9598 28.6516C31.5858 29.2777 32.3384 29.5907 33.2175 29.5907ZM33.2175 24.6756C33.6171 24.6756 33.9834 24.8421 34.3164 25.1751C34.6494 25.5081 34.8159 25.881 34.8159 26.294C34.8159 26.7069 34.6627 27.0732 34.3564 27.3929C34.05 27.7125 33.677 27.8724 33.2375 27.8724C32.7979 27.8724 32.4183 27.7125 32.0986 27.3929C31.7789 27.0732 31.6191 26.7002 31.6191 26.274C31.6191 25.8477 31.7856 25.4748 32.1186 25.1551C32.4516 24.8354 32.8179 24.6756 33.2175 24.6756ZM10.6401 25.4748C9.73431 25.4748 8.97507 25.7878 8.36235 26.4138C7.74963 27.0399 7.44327 27.8191 7.44327 28.7515C7.44327 29.6839 7.74963 30.4698 8.36235 31.1092C8.97507 31.7485 9.73431 32.0682 10.6401 32.0682C11.5458 32.0682 12.3184 31.7552 12.9578 31.1291C13.5971 30.5031 13.9168 29.7172 13.9168 28.7715C13.9168 27.8258 13.5971 27.0399 12.9578 26.4138C12.3184 25.7878 11.5458 25.4748 10.6401 25.4748ZM10.6401 30.1901C10.1872 30.1901 9.80757 30.0236 9.50121 29.6906C9.19485 29.3576 9.04167 28.9913 9.04167 28.5917C9.04167 28.1921 9.20817 27.8258 9.54117 27.4928C9.87417 27.1598 10.2405 26.9933 10.6401 26.9933C11.0397 26.9933 11.406 27.1464 11.739 27.4528C12.072 27.7592 12.2385 28.1388 12.2385 28.5917C12.2385 29.0446 12.0853 29.4242 11.7789 29.7305C11.4726 30.0369 11.093 30.1901 10.6401 30.1901ZM17.9128 30.1901C17.007 30.1901 16.2345 30.4964 15.5951 31.1092C14.9558 31.7219 14.6361 32.4811 14.6361 33.3869C14.6361 34.2926 14.9491 35.0652 15.5751 35.7046C16.2012 36.3439 16.9804 36.6636 17.9128 36.6636C18.8452 36.6636 19.6311 36.3506 20.2704 35.7245C20.9098 35.0985 21.2295 34.3193 21.2295 33.3869C21.1762 32.4811 20.8299 31.7219 20.1905 31.1092C19.5512 30.4964 18.7919 30.1901 17.9128 30.1901ZM17.9128 35.0652C17.4866 35.0652 17.1136 34.912 16.7939 34.6057C16.4742 34.2993 16.3144 33.9263 16.3144 33.4868C16.3144 33.0472 16.4809 32.6676 16.8139 32.3479C17.1469 32.0282 17.5132 31.8684 17.9128 31.8684C18.3124 31.8684 18.6787 32.0349 19.0117 32.3679C19.3447 32.7009 19.5112 33.0672 19.5112 33.4668C19.5112 33.8664 19.3447 34.2327 19.0117 34.5657C18.6787 34.8987 18.3124 35.0652 17.9128 35.0652ZM13.5172 13.5667C13.3307 13.5401 13.1442 13.58 12.9578 13.6866C12.7713 13.7931 12.6248 13.953 12.5182 14.1661L12.2385 15.285L9.12159 9.57069C8.96175 9.22437 8.60211 9.13113 8.04267 9.29097C7.82955 9.42417 7.69635 9.59733 7.64307 9.81045C7.58979 10.0236 7.61643 10.2101 7.72299 10.3699L11.1196 16.1641L9.84087 15.8844C9.65439 15.8311 9.46791 15.8644 9.28143 15.9843C9.09495 16.1042 8.96175 16.264 8.88183 16.4638C8.80191 16.6636 8.82189 16.8701 8.94177 17.0832C9.06165 17.2963 9.22815 17.4295 9.44127 17.4828L12.5182 18.1621C12.6514 18.242 12.8512 18.2154 13.1176 18.0822C13.3307 17.9756 13.4373 17.8025 13.4373 17.5627L14.1166 14.4858C14.1699 14.2727 14.1432 14.0662 14.0367 13.8664C13.9301 13.6666 13.757 13.5667 13.5172 13.5667ZM30.6201 9.29097C30.4336 9.18441 30.2272 9.15777 30.0007 9.21105C29.7743 9.26433 29.6211 9.38421 29.5412 9.57069L26.3444 15.1651L26.1446 14.0862C26.0913 13.8731 25.9714 13.7066 25.7849 13.5867C25.5984 13.4668 25.3853 13.4335 25.1456 13.4868C24.9058 13.5401 24.7193 13.6599 24.5861 13.8464C24.4529 14.0329 24.4396 14.246 24.5462 14.4858L25.3454 17.5627C25.3986 17.7758 25.4919 17.949 25.6251 18.0822C25.8915 18.2154 26.0913 18.242 26.2245 18.1621L29.3414 17.4828C29.5545 17.4295 29.7277 17.3096 29.8609 17.1231C29.9941 16.9367 30.0207 16.7235 29.9408 16.4838C29.7277 15.9776 29.3946 15.7778 28.9418 15.8844L27.743 16.1641L31.0197 10.3699C31.1263 10.1834 31.1396 9.98361 31.0597 9.77049C30.9797 9.55737 30.8332 9.39753 30.6201 9.29097Z" fill="#289C28"/>
</g>
<defs>
<clipPath id="clip0_1_1667">
<rect width="40.02" height="40" fill="white" transform="matrix(1 0 0 -1 0.720215 40.3799)"/>
</clipPath>
</defs>
</svg>
