<svg version="1.1" id="Capa_1" xmlns="http://www.w3.org/2000/svg" x="0" y="0" viewBox="0 0 56 40.5" xml:space="preserve" enable-background="new 0 0 56 40.5" width="56" height="40.5"><title>delivery</title><g class="nc-icon-wrapper"><path class="st0" d="M2.8 13.1h16.6V16l7.1-5.1-7.1-5.1v2.9H2.8v4.4z" fill-rule="evenodd" clip-rule="evenodd" fill="#98EAF9"/><path class="st0" d="M45.4 31h7.9V20.7l-3.6-9.3-1.8-4.6H32V31h5.5c.9-1.1 2.4-1.9 3.9-1.9 1.6 0 3 .7 4 1.9z" fill-rule="evenodd" clip-rule="evenodd" fill="#98EAF9"/><path class="st1" d="M39.5 20.7h13.8l-3.6-9.3H39.5V20.7z" fill-rule="evenodd" clip-rule="evenodd" fill="#FFFFFF"/><path class="st2" d="M32 31V6.8h4.2V1.1H2.8v7.6h16.6V5.8l7.1 5.1-7.2 5.1v-2.9H2.8V31h6.3c.9-1.1 2.4-1.9 3.9-1.9 1.6 0 3 .7 3.9 1.9H32z" fill-rule="evenodd" clip-rule="evenodd" fill="#FF6C8A"/><path class="st3" d="M18 35.5h18.5c-.1-.4-.1-.8-.1-1.2 0-1.3.4-2.4 1.2-3.3H16.9c.7.9 1.2 2 1.2 3.3 0 .4 0 .8-.1 1.2z" fill-rule="evenodd" clip-rule="evenodd" fill="#CFD3DF"/><path class="st3" d="M2.8 35.5H8c-.1-.4-.1-.8-.1-1.2 0-1.3.4-2.4 1.2-3.3H2.8c-.9 0-1.7.8-1.7 1.7v1.2c0 .8.7 1.6 1.7 1.6z" fill-rule="evenodd" clip-rule="evenodd" fill="#CFD3DF"/><path class="st3" d="M53.2 35.5c.9 0 1.7-.8 1.7-1.7v-1.2c0-.9-.7-1.7-1.7-1.7h-7.9c.7.9 1.2 2 1.2 3.3 0 .4 0 .8-.1 1.2h6.8z" fill-rule="evenodd" clip-rule="evenodd" fill="#CFD3DF"/><path class="st4" d="M41.4 39.4c2.4 0 4.4-1.7 5-4 .1-.4.1-.8.1-1.2 0-1.3-.4-2.4-1.2-3.3-.9-1.1-2.4-1.9-3.9-1.9-1.6 0-3 .7-3.9 1.9-.7.9-1.2 2-1.2 3.3 0 .4 0 .8.1 1.2.6 2.4 2.6 4 5 4z" fill-rule="evenodd" clip-rule="evenodd" fill="#9EA6BF"/><path class="st4" d="M13 39.4c2.4 0 4.4-1.7 5-4 .1-.4.1-.8.1-1.2 0-1.3-.4-2.4-1.2-3.3C16 29.8 14.5 29 13 29c-1.6 0-3 .7-3.9 1.9-.7.9-1.2 2-1.2 3.3 0 .4 0 .8.1 1.2.6 2.4 2.6 4 5 4z" fill-rule="evenodd" clip-rule="evenodd" fill="#9EA6BF"/><path d="M13 35.4c-.6 0-1.1-.5-1.1-1.1 0-.6.5-1.1 1.1-1.1.6 0 1.1.5 1.1 1.1 0 .6-.5 1.1-1.1 1.1z"/><path d="M54.3 30.1v-9.4c0-.1 0-.3-.1-.4L48.8 6.4c-.2-.4-.6-.7-1-.7H37.3V1.1c0-.6-.5-1.1-1.1-1.1H22.6c-.6 0-1.1.5-1.1 1.1s.5 1.1 1.1 1.1h12.5v3.5H32c-.6 0-1.1.5-1.1 1.1v23.1H17.4C16.3 28.7 14.7 28 13 28s-3.3.7-4.4 1.9H3.8V14.2h14.4V16c0 .4.2.8.6 1 .2.1.3.1.5.1s.4-.1.6-.2l7.1-5.1c.3-.2.5-.5.5-.9s-.2-.7-.5-.9l-7-5.1c-.3-.2-.8-.3-1.1-.1-.4.2-.6.6-.6 1v1.8H3.8V2.2h8.9c.6 0 1.1-.5 1.1-1.1s-.4-1.1-1-1.1h-10c-.7 0-1.1.5-1.1 1.1v29c-1 .4-1.7 1.4-1.7 2.5v1.2c0 1.5 1.2 2.8 2.8 2.8h4.5c.9 2.3 3.2 4 5.8 4s4.9-1.6 5.8-4h16.9c.9 2.3 3.2 4 5.8 4 2.6 0 4.9-1.6 5.8-4h6c1.5 0 2.8-1.2 2.8-2.8v-1.2c-.2-1.1-.9-2.1-1.9-2.5zM3.8 9.8h15.5c.6 0 1.1-.5 1.1-1.1v-.8l4.2 3-4.2 3v-.8c0-.6-.5-1.1-1.1-1.1H3.8V9.8zm3 24.6h-4c-.3 0-.6-.3-.6-.6v-1.2c0-.3.3-.6.6-.6h4.4c-.3.7-.4 1.4-.4 2.2v.2zm6.2 3.9c-2.2 0-4-1.8-4-4.1s1.8-4.1 4-4.1 4 1.8 4 4.1-1.8 4.1-4 4.1zm38.6-18.7h-11v-7.1h8.3l2.7 7.1zM33.1 7.9H47l1 2.4h-8.5c-.6 0-1.1.5-1.1 1.1v9.3c0 .6.5 1.1 1.1 1.1h12.7v3h-1.6c-.6 0-1.1.5-1.1 1.1S50 27 50.6 27h1.6v3h-6.3c-1.1-1.2-2.7-1.9-4.4-1.9s-3.3.7-4.4 1.9h-3.9V7.9zM19.2 34.4v-.1c0-.8-.1-1.5-.4-2.2h16.8c-.3.7-.4 1.4-.4 2.2v.1h-16zm22.2 3.9c-2.2 0-4-1.8-4-4.1s1.8-4.1 4-4.1 4 1.8 4 4.1-1.7 4.1-4 4.1zm12.4-4.5c0 .3-.3.6-.6.6h-5.6v-.1c0-.8-.1-1.5-.4-2.2h6c.3 0 .6.3.6.6v1.1z"/><path d="M41.4 33.2c-.6 0-1.1.5-1.1 1.1 0 .6.5 1.1 1.1 1.1.6 0 1.1-.5 1.1-1.1 0-.6-.5-1.1-1.1-1.1z"/><path d="M7.7 23.6c-.6 0-1.1.5-1.1 1.1 0 .6.5 1.1 1.1 1.1h5.4c.6 0 1.1-.5 1.1-1.1 0-.6-.5-1.1-1.1-1.1H7.7z"/><path d="M17.5 20.3c0-.6-.5-1.1-1.1-1.1H7.7c-.6 0-1.1.5-1.1 1.1 0 .6.5 1.1 1.1 1.1h8.7c.6 0 1.1-.5 1.1-1.1z"/><path d="M17.7 2.2c.6 0 1.1-.5 1.1-1.1S18.3 0 17.7 0s-1.1.5-1.1 1.1.5 1.1 1.1 1.1z"/></g></svg>