<svg width="27" height="27" viewBox="0 0 27 27" fill="none" xmlns="http://www.w3.org/2000/svg">
<g clip-path="url(#clip0_1_1459)">
<path d="M2.08769 11.0689C1.51626 11.0689 1.02708 11.2724 0.620155 11.6793C0.213229 12.0862 0.00976562 12.5797 0.00976562 13.1598C0.00976562 13.7399 0.213229 14.2334 0.620155 14.6403C1.02708 15.0472 1.51626 15.2507 2.08769 15.2507C2.65912 15.2507 3.14829 15.0472 3.55522 14.6403C3.96215 14.2334 4.16561 13.7399 4.16561 13.1598C4.16561 12.5797 3.96215 12.0862 3.55522 11.6793C3.14829 11.2724 2.65912 11.0689 2.08769 11.0689ZM9.36041 11.0689C8.78899 11.0689 8.29981 11.2724 7.89288 11.6793C7.48596 12.0862 7.28249 12.5797 7.28249 13.1598C7.28249 13.7399 7.48596 14.2334 7.89288 14.6403C8.29981 15.0472 8.78899 15.2507 9.36041 15.2507C9.93184 15.2507 10.421 15.0472 10.8279 14.6403C11.2349 14.2334 11.4383 13.7399 11.4383 13.1598C11.4383 12.5797 11.2349 12.0862 10.8279 11.6793C10.421 11.2724 9.93184 11.0689 9.36041 11.0689ZM16.6591 11.0689C16.0877 11.0689 15.5985 11.2724 15.1916 11.6793C14.7847 12.0862 14.5812 12.5797 14.5812 13.1598C14.5812 13.7399 14.7847 14.2334 15.1916 14.6403C15.5985 15.0472 16.0877 15.2507 16.6591 15.2507C17.2305 15.2507 17.7197 15.0472 18.1266 14.6403C18.5336 14.2334 18.737 13.7399 18.737 13.1598C18.737 12.5797 18.5336 12.0862 18.1266 11.6793C17.7197 11.2724 17.2305 11.0689 16.6591 11.0689ZM23.9318 11.0689C23.3604 11.0689 22.8712 11.2724 22.4643 11.6793C22.0574 12.0862 21.8539 12.5797 21.8539 13.1598C21.8539 13.7399 22.0574 14.2334 22.4643 14.6403C22.8712 15.0472 23.3604 15.2507 23.9318 15.2507C24.5033 15.2507 24.9924 15.0472 25.3994 14.6403C25.8063 14.2334 26.0098 13.7399 26.0098 13.1598C26.0098 12.5797 25.8063 12.0862 25.3994 11.6793C24.9924 11.2724 24.5033 11.0689 23.9318 11.0689ZM2.08769 18.3676C1.51626 18.3676 1.02708 18.5711 0.620155 18.978C0.213229 19.3849 0.00976562 19.8741 0.00976562 20.4455C0.00976562 21.0169 0.213229 21.5061 0.620155 21.913C1.02708 22.32 1.51626 22.5234 2.08769 22.5234C2.65912 22.5234 3.14829 22.32 3.55522 21.913C3.96215 21.5061 4.16561 21.0169 4.16561 20.4455C4.16561 19.8741 3.96215 19.3849 3.55522 18.978C3.14829 18.5711 2.65912 18.3676 2.08769 18.3676ZM9.36041 18.3676C8.78899 18.3676 8.29981 18.5711 7.89288 18.978C7.48596 19.3849 7.28249 19.8741 7.28249 20.4455C7.28249 21.0169 7.48596 21.5061 7.89288 21.913C8.29981 22.32 8.78899 22.5234 9.36041 22.5234C9.93184 22.5234 10.421 22.32 10.8279 21.913C11.2349 21.5061 11.4383 21.0169 11.4383 20.4455C11.4383 19.8741 11.2349 19.3849 10.8279 18.978C10.421 18.5711 9.93184 18.3676 9.36041 18.3676ZM16.6591 18.3676C16.0877 18.3676 15.5985 18.5711 15.1916 18.978C14.7847 19.3849 14.5812 19.8741 14.5812 20.4455C14.5812 21.0169 14.7847 21.5061 15.1916 21.913C15.5985 22.32 16.0877 22.5234 16.6591 22.5234C17.2305 22.5234 17.7197 22.32 18.1266 21.913C18.5336 21.5061 18.737 21.0169 18.737 20.4455C18.737 19.8741 18.5336 19.3849 18.1266 18.978C17.7197 18.5711 17.2305 18.3676 16.6591 18.3676ZM2.08769 3.79617C1.51626 3.79617 1.02708 3.99963 0.620155 4.40656C0.213229 4.81348 0.00976562 5.30266 0.00976562 5.87409C0.00976562 6.44552 0.213229 6.93469 0.620155 7.34162C1.02708 7.74855 1.51626 7.95201 2.08769 7.95201C2.65912 7.95201 3.14829 7.74855 3.55522 7.34162C3.96215 6.93469 4.16561 6.44552 4.16561 5.87409C4.16561 5.30266 3.96215 4.81348 3.55522 4.40656C3.14829 3.99963 2.65912 3.79617 2.08769 3.79617ZM9.36041 3.79617C8.78899 3.79617 8.29981 3.99963 7.89288 4.40656C7.48596 4.81348 7.28249 5.30266 7.28249 5.87409C7.28249 6.44552 7.48596 6.93469 7.89288 7.34162C8.29981 7.74855 8.78899 7.95201 9.36041 7.95201C9.93184 7.95201 10.421 7.74855 10.8279 7.34162C11.2349 6.93469 11.4383 6.44552 11.4383 5.87409C11.4383 5.30266 11.2349 4.81348 10.8279 4.40656C10.421 3.99963 9.93184 3.79617 9.36041 3.79617ZM16.6591 3.79617C16.0877 3.79617 15.5985 3.99963 15.1916 4.40656C14.7847 4.81348 14.5812 5.30266 14.5812 5.87409C14.5812 6.44552 14.7847 6.93469 15.1916 7.34162C15.5985 7.74855 16.0877 7.95201 16.6591 7.95201C17.2305 7.95201 17.7197 7.74855 18.1266 7.34162C18.5336 6.93469 18.737 6.44552 18.737 5.87409C18.737 5.30266 18.5336 4.81348 18.1266 4.40656C17.7197 3.99963 17.2305 3.79617 16.6591 3.79617Z" fill="#FF6F54"/>
</g>
<defs>
<clipPath id="clip0_1_1459">
<rect width="26.02" height="26" fill="white" transform="matrix(1 0 0 -1 0 26.1599)"/>
</clipPath>
</defs>
</svg>
