<svg width="41" height="40" viewBox="0 0 41 40" fill="none" xmlns="http://www.w3.org/2000/svg">
<g clip-path="url(#clip0_1_1278)">
<path d="M20.0297 0C17.3125 0 14.7151 0.519478 12.2375 1.55844C9.83994 2.5974 7.72205 4.03596 5.88389 5.87412C4.04573 7.71229 2.60717 9.83017 1.56821 12.2278C0.529246 14.7053 0.00976562 17.296 0.00976562 20C0.00976562 22.704 0.529246 25.2947 1.56821 27.7722C2.60717 30.1698 4.04573 32.2877 5.88389 34.1259C7.72205 35.964 9.83994 37.4026 12.2375 38.4416C14.7151 39.4805 17.3058 40 20.0098 40C22.7137 40 25.3045 39.4805 27.782 38.4416C30.1796 37.4026 32.2975 35.964 34.1356 34.1259C35.9738 32.2877 37.4124 30.1698 38.4513 27.7722C39.4903 25.2947 40.0098 22.6973 40.0098 19.98C40.0098 16.9164 39.3438 14.0127 38.0118 11.2687C36.7064 8.60473 34.9015 6.33366 32.5972 4.45554C30.2928 2.57742 27.7021 1.29204 24.825 0.5994C24.4786 0.49284 24.1456 0.54612 23.826 0.759239C23.5063 0.972359 23.2998 1.25208 23.2066 1.5984C23.1133 1.94472 23.1666 2.27106 23.3664 2.57742C23.5662 2.88378 23.8526 3.09024 24.2256 3.1968C26.7031 3.78288 28.9342 4.88844 30.9189 6.51348C32.9035 8.13853 34.4553 10.0966 35.5742 12.3876C36.7197 14.7852 37.2925 17.316 37.2925 19.98C37.2925 23.1502 36.5199 26.0806 34.9748 28.7712C33.4297 31.3553 31.3651 33.4199 28.781 34.965C26.0904 36.5102 23.1666 37.2827 20.0098 37.2827C16.8529 37.2827 13.9292 36.5102 11.2385 34.965C8.65446 33.4199 6.58985 31.3553 5.04473 28.7712C3.49961 26.0806 2.72705 23.1568 2.72705 20C2.72705 16.8432 3.49961 13.9194 5.04473 11.2288C6.58985 8.64469 8.65446 6.58009 11.2385 5.03496C13.9292 3.48984 16.8596 2.71728 20.0297 2.71728C20.3494 2.71728 20.6491 2.58408 20.9288 2.31768C21.2086 2.05128 21.3751 1.74492 21.4283 1.3986C21.4283 0.999001 21.2951 0.666 21.0287 0.399597C20.7623 0.133198 20.416 0 19.9898 0H20.0297ZM15.1147 8.91109C14.7683 8.91109 14.462 9.03763 14.1956 9.29071C13.9292 9.54379 13.796 9.84349 13.796 10.1898V29.8102C13.796 30.1565 13.9292 30.4562 14.1956 30.7093C14.462 30.9624 14.7683 31.0889 15.1147 31.0889C15.3011 31.0889 15.5276 31.0223 15.794 30.8891L30.8989 21.0989C31.2186 20.8858 31.4184 20.6061 31.4983 20.2597C31.5782 19.9134 31.5116 19.5937 31.2985 19.3007C31.2186 19.1142 31.0854 18.981 30.8989 18.9011L20.3095 11.988C20.0164 11.8015 19.6768 11.7483 19.2905 11.8282C18.9042 11.9081 18.6112 12.1012 18.4114 12.4076C18.2116 12.714 18.1516 13.0536 18.2315 13.4266C18.3115 13.7995 18.4979 14.0926 18.791 14.3057L27.7021 20.0999L16.3934 27.4126V10.1898C16.4467 9.84349 16.3468 9.54379 16.0937 9.29071C15.8406 9.03763 15.5143 8.91109 15.1147 8.91109Z" fill="#3D4CA1"/>
</g>
<defs>
<clipPath id="clip0_1_1278">
<rect width="40.02" height="40" fill="white" transform="matrix(1 0 0 -1 0 40)"/>
</clipPath>
</defs>
</svg>
