<svg version="1.1" id="Capa_1" xmlns="http://www.w3.org/2000/svg" x="0" y="0" viewBox="0 0 56 54.6" xml:space="preserve" enable-background="new 0 0 56 54.6" width="56" height="54.6"><title>return</title><g class="nc-icon-wrapper"><path class="st0" d="M3.6 1.1c-1.4 0-2.5 1.1-2.5 2.5v35.8c0 1.4 1.1 2.5 2.5 2.5h21c-.3-1.2-.5-2.5-.5-3.8 0-8.5 6.9-15.4 15.4-15.4.8 0 1.6.1 2.4.2V3.6c0-1.4-1.1-2.5-2.5-2.5H28.2v15.3l-6.7-4.1-6.7 4.1V1.1H3.6z" fill-rule="evenodd" clip-rule="evenodd" fill="#FFD47B"/><path class="st1" d="M28.2 1.1H14.8v15.3l6.7-4.1 6.7 4.1V1.1z" fill-rule="evenodd" clip-rule="evenodd" fill="#FFF1D8"/><path class="st2" d="M39.5 22.6c-8.5 0-15.4 6.9-15.4 15.4 0 1.3.2 2.6.5 3.8 1.7 6.7 7.7 11.6 15 11.6C48.1 53.4 55 46.5 55 38c0-7.7-5.7-14.1-13-15.2-.9-.1-1.7-.2-2.5-.2z" fill-rule="evenodd" clip-rule="evenodd" fill="#CBE459"/><path d="M6.7 32.1h.9c.6 0 1.1-.5 1.1-1.1s-.5-1.1-1.1-1.1h-.9c-.6 0-1.1.5-1.1 1.1s.5 1.1 1.1 1.1z"/><path d="M18.6 32.1c.6 0 1.1-.5 1.1-1.1s-.5-1.1-1.1-1.1H12c-.6 0-1.1.5-1.1 1.1s.5 1.1 1.1 1.1h6.6z"/><path d="M6.7 37.3h11.9c.6 0 1.1-.5 1.1-1.1s-.5-1.1-1.1-1.1H6.7c-.6 0-1.1.5-1.1 1.1s.5 1.1 1.1 1.1z"/><path d="M43 21.9V3.6c0-2-1.6-3.6-3.6-3.6H3.6C1.6 0 0 1.6 0 3.6v13c0 .6.5 1.1 1.1 1.1s1.1-.5 1.1-1.1v-13c0-.8.6-1.4 1.4-1.4h10.1v14.2c0 .4.2.8.6 1s.8.2 1.1 0l6.1-3.8 6.1 3.8c.2.1.4.2.6.2.2 0 .4 0 .5-.1.3-.2.6-.6.6-1V2.2h10.1c.8 0 1.4.6 1.4 1.4v18c-.4 0-.9-.1-1.3-.1C30.4 21.5 23 28.9 23 38c0 .9.1 1.8.2 2.7H3.6c-.8 0-1.4-.6-1.4-1.4v-13c0-.6-.5-1.1-1.1-1.1S0 25.8 0 26.4v13c0 2 1.6 3.6 3.6 3.6h20.1c2.1 6.7 8.4 11.6 15.8 11.6 9.1 0 16.5-7.4 16.5-16.5 0-8-5.6-14.6-13-16.2zm-15.9-7.5l-5-3.1c-.4-.2-.8-.2-1.1 0l-5 3.1V2.2h11.2v12.2zm12.4 38c-7.9 0-14.3-6.4-14.3-14.3s6.4-14.3 14.3-14.3 14.3 6.4 14.3 14.3-6.4 14.3-14.3 14.3z"/><path d="M41.5 31.7h-4.2l2-1.9c.4-.4.4-1.1 0-1.5-.4-.4-1.1-.4-1.5 0L33.9 32c-.4.4-.4 1.1 0 1.5l3.8 3.8c.2.2.5.3.8.3.3 0 .6-.1.8-.3.4-.4.4-1.1 0-1.5l-2-1.9h4.2c2.6 0 4.8 2.2 4.8 4.8 0 2.6-2.2 4.8-4.8 4.8h-9.9c-.6 0-1.1.5-1.1 1.1s.5 1.1 1.1 1.1h9.9c3.9 0 7-3.1 7-7-.1-3.8-3.2-7-7-7z"/><path d="M1.1 22.6c.6 0 1.1-.5 1.1-1.1 0-.6-.5-1.1-1.1-1.1S0 20.9 0 21.5c0 .6.5 1.1 1.1 1.1z"/></g></svg>