<svg version="1.1" id="Capa_1" xmlns="http://www.w3.org/2000/svg" x="0" y="0" viewBox="0 0 56 56" xml:space="preserve" enable-background="new 0 0 56 56" width="56" height="56"><title>support</title><g class="nc-icon-wrapper"><path class="st0" d="M2.9 25.4C1.3 28.5-.8 33.5 4.6 39l6.2 6.2 6.2 6.2c5.4 5.4 10.5 3.3 13.6 1.7l5.2-2.7-9.8-9.8-4.2 4.2c-4.5-2.5-8-6-10.6-10.5l4.2-4.2-9.8-9.8-2.7 5.1z" fill-rule="evenodd" clip-rule="evenodd" fill="#98EAF9"/><path class="st1" d="M10.3 18c-1.7-1.7-3.2-.6-4 .9l-.7 1.3 9.8 9.8 1.5-1.5c1.1-1.1 1-2.8 0-4L10.3 18z" fill-rule="evenodd" clip-rule="evenodd" fill="#CBF4FB"/><path class="st1" d="M31.4 39.1c-1.2-1-2.9-1.1-4 0L26 40.6l9.8 9.8 1.3-.7c1.5-.8 2.6-2.3.9-4l-6.6-6.6z" fill-rule="evenodd" clip-rule="evenodd" fill="#CBF4FB"/><path class="st2" d="M27.5 5.8c-5.1 5.1-6.1 12.8-2.8 18.9l-3.1 9.7 9.7-3.1c6.1 3.2 13.8 2.3 18.9-2.8 3.1-3.1 4.7-7.2 4.7-11.3 0-4.1-1.6-8.2-4.7-11.3-2.6-2.6-5.8-4.1-9.1-4.5h-4.5c-3.3.3-6.5 1.8-9.1 4.4z" fill-rule="evenodd" clip-rule="evenodd" fill="#D5EA7A"/><path d="M35.6 7.4c-2.4 0-4.3 1.9-4.3 4.3V13c0 .6.5 1.1 1.1 1.1.6 0 1.1-.5 1.1-1.1v-1.2c0-1.2.9-2.1 2.1-2.1 1.2 0 2.1.9 2.1 2.1V13c0 .4-.5 1-1 1.6-.7.9-1.6 1.9-1.6 3.2v3.1c0 .6.5 1.1 1.1 1.1.6 0 1.1-.5 1.1-1.1v-3.1c0-.5.5-1.1 1-1.8.7-.8 1.5-1.7 1.5-3v-1.2c.1-2.4-1.8-4.4-4.2-4.4z"/><path d="M36.3 24.6c-.6 0-1.1.5-1.1 1.1 0 .6.5 1.1 1.1 1.1.6 0 1.1-.5 1.1-1.1s-.5-1.1-1.1-1.1z"/><path d="M45.3 7.5c-.6 0-1.1.5-1.1 1.1v12.2c0 .6.5 1.1 1.1 1.1.6 0 1.1-.5 1.1-1.1V8.6c0-.6-.5-1.1-1.1-1.1z"/><path d="M45.3 24.6c-.6 0-1.1.5-1.1 1.1 0 .6.5 1.1 1.1 1.1.6 0 1.1-.5 1.1-1.1 0-.6-.5-1.1-1.1-1.1z"/><path d="M32.2 38.3s-.1 0 0 0c-1.7-1.5-4.1-1.4-5.5 0l-5 5-.1.1c-3.7-2.2-6.7-5.2-9-9l3.6-3.6 1.5-1.5c1.4-1.4 1.5-3.8.1-5.4 0 0 0-.1-.1-.1L11 17.2c-1.1-1.1-2.2-1.2-2.9-1.1-1.1.2-2.1 1-2.8 2.3l-3.4 6.5C1 26.5 0 28.7 0 31.3c-.1 3 1.2 5.9 3.8 8.5l2.8 2.8c.2.2.5.3.8.3.3 0 .6-.1.8-.3.4-.4.4-1.1 0-1.5l-2.8-2.8C.8 33.5 2 29.4 3.8 25.9l2-3.8 8 8-2.4 2.4c-.3-.5-.5-1.1-.8-1.7-.2-.6-.9-.8-1.4-.6-.6.2-.8.9-.6 1.4.5 1.1 1 2.1 1.6 3.1 3.2 5.6 7.9 9.7 13.9 12.4.1.1.3.1.4.1.4 0 .8-.2 1-.7.2-.6 0-1.2-.6-1.4-.5-.2-1-.5-1.5-.7l2.4-2.4 8 8-3.8 2c-3.5 1.8-7.7 3.1-12.3-1.5l-2.8-2.8c-.4-.4-1.1-.4-1.5 0-.4.4-.4 1.1 0 1.5l2.8 2.8c2.5 2.5 5.3 3.8 8.3 3.8h.2c2.5-.1 4.7-1 6.4-1.9l6.5-3.4c1.3-.7 2.2-1.7 2.3-2.8.1-.7 0-1.8-1.1-2.9l-6.6-6.5zM6.9 20l.3-.6c.4-.7.8-1.1 1.2-1.2.4-.1.8.3 1 .5l6.6 6.6c.6.7.7 1.7 0 2.4l-.7.7L6.9 20zm30.9 27.5c-.1.4-.5.9-1.2 1.2l-.6.4-8.5-8.5.7-.7c.7-.7 1.8-.5 2.4 0l6.6 6.6c.3.3.6.7.6 1z"/><path d="M51 5c-6.7-6.7-17.6-6.7-24.2 0-2.7 2.7-4.3 6-4.9 9.7-.5 3.4.1 7 1.6 10.1l-3 9.3c-.1.4 0 .8.3 1.1.2.2.5.3.8.3.1 0 .2 0 .3-.1l9.3-3c3.1 1.5 6.6 2.1 10.1 1.6 3.7-.5 7.1-2.2 9.7-4.9 6.7-6.5 6.7-17.4 0-24.1zm-1.6 22.7c-4.7 4.7-11.8 5.7-17.6 2.6-.3-.1-.6-.2-.9-.1l-7.7 2.5 2.5-7.7c.1-.3.1-.6-.1-.9-3.1-5.8-2-13 2.6-17.6 2.9-2.9 6.7-4.4 10.6-4.4 3.8 0 7.7 1.5 10.6 4.4 5.9 5.9 5.9 15.4 0 21.2z"/><path d="M10.1 44.4c-.4.4-.4 1.1 0 1.5.2.2.5.3.8.3.3 0 .6-.1.8-.3.4-.4.4-1.1 0-1.5-.5-.4-1.2-.4-1.6 0z"/></g></svg>