<?xml version="1.0" encoding="utf-8"?>
<!-- Generator: Adobe Illustrator 24.1.1, SVG Export Plug-In . SVG Version: 6.00 Build 0)  -->
<svg version="1.1" id="Layer_1" xmlns="http://www.w3.org/2000/svg" xmlns:xlink="http://www.w3.org/1999/xlink" x="0px" y="0px"
	 viewBox="0 0 130 21.8" style="enable-background:new 0 0 130 21.8;" xml:space="preserve">
<style type="text/css">
	.st0{fill-rule:evenodd;clip-rule:evenodd;}
</style>
<g>
	<g>
		<path class="st0" d="M15.4,10.6c-1.3-0.9-3.5-1.7-6.7-2.4c-0.1,0-0.2,0-0.2,0c-0.1,0-0.2,0-0.3,0c-1-0.2-1.6-0.4-2-0.6
			C5.9,7.3,5.7,7,5.7,6.6c0-0.5,0.2-1,0.7-1.3c0.5-0.3,1.2-0.5,2.3-0.5c1.1,0,1.9,0.2,2.4,0.6c0.5,0.4,0.8,0.9,1,1.6h5.2
			c-0.2-2-1-3.7-2.4-5C13.5,0.6,11.4,0,8.6,0C7.3,0,6,0.2,4.8,0.7C3.6,1.2,2.6,2,1.8,3C0.9,4.1,0.5,5.4,0.5,6.8c0,1,0.2,1.9,0.6,2.7
			c0.4,0.8,0.9,1.4,1.6,1.8c0.7,0.5,1.4,0.8,2.1,1.1c0.7,0.3,1.6,0.5,2.6,0.7c0.1,0,0.3,0,0.4,0.1c0.2,0,0.3,0.1,0.4,0.1
			c0.1,0,0.2,0,0.4,0.1c1.5,0.3,2.4,0.6,2.9,0.8c0.5,0.2,0.7,0.6,0.7,1.1c0,1.2-1,1.8-3,1.8C8,17,7,16.8,6.4,16.4
			c-0.6-0.4-1-1.1-1.3-2H0c0.1,1,0.4,1.8,0.8,2.7c0.4,0.8,0.9,1.6,1.6,2.3c0.7,0.7,1.6,1.3,2.8,1.7c1.2,0.4,2.5,0.6,4.1,0.6
			c0.7,0,1.4-0.1,2.1-0.2c0.7-0.1,1.4-0.4,2.2-0.7c0.7-0.3,1.4-0.8,1.9-1.3c0.5-0.5,1-1.1,1.3-1.9c0.3-0.8,0.5-1.7,0.5-2.7
			C17.4,13,16.7,11.5,15.4,10.6z M40.4,4.5c-2.3,0-4.1,1-5.5,2.9c-1-1.9-2.7-2.9-5-2.9c-1.9,0-3.5,0.7-4.7,2.2V4.9h-5.1v16.5h5.1
			v-8.8c0-2.2,1-3.3,2.9-3.3c0.9,0,1.6,0.2,1.9,0.7c0.4,0.5,0.5,1.2,0.5,2.1v9.2h5.1v-8.8c0-2.2,1-3.3,2.9-3.3
			c0.9,0,1.6,0.2,1.9,0.7c0.4,0.5,0.5,1.2,0.5,2.1v9.2h5.1V11.1c0-2-0.5-3.6-1.6-4.8C43.6,5.1,42.2,4.5,40.4,4.5z M60.9,6.7
			c-1.2-1.5-2.7-2.2-4.7-2.2c-2.1,0-3.8,0.8-5.3,2.4c-1.4,1.6-2.1,3.7-2.1,6.2c0,2.5,0.7,4.6,2.1,6.2c1.4,1.6,3.2,2.4,5.3,2.4
			c1.9,0,3.5-0.7,4.6-2.2v1.8h5.1l0-16.5h-5.1V6.7z M59.9,15.9c-0.7,0.7-1.5,1-2.5,1c-1,0-1.8-0.3-2.5-1c-0.7-0.7-1-1.6-1-2.7
			c0-1.1,0.3-2,1-2.7c0.7-0.7,1.5-1,2.5-1c1,0,1.8,0.3,2.5,1c0.7,0.7,1,1.6,1,2.7C60.9,14.3,60.5,15.2,59.9,15.9z M74.1,7.4V4.9H69
			v16.5h5.1v-7.1c0-0.9,0.1-1.7,0.4-2.3c0.2-0.6,0.6-1.1,1.1-1.4s1-0.5,1.5-0.6c0.5-0.1,1.1-0.2,1.8-0.2c0.2,0,0.6,0,1,0.1V4.6
			c-0.2-0.1-0.6-0.1-0.9-0.1C76.7,4.5,75.1,5.5,74.1,7.4z M91.6,17c-1.4,0-2.1-0.8-2.1-2.3v-5h5.5V4.9h-5.5V0.4l-5.1,1.1v3.4h-2.8
			v4.8h2.8V15c0,2.3,0.6,4,1.8,5.1c1.2,1.1,2.7,1.7,4.5,1.7c1,0,1.9-0.2,2.9-0.5c1-0.3,1.7-0.6,2.3-1L95,16.2
			C93.3,16.8,92.2,17,91.6,17z M98.4,21.4h5.1V4.9h-5.1V21.4z M114.9,9.2c1.7,0,2.7,0.7,3.1,2.2h5.3c-0.2-2.1-1.2-3.8-2.7-5.1
			c-1.6-1.2-3.4-1.8-5.6-1.8c-2.5,0-4.6,0.8-6.2,2.5c-1.6,1.6-2.4,3.7-2.4,6.2c0,2.5,0.8,4.5,2.4,6.2c1.6,1.6,3.7,2.5,6.2,2.5
			c2.1,0,4-0.6,5.6-1.8c1.6-1.2,2.5-2.9,2.8-5.1H118c-0.2,0.7-0.6,1.3-1.1,1.7c-0.6,0.4-1.2,0.6-2,0.6c-1.1,0-1.9-0.4-2.5-1.1
			c-0.6-0.7-0.9-1.7-0.9-2.9c0-1.2,0.3-2.1,0.9-2.8C112.9,9.6,113.8,9.2,114.9,9.2z M127,0.4c-1.7,0-3,1.3-3,3c0,1.7,1.3,3,3,3
			c1.7,0,3-1.3,3-3C130,1.7,128.6,0.4,127,0.4z"/>
	</g>
</g>
</svg>
