<svg width="42" height="31" viewBox="0 0 42 31" fill="none" xmlns="http://www.w3.org/2000/svg">
<path d="M9.44653 30.8C11.984 30.8 14.1318 29.896 15.8901 28.0878C17.6483 26.2796 18.5274 24.0868 18.5274 21.5093C18.5274 19.5313 17.998 17.813 16.939 16.3545C15.8801 14.896 14.5514 13.847 12.953 13.2076L18.3476 4.96588L12.0839 0.800049L2.85312 14.4964C2.03394 15.6752 1.35462 16.864 0.81516 18.0628C0.415559 19.2216 0.215759 20.3705 0.215759 21.5093C0.215759 24.0668 1.12485 26.2546 2.94303 28.0728C4.76121 29.891 6.92905 30.8 9.44653 30.8ZM32.6733 30.8C35.2108 30.8 37.3586 29.896 39.1169 28.0878C40.8751 26.2796 41.7542 24.0868 41.7542 21.5093C41.7542 19.5313 41.2248 17.813 40.1658 16.3545C39.1069 14.896 37.7782 13.847 36.1798 13.2076L41.5744 4.96588L35.2807 0.800049L26.0499 14.4964C25.2507 15.6752 24.5814 16.864 24.0419 18.0628C23.6024 19.1217 23.3826 20.2706 23.3826 21.5093C23.3826 24.0668 24.2917 26.2546 26.1099 28.0728C27.968 29.891 30.1558 30.8 32.6733 30.8Z" fill="#FFCA2E"/>
</svg>
