<svg width="38" height="65" viewBox="0 0 38 65" fill="none" xmlns="http://www.w3.org/2000/svg">
<g clip-path="url(#clip0_13_792)">
<path d="M32.3895 6.42857H27.1297V1.03896C27.1297 0.73593 27.0323 0.487012 26.8375 0.292207C26.6427 0.0974017 26.3938 -8.71718e-07 26.0908 -8.71718e-07H10.831C10.5713 -8.71718e-07 10.344 0.0974017 10.1492 0.292207C9.95442 0.487012 9.85702 0.73593 9.85702 1.03896V6.42857H4.53234C3.49338 6.42857 2.59511 6.79654 1.83754 7.53247C1.07996 8.2684 0.701172 9.1342 0.701172 10.1299V61.1688C0.701172 62.2078 1.07996 63.1061 1.83754 63.8636C2.59511 64.6212 3.49338 65 4.53234 65H32.5194C33.5583 65 34.4566 64.6212 35.2142 63.8636C35.9717 63.1061 36.3505 62.2078 36.3505 61.1688V10.1299C36.3072 9.1342 35.896 8.2684 35.1168 7.53247C34.3375 6.79654 33.4284 6.42857 32.3895 6.42857ZM11.87 1.94805H25.0518V6.2987H11.87V1.94805ZM34.3375 61.1688C34.3375 61.645 34.1536 62.0671 33.7856 62.4351C33.4176 62.803 32.9955 62.987 32.5194 62.987H4.53234C4.05615 62.987 3.63407 62.803 3.26611 62.4351C2.89814 62.0671 2.71416 61.645 2.71416 61.1688V10.1299C2.71416 9.65368 2.89814 9.2316 3.26611 8.86364C3.63407 8.49567 4.05615 8.31169 4.53234 8.31169H32.5194C32.9955 8.31169 33.4176 8.49567 33.7856 8.86364C34.1536 9.2316 34.3375 9.65368 34.3375 10.1299V61.1688ZM27.1947 35.8442L21.9349 33.8312L24.1427 21.6234C24.2293 21.4069 24.2185 21.2013 24.1103 21.0065C24.002 20.8117 23.8505 20.671 23.6557 20.5844C23.4609 20.4978 23.2553 20.4762 23.0388 20.5195C22.8224 20.5628 22.6492 20.671 22.5194 20.8442L9.33754 35.2597C9.25096 35.3463 9.18602 35.4762 9.14273 35.6494C9.09944 35.8225 9.09944 35.9957 9.14273 36.1688C9.2726 36.5584 9.46741 36.7965 9.72715 36.8831L15.1168 38.8961L14.5323 49.7403C14.5323 50.2165 14.7271 50.5628 15.1168 50.7792L15.2466 50.8442C15.3765 50.8874 15.4631 50.9091 15.5064 50.9091C15.8094 50.9091 16.0475 50.8009 16.2207 50.5844L27.5843 37.4675C27.7142 37.381 27.8007 37.2511 27.844 37.0779C27.8873 36.9048 27.8873 36.7316 27.844 36.5584C27.7142 36.1688 27.4977 35.9307 27.1947 35.8442ZM16.6752 47.013L17.1297 38.1818C17.1297 37.7056 16.9349 37.3593 16.5453 37.1429L11.87 35.3247L21.6103 24.6104L19.922 34.2208C19.8354 34.4805 19.857 34.7078 19.9869 34.9026C20.1168 35.0974 20.2899 35.2381 20.5064 35.3247L25.3116 37.1429L16.6752 47.013Z" fill="#7C9CCD"/>
</g>
<defs>
<clipPath id="clip0_13_792">
<rect width="36.56" height="65" fill="white" transform="matrix(1 0 0 -1 0.700195 65)"/>
</clipPath>
</defs>
</svg>
