<svg width="44" height="60" viewBox="0 0 44 60" fill="none" xmlns="http://www.w3.org/2000/svg">
<g clip-path="url(#clip0_101_116)">
<path d="M14.1229 25.2348C11.6853 26.6334 9.76723 28.5315 8.36863 30.9291C6.97003 33.3267 6.31069 35.8841 6.39061 38.6014C6.39061 38.9211 6.48052 39.1808 6.66034 39.3806C6.84016 39.5804 7.07992 39.6803 7.37962 39.6803C7.67932 39.6803 7.94905 39.5704 8.18881 39.3506C8.42857 39.1309 8.54845 38.8611 8.54845 38.5415C8.54845 36.1838 9.14785 33.976 10.3467 31.9181C11.5455 29.8601 13.1838 28.2118 15.2617 26.973C15.5415 26.8531 15.7113 26.6533 15.7712 26.3736C15.8312 26.0939 15.7912 25.8142 15.6513 25.5345C15.5115 25.2547 15.2917 25.0849 14.992 25.025C14.6923 24.965 14.4026 25.035 14.1229 25.2348ZM37.1998 23.5564C35.1618 21.4785 32.6244 19.8402 29.5874 18.6414C30.4665 18.2018 31.3257 17.5824 32.1648 16.7832C33.5634 15.3846 34.5524 13.7463 35.1319 11.8681C35.7113 9.99001 35.8012 8.07193 35.4016 6.11389C35.3217 5.63437 35.042 5.35464 34.5624 5.27473C31.9251 4.67533 29.4076 5.01499 27.01 6.29371C26.0909 3.6963 24.5125 1.65834 22.2747 0.179821C21.8751 -0.0998993 21.4755 -0.0998993 21.0759 0.179821C19.4376 1.25874 18.1588 2.66734 17.2398 4.40559C16.3207 6.14386 15.8611 8.01199 15.8611 10.01C15.8611 11.4486 16.0909 12.8072 16.5504 14.0859C17.01 15.3646 17.6793 16.5035 18.5584 17.5025C16.2807 17.8621 14.1329 18.5514 12.1149 19.5704C10.0969 20.5894 8.30869 21.9181 6.75025 23.5564C4.71229 25.5544 3.15385 27.8521 2.07492 30.4496C0.996004 33.047 0.456543 35.7742 0.456543 38.6314C0.456543 41.4885 0.996004 44.2158 2.07492 46.8132C3.15385 49.4106 4.72228 51.7183 6.78022 53.7363C8.83816 55.7542 11.1658 57.3027 13.7632 58.3816C16.3606 59.4605 19.1179 60 22.035 60C25.9111 60 29.5275 59.021 32.8841 57.0629C36.1608 55.1848 38.7383 52.6274 40.6164 49.3906C42.5744 46.0739 43.5534 42.4775 43.5534 38.6014C43.5534 35.7642 43.014 33.047 41.9351 30.4496C40.8561 27.8521 39.2777 25.5544 37.1998 23.5564ZM27.5494 8.45155C29.5075 7.41259 31.4855 7.03297 33.4835 7.31269C33.6434 8.75125 33.4835 10.1798 33.004 11.5984C32.5245 13.017 31.7652 14.2458 30.7263 15.2847C29.4875 16.5235 28.049 17.3427 26.4106 17.7423C26.4505 17.7423 26.3706 17.7223 26.1708 17.6823L25.032 17.5025C25.8711 16.4635 26.5305 15.3047 27.01 14.026C27.4895 12.7473 27.7293 11.4486 27.7293 10.1299L27.6693 9.83017C27.5894 9.15085 27.5494 8.69131 27.5494 8.45155ZM17.959 10.01C17.959 8.53147 18.2987 7.12288 18.978 5.78422C19.6573 4.44556 20.5764 3.33667 21.7353 2.45754C22.8941 3.33667 23.8132 4.44556 24.4925 5.78422C25.1718 7.12288 25.5115 8.52148 25.5115 9.98002C25.5115 11.4386 25.2118 12.7972 24.6124 14.0559C24.013 15.3147 23.1738 16.3836 22.0949 17.2627H21.3756C20.3367 16.3437 19.5075 15.2547 18.8881 13.996C18.2687 12.7373 17.959 11.4086 17.959 10.01ZM22.035 57.8422C19.4775 57.8422 17.01 57.3526 14.6324 56.3736C12.2547 55.3946 10.1469 53.996 8.30869 52.1778C6.47053 50.3596 5.06194 48.2917 4.08292 45.974C3.1039 43.6563 2.61439 41.2088 2.61439 38.6314C2.61439 36.0539 3.09391 33.5964 4.05295 31.2587C5.01199 28.9211 6.4006 26.8432 8.21878 25.025C10.037 23.2068 12.1249 21.8182 14.4825 20.8591C16.8402 19.9001 19.3177 19.4206 21.9151 19.4206C24.5125 19.4206 26.99 19.9001 29.3477 20.8591C31.7053 21.8182 33.8032 23.2168 35.6414 25.0549C37.4795 26.8931 38.8881 28.971 39.8671 31.2887C40.8462 33.6064 41.3357 36.044 41.3357 38.6014C41.3756 42.0779 40.5165 45.3147 38.7582 48.3117C37.04 51.2288 34.7223 53.5265 31.8052 55.2048C28.7682 56.963 25.5115 57.8422 22.035 57.8422Z" fill="#5BD87C"/>
</g>
<defs>
<clipPath id="clip0_101_116">
<rect width="43.11" height="60" fill="white" transform="matrix(1 0 0 -1 0.449997 60)"/>
</clipPath>
</defs>
</svg>
