<svg width="56" height="60" viewBox="0 0 56 60" fill="none" xmlns="http://www.w3.org/2000/svg">
<g clip-path="url(#clip0_101_109)">
<path d="M17.5738 56.1639C22.1692 57.9621 26.6547 58.4117 31.0303 57.5126C35.4059 56.6135 39.2121 54.4257 42.4489 50.9491C45.8055 47.2728 48.2031 42.5176 49.6417 36.6834C49.6817 36.4037 49.8215 36.1939 50.0613 36.054C50.301 35.9142 50.5608 35.8642 50.8405 35.9042C51.1202 35.9441 51.33 36.084 51.4699 36.3238C51.6097 36.5635 51.6597 36.8233 51.6197 37.103C50.1012 43.3767 47.5238 48.4716 43.8874 52.3877C40.4109 56.104 36.295 58.4516 31.5398 59.4307C26.7845 60.4097 21.9094 59.9202 16.9144 57.9621C13.2781 56.5236 10.1712 54.5256 7.59374 51.9681C5.01632 49.4107 3.15818 46.4536 2.01932 43.097C0.880454 39.7403 0.550784 36.2039 1.0303 32.4876C1.50983 28.5715 2.86847 24.7154 5.10623 20.9192C5.30603 20.5995 5.58575 20.4396 5.94539 20.4396C6.30503 20.4396 6.58475 20.5995 6.78455 20.9192C8.26307 23.1569 9.86147 24.5555 11.5798 25.115C14.5768 15.8442 19.2521 7.59249 25.6057 0.359726C25.8055 0.119965 26.0553 8.7738e-05 26.355 8.7738e-05C26.6547 8.7738e-05 26.9244 0.119965 27.1642 0.359726C31.5598 5.07501 35.356 10.6694 38.5528 17.1429C38.7126 17.3827 38.7426 17.6424 38.6427 17.9222C38.5428 18.2019 38.373 18.4017 38.1332 18.5216C37.8934 18.6414 37.6337 18.6414 37.354 18.5216C37.0743 18.4017 36.8944 18.2219 36.8145 17.9821C33.9374 12.1479 30.5008 6.99309 26.5048 2.51757C20.5108 9.55054 16.0952 17.5825 13.2581 26.6135C13.0583 27.133 12.6787 27.3527 12.1192 27.2728C10.0013 27.0331 7.98335 25.7144 6.06527 23.3168C3.62771 27.8722 2.54879 32.4077 2.82851 36.9232C3.06827 41.1989 4.49684 45.045 7.11422 48.4616C9.7316 51.8782 13.2181 54.4456 17.5738 56.1639ZM26.8645 51.0091C27.1442 51.049 27.364 51.1789 27.5238 51.3987C27.6836 51.6185 27.7436 51.8682 27.7036 52.1479C27.6637 52.4277 27.5338 52.6474 27.314 52.8073C27.0942 52.9671 26.8445 53.0271 26.5648 52.9871C22.329 52.4277 18.7526 51.2888 15.8355 49.5705C12.9184 47.8522 10.7806 45.5945 9.42191 42.7973C8.06327 40.0001 7.62371 36.7633 8.10323 33.087C8.14319 32.7274 8.333 32.4676 8.67266 32.3078C9.01232 32.1479 9.36197 32.1879 9.72161 32.4277C11.2001 33.6664 12.4988 34.4257 13.6177 34.7054C14.2571 34.8253 14.7666 34.8353 15.1462 34.7354C15.5258 34.6355 15.8355 34.3657 16.0753 33.9262C18.0733 25.8942 21.1302 18.7813 25.2461 12.5875C25.4459 12.3078 25.7156 12.1579 26.0553 12.1379C26.3949 12.118 26.6647 12.2279 26.8645 12.4676C29.382 15.8243 31.3999 19.6404 32.9184 23.9162C33.0383 24.1559 33.0383 24.4057 32.9184 24.6654C32.7985 24.9252 32.6187 25.095 32.379 25.1749C32.1392 25.2548 31.8894 25.2349 31.6297 25.115C31.37 24.9951 31.1802 24.8153 31.0603 24.5755C29.7416 20.8592 28.0833 17.6025 26.0852 14.8053C22.4888 20.4796 19.7516 27.073 17.8735 34.5855C17.354 35.5445 16.6747 36.1839 15.8355 36.5036C14.9963 36.8233 14.0773 36.8432 13.0783 36.5635C12.1592 36.3238 11.1002 35.7843 9.90143 34.9451C9.74159 39.4207 11.1402 43.037 14.0972 45.7943C17.0543 48.5515 21.31 50.2898 26.8645 51.0091ZM43.0483 19.6604L29.7416 33.0271C29.0223 33.7463 28.5328 34.6055 28.2731 35.6045C28.0133 36.6035 28.0133 37.6225 28.2731 38.6614C28.5328 39.7004 29.0423 40.5895 29.8015 41.3288C30.5608 42.068 31.4499 42.5675 32.4689 42.8273C33.4878 43.087 34.4968 43.087 35.4958 42.8273C36.4948 42.5675 37.354 42.078 38.0733 41.3587L51.4399 28.112C52.1592 27.3927 52.6487 26.5236 52.9084 25.5046C53.1682 24.4856 53.1682 23.4666 52.9084 22.4476C52.6487 21.4287 52.1492 20.5395 51.4099 19.7803C50.6707 19.0211 49.8015 18.5016 48.8025 18.2219C47.8035 17.9421 46.7945 17.9322 45.7756 18.1919C44.7566 18.4516 43.8475 18.9411 43.0483 19.6604ZM52.8185 29.4307L39.6317 42.6774C38.5927 43.6764 37.3939 44.3557 36.0353 44.7154C34.6767 45.075 33.328 45.075 31.9893 44.7154C30.6507 44.3557 29.4719 43.6664 28.4529 42.6474C27.4339 41.6285 26.7446 40.4496 26.3849 39.111C26.0253 37.7723 26.0253 36.4237 26.3849 35.065C26.7446 33.7064 27.4239 32.5276 28.4229 31.5286L41.7296 18.2818C42.7686 17.2828 43.9674 16.6035 45.326 16.2438C46.6847 15.8842 48.0333 15.8842 49.372 16.2438C50.7106 16.6035 51.8994 17.2828 52.9384 18.2818V18.4017C53.8974 19.3607 54.5468 20.5196 54.8864 21.8782C55.2261 23.2368 55.2161 24.5955 54.8565 25.9541C54.4968 27.3128 53.8175 28.4716 52.8185 29.4307ZM35.0763 31.5885C35.2761 31.3887 35.5158 31.2888 35.7955 31.2888C36.0753 31.2888 36.315 31.3887 36.5148 31.5885C36.7146 31.7883 36.8145 32.0281 36.8145 32.3078C36.8145 32.5875 36.7146 32.8273 36.5148 33.0271L32.5588 36.9232C32.4789 37.043 32.4389 37.1629 32.4389 37.2828C32.4389 37.4027 32.5088 37.5925 32.6487 37.8522C32.7885 38.112 32.8185 38.3617 32.7386 38.6015C32.6587 38.8412 32.5088 39.0311 32.289 39.1709C32.0693 39.3108 31.8195 39.3407 31.5398 39.2608C31.2601 39.1809 31.0803 39.041 31.0003 38.8412C30.1612 37.5226 30.2211 36.3837 31.1802 35.4247L35.0763 31.5885ZM44.8465 36.084L35.0163 26.3737C34.6966 26.054 34.5967 25.7244 34.7166 25.3847C34.8365 25.045 35.0763 24.8153 35.4359 24.6954C35.7955 24.5755 36.1152 24.6554 36.3949 24.9352L46.1652 34.7054C46.4449 34.9851 46.5348 35.3048 46.4349 35.6644C46.335 36.0241 46.1152 36.2638 45.7756 36.3837C45.4359 36.5036 45.1262 36.4037 44.8465 36.084Z" fill="#5BD87C"/>
</g>
<defs>
<clipPath id="clip0_101_109">
<rect width="54.38" height="60" fill="white" transform="matrix(1 0 0 -1 0.809998 60)"/>
</clipPath>
</defs>
</svg>
