<svg width="52" height="60" viewBox="0 0 52 60" fill="none" xmlns="http://www.w3.org/2000/svg">
<g clip-path="url(#clip0_101_94)">
<path d="M8.49253 9.11091C8.2128 9.11091 7.98303 9.01101 7.80321 8.81121C7.62339 8.61141 7.53348 8.39163 7.53348 8.15187V3.65637C7.53348 2.61741 7.88313 1.74828 8.58244 1.04898C9.28174 0.349674 10.1309 2.28882e-05 11.1299 2.28882e-05H16.9441C17.9031 2.28882e-05 18.7323 0.349674 19.4316 1.04898C20.1309 1.74828 20.4805 2.61741 20.4805 3.65637V8.15187C20.4805 8.43159 20.3906 8.66136 20.2108 8.84118C20.031 9.021 19.8012 9.11091 19.5215 9.11091H8.49253ZM9.39163 7.19283H18.6224V3.65637C18.6224 3.17685 18.4526 2.77725 18.1129 2.45757C17.7732 2.13789 17.3836 1.97805 16.9441 1.97805H11.1299C10.6504 1.97805 10.2408 2.13789 9.90112 2.45757C9.56146 2.77725 9.39163 3.17685 9.39163 3.65637V7.19283ZM25.2757 20.2598C25.2757 18.4216 24.6464 16.7433 23.3876 15.2248C22.1289 13.7063 20.4406 12.5675 18.3227 11.8082C18.003 11.6883 17.8032 11.4286 17.7233 11.029C17.6434 10.6294 17.6034 9.99004 17.6034 9.11091H10.4705C10.4705 9.91011 10.4206 10.5195 10.3207 10.9391C10.2208 11.3587 10.011 11.6284 9.69133 11.7483C7.57344 12.4276 5.86515 13.5365 4.56645 15.075C3.26775 16.6134 2.59842 18.3417 2.55846 20.2598C2.55846 21.1788 2.68833 21.998 2.94807 22.7173C3.20781 23.4366 3.63738 24.1359 4.23678 24.8152L5.55546 26.3736C6.1149 27.0929 6.39462 27.7922 6.39462 28.4716C6.39462 29.3906 5.97504 30.2498 5.13588 31.049L4.23678 31.7683C3.63738 32.2877 3.20781 32.7972 2.94807 33.2967C2.68833 33.7962 2.55846 34.4256 2.55846 35.1848V53.8262C2.55846 54.985 2.96805 55.974 3.78723 56.7932C4.60641 57.6124 5.57544 58.022 6.69432 58.022H21.2598C22.3786 58.022 23.3377 57.6124 24.1369 56.7932C24.9361 55.974 25.3357 54.985 25.3357 53.8262V50.6494L25.1559 50.5295L24.4965 49.8702L24.017 49.6903L23.4775 49.1509L23.1778 49.031L22.6384 48.5515C22.4386 48.3517 22.3187 48.1918 22.2787 48.072L22.1589 48.012C21.9591 47.8122 21.8392 47.6524 21.7992 47.5325L21.6793 47.4126L21.3197 46.8732L21.2598 46.7533L20.8402 46.2138V46.1539L20.7203 45.9141C20.6004 45.7543 20.5205 45.6144 20.4805 45.4945V45.3746C20.4406 45.2548 20.3607 45.1149 20.2408 44.9551L20.1209 44.7153C20.001 44.4755 19.9011 44.2558 19.8212 44.056V43.996C19.7812 43.7962 19.6813 43.5764 19.5215 43.3367V43.2168L19.2817 42.4975V42.3776L19.2218 42.1978C19.1419 41.9581 19.1019 41.7583 19.1019 41.5984L18.982 41.1788C18.9421 40.979 18.9021 40.8392 18.8622 40.7593V40.6993C18.8222 40.4995 18.8022 40.2198 18.8022 39.8602L18.6224 37.9421V35.1848C19.062 32.2678 20.5804 28.9111 23.1778 25.1149L23.2977 25.055V24.9351L23.8372 24.3956L23.9571 24.2158L24.017 24.0959V23.9161L24.1369 23.7962V23.6164L24.2568 23.5565V23.4366L24.3167 23.3167L24.4366 23.1369L24.6164 22.9571V22.8971L24.6763 22.7772L24.7962 22.5974L24.6763 22.4775L25.0959 22.1179V21.8781C25.2158 21.1988 25.2757 20.6594 25.2757 20.2598ZM27.1339 20.2598C27.1339 21.2588 27.014 22.1379 26.7742 22.8971L26.5944 23.2568L26.2947 23.5565V23.6164L25.995 23.9161V23.976L25.9351 24.2158L25.7553 24.3956V24.4556L25.6354 24.5754V24.8152L25.5155 24.9351V25.055L25.4556 25.1149V25.2348H25.0959L24.7962 25.4745V25.4146L24.6763 25.4745V25.7143L24.6164 25.7743V25.8941C22.1389 29.5305 20.7203 32.6274 20.3607 35.1848V37.7023C20.3607 38.062 20.4006 38.3017 20.4805 38.4216V38.5415C20.4805 38.6214 20.5005 38.7613 20.5405 38.9611L20.6604 40.2198L20.7802 40.5195C20.7802 40.6793 20.8002 40.7992 20.8402 40.8791V40.9391C20.8801 41.019 20.9201 41.1389 20.9601 41.2987C21 41.4586 21.02 41.5585 21.02 41.5984V41.7183C21.1798 41.9581 21.2598 42.1379 21.2598 42.2578V42.3776L21.4995 43.037V43.0969C21.6194 43.3766 21.7193 43.5964 21.7992 43.7563L22.0989 44.3557C22.2188 44.5954 22.3387 44.7752 22.4586 44.8951V45.015C22.5784 45.2548 22.6983 45.4146 22.8182 45.4945L22.9381 45.5545C22.978 45.6743 23.0979 45.8342 23.2977 46.034L23.6574 46.5135L24.6763 47.5325L25.0959 47.8322L25.2757 48.012L25.6354 48.2518L25.8152 48.3717C25.8951 48.4516 25.9551 48.4915 25.995 48.4915L25.9351 48.7313C25.9351 48.7313 25.9551 48.7313 25.995 48.7313L26.5944 49.031L26.8342 49.2108C27.1539 49.4106 27.3137 49.6903 27.3137 50.05V53.7063C27.3137 54.8252 27.044 55.8542 26.5045 56.7932C25.9651 57.7323 25.2358 58.4815 24.3167 59.041C23.3976 59.6004 22.3986 59.8801 21.3197 59.8801H6.69432C5.6154 59.9201 4.6164 59.6704 3.69732 59.1309C2.77824 58.5914 2.04897 57.8422 1.50951 56.8831C0.970048 55.9241 0.700317 54.9051 0.700317 53.8262V35.1848C0.700317 34.1459 0.880138 33.2568 1.23978 32.5175C1.59942 31.7782 2.17884 31.069 2.97804 30.3896C3.09792 30.3097 3.37764 30.05 3.8172 29.6104C4.09692 29.3707 4.28673 29.1709 4.38663 29.011C4.48653 28.8512 4.53648 28.6714 4.53648 28.4716C4.53648 28.1918 4.37664 27.8522 4.05696 27.4526C3.97704 27.3327 3.75726 27.073 3.39762 26.6734L2.85816 26.074C2.13888 25.1149 1.59942 24.2158 1.23978 23.3766C0.880138 22.4176 0.700317 21.3387 0.700317 20.1399C0.740277 17.9421 1.46955 15.9341 2.88813 14.1159C4.30671 12.2977 6.17484 10.9291 8.49253 10.01C8.49253 9.21082 8.45257 8.63139 8.37264 8.27175C8.33268 7.99203 8.4126 7.73229 8.61241 7.49253C8.81221 7.25277 9.05197 7.13289 9.33169 7.13289H18.6224C18.9421 7.13289 19.1918 7.25277 19.3716 7.49253C19.5515 7.73229 19.6014 8.01201 19.5215 8.33169C19.4815 8.77125 19.4616 9.37066 19.4616 10.1299C21.7792 11.009 23.6374 12.3677 25.036 14.2058C26.4346 16.044 27.1339 18.062 27.1339 20.2598ZM28.992 20.2598C25.8751 23.976 23.6274 27.1828 22.2488 29.8801C20.8701 32.5774 20.1808 34.9251 20.1808 36.9231C20.1808 40.5595 21.1599 43.6164 23.1179 46.0939C24.9161 48.3317 27.2737 49.8702 30.1908 50.7093C32.9481 51.5085 35.7253 51.5085 38.5225 50.7093C41.4396 49.8702 43.7972 48.3317 45.5954 46.0939C47.5535 43.6164 48.5325 40.5595 48.5325 36.9231C48.5325 34.9251 47.8432 32.5774 46.4646 29.8801C45.0859 27.1828 42.8382 23.976 39.7213 20.2598L34.3267 14.1459C33.6074 14.9451 32.6883 15.984 31.5694 17.2628C30.3706 18.6214 29.5115 19.6204 28.992 20.2598ZM50.3906 36.9231C50.3906 39.5605 49.9311 41.9381 49.012 44.056C48.1728 46.014 46.9541 47.6923 45.3557 49.0909C43.8771 50.4496 42.1888 51.4686 40.2907 52.1479C38.3926 52.8272 36.4146 53.1669 34.3567 53.1669C32.2987 53.1669 30.3207 52.8272 28.4226 52.1479C26.5245 51.4686 24.8362 50.4496 23.3577 49.0909C21.7593 47.6923 20.5405 46.014 19.7013 44.056C18.7822 41.9381 18.3227 39.5605 18.3227 36.9231C18.3227 34.4456 19.0819 31.7882 20.6004 28.9511C22.1589 25.9141 24.4965 22.6174 27.6134 19.061C28.1329 18.4216 29.4316 16.9231 31.5095 14.5655C32.9081 13.007 33.6474 12.1878 33.7273 12.1079C33.8871 11.8682 34.1069 11.7483 34.3866 11.7483C34.6664 11.7483 34.8961 11.8582 35.0759 12.0779C35.2558 12.2977 37.3037 14.6254 41.2198 19.061C44.4566 22.8971 46.7942 26.1938 48.2328 28.9511C49.6713 32.028 50.3906 34.6853 50.3906 36.9231ZM34.9261 44.2358C35.2058 44.2358 35.4356 44.3257 35.6154 44.5055C35.7952 44.6853 35.8851 44.9151 35.8851 45.1948C35.8851 45.4745 35.7952 45.7143 35.6154 45.9141C35.4356 46.1139 35.2058 46.2138 34.9261 46.2138C32.968 46.2937 31.2298 45.9441 29.7113 45.1649C28.1928 44.3856 27.034 43.2268 26.2348 41.6883C25.4356 40.1499 25.0759 38.3417 25.1559 36.2638C25.1559 35.984 25.2558 35.7643 25.4556 35.6044C25.6554 35.4446 25.8951 35.3647 26.1748 35.3647C26.4546 35.3647 26.6843 35.4646 26.8642 35.6644C27.044 35.8642 27.1339 36.1039 27.1339 36.3836C27.014 38.9011 27.6634 40.8692 29.0819 42.2877C30.5005 43.7063 32.4486 44.3557 34.9261 44.2358ZM13.6474 43.5165H1.65936C1.25976 43.5165 0.980038 43.3467 0.820198 43.007C0.660357 42.6674 0.660357 42.3377 0.820198 42.018C0.980038 41.6983 1.25976 41.5385 1.65936 41.5385H13.6474C14.047 41.5385 14.3267 41.6983 14.4865 42.018C14.6464 42.3377 14.6464 42.6674 14.4865 43.007C14.3267 43.3467 14.047 43.5165 13.6474 43.5165ZM13.6474 50.8292H1.65936C1.25976 50.8292 0.980038 50.6594 0.820198 50.3197C0.660357 49.98 0.660357 49.6504 0.820198 49.3307C0.980038 49.011 1.25976 48.8512 1.65936 48.8512H13.6474C14.047 48.8911 14.3267 49.071 14.4865 49.3906C14.6464 49.7103 14.6464 50.03 14.4865 50.3497C14.3267 50.6694 14.047 50.8292 13.6474 50.8292ZM13.6474 41.5385V43.5165H1.65936V41.5385H13.6474ZM13.6474 36.7433H1.65936C1.25976 36.7433 0.980038 36.5834 0.820198 36.2638C0.660357 35.9441 0.660357 35.6144 0.820198 35.2747C0.980038 34.9351 1.25976 34.7653 1.65936 34.7653H13.6474C14.047 34.7653 14.3267 34.9351 14.4865 35.2747C14.6464 35.6144 14.6464 35.9441 14.4865 36.2638C14.3267 36.5834 14.047 36.7433 13.6474 36.7433Z" fill="#5BD87C"/>
</g>
<defs>
<clipPath id="clip0_101_94">
<rect width="50.59" height="60" fill="white" transform="matrix(1 0 0 -1 0.700012 60)"/>
</clipPath>
</defs>
</svg>
