<svg width="60" height="60" viewBox="0 0 60 60" fill="none" xmlns="http://www.w3.org/2000/svg">
<g clip-path="url(#clip0_101_102)">
<path d="M31.049 56.943C30.8092 57.0629 30.6094 57.1228 30.4496 57.1228C30.2098 57.1228 30.03 57.0629 29.9101 56.943C19.5604 51.1887 11.9481 44.9949 7.07293 38.3616C6.87313 38.1218 6.79321 37.8621 6.83317 37.5823C6.87313 37.3026 7.01299 37.0828 7.25275 36.923C7.49251 36.7632 7.75225 36.7032 8.03197 36.7432C8.31169 36.7831 8.53147 36.923 8.69131 37.1628C13.3267 43.4365 20.5594 49.3706 30.3896 54.965C38.0619 50.6093 44.1958 45.9939 48.7912 41.1188C53.1868 36.4435 55.984 31.7682 57.1828 27.0928C58.3417 22.5374 57.9421 18.2417 55.984 14.2057C54.7453 11.6882 53.0669 9.65028 50.9491 8.09184C48.9111 6.57335 46.6733 5.64428 44.2358 5.30462C41.7982 4.96496 39.4605 5.25467 37.2228 6.17375C34.8651 7.17275 32.8671 8.79113 31.2288 11.0289C31.029 11.3486 30.7193 11.5084 30.2997 11.5084C29.8801 11.5084 29.5504 11.3486 29.3107 11.0289C27.3526 8.27166 24.975 6.45347 22.1778 5.57435C19.5804 4.77515 16.9331 4.8251 14.2358 5.7242C11.5385 6.6233 9.23077 8.19173 7.31269 10.4295C5.27472 12.7871 3.95604 15.5044 3.35664 18.5813C2.71728 21.938 3.03696 25.3945 4.31568 28.951L4.55544 29.6103C4.67532 29.89 4.67532 30.1598 4.55544 30.4195C4.43556 30.6792 4.24575 30.8591 3.98601 30.959C3.72627 31.0589 3.46653 31.0489 3.20679 30.929C2.94705 30.8091 2.75724 30.6293 2.63736 30.3895L2.3976 29.7302C0.999001 25.8541 0.639361 22.0579 1.31868 18.3416C1.95804 14.945 3.37662 11.928 5.57443 9.29063C7.69231 6.77316 10.2398 4.95497 13.2168 3.83609C16.1938 2.71721 19.1608 2.53739 22.1179 3.29663C25.2747 4.09583 28.032 5.91401 30.3896 8.75117C32.3077 6.47345 34.5854 4.85507 37.2228 3.89603C39.7403 3.01691 42.3377 2.80712 45.015 3.26666C47.6923 3.7262 50.1498 4.81511 52.3876 6.53339C54.7053 8.29163 56.5435 10.5294 57.9021 13.2467C60.0999 17.6822 60.5794 22.3775 59.3407 27.3326C58.0619 32.3676 55.1049 37.3825 50.4695 42.3775C45.5944 47.5724 39.1209 52.4275 31.049 56.943ZM17.7423 34.1058C17.6224 34.3056 17.4725 34.4655 17.2927 34.5853C17.1129 34.7052 16.9431 34.7652 16.7832 34.7652H1.01898C0.739261 34.7652 0.4995 34.6653 0.2997 34.4655C0.0999001 34.2657 0 34.0159 0 33.7162C0 33.4165 0.0999001 33.1668 0.2997 32.967C0.4995 32.7672 0.739261 32.6673 1.01898 32.6673H16.1239L21.5185 18.1618C21.7183 17.7622 22.0579 17.5624 22.5375 17.5624C23.017 17.5624 23.3367 17.7622 23.4965 18.1618L32.0679 40.3995L36.7433 33.1468C36.983 32.8271 37.2827 32.6673 37.6424 32.6673H46.3936C46.6733 32.6673 46.9131 32.7672 47.1129 32.967C47.3127 33.1668 47.4126 33.4165 47.4126 33.7162C47.4126 34.0159 47.3127 34.2657 47.1129 34.4655C46.9131 34.6653 46.6733 34.7652 46.3936 34.7652H38.1818L32.6673 43.3366C32.4276 43.6962 32.0979 43.8561 31.6783 43.8161C31.2587 43.7761 30.989 43.5564 30.8691 43.1568L22.5974 21.6383L17.7423 34.1058Z" fill="#5BD87C"/>
</g>
<defs>
<clipPath id="clip0_101_102">
<rect width="60.02" height="60" fill="white" transform="matrix(1 0 0 -1 -0.0100098 60)"/>
</clipPath>
</defs>
</svg>
