<svg width="50" height="51" viewBox="0 0 50 51" fill="none" xmlns="http://www.w3.org/2000/svg">
<path d="M35.4208 34.6761C35.4874 34.8759 35.4625 35.0757 35.3459 35.2755C35.2294 35.4753 35.0712 35.5918 34.8714 35.6251L20.4358 39.4713L20.236 39.5212C20.0695 39.5212 19.9197 39.4713 19.7865 39.3714C19.6533 39.2715 19.5617 39.1216 19.5117 38.9218C19.4618 38.722 19.4868 38.5306 19.5867 38.3474C19.6866 38.1643 19.8364 38.0394 20.0362 37.9728L34.4718 34.1266C34.6716 34.06 34.8631 34.085 35.0462 34.2016C35.2294 34.3181 35.3542 34.4763 35.4208 34.6761ZM17.4888 26.0847C17.0892 25.8516 16.8394 25.5186 16.7395 25.0857L14.1921 15.6951C14.0922 15.2622 14.1504 14.8542 14.3669 14.4713C14.5833 14.0883 14.908 13.8303 15.3409 13.6971L26.3799 10.75C26.8128 10.6168 27.2207 10.6668 27.6036 10.8999C27.9866 11.133 28.2447 11.466 28.3779 11.8989L30.8754 21.2895C31.0086 21.7224 30.9586 22.1303 30.7255 22.5133C30.4924 22.8962 30.1594 23.1543 29.7265 23.2875L18.6876 26.2345C18.5544 26.2678 18.4212 26.2845 18.288 26.2845C17.9883 26.2845 17.7219 26.2179 17.4888 26.0847ZM29.3769 21.6891L28.7275 19.3414L25.7805 17.0437L22.5337 22.1886C22.3672 22.4217 22.1341 22.5382 21.8344 22.5382C21.7012 22.5382 21.5514 22.4883 21.3849 22.3884C21.2184 22.2885 21.1185 22.1303 21.0852 21.9139C21.0519 21.6974 21.0852 21.5059 21.1851 21.3394L21.6346 20.6401L19.9363 19.4913L17.6386 22.4883L18.238 24.6861L18.288 24.736L29.3269 21.789C29.3602 21.7557 29.3769 21.7224 29.3769 21.6891ZM15.7405 15.2955L17.1391 20.5902L19.1371 17.9928C19.2703 17.8263 19.4368 17.7264 19.6366 17.6931C19.8364 17.6598 20.0196 17.6931 20.1861 17.793L22.4838 19.2915L24.9313 15.4453C25.0645 15.2788 25.2477 15.1706 25.4808 15.1206C25.7139 15.0707 25.9137 15.129 26.0802 15.2955L28.0782 16.8439L26.8294 12.2985V12.2485L15.7405 15.1956C15.7072 15.1956 15.6906 15.2289 15.6906 15.2955H15.7405ZM22.0342 17.4933C22.2673 17.4267 22.4505 17.2852 22.5837 17.0687C22.7169 16.8522 22.7502 16.6192 22.6836 16.3694C22.617 16.1196 22.4671 15.9282 22.234 15.795C22.0009 15.6618 21.7678 15.6285 21.5347 15.6951C21.3016 15.7617 21.1185 15.9032 20.9853 16.1196C20.8521 16.3361 20.8188 16.5692 20.8854 16.8189C20.952 17.0687 21.0935 17.2602 21.3099 17.3934C21.5264 17.5266 21.7678 17.5599 22.0342 17.4933ZM45.8104 26.9838C45.9769 27.2835 46.0602 27.5832 46.0602 27.8829C46.0602 28.1826 45.9769 28.4656 45.8104 28.732C45.6439 28.9984 45.4275 29.2066 45.1611 29.3564C44.8947 29.5063 44.595 29.5645 44.262 29.5312C43.0299 29.4979 42.0309 29.4979 41.265 29.5312C41.7978 31.2628 42.0642 32.8779 42.0642 34.3764C42.0309 35.5752 41.6479 36.6408 40.9153 37.5732C40.1827 38.5056 39.2337 39.1383 38.0682 39.4713L13.0932 46.1646C12.627 46.2645 12.1441 46.3145 11.6446 46.3145C10.7122 46.3145 9.8464 46.0897 9.0472 45.6401C8.248 45.1906 7.59865 44.5496 7.09915 43.7171C6.13345 42.1186 5.4175 40.2205 4.9513 38.0227C4.6516 36.6907 4.36855 34.6428 4.10215 31.8789C3.90235 29.8143 3.7192 28.2492 3.5527 27.1836C3.2863 25.452 2.90335 23.8869 2.40385 22.4883C1.83775 20.8233 1.08849 19.2915 0.156094 17.8929C-0.0104063 17.6931 -0.0437063 17.4683 0.0561938 17.2185C0.156094 16.9688 0.322594 16.8106 0.555694 16.744L3.6526 15.8949C3.586 15.3288 3.53605 14.7793 3.50275 14.2465C3.50275 14.0467 3.56102 13.8802 3.67757 13.747C3.79412 13.6138 3.93565 13.5139 4.10215 13.4473L6.0502 12.9478L6.10015 12.2485C6.10015 12.082 6.1501 11.9322 6.25 11.799C6.3499 11.6658 6.4831 11.5825 6.6496 11.5492L31.6246 4.85591C31.891 4.78931 32.1325 4.83926 32.3489 5.00576C32.5654 5.17226 32.6569 5.38871 32.6236 5.65511C32.4904 7.71972 32.7901 9.93417 33.5227 12.2985C34.0888 14.0967 35.0212 16.2945 36.3199 18.8919L37.269 17.2935C37.602 16.7274 38.0848 16.4443 38.7175 16.4443C39.3835 16.4443 39.883 16.7274 40.216 17.2935L41.8144 20.0907C42.3805 19.9575 42.93 19.9991 43.4628 20.2156C43.9956 20.432 44.4035 20.79 44.6866 21.2895C44.9696 21.789 45.0778 22.3301 45.0112 22.9129C44.9446 23.4956 44.7115 23.9868 44.3119 24.3864L45.8104 26.9838ZM42.7135 21.5892L43.4128 22.8879C43.5127 22.5882 43.4878 22.3135 43.3379 22.0637C43.1881 21.814 42.9799 21.6558 42.7135 21.5892ZM33.1231 30.5302L35.1711 29.3314L32.9233 25.4353L30.8754 26.6341C30.4758 26.8672 30.1761 27.1669 29.9763 27.5332V27.6331C29.8098 27.9661 29.7265 28.3158 29.7265 28.6821C29.7265 29.0484 29.8264 29.398 30.0262 29.731C30.3259 30.2638 30.7838 30.6052 31.3999 30.755C32.0159 30.9049 32.5903 30.8299 33.1231 30.5302ZM35.3709 31.0297L36.9193 33.6771C37.0192 33.8769 37.1608 34.0101 37.3439 34.0767C37.5271 34.1433 37.7185 34.1433 37.9183 34.0767L35.9703 30.6801L35.3709 31.0297ZM41.7145 27.9328L37.3189 20.3404C36.22 22.1386 35.1877 23.5372 34.222 24.5362L36.6196 28.6821C38.0515 28.2159 39.7498 27.9661 41.7145 27.9328ZM8.09815 42.3184C8.56435 42.4516 9.03055 42.4683 9.49675 42.3684C10.0629 42.2019 10.5207 41.8939 10.8704 41.4443C11.22 40.9948 11.4115 40.4703 11.4448 39.8709C11.5114 38.3058 11.1451 36.3744 10.3459 34.0767C9.8797 32.7114 8.99725 30.5469 7.69855 27.5832C6.66625 25.3188 5.93365 23.6205 5.50075 22.4883C4.76815 20.5902 4.23535 18.9085 3.90235 17.4433L2.00425 17.9428C3.23635 19.9741 4.13545 22.2718 4.70155 24.8359C5.03455 26.3677 5.3509 28.6654 5.6506 31.729C5.917 34.2265 6.16675 36.0747 6.39985 37.2735C6.76615 39.2382 7.33225 40.9198 8.09815 42.3184ZM15.4908 41.0197C15.5241 39.2881 15.0912 37.2901 14.1921 35.0257C13.6593 33.6604 12.6436 31.5459 11.1451 28.6821C9.58 25.6518 8.4811 23.3541 7.8484 21.789C6.8161 19.1583 6.23335 16.744 6.10015 14.5462L5.10115 14.796C5.20105 16.461 5.66725 18.4423 6.49975 20.74C6.99925 22.1053 7.86505 24.1699 9.09715 26.9338V26.9838C10.4625 30.0474 11.3949 32.2951 11.8944 33.727C12.6936 36.1246 13.0599 38.1892 12.9933 39.9208C12.96 40.8865 12.6603 41.7274 12.0942 42.4433C11.5281 43.1593 10.7955 43.6338 9.89635 43.8669C9.72985 43.9002 9.5467 43.9335 9.3469 43.9668C9.8131 44.3331 10.3376 44.5745 10.9203 44.6911C11.5031 44.8076 12.0942 44.7827 12.6936 44.6162C13.5261 44.4164 14.2004 43.9835 14.7165 43.3175C15.2327 42.6514 15.4908 41.8855 15.4908 41.0197ZM39.6666 29.6311C38.8674 29.731 38.1181 29.8809 37.4188 30.0807L39.6666 34.0267C39.7998 34.1932 39.8331 34.3847 39.7665 34.6012C39.6999 34.8176 39.5833 34.9758 39.4168 35.0757L38.8674 35.3754C38.5011 35.5752 38.1015 35.6751 37.6686 35.6751C37.2357 35.6751 36.8278 35.5752 36.4448 35.3754C36.0619 35.1756 35.7705 34.8759 35.5707 34.4763L34.0222 31.8289L33.8724 31.8789C33.3063 32.2119 32.6736 32.3784 31.9743 32.3784C31.6413 32.3784 31.3083 32.3451 30.9753 32.2785L30.7755 32.1786L19.3369 35.2755H19.0872C18.9207 35.2755 18.7708 35.2255 18.6376 35.1256C18.5044 35.0257 18.4128 34.8759 18.3629 34.6761C18.3129 34.4763 18.3379 34.2848 18.4378 34.1017C18.5377 33.9185 18.6876 33.7936 18.8874 33.727L29.0272 31.0297C28.894 30.8632 28.7775 30.6801 28.6776 30.4803C28.278 29.8143 28.1115 29.0983 28.1781 28.3324L18.1881 31.0297H17.9883C17.7885 31.0297 17.622 30.9798 17.4888 30.8799C17.3556 30.78 17.264 30.6301 17.214 30.4303C17.1641 30.2305 17.1891 30.0391 17.289 29.8559C17.3889 29.6728 17.5554 29.5479 17.7885 29.4813L28.7775 26.5342C29.1105 26.0014 29.5434 25.5852 30.0762 25.2855L32.7735 23.737C33.606 22.9711 34.4718 21.8889 35.3709 20.4903C33.9723 17.7264 32.9566 15.4453 32.3239 13.6471C31.4581 11.1496 31.0252 8.81861 31.0252 6.65411L7.59865 12.8979C7.56535 14.5296 7.7818 16.2445 8.248 18.0427C8.6476 19.5412 9.26365 21.2062 10.0962 23.0377C10.5957 24.1366 11.4115 25.7683 12.5437 27.9328C14.1088 30.9298 15.1744 33.1609 15.7405 34.6261C16.6396 36.9904 17.0725 39.1383 17.0392 41.0697C17.0392 42.0021 16.8061 42.8679 16.3399 43.6671L37.6686 37.9228C38.5011 37.723 39.1754 37.2901 39.6916 36.6241C40.2077 35.9581 40.4658 35.1922 40.4658 34.3264C40.4991 32.9278 40.2327 31.3627 39.6666 29.6311ZM44.4618 27.783L38.8674 18.0927C38.8341 18.0261 38.7841 17.9928 38.7175 17.9928C38.6842 17.9928 38.6509 18.0261 38.6176 18.0927L38.218 18.792L43.5127 27.9828H44.3119C44.3785 27.9828 44.4285 27.9578 44.4618 27.9079C44.4951 27.8579 44.4951 27.8163 44.4618 27.783ZM43.3129 19.1916C43.3795 19.1916 43.4461 19.1916 43.5127 19.1916C43.7125 19.1916 43.879 19.1416 44.0122 19.0417C44.1454 18.9418 44.2453 18.8086 44.3119 18.6421L44.6116 17.3934C44.6782 17.1936 44.6533 17.0021 44.5367 16.8189C44.4202 16.6358 44.262 16.5192 44.0622 16.4693C43.8624 16.4193 43.6709 16.4443 43.4878 16.5442C43.3046 16.6441 43.1797 16.794 43.1131 16.9938L42.7635 18.2425C42.7302 18.4423 42.7635 18.6338 42.8634 18.817C42.9633 19.0001 43.1131 19.125 43.3129 19.1916ZM46.1101 21.2395C46.2433 21.2395 46.3765 21.2062 46.5097 21.1396L47.6086 20.4903C47.7751 20.3904 47.8917 20.2405 47.9583 20.0407C48.0249 19.8409 47.9999 19.6495 47.8834 19.4663C47.7668 19.2832 47.6086 19.1583 47.4088 19.0917C47.209 19.0251 47.0092 19.0417 46.8094 19.1416L45.7105 19.791C45.544 19.8909 45.4275 20.0491 45.3609 20.2655C45.2943 20.482 45.3276 20.6734 45.4608 20.8399C45.594 21.1063 45.8104 21.2395 46.1101 21.2395ZM47.8584 23.3374L46.6596 22.9878C46.4265 22.9212 46.2184 22.9462 46.0352 23.0627C45.8521 23.1793 45.7355 23.3374 45.6856 23.5372C45.6356 23.737 45.6606 23.9368 45.7605 24.1366C45.8604 24.3364 46.0269 24.453 46.26 24.4863L47.4588 24.8359H47.6586C47.8251 24.8359 47.9833 24.786 48.1331 24.6861C48.283 24.5862 48.3829 24.4363 48.4328 24.2365C48.4828 24.0367 48.4495 23.8453 48.3329 23.6621C48.2164 23.479 48.0582 23.3707 47.8584 23.3374Z" fill="#88C040"/>
</svg>
