<svg width="122" height="123" viewBox="0 0 122 123" fill="none" xmlns="http://www.w3.org/2000/svg">
<rect x="11" y="11.1899" width="100" height="100" rx="50" fill="#88C040"/>
<g clip-path="url(#clip0_14_1522)">
<path d="M83.6394 44.191C83.0959 44.6385 82.5205 45.134 81.9131 45.6775C80.6983 46.7963 79.7872 47.8353 79.1798 48.7943C78.8282 49.3058 78.5245 49.9452 78.2687 50.7124C78.1089 51.192 77.9171 51.9432 77.6933 52.9662C77.4376 53.9892 77.2298 54.7564 77.0699 55.2679C76.7822 56.131 76.4625 56.8823 76.1109 57.5216C75.9191 57.8733 75.3756 58.7524 74.4805 60.159C71.987 64.0591 70.3407 66.8723 69.5415 68.5985C69.2218 69.2379 68.6783 70.4367 67.9111 72.195V72.2909C66.7602 74.9122 65.8811 76.8463 65.2737 78.0931C64.2507 80.2029 63.4675 81.4976 62.9241 81.9772C62.5724 82.2649 62.2447 82.4487 61.9411 82.5286C61.6374 82.6085 61.3896 82.5766 61.1978 82.4327C61.006 82.2889 60.99 82.0091 61.1498 81.5936C61.5974 80.5706 62.9081 76.6385 65.0819 69.7973L65.3217 69.8453C65.5454 69.8453 65.7692 69.8293 65.993 69.7973C66.2168 69.7654 66.4006 69.6615 66.5444 69.4857C66.6883 69.3098 66.7442 69.11 66.7123 68.8863C66.6803 68.6625 66.5764 68.4787 66.4006 68.3348C66.2248 68.191 66.025 68.135 65.8012 68.167C65.4176 68.2309 65.034 68.2309 64.6503 68.167L64.3626 68.119C64.1708 68.0551 64.0429 68.0071 63.979 67.9752C63.7552 67.9112 63.5474 67.9192 63.3556 67.9991C63.1638 68.0791 63.02 68.2389 62.9241 68.4787C62.8282 68.7184 62.8601 68.9502 63.02 69.174C59.0879 75.5036 56.4505 79.4677 55.1079 81.0661C54.7243 81.5776 54.3247 81.9212 53.9091 82.097C53.4935 82.2729 53.1738 82.2809 52.95 82.121C52.8222 82.0251 52.7502 81.8972 52.7343 81.7374C52.7183 81.5776 52.7582 81.4017 52.8541 81.2099C54.2927 78.4607 56.3067 74.0331 58.8961 67.9272C59.1518 68.0231 59.4076 68.0711 59.6633 68.0711H59.7592C59.951 68.0711 60.1269 68.0071 60.2867 67.8793C60.4465 67.7514 60.5345 67.5756 60.5504 67.3518C60.5664 67.128 60.5025 66.9362 60.3586 66.7764C60.2148 66.6165 60.031 66.5206 59.8072 66.4887C59.4555 66.4567 59.0879 66.3608 58.7043 66.2009C58.5444 66.137 58.3686 66.0571 58.1768 65.9612L57.9371 65.8173C57.7772 65.6895 57.5854 65.6495 57.3616 65.6974C57.1379 65.7454 56.954 65.8653 56.8102 66.0571C56.6663 66.2489 56.6423 66.4727 56.7383 66.7284C54.2447 70.5006 52.3107 73.5056 50.9361 75.7434C49.5614 77.9812 48.3466 79.6275 47.2917 80.6825C46.6204 81.3218 46.0769 81.6895 45.6613 81.7854C45.5335 81.8173 45.4376 81.8013 45.3736 81.7374C45.0539 81.5456 44.958 81.162 45.0859 80.5866C45.1818 80.107 45.4056 79.5476 45.7572 78.9082C46.3966 77.6295 49.018 72.9782 53.6214 64.9542C53.941 65.0501 54.2447 65.13 54.5325 65.194H54.6763C54.8681 65.194 55.036 65.13 55.1798 65.0021C55.3237 64.8743 55.4196 64.7144 55.4675 64.5226C55.5155 64.3308 55.4755 64.139 55.3476 63.9472C55.2198 63.7554 55.0439 63.6435 54.8202 63.6115C54.4046 63.5156 54.005 63.3878 53.6214 63.2279C53.3976 63.132 53.2058 63.0281 53.0459 62.9162C52.8861 62.8043 52.7422 62.7004 52.6144 62.6045C52.4545 62.4767 52.2627 62.4207 52.039 62.4367C51.8152 62.4527 51.6234 62.5406 51.4635 62.7004C51.2398 62.9562 51.2078 63.2439 51.3676 63.5636L43.5994 71.3318C42.3846 72.5466 41.3137 73.4097 40.3866 73.9212C39.8112 74.2089 39.3476 74.3528 38.996 74.3528H38.9001C38.8681 74.3528 38.8521 74.3528 38.8521 74.3528C38.5964 74.097 38.5005 73.7614 38.5644 73.3458C38.6923 72.6425 39.3157 71.6675 40.4346 70.4207C42.1608 68.4387 46.4126 63.3878 53.1898 55.2679C53.4775 55.2359 53.8132 55.2359 54.1968 55.2679C55.7952 55.4597 57.2018 55.5076 58.4166 55.4117C60.6224 55.2199 62.5245 54.5806 64.1229 53.4937C64.3147 53.3977 64.4266 53.2379 64.4585 53.0141C64.4905 52.7904 64.4505 52.5906 64.3387 52.4147C64.2268 52.2389 64.0589 52.127 63.8352 52.0791C63.6114 52.0311 63.4036 52.0711 63.2118 52.1989C61.8372 53.126 60.1748 53.6695 58.2248 53.8293C57.1698 53.9252 55.8911 53.8773 54.3886 53.6855C53.6214 53.5896 52.8861 53.6375 52.1828 53.8293C51.6713 53.9892 50.6004 54.4047 48.97 55.0761L46.2368 56.179C44.958 56.6585 43.8392 56.8982 42.8801 56.8982C42.2407 56.8982 41.6973 56.7704 41.2497 56.5146C41.026 56.3868 40.8501 56.2429 40.7223 56.0831L41.4895 55.7474C42.7363 55.2679 43.7592 54.8203 44.5584 54.4047C45.965 53.6375 47.2437 52.7584 48.3946 51.7674C50.6004 49.8493 53.0939 48.107 55.8751 46.5406C59.04 44.7824 61.8372 43.7114 64.2667 43.3278C66.1528 43.0081 67.5914 42.4327 68.5824 41.6015C69.3177 41.0261 69.8132 40.3228 70.0689 39.4917C70.1968 39.0761 70.2288 38.7084 70.1648 38.3888C70.1648 38.165 70.0769 37.9892 69.9011 37.8613C69.7253 37.7334 69.5335 37.6775 69.3257 37.6935C69.1179 37.7094 68.9421 37.8053 68.7982 37.9812C68.6543 38.157 68.5904 38.3488 68.6064 38.5566C68.6224 38.7644 68.5664 38.9961 68.4386 39.2519C68.2467 39.7634 67.8631 40.2109 67.2877 40.5946C66.4885 41.138 65.4016 41.5216 64.027 41.7454C61.4376 42.161 58.4805 43.2958 55.1558 45.15C52.2467 46.7484 49.6413 48.5546 47.3397 50.5686C46.2527 51.4956 45.0539 52.3108 43.7432 53.0141C43.008 53.3977 42.0649 53.8133 40.9141 54.2609C40.3067 54.5166 39.9071 54.6925 39.7153 54.7884C39.4276 54.9482 39.2278 55.148 39.1159 55.3878C39.004 55.6275 38.996 55.9232 39.0919 56.2749C39.1878 56.6265 39.3796 56.9622 39.6673 57.2819C39.955 57.6015 40.3227 57.8573 40.7702 58.0491C41.3776 58.3368 42.0969 58.4807 42.9281 58.4807C44.0789 58.4807 45.3736 58.2089 46.8122 57.6655L50.3127 56.2269C44.4625 63.1959 40.7702 67.5596 39.2358 69.3178C37.989 70.6925 37.2457 71.8833 37.006 72.8903C36.7662 73.8972 36.998 74.7684 37.7013 75.5036C38.021 75.7914 38.4525 75.9352 38.996 75.9352H39.0439C40.5145 75.9352 42.4166 74.7844 44.7502 72.4827L51.1279 66.0571C47.1638 72.9622 44.8941 77.0061 44.3187 78.189C43.0719 80.6185 43.1359 82.2489 44.5105 83.0801C44.7982 83.3038 45.1339 83.4157 45.5175 83.4157C45.6773 83.4157 45.8531 83.3838 46.0449 83.3198C47.7073 82.9362 49.7852 80.6984 52.2787 76.6065C53.1738 75.136 54.3407 73.2978 55.7792 71.0921C53.957 75.3118 52.5185 78.4287 51.4635 80.4427C51.1438 81.0181 51.0479 81.5856 51.1758 82.145C51.3037 82.7044 51.6074 83.144 52.0869 83.4637C52.4386 83.6875 52.8541 83.7993 53.3337 83.7993C53.8132 83.7993 54.3167 83.6635 54.8441 83.3918C55.3716 83.12 55.8751 82.6805 56.3546 82.0731C57.4096 80.7944 59.3596 77.9332 62.2048 73.4897C60.8302 77.7734 59.983 80.2669 59.6633 80.9702C59.4396 81.5136 59.3836 82.0331 59.4955 82.5286C59.6074 83.0241 59.8631 83.4157 60.2627 83.7034C60.6623 83.9912 61.1179 84.135 61.6294 84.135C62.4286 84.135 63.2118 83.8153 63.979 83.176C64.6184 82.6005 65.4176 81.3698 66.3766 79.4837C67.0479 78.109 68.039 75.9192 69.3496 72.9142L69.3976 72.8663C70.1329 71.108 70.6603 69.9092 70.98 69.2699C71.7472 67.6395 73.3616 64.8903 75.8232 61.0221L75.8711 60.9742C76.7662 59.5676 77.3097 58.6725 77.5015 58.2889C77.9171 57.5536 78.2687 56.7224 78.5564 55.7953C78.7482 55.2199 78.972 54.4047 79.2278 53.3498C79.4515 52.4227 79.6274 51.7514 79.7552 51.3358C79.979 50.6325 80.2188 50.0731 80.4745 49.6575C81.0499 48.8263 81.8971 47.8833 83.016 46.8283C83.5914 46.2849 84.1189 45.8373 84.5984 45.4857C84.7902 45.3258 84.9021 45.142 84.9341 44.9342C84.966 44.7264 84.9101 44.5346 84.7662 44.3588C84.6224 44.183 84.4386 44.0791 84.2148 44.0471C83.991 44.0151 83.7992 44.0631 83.6394 44.191Z" fill="white"/>
</g>
<rect x="0.5" y="0.689941" width="121" height="121" rx="60.5" stroke="#88C040"/>
<defs>
<clipPath id="clip0_14_1522">
<rect width="48" height="48" fill="white" transform="matrix(1 0 0 -1 37 85.1899)"/>
</clipPath>
</defs>
</svg>
