<svg width="123" height="123" viewBox="0 0 123 123" fill="none" xmlns="http://www.w3.org/2000/svg">
<rect x="11.47" y="11.3799" width="100" height="100" rx="50" fill="#88C040"/>
<g clip-path="url(#clip0_14_1510)">
<path d="M66.9125 40.5447C68.2872 39.1701 69.9095 38.235 71.7797 37.7395C73.6498 37.244 75.5199 37.244 77.3901 37.7395C79.2602 38.235 80.8985 39.1701 82.3051 40.5447H82.2572C83.2802 41.5677 84.0714 42.7425 84.6308 44.0692C85.1903 45.3959 85.47 46.7865 85.47 48.241C85.47 49.6956 85.1982 51.0862 84.6548 52.4128C84.1113 53.7395 83.3281 54.9143 82.3051 55.9373L71.42 66.8224C70.3651 67.8774 69.1743 68.6686 67.8476 69.1961C66.5209 69.7235 65.1463 69.9873 63.7237 69.9873C62.3011 69.9873 60.9265 69.7235 59.5998 69.1961C58.2732 68.6686 57.0824 67.8774 56.0274 66.8224C55.8356 66.6626 55.7397 66.4548 55.7397 66.1991C55.7397 65.9433 55.8276 65.7275 56.0034 65.5517C56.1793 65.3759 56.395 65.288 56.6508 65.288C56.9065 65.288 57.1303 65.3679 57.3221 65.5277C58.473 66.7106 59.8236 67.5018 61.3741 67.9014C62.9245 68.301 64.483 68.301 66.0494 67.9014C67.6158 67.5018 68.9745 66.7106 70.1253 65.5277L81.0104 54.6426C81.8416 53.7795 82.489 52.8045 82.9525 51.7175C83.416 50.6306 83.6478 49.4798 83.6478 48.265C83.6478 47.0502 83.416 45.8914 82.9525 44.7885C82.489 43.6856 81.8336 42.7026 80.9865 41.8394C80.1393 40.9763 79.1643 40.3209 78.0614 39.8734C76.9585 39.4258 75.7996 39.2021 74.5849 39.2021C73.3701 39.2021 72.2112 39.4258 71.1083 39.8734C70.0054 40.3209 69.0384 40.9763 68.2072 41.8394L59.8636 50.1831C59.6718 50.3429 59.456 50.4228 59.2162 50.4228C58.9765 50.4228 58.7687 50.3349 58.5928 50.1591C58.417 49.9833 58.3291 49.7755 58.3291 49.5357C58.3291 49.296 58.409 49.0802 58.5689 48.8884L66.9125 40.5447ZM54.7327 80.9203L61.7817 73.8714C61.9735 73.7116 62.1893 73.6316 62.429 73.6316C62.6688 73.6316 62.8766 73.7195 63.0524 73.8954C63.2282 74.0712 63.3161 74.279 63.3161 74.5187C63.3161 74.7585 63.2362 74.9743 63.0764 75.1661L56.0274 82.215C55.0044 83.238 53.8296 84.0212 52.5029 84.5647C51.1763 85.1082 49.7857 85.3799 48.3311 85.3799C46.8766 85.3799 45.486 85.1082 44.1593 84.5647C42.8326 84.0212 41.6578 83.238 40.6348 82.215C39.6118 81.1921 38.8286 80.0172 38.2852 78.6906C37.7417 77.3639 37.47 75.9733 37.47 74.5187C37.47 73.0642 37.7417 71.6736 38.2852 70.3469C38.8286 69.0202 39.6118 67.8454 40.6348 66.8224L50.8965 56.5607C52.2712 55.1861 53.8935 54.251 55.7637 53.7555C57.6338 53.26 59.5039 53.26 61.3741 53.7555C63.2442 54.251 64.8666 55.1861 66.2412 56.5607C66.433 56.7525 66.5289 56.9763 66.5289 57.232C66.5289 57.4878 66.441 57.7036 66.2652 57.8794C66.0894 58.0552 65.8736 58.1431 65.6178 58.1431C65.3621 58.1431 65.1543 58.0472 64.9944 57.8554C63.8436 56.7046 62.485 55.9213 60.9185 55.5058C59.3521 55.0902 57.7936 55.0902 56.2432 55.5058C54.6927 55.9213 53.3421 56.7046 52.1912 57.8554L41.9295 68.1171C40.7787 69.268 39.9954 70.6266 39.5799 72.1931C39.1643 73.7595 39.1643 75.3179 39.5799 76.8684C39.9954 78.4188 40.7787 79.7695 41.9295 80.9203C42.7926 81.7835 43.7757 82.4388 44.8786 82.8864C45.9815 83.3339 47.1323 83.5577 48.3311 83.5577C49.5299 83.5577 50.6808 83.3339 51.7837 82.8864C52.8866 82.4388 53.8696 81.7835 54.7327 80.9203ZM68.2552 77.276C67.9994 77.276 67.7837 77.3639 67.6078 77.5397C67.432 77.7155 67.3441 77.9313 67.3441 78.1871V83.6057C67.3441 83.8614 67.432 84.0772 67.6078 84.253C67.7837 84.4288 67.9914 84.5167 68.2312 84.5167C68.471 84.5167 68.6868 84.4288 68.8786 84.253C69.0704 84.0772 69.1663 83.8614 69.1663 83.6057V78.1871C69.1663 77.9313 69.0784 77.7155 68.9025 77.5397C68.7267 77.3639 68.5109 77.276 68.2552 77.276ZM70.9885 75.6936C71.1803 75.5337 71.404 75.4538 71.6598 75.4538C71.9155 75.4538 72.1233 75.5337 72.2832 75.6936L76.1193 79.5297C76.3111 79.7215 76.407 79.9453 76.407 80.2011C76.407 80.4568 76.3191 80.6726 76.1433 80.8484C75.9675 81.0242 75.7517 81.1122 75.4959 81.1122C75.2402 81.1122 75.0324 81.0162 74.8726 80.8244L70.9885 76.9883C70.8286 76.7965 70.7487 76.5807 70.7487 76.3409C70.7487 76.1012 70.8286 75.8854 70.9885 75.6936ZM78.1813 71.8095H72.7627C72.5069 71.8095 72.2911 71.8974 72.1153 72.0732C71.9395 72.249 71.8516 72.4648 71.8516 72.7205C71.8516 72.9763 71.9395 73.1921 72.1153 73.3679C72.2911 73.5437 72.5069 73.6316 72.7627 73.6316H78.1813C78.437 73.6316 78.6528 73.5437 78.8286 73.3679C79.0044 73.1921 79.0924 72.9763 79.0924 72.7205C79.0924 72.4648 79.0044 72.249 78.8286 72.0732C78.6528 71.8974 78.437 71.8095 78.1813 71.8095ZM52.8146 46.4428C52.8146 46.6986 52.7267 46.9143 52.5509 47.0902C52.3751 47.266 52.1673 47.3539 51.9275 47.3539C51.6878 47.3539 51.48 47.266 51.3041 47.0902C51.1283 46.9143 51.0404 46.6986 51.0404 46.4428V41.0242C51.0404 40.7685 51.1283 40.5527 51.3041 40.3769C51.48 40.2011 51.6878 40.1131 51.9275 40.1131C52.1673 40.1131 52.3751 40.2011 52.5509 40.3769C52.7267 40.5527 52.8146 40.7685 52.8146 41.0242V46.4428ZM47.8756 48.8884C48.0674 49.0802 48.2832 49.1761 48.5229 49.1761C48.7627 49.1761 48.9785 49.0882 49.1703 48.9123C49.3621 48.7365 49.458 48.5207 49.458 48.265C49.458 48.0093 49.3621 47.8015 49.1703 47.6416L45.3341 43.7575C45.1423 43.5977 44.9265 43.5177 44.6868 43.5177C44.447 43.5177 44.2392 43.6057 44.0634 43.7815C43.8876 43.9573 43.7996 44.1731 43.7996 44.4288C43.7996 44.6846 43.8796 44.8924 44.0394 45.0522L47.8756 48.8884ZM47.396 52.7725H41.9775C41.7217 52.7725 41.5059 52.6846 41.3301 52.5088C41.1543 52.3329 41.0664 52.1251 41.0664 51.8854C41.0664 51.6456 41.1543 51.4378 41.3301 51.262C41.5059 51.0862 41.7217 50.9983 41.9775 50.9983H47.396C47.6518 50.9983 47.8676 51.0862 48.0434 51.262C48.2192 51.4378 48.3071 51.6456 48.3071 51.8854C48.3071 52.1251 48.2192 52.3329 48.0434 52.5088C47.8676 52.6846 47.6518 52.7725 47.396 52.7725Z" fill="white"/>
</g>
<rect x="0.969971" y="0.879883" width="121" height="121" rx="60.5" stroke="#88C040"/>
<defs>
<clipPath id="clip0_14_1510">
<rect width="48" height="48" fill="white" transform="matrix(1 0 0 -1 37.47 85.3799)"/>
</clipPath>
</defs>
</svg>
