<svg width="50" height="50" viewBox="0 0 50 50" fill="none" xmlns="http://www.w3.org/2000/svg">
<g clip-path="url(#clip0_14_1421)">
<path d="M34.9963 0C32.7319 0 30.6007 0.4995 28.6027 1.4985C27.4705 2.0979 26.2717 2.4309 25.0063 2.49751C23.7076 2.4309 22.4921 2.0979 21.3599 1.4985C19.3619 0.4995 17.2307 0 14.9663 0C11.936 0 9.65496 0.907429 8.12316 2.72228C6.59136 4.53713 5.82545 7.24276 5.82545 10.8392C5.85875 15.2348 6.45816 19.5638 7.62366 23.8262C8.32296 26.4236 8.83911 29.0709 9.17211 31.7682L9.37191 34.3157C9.70491 37.7789 10.0046 40.2764 10.271 41.8082C10.7705 44.4056 11.4532 46.3536 12.319 47.6523C13.3846 49.2174 14.8331 50 16.6646 50C19.1288 50 20.9936 48.7429 22.259 46.2288C23.5244 43.7146 24.1571 39.9767 24.1571 35.015V34.1658C24.1571 33.9327 24.2404 33.7329 24.4069 33.5664C24.5734 33.3999 24.7648 33.3167 24.9813 33.3167C25.1977 33.3167 25.3892 33.3999 25.5557 33.5664C25.7222 33.7329 25.8055 33.9327 25.8055 34.1658V35.015C25.8055 39.9767 26.4382 43.7146 27.7036 46.2288C28.969 48.7429 30.8338 50 33.298 50C35.1295 50 36.578 49.2174 37.6436 47.6523C38.5094 46.3536 39.1921 44.4056 39.6916 41.8082C39.958 40.2431 40.241 37.7456 40.5407 34.3157L40.7905 31.7682C41.1235 29.0709 41.6396 26.4236 42.3389 23.8262C43.5044 19.5638 44.1038 15.2348 44.1371 10.8392C44.1371 7.24276 43.3712 4.53713 41.8394 2.72228C40.3076 0.907429 38.0266 0 34.9963 0ZM40.6906 23.4266C39.9913 26.1239 39.4751 28.8378 39.1421 31.5684L38.8924 34.2158C38.5927 37.4126 38.3263 39.7103 38.0932 41.1089C37.7269 43.4066 37.2107 45.1382 36.5447 46.3037C35.7455 47.669 34.6633 48.3516 33.298 48.3516C31.6663 48.3516 30.3676 47.5025 29.4019 45.8042C28.1365 43.5731 27.5038 39.9767 27.5038 35.015V34.1658C27.5038 33.4665 27.254 32.8755 26.7545 32.3926C26.255 31.9098 25.6639 31.6683 24.9813 31.6683C24.2986 31.6683 23.7076 31.9098 23.2081 32.3926C22.7086 32.8755 22.4588 33.4665 22.4588 34.1658V35.015C22.4588 39.9767 21.8261 43.5731 20.5607 45.8042C19.595 47.5025 18.2963 48.3516 16.6646 48.3516C15.2993 48.3516 14.2171 47.669 13.4179 46.3037C12.7519 45.1382 12.2191 43.3899 11.8195 41.0589C11.5864 39.6603 11.3366 37.3626 11.0702 34.1658L10.8205 31.5684C10.4875 28.8378 9.97131 26.1239 9.27201 23.4266C8.10651 19.2974 7.50711 15.1016 7.47381 10.8392C7.47381 7.67566 8.07321 5.35298 9.27201 3.87113C10.4708 2.38928 12.3689 1.64835 14.9663 1.64835C16.9976 1.68165 18.9124 2.14785 20.7106 3.04696C22.0426 3.74625 23.4745 4.11256 25.0063 4.14585C26.5048 4.11256 27.92 3.74625 29.252 3.04696C31.0502 2.14785 32.965 1.68165 34.9963 1.64835C37.5937 1.64835 39.4918 2.38928 40.6906 3.87113C41.8894 5.35298 42.4888 7.67566 42.4888 10.8392C42.4555 15.1016 41.8561 19.2974 40.6906 23.4266ZM15.8155 4.14585C15.8155 3.94606 15.7322 3.76291 15.5657 3.59641C15.3992 3.4299 15.1994 3.34665 14.9663 3.34665C13.7009 3.34665 12.6853 3.5298 11.9194 3.89611C11.0203 4.32901 10.3376 5.07825 9.87141 6.14386C9.40521 7.27606 9.17211 8.84116 9.17211 10.8392C9.17211 11.0723 9.24703 11.2721 9.39688 11.4386C9.54673 11.6051 9.73821 11.6883 9.97131 11.6883C10.2044 11.6883 10.4042 11.6051 10.5707 11.4386C10.7372 11.2721 10.8205 11.0723 10.8205 10.8392C10.8205 9.00766 11.0203 7.64236 11.4199 6.74326C11.7862 5.97736 12.3023 5.46121 12.9683 5.19481C13.4012 5.06161 14.0672 4.99501 14.9663 4.99501C15.1994 4.99501 15.3992 4.91175 15.5657 4.74525C15.7322 4.57875 15.8155 4.37896 15.8155 4.14585ZM25.0063 17.4825C23.7076 17.4825 22.5254 17.7989 21.4598 18.4316C20.4941 18.9644 19.7282 19.697 19.1621 20.6294C18.596 21.5618 18.313 22.5108 18.313 23.4765C18.2797 23.9094 18.3296 24.3174 18.4628 24.7003C18.596 25.0833 18.8291 25.4163 19.1621 25.6993C19.4951 25.9824 19.928 26.0906 20.4608 26.024C20.7938 25.9907 21.31 25.8575 22.0093 25.6244H22.0592C22.9916 25.2581 23.974 25.0583 25.0063 25.025C26.0053 25.0583 26.971 25.2581 27.9034 25.6244C28.5361 25.8575 29.1688 25.9907 29.8015 26.024C30.2011 26.0573 30.5507 25.9407 30.8504 25.6743C31.1501 25.4079 31.3666 25.0833 31.4998 24.7003C31.633 24.3174 31.6829 23.9094 31.6496 23.4765C31.6496 22.5108 31.3666 21.5618 30.8005 20.6294C30.2344 19.697 29.4685 18.9644 28.5028 18.4316C27.4372 17.7989 26.2717 17.4825 25.0063 17.4825ZM29.9014 24.3756C29.3686 24.3423 28.8857 24.2258 28.4528 24.026C27.3206 23.5931 26.1551 23.36 24.9563 23.3267C23.7908 23.36 22.642 23.5931 21.5098 24.026C21.0769 24.1925 20.6107 24.309 20.1112 24.3756L20.0612 24.2258C19.9946 24.026 19.9613 23.7762 19.9613 23.4765C19.9613 22.7772 20.1778 22.0946 20.6107 21.4286C21.0436 20.7626 21.6263 20.2298 22.3589 19.8302C23.1581 19.3973 24.0322 19.1808 24.9813 19.1808C25.9303 19.1808 26.8045 19.3973 27.6037 19.8302C28.3363 20.2298 28.919 20.7626 29.3519 21.4286C29.7848 22.0946 30.0013 22.7772 30.0013 23.4765C30.0013 23.7762 29.968 24.0759 29.9014 24.3756ZM21.6097 15.2847C21.6763 15.1182 21.6846 14.9517 21.6346 14.7852C21.5847 14.6187 21.4931 14.4689 21.3599 14.3357L16.3649 10.1898C16.0985 9.99001 15.8155 9.94006 15.5158 10.04C15.2161 10.1399 15.0412 10.3563 14.9913 10.6893C14.9413 11.0223 15.0329 11.2887 15.266 11.4885L18.5128 14.1858H14.1671C13.934 14.1858 13.7342 14.2607 13.5677 14.4106C13.4012 14.5604 13.318 14.7519 13.318 14.985C13.318 15.2181 13.4012 15.4179 13.5677 15.5844C13.7342 15.7509 13.934 15.8342 14.1671 15.8342H20.8105C20.977 15.8342 21.1351 15.7842 21.285 15.6843C21.4348 15.5844 21.5431 15.4512 21.6097 15.2847ZM35.7955 14.1858H31.4498L34.6966 11.4885C34.8631 11.322 34.9547 11.1305 34.9713 10.9141C34.988 10.6976 34.9214 10.4978 34.7715 10.3147C34.6217 10.1315 34.4385 10.0316 34.2221 10.015C34.0056 9.99834 33.7975 10.0566 33.5977 10.1898L28.6027 14.3856C28.4695 14.4855 28.3779 14.6187 28.328 14.7852C28.278 14.9517 28.2863 15.1182 28.3529 15.2847C28.4195 15.4512 28.5278 15.5844 28.6776 15.6843C28.8275 15.7842 28.9856 15.8342 29.1521 15.8342H35.7955C36.0286 15.8342 36.2284 15.7509 36.3949 15.5844C36.5614 15.4179 36.6446 15.2181 36.6446 14.985C36.6446 14.7519 36.5614 14.5604 36.3949 14.4106C36.2284 14.2607 36.0286 14.1858 35.7955 14.1858ZM6.57471 31.0689C6.54141 30.8358 6.42486 30.6527 6.22505 30.5195C6.02525 30.3863 5.82545 30.353 5.62565 30.4196L2.6786 30.969C2.3456 31.0356 2.12915 31.2354 2.02925 31.5684C1.92935 31.9014 1.99595 32.1845 2.22905 32.4176L2.8784 33.0669L1.4798 33.3666C1.28 33.3999 1.1135 33.4998 0.9803 33.6663C0.8471 33.8328 0.788825 34.0243 0.805475 34.2408C0.822125 34.4572 0.9137 34.6404 1.0802 34.7902C1.2467 34.9401 1.42985 35.015 1.62965 35.015L1.82945 34.965L4.7765 34.4156C5.1095 34.349 5.31763 34.1492 5.40088 33.8162C5.48413 33.4832 5.4092 33.2001 5.1761 32.967L4.52675 32.3177L5.92535 32.018C6.15845 31.9847 6.3416 31.8765 6.4748 31.6933C6.60801 31.5102 6.64131 31.302 6.57471 31.0689ZM3.72755 23.4266C3.42785 23.2601 3.12815 23.2767 2.82845 23.4765L0.330949 25.1249C0.164449 25.2581 0.056224 25.4412 0.00627396 25.6743C-0.0436761 25.9074 -0.00205105 26.1156 0.131149 26.2987C0.264349 26.4819 0.439174 26.5984 0.655625 26.6484C0.872075 26.6983 1.0802 26.6567 1.28 26.5235L2.4788 25.7243V26.6733C2.4788 27.0063 2.62865 27.2478 2.92835 27.3976C3.22805 27.5475 3.5111 27.5391 3.7775 27.3726L6.275 25.6743C6.54141 25.5078 6.66628 25.2664 6.64963 24.9501C6.63298 24.6337 6.48313 24.4006 6.20008 24.2507C5.91703 24.1009 5.6423 24.1259 5.3759 24.3257L4.12715 25.1249V24.1758C4.12715 23.8428 3.99395 23.5931 3.72755 23.4266ZM44.5867 33.8162C44.6866 34.1492 44.8864 34.349 45.1861 34.4156L48.3329 35.015C48.5327 35.015 48.7159 34.9401 48.8824 34.7902C49.0489 34.6404 49.1405 34.4572 49.1571 34.2408C49.1738 34.0243 49.1155 33.8328 48.9823 33.6663C48.8491 33.4998 48.6826 33.3999 48.4828 33.3666L47.0842 33.0669L47.7335 32.4176C47.9666 32.1845 48.0332 31.9014 47.9333 31.5684C47.8334 31.2354 47.617 31.0356 47.284 30.969L44.3369 30.4196C44.0372 30.353 43.7792 30.4362 43.5627 30.6693C43.3463 30.9024 43.288 31.1772 43.3879 31.4935C43.4878 31.8099 43.7042 31.9847 44.0372 32.018L45.4358 32.3177L44.7865 32.967C44.5534 33.2334 44.4868 33.5165 44.5867 33.8162ZM49.6316 25.1249L47.1341 23.4765C46.8344 23.2767 46.5431 23.2601 46.26 23.4266C45.977 23.5931 45.8354 23.8428 45.8354 24.1758V25.1249L44.5867 24.3257C44.4202 24.1925 44.2204 24.1425 43.9873 24.1758C43.7542 24.2091 43.571 24.3257 43.4378 24.5255C43.3046 24.7253 43.263 24.9417 43.313 25.1748C43.3629 25.4079 43.4878 25.5744 43.6876 25.6743L46.1851 27.3726C46.4515 27.5391 46.7345 27.5475 47.0342 27.3976C47.3339 27.2478 47.4838 27.0063 47.4838 26.6733V25.7243L48.6826 26.5235C48.949 26.69 49.2237 26.7066 49.5068 26.5734C49.7898 26.4402 49.948 26.2155 49.9813 25.8991C50.0146 25.5828 49.898 25.3247 49.6316 25.1249Z" fill="#88C040"/>
</g>
<defs>
<clipPath id="clip0_14_1421">
<rect width="50.02" height="50" fill="white" transform="matrix(1 0 0 -1 -0.0100098 50)"/>
</clipPath>
</defs>
</svg>
