<svg width="81" height="81" viewBox="0 0 81 81" fill="none" xmlns="http://www.w3.org/2000/svg">
<g clip-path="url(#clip0_14_1459)">
<path d="M64.6125 47.505C64.5275 46.5375 64.8125 45.5725 65.415 44.8125C65.4175 44.8075 65.425 44.8 65.425 44.8C71.6075 37.0126 75.755 28.385 73.445 18.375C73.075 16.77 72.5925 15.1901 71.98 13.6625C69.3175 7.01505 63.6425 2.11255 56.235 2.11255C52.6525 2.11255 49.34 3.27005 46.6525 5.23005C43.2675 7.69755 38.67 7.69755 35.285 5.23005C32.5975 3.27005 29.285 2.11255 25.7025 2.11255C18.295 2.11255 12.62 7.01505 9.95751 13.6625C9.34501 15.1901 8.86251 16.77 8.49251 18.375C6.18501 28.385 10.3325 37.015 16.5125 44.8C16.515 44.805 16.5225 44.8125 16.5225 44.8125C17.125 45.5725 17.41 46.5375 17.325 47.505C17.0025 51.2375 16.7525 54.99 16.2375 58.685C15.655 62.87 15.4225 67.3501 16.8775 71.3925C18.275 75.2701 23.3375 81.9625 28.1725 79.0701C32.0225 76.7675 30.915 70.3876 30.895 66.675C30.8825 64.2826 31.195 62.015 31.8775 59.97C34.8125 51.185 47.12 51.1825 50.055 59.9675C50.7375 62.0126 51.05 64.28 51.0375 66.6725C51.0175 70.3825 49.91 76.765 53.76 79.0676C58.595 81.96 63.6575 75.2675 65.055 71.3901C66.51 67.3475 66.2775 62.87 65.695 58.6825C65.18 54.9875 64.93 51.2351 64.6075 47.5025L64.6125 47.505Z" fill="#FFE400"/>
<path d="M74.0899 23.5999C72.9324 23.5549 71.7749 23.5074 70.6424 23.7074C68.2174 24.1324 66.0374 25.7599 64.9324 27.9599C63.4349 30.9474 63.4274 34.6774 61.2824 37.3599C58.5874 40.7249 55.1049 39.0299 52.8874 35.9924C51.7199 34.3924 50.6524 32.2599 48.5174 31.8349C45.7149 31.2774 43.2374 33.1849 42.2499 35.7174C41.2974 38.1599 41.6299 43.6124 37.7574 43.3699C36.5599 43.2949 35.5149 42.4549 34.8949 41.4274C34.2749 40.3999 34.0099 39.2049 33.7849 38.0299C33.3249 35.6274 33.3574 29.8499 30.6524 28.7624C28.7374 27.9974 27.1374 30.2724 25.4349 31.4274C23.6474 32.6399 21.0949 32.5849 19.3599 31.2999C17.1074 29.6299 16.5649 26.5324 16.2649 23.7424C15.8799 20.1649 15.6074 16.5499 14.6224 13.0899C14.1849 11.5499 13.5924 10.0324 12.8174 8.62486C15.8774 4.68236 20.3324 2.10986 25.6974 2.10986C29.2799 2.10986 32.5924 3.26736 35.2799 5.22736C38.6649 7.69486 43.2624 7.69486 46.6474 5.22736C49.3349 3.26486 52.6474 2.10986 56.2299 2.10986C63.6374 2.10986 69.3124 7.01236 71.9749 13.6599C72.5874 15.1899 73.0699 16.7674 73.4399 18.3724C73.8524 20.1574 74.0574 21.8974 74.0824 23.5999H74.0899Z" fill="#EEF5F6"/>
<path d="M74.0899 23.5999C72.9324 23.5549 71.7749 23.5074 70.6424 23.7074C70.5499 23.7224 70.4599 23.7424 70.3699 23.7624C70.3649 21.9624 70.1599 20.1149 69.7224 18.2174C69.3524 16.6124 68.8699 15.0349 68.2574 13.5049C65.9099 7.64242 61.2149 3.13242 55.0549 2.15242C55.1299 2.14742 55.2049 2.14242 55.2799 2.13742C55.3749 2.12992 55.4724 2.12742 55.5674 2.12242C55.7924 2.11492 56.0099 2.10742 56.2349 2.10742C63.6424 2.10742 69.3149 7.00992 71.9799 13.6574C72.5924 15.1874 73.0749 16.7649 73.4449 18.3699C73.4999 18.6074 73.5524 18.8474 73.5999 19.0849C73.8374 20.2599 73.9874 21.3999 74.0524 22.5949C74.0649 22.8224 74.0749 23.0474 74.0824 23.2774C74.0849 23.3849 74.0874 23.4899 74.0899 23.5974V23.5999Z" fill="#DEECF1"/>
<path d="M65.9601 60.6799C65.3151 60.7299 64.8326 61.2899 64.8826 61.9349C65.1576 65.5424 64.8551 68.5049 63.9576 70.9924C63.1101 73.3424 60.4976 77.3074 57.5751 78.3524C56.4251 78.7624 55.3751 78.6674 54.3626 78.0624C51.7601 76.5049 51.9676 72.2274 52.1351 68.7874C52.1726 68.0349 52.2051 67.3249 52.2101 66.6799C52.2251 64.0924 51.8726 61.7099 51.1676 59.5974C49.6676 55.1099 45.6651 52.2099 40.9676 52.2099C36.2701 52.2099 32.2676 55.1099 30.7676 59.5999C30.0626 61.7124 29.7101 64.0949 29.7251 66.6799C29.7276 67.3274 29.7626 68.0374 29.8001 68.7899C29.9676 72.2299 30.1751 76.5074 27.5726 78.0649C26.5601 78.6699 25.5101 78.7649 24.3601 78.3549C21.4401 77.3124 18.8251 73.3474 17.9776 70.9949C16.5251 66.9599 16.9026 62.3824 17.3951 58.8449C17.8026 55.9199 18.0476 52.9274 18.2876 50.0324C18.3551 49.2224 18.4201 48.4124 18.4901 47.6049C18.6001 46.3299 18.2276 45.0799 17.4376 44.0849L17.4276 44.0724C10.2051 34.9749 7.72759 26.8924 9.63009 18.6374C9.99759 17.0474 10.4726 15.5199 11.0401 14.0974C11.4876 12.9774 12.0251 11.9224 12.6351 10.9399C12.9626 11.7199 13.2526 12.5449 13.4976 13.4099C14.3201 16.3049 14.6401 19.4074 14.9501 22.4099C15.0001 22.8949 15.0501 23.3824 15.1026 23.8674C15.4476 27.0999 16.1176 30.3524 18.6651 32.2399C20.7851 33.8124 23.9101 33.8774 26.0926 32.3974C26.6051 32.0499 27.0876 31.6299 27.5551 31.2249C28.7526 30.1849 29.5301 29.5724 30.2176 29.8499C31.7026 30.4449 32.1201 34.0874 32.3676 36.2624C32.4551 37.0349 32.5326 37.6999 32.6376 38.2499C32.8776 39.5099 33.1726 40.8399 33.8951 42.0324C34.7851 43.5099 36.2026 44.4449 37.6851 44.5374C39.3801 44.6424 40.8251 43.7899 41.6376 42.2999C42.2851 41.1099 42.5701 39.6174 42.8251 38.2999C42.9126 37.8449 42.9951 37.4149 43.0851 37.0249C43.2326 36.3949 42.8426 35.7649 42.2126 35.6174C41.5826 35.4699 40.9526 35.8599 40.8051 36.4899C40.7026 36.9249 40.6151 37.3799 40.5251 37.8574C39.9226 41.0024 39.4151 42.2999 37.8326 42.1999C36.9901 42.1474 36.2826 41.4524 35.9001 40.8199C35.0326 39.3849 34.8801 37.6124 34.6951 35.9924C34.3476 32.9524 33.8726 28.7899 31.0901 27.6724C29.0251 26.8474 27.3601 28.2924 26.0226 29.4549C24.9201 30.4124 24.0776 31.1024 22.5576 31.1224C21.6751 31.1349 20.7751 30.8849 20.0601 30.3574C17.6476 28.5699 17.5601 24.8699 17.2801 22.1674C16.9601 19.0649 16.6301 15.8599 15.7526 12.7674C15.3451 11.3324 14.8301 9.98993 14.2151 8.75993C14.2626 8.70493 14.3101 8.64993 14.3576 8.59493C14.5876 8.32993 14.8226 8.07493 15.0676 7.82493C15.2376 7.65243 15.4101 7.48243 15.5876 7.31743C17.0751 5.92993 18.8301 4.82743 20.7401 4.13743C20.8751 4.08743 21.0126 4.04243 21.1476 3.99743C24.2001 2.99743 27.5626 3.04743 30.6051 4.08743C32.0276 4.57493 33.3776 5.28243 34.5926 6.16993C35.8076 7.05743 37.1601 7.65993 38.5601 7.97993C40.2876 8.37743 42.0901 8.33993 43.8051 7.87243C45.0501 7.53243 46.2476 6.96493 47.3401 6.16993C49.9351 4.27743 53.0101 3.27743 56.2326 3.27743C59.4901 3.27743 62.5826 4.32743 65.1726 6.31743C66.5426 7.36993 67.7626 8.66993 68.7976 10.1674C69.6201 11.3599 70.3251 12.6749 70.8926 14.0924C71.4626 15.5149 71.9376 17.0424 72.3026 18.6324C72.5426 19.6749 72.7176 20.7424 72.8176 21.8124C72.8351 22.0049 72.8501 22.1974 72.8651 22.3874C72.0676 22.3774 71.2551 22.4049 70.4376 22.5499C67.6601 23.0374 65.1501 24.9074 63.8851 27.4299C63.2151 28.7649 62.8301 30.1999 62.4576 31.5899C61.9551 33.4649 61.4776 35.2349 60.3676 36.6224C59.6026 37.5774 58.7576 38.0524 57.8526 38.0324C56.5626 38.0024 55.0601 36.9799 53.8326 35.2974C53.0951 34.2874 52.3976 33.1124 51.5101 32.2324C50.7426 31.4724 49.8151 30.8949 48.7476 30.6824C47.2676 30.3874 45.7801 30.6374 44.4401 31.4024C43.8801 31.7224 43.6851 32.4374 44.0051 32.9999C44.3251 33.5624 45.0401 33.7549 45.6026 33.4349C46.4426 32.9549 47.3751 32.7949 48.2926 32.9774C49.5901 33.2349 50.4326 34.4724 51.3226 35.7824C51.5226 36.0774 51.7326 36.3849 51.9451 36.6749C53.6251 38.9774 55.7626 40.3249 57.8051 40.3699C58.9526 40.3974 60.6476 40.0199 62.2001 38.0824C63.6151 36.3124 64.1776 34.2174 64.7226 32.1924C65.0801 30.8574 65.4201 29.5974 65.9826 28.4749C66.9226 26.6024 68.7851 25.2124 70.8501 24.8499C71.5126 24.7324 72.1976 24.7124 72.9126 24.7249C72.7001 30.9324 69.9526 37.2074 64.5126 44.0624L64.5026 44.0749C63.7126 45.0699 63.3401 46.3199 63.4501 47.5949C63.5201 48.4024 63.5876 49.2124 63.6526 50.0224C63.8301 52.1899 64.0151 54.4324 64.2676 56.6299C64.3401 57.2724 64.9201 57.7324 65.5626 57.6599C66.2051 57.5874 66.6651 57.0074 66.5926 56.3649C66.2526 53.3724 66.0401 50.3749 65.7826 47.3924C65.7251 46.7149 65.9201 46.0524 66.3376 45.5274L66.3476 45.5149C74.0476 35.8149 76.6676 27.1024 74.5926 18.0999C74.1976 16.3924 73.6876 14.7474 73.0726 13.2149C71.6376 9.62993 69.4001 6.59993 66.6051 4.45493C63.6026 2.14993 60.0201 0.929932 56.2426 0.929932C52.5201 0.929932 48.9676 2.08493 45.9701 4.27243C42.9826 6.44993 38.9701 6.44993 35.9826 4.27243C32.9851 2.08493 29.4326 0.929932 25.7101 0.929932C21.9326 0.929932 18.3476 2.14743 15.3451 4.45493C12.5501 6.60243 10.3151 9.62993 8.87759 13.2149C8.26259 14.7474 7.75259 16.3924 7.35759 18.0999C5.28009 27.1049 7.90009 35.8149 15.6026 45.5149L15.6126 45.5274C16.0276 46.0524 16.2251 46.7149 16.1676 47.3924C16.0976 48.2049 16.0301 49.0174 15.9626 49.8299C15.7276 52.6924 15.4826 55.6524 15.0851 58.5124C14.5551 62.3149 14.1576 67.2599 15.7826 71.7774C16.7401 74.4324 19.7026 79.1624 23.5801 80.5474C24.2951 80.8024 25.0126 80.9299 25.7151 80.9299C26.7776 80.9299 27.8151 80.6399 28.7801 80.0624C32.5876 77.7849 32.3301 72.5149 32.1426 68.6649C32.1076 67.9399 32.0751 67.2524 32.0701 66.6574C32.0576 64.3274 32.3676 62.1999 32.9926 60.3299C34.4201 56.0599 38.0501 54.5399 40.9726 54.5399C43.8951 54.5399 47.5251 56.0599 48.9526 60.3299C49.5776 62.1999 49.8876 64.3274 49.8751 66.6574C49.8726 67.2549 49.8376 67.9399 49.8026 68.6649C49.6151 72.5149 49.3576 77.7849 53.1651 80.0624C54.7701 81.0224 56.5676 81.1899 58.3651 80.5474C62.2426 79.1624 65.2051 74.4324 66.1601 71.7774C67.1701 68.9724 67.5151 65.6924 67.2151 61.7474C67.1651 61.1024 66.6051 60.6199 65.9601 60.6699V60.6799Z" fill="black"/>
<path d="M21.1925 39.7699C21.84 39.7699 22.3625 39.2449 22.3625 38.5999C22.3625 37.9549 21.8375 37.4299 21.1925 37.4299C20.5475 37.4299 20.0225 37.9549 20.0225 38.5999C20.0225 39.2474 20.5475 39.7699 21.1925 39.7699Z" fill="black"/>
<path d="M28.055 40.9425C28.7025 40.9425 29.225 40.4175 29.225 39.7725C29.225 39.1275 28.7 38.6025 28.055 38.6025C27.4075 38.6025 26.885 39.1275 26.885 39.7725C26.885 40.4175 27.41 40.9425 28.055 40.9425Z" fill="black"/>
<path d="M24.7049 51.6474C25.3524 51.6474 25.8749 51.1224 25.8749 50.4774C25.8749 49.8324 25.3499 49.3074 24.7049 49.3074C24.0574 49.3074 23.5349 49.8324 23.5349 50.4774C23.5349 51.1224 24.0599 51.6474 24.7049 51.6474Z" fill="black"/>
<path d="M22.3651 61.0876C23.0126 61.0876 23.5351 60.5626 23.5351 59.9176C23.5351 59.2726 23.0101 58.7476 22.3651 58.7476C21.7176 58.7476 21.1951 59.2726 21.1951 59.9176C21.1951 60.5626 21.7201 61.0876 22.3651 61.0876Z" fill="black"/>
<path d="M32.525 49.0775C33.1725 49.0775 33.695 48.5525 33.695 47.9075C33.695 47.2625 33.17 46.7375 32.525 46.7375C31.8775 46.7375 31.355 47.2625 31.355 47.9075C31.355 48.5525 31.88 49.0775 32.525 49.0775Z" fill="black"/>
<path d="M47.7249 42.1125C48.3724 42.1125 48.8949 41.5875 48.8949 40.9425C48.8949 40.2975 48.3699 39.7725 47.7249 39.7725C47.0774 39.7725 46.5549 40.2975 46.5549 40.9425C46.5549 41.5875 47.0799 42.1125 47.7249 42.1125Z" fill="black"/>
<path d="M58.245 47.9074C58.8925 47.9074 59.415 47.3824 59.415 46.7374C59.415 46.0924 58.89 45.5674 58.245 45.5674C57.5975 45.5674 57.075 46.0924 57.075 46.7374C57.075 47.3824 57.6 47.9074 58.245 47.9074Z" fill="black"/>
<path d="M57.075 57.1149C57.7225 57.1149 58.245 56.5899 58.245 55.9449C58.245 55.2999 57.72 54.7749 57.075 54.7749C56.4275 54.7749 55.905 55.2999 55.905 55.9449C55.905 56.5899 56.43 57.1149 57.075 57.1149Z" fill="black"/>
<path d="M60.585 67.0224C61.2325 67.0224 61.755 66.4974 61.755 65.8524C61.755 65.2074 61.23 64.6824 60.585 64.6824C59.9375 64.6824 59.415 65.2074 59.415 65.8524C59.415 66.4974 59.94 67.0224 60.585 67.0224Z" fill="black"/>
<path d="M47.7249 49.0775C48.3724 49.0775 48.8949 48.5525 48.8949 47.9075C48.8949 47.2625 48.3699 46.7375 47.7249 46.7375C47.0774 46.7375 46.5549 47.2625 46.5549 47.9075C46.5549 48.5525 47.0799 49.0775 47.7249 49.0775Z" fill="black"/>
<path d="M25.8751 69.3625C26.5226 69.3625 27.0451 68.8375 27.0451 68.1925C27.0451 67.5475 26.5201 67.0225 25.8751 67.0225C25.2301 67.0225 24.7051 67.5475 24.7051 68.1925C24.7051 68.84 25.2301 69.3625 25.8751 69.3625Z" fill="black"/>
</g>
<defs>
<clipPath id="clip0_14_1459">
<rect width="80" height="80" fill="white" transform="translate(0.969971 0.939941)"/>
</clipPath>
</defs>
</svg>
