<svg width="81" height="81" viewBox="0 0 81 81" fill="none" xmlns="http://www.w3.org/2000/svg">
<g clip-path="url(#clip0_14_1479)">
<path d="M62.3176 37.99L20.9176 79.39C20.4101 79.895 19.5901 79.895 19.0876 79.39C17.3601 77.6625 16.4976 75.4 16.4976 73.1375C16.4976 70.875 17.3626 68.61 19.0876 66.885L39.1876 46.7825C40.1976 45.7725 40.1976 44.13 39.1876 43.1175L21.8551 25.785C19.4126 23.345 19.4126 19.385 21.8551 16.945C22.1076 16.6925 22.4401 16.565 22.7701 16.565C23.1001 16.565 23.4326 16.6925 23.6851 16.945L40.7701 34.03C43.8526 37.115 48.8551 37.115 51.9401 34.03C53.4826 32.4875 54.2551 30.465 54.2551 28.445C54.2551 26.425 53.4826 24.4025 51.9401 22.86L34.8551 5.77497C34.3501 5.26997 34.3501 4.44997 34.8551 3.94247C37.2951 1.49997 41.2551 1.49997 43.6951 3.94247L62.3151 22.5625C63.2926 23.5375 64.0426 24.6525 64.5726 25.8425C66.3526 29.8475 65.6026 34.705 62.3151 37.99H62.3176Z" fill="#88C040"/>
<path d="M34.6599 49.6524C34.2024 50.1099 34.2024 50.8524 34.6599 51.3099C34.8899 51.5399 35.1874 51.6524 35.4874 51.6524C35.7874 51.6524 36.0874 51.5374 36.3174 51.3099L40.0174 47.6124C41.4849 46.1449 41.4849 43.7574 40.0174 42.2899L34.0499 36.3224C33.5924 35.8649 32.8499 35.8649 32.3924 36.3224C31.9349 36.7799 31.9349 37.5224 32.3924 37.9799L38.3599 43.9474C38.6274 44.2149 38.7749 44.5724 38.7749 44.9499C38.7749 45.3274 38.6274 45.6849 38.3599 45.9524L34.6599 49.6524Z" fill="black"/>
<path d="M28.7825 34.37C29.24 34.8275 29.9825 34.8275 30.44 34.37C30.8975 33.9125 30.8975 33.17 30.44 32.7125L22.685 24.9575C20.705 22.9775 20.705 19.7525 22.685 17.7725C22.7325 17.725 22.8125 17.7225 22.86 17.7725L39.945 34.8575C41.7125 36.625 44.035 37.51 46.3575 37.51C48.68 37.51 51.0025 36.625 52.77 34.8575C56.3075 31.32 56.3075 25.5675 52.77 22.03L35.685 4.945C35.66 4.92 35.65 4.8925 35.65 4.8575C35.65 4.8225 35.6625 4.795 35.6875 4.77C36.6475 3.81 37.9225 3.2825 39.28 3.2825C40.6375 3.2825 41.9125 3.81 42.8725 4.77L52.04 13.9375C52.4975 14.395 53.24 14.395 53.6975 13.9375C54.155 13.48 54.155 12.7375 53.6975 12.28L44.53 3.1125C43.1275 1.71 41.2625 0.9375 39.28 0.9375C37.2975 0.9375 35.4325 1.71 34.03 3.1125C33.5625 3.5775 33.3075 4.1975 33.3075 4.8575C33.3075 5.5175 33.565 6.135 34.03 6.6025L36.1675 8.74L26.655 18.2525L24.5175 16.115C23.555 15.1525 21.99 15.1525 21.0275 16.115C19.625 17.5175 18.8525 19.3825 18.8525 21.365C18.8525 23.3475 19.625 25.2125 21.0275 26.615L28.7825 34.37ZM37.8225 10.3975L51.1125 23.6875C53.735 26.31 53.735 30.5775 51.1125 33.2C48.49 35.8225 44.2225 35.8225 41.6 33.2L28.31 19.91L37.8225 10.3975Z" fill="black"/>
<path d="M63.1475 21.7349L57.3025 15.8924C56.845 15.4349 56.1025 15.4349 55.645 15.8924C55.1875 16.3499 55.1875 17.0924 55.645 17.5499L61.4875 23.3949C63.3275 25.2349 64.34 27.6799 64.34 30.2799C64.34 32.8799 63.3275 35.3249 61.4875 37.1649L20.0875 78.5649C20.04 78.6124 19.96 78.6124 19.9125 78.5649C18.4625 77.1149 17.665 75.1899 17.665 73.1399C17.665 71.0899 18.4625 69.1649 19.9125 67.7149L32.705 54.9224C33.1625 54.4649 33.1625 53.7224 32.705 53.2649C32.2475 52.8074 31.505 52.8074 31.0475 53.2649L18.255 66.0574C16.3625 67.9499 15.3225 70.4649 15.3225 73.1399C15.3225 75.8149 16.365 78.3299 18.255 80.2224C18.735 80.7024 19.3675 80.9449 20 80.9449C20.6325 80.9449 21.265 80.7049 21.745 80.2224L63.145 38.8224C67.855 34.1124 67.855 26.4474 63.145 21.7374L63.1475 21.7349Z" fill="black"/>
<path d="M26.915 64.9225L24.38 67.4575C23.9225 67.915 23.9225 68.6575 24.38 69.115C24.61 69.3425 24.9075 69.4575 25.21 69.4575C25.5125 69.4575 25.81 69.3425 26.04 69.115L28.575 66.58C29.0325 66.1225 29.0325 65.38 28.575 64.9225C28.1175 64.465 27.375 64.465 26.9175 64.9225H26.915Z" fill="black"/>
<path d="M24.3725 8.13736C24.6025 8.36986 24.905 8.48737 25.2075 8.48737C25.505 8.48737 25.8025 8.37487 26.03 8.14987C26.49 7.69486 26.4975 6.95236 26.0425 6.49237L24.815 5.24737C24.36 4.78737 23.6175 4.77987 23.1575 5.23487C22.6975 5.68987 22.69 6.43237 23.145 6.89237L24.3725 8.13736Z" fill="black"/>
<path d="M20.76 11.4549L22.445 11.9199C22.55 11.9499 22.655 11.9624 22.7575 11.9624C23.2725 11.9624 23.7425 11.6224 23.8875 11.1024C24.06 10.4799 23.6925 9.83236 23.07 9.66236L21.385 9.19735C20.76 9.02485 20.115 9.39236 19.9425 10.0149C19.77 10.6374 20.1375 11.2824 20.76 11.4549Z" fill="black"/>
<path d="M27.5824 5.21493C27.7199 5.74243 28.1949 6.09243 28.7149 6.09243C28.8124 6.09243 28.9124 6.07993 29.0099 6.05493C29.6374 5.89243 30.0124 5.25243 29.8499 4.62493L29.4099 2.93243C29.2474 2.30743 28.6074 1.92993 27.9799 2.09243C27.3524 2.25493 26.9774 2.89493 27.1399 3.52243L27.5824 5.21493Z" fill="black"/>
<path d="M40.4874 4.90503C39.8399 4.90503 39.3149 5.43003 39.3149 6.07753C39.3149 6.72503 39.8399 7.25003 40.4874 7.25003H40.5049C41.1524 7.25003 41.6774 6.72503 41.6774 6.07753C41.6774 5.43003 41.1524 4.90503 40.5049 4.90503H40.4874Z" fill="black"/>
<path d="M24.3024 21.0999H24.2924C23.6499 21.0999 23.1274 21.6174 23.1199 22.2624C23.1149 22.9099 23.6349 23.4374 24.2824 23.4449H24.3099C24.9524 23.4449 25.4774 22.9274 25.4824 22.2824C25.4874 21.6349 24.9674 21.1074 24.3199 21.0999H24.3024Z" fill="black"/>
</g>
<defs>
<clipPath id="clip0_14_1479">
<rect width="80" height="80" fill="white" transform="translate(0.949951 0.939941)"/>
</clipPath>
</defs>
</svg>
