<svg width="50" height="51" viewBox="0 0 50 51" fill="none" xmlns="http://www.w3.org/2000/svg">
<g clip-path="url(#clip0_14_1653)">
<path d="M32.194 30.6894L31.9442 30.5895C31.2116 30.1899 30.4291 29.9901 29.5966 29.9901C28.531 29.9901 27.5486 30.2898 26.6495 30.8892C26.3831 31.0557 26.1001 31.139 25.8004 31.139C25.5007 31.139 25.2176 31.0557 24.9512 30.8892C24.0854 30.2898 23.1197 29.9901 22.0541 29.9901C21.1883 29.9901 20.3891 30.1899 19.6565 30.5895L19.4068 30.6894C18.6409 31.0557 18.0415 31.6052 17.6086 32.3378C17.1757 33.0704 16.9592 33.8529 16.9592 34.6854C16.9592 35.3847 17.1008 36.0341 17.3838 36.6335C17.6669 37.2329 18.0748 37.749 18.6076 38.1819L19.157 38.6315C19.7231 39.0977 20.1644 39.6554 20.4807 40.3048C20.7971 40.9541 20.9552 41.6618 20.9552 42.4277C20.9552 42.9938 21.1634 43.4849 21.5796 43.9012C21.9959 44.3174 22.4787 44.5256 23.0282 44.5256C23.5776 44.5256 24.0521 44.3591 24.4517 44.0261C24.8513 43.6931 25.0844 43.2768 25.151 42.7773L25.6505 39.8303C25.6838 39.7304 25.7421 39.6804 25.8254 39.6804C25.9086 39.6804 25.9502 39.7304 25.9502 39.8303L26.4497 42.7773C26.5163 43.2768 26.7494 43.6931 27.149 44.0261C27.5486 44.3591 28.0232 44.5256 28.5726 44.5256C29.1221 44.5256 29.6049 44.3174 30.0212 43.9012C30.4374 43.4849 30.6455 42.9938 30.6455 42.4277C30.6455 41.6618 30.8037 40.9541 31.1201 40.3048C31.4364 39.6554 31.8943 39.0977 32.4937 38.6315L32.9932 38.1819C33.526 37.749 33.9422 37.2329 34.2419 36.6335C34.5416 36.0341 34.6915 35.3847 34.6915 34.6854C34.6915 33.8529 34.4667 33.0787 34.0172 32.3627C33.5676 31.6468 32.9599 31.089 32.194 30.6894ZM31.9942 36.9332L31.4447 37.3328C30.6788 37.9655 30.0878 38.723 29.6715 39.6055C29.2553 40.4879 29.0471 41.4287 29.0471 42.4277C29.0471 42.5609 28.9972 42.6774 28.8973 42.7773C28.7974 42.8772 28.6808 42.9272 28.5476 42.9272C28.4144 42.9272 28.2979 42.8855 28.198 42.8023C28.0981 42.719 28.0481 42.6108 28.0481 42.4776L27.5486 39.5306C27.482 39.0977 27.2822 38.748 26.9492 38.4816C26.6162 38.2152 26.2333 38.082 25.8004 38.082C25.3675 38.082 24.9929 38.2152 24.6765 38.4816C24.3602 38.748 24.152 39.0977 24.0521 39.5306L23.6026 42.4776C23.5693 42.6108 23.5027 42.719 23.4028 42.8023C23.3029 42.8855 23.1863 42.9272 23.0531 42.9272C22.9199 42.9272 22.8117 42.8772 22.7285 42.7773C22.6452 42.6774 22.6036 42.5609 22.6036 42.4277C22.6036 41.4287 22.3871 40.4879 21.9542 39.6055C21.5213 38.723 20.9219 37.9655 20.156 37.3328L19.6066 36.9332C18.9073 36.3671 18.5576 35.6178 18.5576 34.6854C18.5576 34.1526 18.6992 33.6531 18.9822 33.1869C19.2653 32.7207 19.6565 32.3711 20.156 32.138L20.3558 31.9881C20.8886 31.755 21.4381 31.6385 22.0042 31.6385C22.7701 31.6385 23.4527 31.8383 24.0521 32.2379C24.5849 32.6042 25.1677 32.7873 25.8004 32.7873C26.4331 32.7873 27.0158 32.6042 27.5486 32.2379C28.148 31.8383 28.8307 31.6385 29.5966 31.6385C30.1627 31.6385 30.7121 31.755 31.2449 31.9881L31.4947 32.138C31.9609 32.3711 32.3355 32.7207 32.6186 33.1869C32.9016 33.6531 33.0431 34.1526 33.0431 34.6854C33.0431 35.6178 32.6935 36.3671 31.9942 36.9332ZM45.181 3.41668V1.76833C45.181 1.33543 45.0228 0.9608 44.7065 0.644447C44.3901 0.328098 43.9989 0.169922 43.5327 0.169922H39.9363C38.5377 0.169922 37.2556 0.51125 36.0901 1.1939C34.9246 1.87655 33.9922 2.80895 33.2929 3.9911C32.5936 5.17325 32.2439 6.44698 32.2439 7.81228V21.1489H30.6455V7.81228C30.6455 6.44698 30.3042 5.17325 29.6216 3.9911C28.9389 2.80895 28.0065 1.87655 26.8244 1.1939C25.6422 0.51125 24.3685 0.169922 23.0032 0.169922H19.3568C18.9239 0.169922 18.5493 0.328098 18.233 0.644447C17.9166 0.9608 17.7584 1.33543 17.7584 1.76833V3.41668C17.7584 3.84958 17.9166 4.2242 18.233 4.54055C18.5493 4.8569 18.9239 5.01508 19.3568 5.01508V11.4586C18.9239 11.4586 18.5493 11.6168 18.233 11.9332C17.9166 12.2495 17.7584 12.6241 17.7584 13.057V14.7054C17.7584 15.1383 17.9166 15.5129 18.233 15.8293C18.5493 16.1456 18.9239 16.3038 19.3568 16.3038H23.4028C24.0688 16.3038 24.6349 16.5369 25.1011 17.0031C25.5673 17.4693 25.8004 18.0354 25.8004 18.7014V21.1489H18.208L14.1121 6.56353C13.8457 5.56453 13.3961 4.67375 12.7634 3.8912C12.1307 3.10865 11.3731 2.46762 10.4907 1.96812C9.60825 1.46862 8.66752 1.1606 7.66852 1.04405C6.66952 0.927498 5.67052 1.00243 4.67152 1.26883L1.17502 2.26783C0.742115 2.36773 0.41744 2.60915 0.200989 2.9921C-0.0154607 3.37505 -0.0570858 3.78298 0.0761144 4.21588L0.475715 5.76433C0.608915 6.19723 0.86699 6.5219 1.24994 6.73835C1.63289 6.9548 2.04082 7.01308 2.47372 6.91318L4.22197 13.107C3.78907 13.2402 3.46439 13.4983 3.24794 13.8812C3.03149 14.2642 2.98987 14.6721 3.12307 15.105L3.57262 16.6534C3.67252 17.0863 3.92227 17.411 4.32187 17.6275C4.72147 17.8439 5.13772 17.8855 5.57062 17.7523L9.41677 16.6534C10.0495 16.4869 10.6655 16.5702 11.2649 16.9032C11.8643 17.2362 12.2473 17.719 12.4138 18.3517L13.213 21.1989C12.6469 21.2988 12.189 21.5735 11.8394 22.0231C11.4897 22.4726 11.3149 22.9804 11.3149 23.5465V47.7224C11.3149 48.3884 11.548 48.9628 12.0142 49.4456C12.4804 49.9285 13.0465 50.1699 13.7125 50.1699H37.8883C38.5543 50.1699 39.1287 49.9285 39.6116 49.4456C40.0944 48.9628 40.3359 48.3884 40.3359 47.7224V23.5465C40.3359 22.8805 40.0944 22.3144 39.6116 21.8482C39.1287 21.382 38.5543 21.1489 37.8883 21.1489H37.0891V18.7014C37.0891 18.0354 37.3305 17.4693 37.8134 17.0031C38.2962 16.5369 38.8707 16.3038 39.5367 16.3038H43.5327C43.9989 16.3038 44.3901 16.1456 44.7065 15.8293C45.0228 15.5129 45.181 15.1383 45.181 14.7054V13.057C45.181 12.6241 45.0228 12.2495 44.7065 11.9332C44.3901 11.6168 43.9989 11.4586 43.5327 11.4586V5.01508C43.9989 5.01508 44.3901 4.8569 44.7065 4.54055C45.0228 4.2242 45.181 3.84958 45.181 3.41668ZM32.2439 22.7473V24.3457H30.6455V22.7473H32.2439ZM20.9552 5.01508H22.6036C23.4694 5.01508 24.2186 5.33143 24.8513 5.96413C25.484 6.59683 25.8004 7.3544 25.8004 8.23685C25.8004 9.11931 25.484 9.87688 24.8513 10.5096C24.2186 11.1423 23.4694 11.4586 22.6036 11.4586H20.9552V5.01508ZM23.4028 14.7054H19.3568V13.057H22.6036C23.4694 13.057 24.2686 12.8406 25.0012 12.4077C25.7338 11.9748 26.3165 11.392 26.7494 10.6594C27.1823 9.92683 27.3988 9.11931 27.3988 8.23685C27.3988 7.3544 27.1823 6.54688 26.7494 5.81428C26.3165 5.08168 25.7338 4.49893 25.0012 4.06603C24.2686 3.63313 23.4694 3.41668 22.6036 3.41668H19.3568V1.76833H23.0032C24.0688 1.76833 25.0678 2.04305 26.0002 2.5925C26.9326 3.14195 27.6735 3.88288 28.223 4.81528C28.7724 5.74768 29.0471 6.74668 29.0471 7.81228V24.3457H27.3988V18.7014C27.3988 17.6025 27.0075 16.6618 26.225 15.8792C25.4424 15.0967 24.5017 14.7054 23.4028 14.7054ZM25.8004 22.7473V24.3457H19.1071L18.6575 22.7473H25.8004ZM5.77042 12.6574L4.02217 6.46363L5.57062 6.01408C6.43642 5.78098 7.2606 5.88088 8.04315 6.31378C8.8257 6.74668 9.33352 7.39603 9.56662 8.26183C9.79972 9.12763 9.69982 9.94348 9.26692 10.7094C8.83402 11.4753 8.18467 11.9914 7.31887 12.2578L5.77042 12.6574ZM8.96722 15.105L5.12107 16.2039L4.67152 14.6554L7.76842 13.8063C9.06712 13.44 10.0411 12.6741 10.6905 11.5086C11.3399 10.3431 11.4814 9.11098 11.1151 7.81228C10.882 6.97978 10.4574 6.26383 9.84135 5.66443C9.2253 5.06503 8.50102 4.6571 7.66852 4.44065C6.83602 4.2242 6.00352 4.23253 5.17102 4.46563L2.02417 5.36473L1.62457 3.81628L5.12107 2.81728C6.15337 2.51757 7.194 2.50093 8.24295 2.76733C9.2919 3.03373 10.1993 3.54155 10.9652 4.2908C11.7311 5.04005 12.2639 5.94748 12.5636 7.01308L17.4587 24.3457H15.7604L13.9622 17.9022C13.6625 16.8366 13.0298 16.0291 12.0641 15.4796C11.0984 14.9302 10.0661 14.8053 8.96722 15.105ZM13.6625 22.7473L14.1121 24.3457H12.9133V23.5465C12.9133 23.3467 12.9799 23.1719 13.1131 23.0221C13.2463 22.8722 13.4294 22.7806 13.6625 22.7473ZM13.7125 48.5715C13.4794 48.5715 13.2879 48.4883 13.1381 48.3218C12.9882 48.1553 12.9133 47.9721 12.9133 47.7723V41.6784C13.6459 43.1769 14.6033 44.5089 15.7854 45.6744C16.9676 46.8399 18.2912 47.8056 19.7564 48.5715H13.7125ZM38.6875 47.7723C38.6875 47.9721 38.6126 48.1553 38.4627 48.3218C38.3129 48.4883 38.1214 48.5715 37.8883 48.5715H26.5996C24.1354 48.5715 21.8543 47.9555 19.7564 46.7234C17.6585 45.4913 15.9935 43.8263 14.7614 41.7284C13.5293 39.6305 12.9133 37.3328 12.9133 34.8353V25.9941H25.0012C27.4654 25.9941 29.7548 26.6101 31.8693 27.8423C33.9839 29.0744 35.6489 30.7394 36.8643 32.8373C38.0798 34.9352 38.6875 37.2162 38.6875 39.6804V47.7723ZM31.8443 25.9941H38.6875V32.8373C37.9549 31.3721 36.9975 30.0484 35.8154 28.8662C34.6332 27.6841 33.3095 26.7267 31.8443 25.9941ZM37.8883 22.7473C38.1214 22.7473 38.3129 22.8306 38.4627 22.9971C38.6126 23.1636 38.6875 23.3467 38.6875 23.5465V24.3457H37.0891V22.7473H37.8883ZM43.5327 14.7054H39.5367C38.4044 14.7054 37.4471 15.0967 36.6645 15.8792C35.882 16.6618 35.4907 17.6025 35.4907 18.7014V24.3457H33.8923V7.81228C33.8923 6.74668 34.1587 5.74768 34.6915 4.81528C35.2243 3.88288 35.9569 3.14195 36.8893 2.5925C37.8217 2.04305 38.8374 1.76833 39.9363 1.76833H43.5327V3.41668H40.3359C39.4368 3.41668 38.6209 3.63313 37.8883 4.06603C37.1557 4.49893 36.5729 5.08168 36.14 5.81428C35.7071 6.54688 35.4907 7.3544 35.4907 8.23685C35.4907 9.11931 35.7071 9.92683 36.14 10.6594C36.5729 11.392 37.1557 11.9748 37.8883 12.4077C38.6209 12.8406 39.4368 13.057 40.3359 13.057H43.5327V14.7054ZM41.9343 11.4586H40.3359C39.4368 11.4586 38.6709 11.1423 38.0382 10.5096C37.4054 9.87688 37.0891 9.11931 37.0891 8.23685C37.0891 7.3544 37.4054 6.59683 38.0382 5.96413C38.6709 5.33143 39.4368 5.01508 40.3359 5.01508H41.9343V11.4586Z" fill="#88C040"/>
</g>
<defs>
<clipPath id="clip0_14_1653">
<rect width="50.02" height="50" fill="white" transform="matrix(1 0 0 -1 -0.0100098 50.1699)"/>
</clipPath>
</defs>
</svg>
