<svg width="50" height="50" viewBox="0 0 50 50" fill="none" xmlns="http://www.w3.org/2000/svg">
<path d="M49.8002 9.04096C49.6004 8.27506 49.2674 7.59241 48.8012 6.99301C48.335 6.39361 47.7522 5.89411 47.0529 5.49451L38.2617 0.449551C37.4958 0.0166512 36.6966 -0.0998993 35.8641 0.0999031C35.0316 0.299702 34.3823 0.765903 33.9161 1.4985C33.4499 2.2311 33.3167 3.0303 33.5165 3.89611C33.6497 4.42891 33.8994 4.87846 34.2657 5.24476L30.1698 12.2877C29.5371 12.1545 28.9128 12.2128 28.2967 12.4625C27.6807 12.7123 27.1895 13.1202 26.8232 13.6863C26.357 14.4522 26.2321 15.2681 26.4486 16.1339C26.665 16.9997 27.1562 17.649 27.9221 18.0819L35.3646 22.3776C35.4645 22.4109 35.5311 22.4942 35.5644 22.6274C35.5977 22.7606 35.5811 22.8771 35.5145 22.977L31.968 29.0709C31.8015 29.3706 31.5435 29.5288 31.1938 29.5455C30.8442 29.5621 30.5861 29.7203 30.4196 30.02L22.2777 44.0559C21.7116 45.0216 21.5701 46.029 21.8531 47.0779C22.1362 48.1269 22.7606 48.9177 23.7263 49.4505C24.3257 49.8168 24.975 50 25.6743 50C26.3736 50 27.0313 49.8252 27.6474 49.4755C28.2634 49.1259 28.7546 48.6513 29.1209 48.0519L49.2008 13.4865C49.6004 12.7872 49.8501 12.0629 49.95 11.3137C50.0499 10.5644 50 9.80686 49.8002 9.04096ZM35.8641 6.39361L42.8571 10.3397L38.9111 17.1329L31.968 13.1369L35.8641 6.39361ZM47.5025 12.4875L27.4226 47.0529C27.1562 47.5191 26.7566 47.8272 26.2238 47.977C25.691 48.1269 25.1831 48.0603 24.7003 47.7772C24.2174 47.4942 23.9011 47.0862 23.7512 46.5534C23.6014 46.0206 23.6763 45.5211 23.976 45.0549L31.9181 31.3686C32.684 31.1688 33.2667 30.7193 33.6663 30.02L37.2128 23.9261C37.5458 23.36 37.6207 22.7606 37.4376 22.1279C37.2544 21.4952 36.8798 21.0123 36.3137 20.6793L28.9211 16.4336C28.6214 16.2338 28.4299 15.9757 28.3467 15.6593C28.2634 15.343 28.305 15.0433 28.4715 14.7602C28.638 14.4772 28.8878 14.294 29.2208 14.2108C29.5538 14.1275 29.8701 14.1692 30.1698 14.3357L38.012 18.8312C38.4449 19.0976 38.9111 19.1642 39.4106 19.031C39.9101 18.8978 40.293 18.5981 40.5594 18.1319L44.5554 11.2887C44.8218 10.8225 44.8884 10.3397 44.7552 9.84016C44.622 9.34066 44.3223 8.95771 43.8561 8.69131L36.014 4.1958C35.7143 4.0293 35.5228 3.77956 35.4396 3.44656C35.3563 3.11356 35.4063 2.80553 35.5894 2.52248C35.7726 2.23943 36.0223 2.0646 36.3387 1.998C36.655 1.9314 36.963 1.98135 37.2627 2.14785L46.1039 7.19281C47.0363 7.72561 47.644 8.50816 47.9271 9.54046C48.2101 10.5728 48.0686 11.5551 47.5025 12.4875ZM14.8352 7.24276C15.2015 7.24276 15.5178 7.37596 15.7842 7.64236C16.0506 7.90876 16.1838 8.22511 16.1838 8.59141C16.1838 8.85781 16.2754 9.08258 16.4585 9.26574C16.6417 9.44889 16.8748 9.54046 17.1578 9.54046C17.4409 9.54046 17.674 9.44889 17.8571 9.26574C18.0403 9.08258 18.1319 8.85781 18.1319 8.59141C18.1319 8.22511 18.2651 7.90876 18.5315 7.64236C18.7979 7.37596 19.1142 7.24276 19.4805 7.24276C19.7469 7.24276 19.9717 7.14286 20.1548 6.94306C20.338 6.74326 20.4296 6.51016 20.4296 6.24376C20.4296 5.97736 20.338 5.75258 20.1548 5.56943C19.9717 5.38628 19.7469 5.29471 19.4805 5.29471C19.1142 5.29471 18.7979 5.16151 18.5315 4.89511C18.2651 4.62871 18.1319 4.31236 18.1319 3.94606C18.1319 3.67966 18.0403 3.44656 17.8571 3.24675C17.674 3.04696 17.4409 2.94706 17.1578 2.94706C16.8748 2.94706 16.6417 3.04696 16.4585 3.24675C16.2754 3.44656 16.1838 3.67966 16.1838 3.94606C16.1838 4.31236 16.0506 4.62871 15.7842 4.89511C15.5178 5.16151 15.2015 5.29471 14.8352 5.29471C14.5688 5.29471 14.344 5.38628 14.1608 5.56943C13.9777 5.75258 13.8861 5.97736 13.8861 6.24376C13.8861 6.51016 13.9777 6.74326 14.1608 6.94306C14.344 7.14286 14.5688 7.24276 14.8352 7.24276ZM4.14585 11.6384C4.44555 11.6384 4.71195 11.7466 4.94506 11.963C5.17815 12.1795 5.2947 12.4376 5.2947 12.7373C5.2947 13.037 5.38628 13.2784 5.56943 13.4615C5.75258 13.6447 5.97736 13.7363 6.24376 13.7363C6.51016 13.7363 6.74326 13.6447 6.94306 13.4615C7.14286 13.2784 7.24276 13.037 7.24276 12.7373C7.24276 12.4376 7.35098 12.1795 7.56743 11.963C7.78388 11.7466 8.03363 11.6384 8.31668 11.6384C8.59973 11.6384 8.84116 11.5468 9.04096 11.3636C9.24076 11.1805 9.34066 10.9557 9.34066 10.6893C9.34066 10.4229 9.24076 10.1898 9.04096 9.99001C8.84116 9.79021 8.59973 9.69031 8.31668 9.69031C8.03363 9.69031 7.78388 9.58208 7.56743 9.36563C7.35098 9.14919 7.24276 8.89944 7.24276 8.61639C7.24276 8.33334 7.14286 8.09191 6.94306 7.89211C6.74326 7.69231 6.51016 7.59241 6.24376 7.59241C5.97736 7.59241 5.75258 7.69231 5.56943 7.89211C5.38628 8.09191 5.2947 8.33334 5.2947 8.61639C5.2947 8.89944 5.17815 9.14919 4.94506 9.36563C4.71195 9.58208 4.45388 9.69031 4.17083 9.69031C3.88778 9.69031 3.65468 9.79021 3.47153 9.99001C3.28838 10.1898 3.1968 10.4229 3.1968 10.6893C3.1968 10.9557 3.28838 11.1805 3.47153 11.3636C3.65468 11.5468 3.87945 11.6384 4.14585 11.6384ZM24.2258 29.3207C24.5255 28.9211 24.7752 28.5048 24.975 28.0719C25.641 26.7066 25.974 25.2747 25.974 23.7762C25.974 22.3776 25.6244 21.1039 24.9251 19.955C24.2258 18.8062 23.285 17.8904 22.1029 17.2078C20.9207 16.5251 19.6304 16.1838 18.2318 16.1838C17.2661 16.1838 16.3253 16.3503 15.4096 16.6833C14.4938 17.0163 13.6863 17.5158 12.987 18.1818C12.2877 17.5491 11.4885 17.0579 10.5894 16.7083C9.69031 16.3586 8.74126 16.1838 7.74226 16.1838C6.34366 16.1838 5.05328 16.5251 3.87113 17.2078C2.68898 17.8904 1.74825 18.8145 1.04895 19.98C0.34965 21.1455 0 22.4109 0 23.7762C0 25.2747 0.333 26.7066 0.999001 28.0719C1.2321 28.5048 1.48185 28.9211 1.74825 29.3207C2.28105 30.1199 2.64735 30.9357 2.84715 31.7682L4.4955 37.8122C4.6953 38.6447 5.15318 39.3273 5.86913 39.8601C6.58508 40.3929 7.37596 40.6593 8.24176 40.6593C9.10756 40.6593 9.87346 40.4179 10.5395 39.9351C11.2055 39.4522 11.6717 38.8112 11.9381 38.012L12.987 34.8651L14.036 38.012C14.3024 38.8112 14.7769 39.4522 15.4595 39.9351C16.1422 40.4179 16.9164 40.6593 17.7822 40.6593C18.648 40.6593 19.4306 40.3929 20.1299 39.8601C20.8292 39.3273 21.2787 38.6447 21.4785 37.8122L23.1269 31.7682C23.3267 30.9357 23.693 30.1199 24.2258 29.3207ZM21.2288 31.2687L19.6304 37.3127C19.4972 37.7123 19.2557 38.0453 18.9061 38.3117C18.5564 38.5781 18.1652 38.7113 17.7323 38.7113C17.2994 38.7113 16.9164 38.5947 16.5834 38.3616C16.2504 38.1285 16.0173 37.8122 15.8841 37.4126L14.5355 33.2667C14.4356 32.9337 14.2441 32.6673 13.961 32.4675C13.678 32.2677 13.3533 32.1678 12.987 32.1678C12.6207 32.1678 12.3044 32.2677 12.038 32.4675C11.7716 32.6673 11.5718 32.9337 11.4386 33.2667L10.0899 37.4126C9.95671 37.8122 9.72361 38.1285 9.39061 38.3616C9.05761 38.5947 8.67466 38.7113 8.24176 38.7113C7.80886 38.7113 7.41758 38.5781 7.06793 38.3117C6.71828 38.0453 6.47686 37.7123 6.34366 37.3127L4.74525 31.2687C4.47885 30.2031 4.01265 29.1875 3.34665 28.2218C3.11355 27.9221 2.91375 27.5891 2.74725 27.2228C2.21445 26.1239 1.94805 24.975 1.94805 23.7762C1.94805 22.7439 2.20613 21.7949 2.72228 20.9291C3.23843 20.0633 3.94605 19.3806 4.84515 18.8811C5.74426 18.3816 6.70996 18.1319 7.74226 18.1319C9.20746 18.1319 10.4895 18.5981 11.5884 19.5305C11.0889 19.8968 10.5228 20.0799 9.89011 20.0799C9.62371 20.0799 9.39061 20.1798 9.19081 20.3796C8.99101 20.5794 8.89111 20.8125 8.89111 21.0789C8.89111 21.3453 8.99101 21.5701 9.19081 21.7532C9.39061 21.9364 9.62371 22.028 9.89011 22.028C10.6227 22.028 11.3303 21.8698 12.013 21.5534C12.6956 21.2371 13.2701 20.7959 13.7363 20.2298C14.3024 19.5638 14.9767 19.0476 15.7592 18.6813C16.5418 18.315 17.366 18.1319 18.2318 18.1319C19.2641 18.1319 20.2298 18.3816 21.1289 18.8811C22.028 19.3806 22.7356 20.0633 23.2517 20.9291C23.7679 21.7949 24.026 22.7439 24.026 23.7762C24.026 24.975 23.7596 26.1239 23.2268 27.2228C23.0603 27.5891 22.8605 27.9221 22.6274 28.2218C21.9614 29.1875 21.4952 30.2031 21.2288 31.2687Z" fill="#88C040"/>
</svg>
