<svg width="80" height="81" viewBox="0 0 80 81" fill="none" xmlns="http://www.w3.org/2000/svg">
<g clip-path="url(#clip0_14_1446)">
<path d="M61.1275 37.65C60.2425 37.65 59.3925 38.005 58.7725 38.625L58.4825 38.915L57.8625 35.8275C57.445 33.7125 56.4075 31.7775 54.8875 30.2575L54.825 30.195C53.09 28.46 50.85 27.335 48.445 26.9925C46.255 26.675 43.925 26.3475 43.925 26.3475C43 27.095 41.81 27.525 40.545 27.525H40.215C38.8725 27.525 37.5825 27.31 36.38 26.905C31.57 25.2975 28.115 20.765 28.1275 15.425C28.1275 12.6525 29.0775 10.0575 30.685 7.99504C32.305 5.93254 34.5825 4.38754 37.2675 3.71754L38.23 3.47754C38.9775 6.44004 41.635 8.52754 44.685 8.52754H52.8875C66.47 8.52754 77.47 19.5275 77.47 33.11C77.47 36.565 76.735 39.9575 75.37 43.06C74.005 46.1625 71.9775 48.9725 69.42 51.3L63.5475 56.6425L59.75 49.0475L62.5225 46.9725C63.965 45.885 64.8125 44.1875 64.8125 42.39C64.8125 41.77 64.71 41.15 64.5225 40.5675L64.3075 39.9475C63.8525 38.58 62.5725 37.6575 61.13 37.6575L61.1275 37.65Z" fill="#656D78"/>
<path d="M67.5075 68.9274L73.0275 71.9274C74.395 72.6874 75.5075 73.7749 76.28 75.0674C77.04 76.3574 77.47 77.8524 77.47 79.4224C75.9125 76.3199 72.7475 74.3599 69.28 74.3599H67.9375C64.47 74.3599 61.305 76.3224 59.7475 79.4224H33.165C33.165 77.0924 34.4825 74.9674 36.5575 73.9299L45.5575 69.4374C46.1775 69.1199 46.71 68.6899 47.14 68.1849C47.95 70.3749 50.025 71.8299 52.355 71.8299C55.545 71.8299 58.6725 70.9949 61.43 69.4249L65.355 67.1849L65.3675 67.1724C65.95 67.8824 66.6725 68.4774 67.5075 68.9324V68.9274Z" fill="#B4DD7F"/>
<path d="M77.4676 79.4199H59.7451C61.3026 76.3174 64.4676 74.3574 67.9351 74.3574H69.2776C72.7451 74.3574 75.9101 76.3199 77.4676 79.4199Z" fill="#88C040"/>
<path d="M63.5451 62.2574C63.5451 64.0799 64.2026 65.8149 65.3676 67.1699L65.3551 67.1824L61.4301 69.4224C58.6701 70.9924 55.5451 71.8274 52.3551 71.8274C50.0251 71.8274 47.9501 70.3724 47.1401 68.1824C47.9126 67.2824 48.3551 66.1199 48.3551 64.9049V60.6149L46.7226 61.0824C45.2926 61.4999 43.7976 61.7024 42.3051 61.7024C40.8376 61.7024 39.4951 61.1074 38.5326 60.1324C37.5576 59.1699 36.9626 57.8274 36.9626 56.3599C36.9626 55.7774 37.3551 55.2724 37.9251 55.1324L39.1526 54.8274C40.8351 54.3974 42.0251 52.8774 42.0251 51.1449V50.3099H36.9626C36.2676 50.3099 35.6976 49.7399 35.6976 49.0449V46.5124C34.0776 46.5124 32.5201 45.8674 31.3801 44.7274L30.6326 43.9799L33.1651 39.7524C34.0001 38.3724 34.4301 36.8024 34.4301 35.1949V32.3724C34.4301 30.3724 35.1251 28.4349 36.3801 26.9049C37.5826 27.3099 38.8726 27.5249 40.2151 27.5249H40.5451C41.8101 27.5249 43.0001 27.0949 43.9251 26.3474C43.9251 26.3474 46.2551 26.6774 48.4451 26.9924C50.8501 27.3349 53.0901 28.4599 54.8251 30.1949L54.8876 30.2574C56.4076 31.7774 57.4451 33.7124 57.8626 35.8274L58.4826 38.9149L58.7726 38.6249C59.3926 38.0049 60.2401 37.6499 61.1276 37.6499C62.5701 37.6499 63.8501 38.5749 64.3051 39.9399L64.5201 40.5599C64.7101 41.1424 64.8101 41.7624 64.8101 42.3824C64.8101 44.1799 63.9626 45.8749 62.5201 46.9649L59.7476 49.0399L63.5451 56.6349V62.2549V62.2574Z" fill="#F0D0B4"/>
<path d="M46.375 37.2225C45.8175 37.5 45.195 37.6475 44.5725 37.6475C42.8375 37.6475 41.3025 36.54 40.7525 34.8975L40.6925 34.7175L38.29 35.5125L38.35 35.695C39.2425 38.3775 41.7425 40.1775 44.57 40.1775C45.585 40.1775 46.5975 39.9375 47.5025 39.485L48.9175 38.7775L47.785 36.5125L46.3725 37.22L46.375 37.2225Z" fill="black"/>
<path d="M73.63 70.8226L68.11 67.8101C66.075 66.7001 64.81 64.5701 64.81 62.2526V57.1951L70.2725 52.2276C75.6475 47.3401 78.7325 40.3701 78.7325 33.1026C78.7325 18.8501 67.1375 7.25506 52.885 7.25506L44.71 7.26006C44.705 7.26006 44.7025 7.26006 44.7 7.26006C42.215 7.26006 40.0575 5.57756 39.4525 3.16506L39.145 1.93506L36.9575 2.48506C31.02 3.97506 26.865 9.29006 26.855 15.4126C26.8475 18.9826 28.235 22.3426 30.7575 24.8676C31.8475 25.9601 33.1025 26.8276 34.455 27.4751C33.615 28.9576 33.1625 30.6476 33.1625 32.3676V35.1926C33.1625 36.5676 32.7875 37.9201 32.0825 39.1001L29.04 44.1726L30.48 45.6126C31.5525 46.6851 32.945 47.4001 34.43 47.6626V49.0401C34.43 50.4351 35.565 51.5726 36.9625 51.5726H40.7225C40.555 52.5476 39.83 53.3476 38.8425 53.5951L37.615 53.9026C36.4825 54.1826 35.695 55.1926 35.695 56.3576C35.695 60.0001 38.6575 62.9626 42.3025 62.9626C43.9175 62.9626 45.5225 62.7376 47.0725 62.2951L47.09 62.2901V64.8976C47.09 66.3451 46.285 67.6476 44.99 68.2926L35.995 72.7901C33.4675 74.0526 31.8975 76.5951 31.8975 79.4176V80.6826H78.7325V79.4176C78.7325 75.8301 76.7775 72.5351 73.6275 70.8201L73.63 70.8226ZM75.0725 78.1551H62.14C63.6075 76.5601 65.6875 75.6226 67.9375 75.6226H69.275C71.5225 75.6226 73.6025 76.5576 75.0725 78.1551ZM29.39 15.4176C29.4 10.5151 32.685 6.25006 37.4075 4.98506C38.6425 7.87006 41.485 9.79256 44.705 9.79256L52.89 9.78756C65.745 9.78756 76.205 20.2476 76.205 33.1051C76.205 39.6601 73.425 45.9476 68.5725 50.3576L63.93 54.5776L61.3525 49.4226L63.2775 47.9776C65.03 46.6626 66.075 44.5701 66.075 42.3801C66.075 41.6251 65.9525 40.8801 65.7175 40.1676L65.5075 39.5376C64.8775 37.6526 63.12 36.3851 61.1325 36.3851C60.505 36.3851 59.8975 36.5101 59.3375 36.7451L59.1025 35.5776C58.63 33.2126 57.4775 31.0626 55.7125 29.2951C53.7725 27.3551 51.32 26.1276 48.6175 25.7401L46.3225 25.4126C46.715 24.7026 46.98 23.9176 47.06 23.0776C47.23 21.2976 46.64 19.5201 45.445 18.2026C44.25 16.8851 42.5375 16.1301 40.76 16.1301V18.6626C41.8275 18.6626 42.8525 19.1151 43.5725 19.9076C44.3 20.7101 44.645 21.7501 44.5425 22.8376C44.3575 24.7551 42.6025 26.2576 40.545 26.2576H40.2125C37.32 26.2576 34.5975 25.1301 32.555 23.0826C30.5125 21.0351 29.3875 18.3126 29.3925 15.4201L29.39 15.4176ZM53.765 60.3851L53.07 57.9501L46.3775 59.8626C45.0525 60.2401 43.685 60.4326 42.305 60.4326C40.06 60.4326 38.23 58.6051 38.2325 56.3576L39.46 56.0501C41.7175 55.4876 43.295 53.4676 43.295 51.1376V49.0376H36.965V45.2401H35.7C34.425 45.2401 33.175 44.7226 32.2725 43.8201L32.23 43.7776L34.2575 40.4001C35.2025 38.8276 35.7 37.0251 35.7 35.1901V32.3651C35.7 30.9376 36.14 29.5501 36.9125 28.3576C37.98 28.6276 39.0825 28.7826 40.2125 28.7826H40.545C41.8975 28.7826 43.1575 28.3601 44.215 27.6601L48.2625 28.2376C50.42 28.5451 52.3775 29.5276 53.99 31.1401C55.3375 32.4876 56.25 34.1926 56.625 36.0651L57.705 41.4751L59.6625 39.5176C60.055 39.1251 60.58 38.9076 61.135 38.9076C62.03 38.9076 62.825 39.4801 63.1075 40.3301L63.3175 40.9601C63.4675 41.4151 63.545 41.8901 63.545 42.3726C63.545 43.7701 62.8775 45.1076 61.76 45.9476L58.145 48.6601L62.28 56.9326V62.2526C62.28 63.8726 62.72 65.4251 63.515 66.7676L60.805 68.3151C58.2375 69.7826 55.315 70.5576 52.3575 70.5576C50.785 70.5576 49.3475 69.6876 48.6025 68.3376C49.2525 67.3351 49.6225 66.1501 49.6225 64.8976V61.5676L53.7675 60.3826L53.765 60.3851ZM37.1275 75.0576L46.12 70.5601C46.3525 70.4426 46.57 70.3101 46.7825 70.1701C48.04 71.9601 50.105 73.0926 52.355 73.0926C55.7525 73.0926 59.1075 72.2026 62.06 70.5151L65.135 68.7576C65.6625 69.2451 66.2475 69.6801 66.895 70.0326L72.415 73.0451C73.0175 73.3751 73.5525 73.7876 74.0275 74.2551C72.5875 73.5176 70.975 73.0926 69.275 73.0926H67.9375C64.2375 73.0926 60.905 75.0226 59.025 78.1551H34.5925C34.945 76.8251 35.8525 75.6951 37.1275 75.0576Z" fill="black"/>
<path d="M2.78488 42.7124C2.78488 39.2224 5.62488 36.3824 9.11488 36.3824C11.2074 36.3824 12.9124 38.0874 12.9124 40.1799C12.9124 42.2724 11.2074 43.9774 9.11488 43.9774H7.84988V46.5099H9.11488C12.6049 46.5099 15.4449 43.6699 15.4449 40.1799C15.4449 36.6899 12.6049 33.8499 9.11488 33.8499C4.22988 33.8499 0.254883 37.8249 0.254883 42.7099C0.254883 47.5949 4.22988 51.5699 9.11488 51.5699H29.3674V49.0374H9.11488C5.62488 49.0374 2.78488 46.1974 2.78488 42.7074V42.7124Z" fill="black"/>
<path d="M7.84741 60.4325C7.84741 63.9225 10.6874 66.7625 14.1774 66.7625C16.2699 66.7625 17.9749 65.0575 17.9749 62.965C17.9749 60.8725 16.2699 59.1675 14.1774 59.1675H12.9124V61.7H14.1774C14.8749 61.7 15.4424 62.2675 15.4424 62.965C15.4424 63.6625 14.8749 64.23 14.1774 64.23C12.0849 64.23 10.3799 62.525 10.3799 60.4325C10.3799 58.34 12.0849 56.635 14.1774 56.635H29.3674V54.1025H14.1774C10.6874 54.1025 7.84741 56.9425 7.84741 60.4325Z" fill="black"/>
</g>
<defs>
<clipPath id="clip0_14_1446">
<rect width="80" height="80" fill="white" transform="translate(0 0.939941)"/>
</clipPath>
</defs>
</svg>
