<svg width="37" height="51" viewBox="0 0 37 51" fill="none" xmlns="http://www.w3.org/2000/svg">
<path d="M17.2068 11.7291H15.7083C15.4419 11.7291 15.2171 11.6375 15.0339 11.4544C14.8508 11.2712 14.7592 11.0465 14.7592 10.7801C14.7592 10.5137 14.8508 10.2806 15.0339 10.0808C15.2171 9.88097 15.4419 9.78107 15.7083 9.78107H17.2068V8.33252C17.2068 8.06612 17.2983 7.83302 17.4815 7.63322C17.6646 7.43341 17.8977 7.33352 18.1808 7.33352C18.4638 7.33352 18.6969 7.43341 18.8801 7.63322C19.0632 7.83302 19.1548 8.06612 19.1548 8.33252V9.78107H20.6533C20.9197 9.78107 21.1445 9.88097 21.3276 10.0808C21.5108 10.2806 21.6024 10.5137 21.6024 10.7801C21.6024 11.0465 21.5108 11.2712 21.3276 11.4544C21.1445 11.6375 20.9197 11.7291 20.6533 11.7291H19.1548V13.2276C19.1548 13.494 19.0632 13.7188 18.8801 13.9019C18.6969 14.0851 18.4638 14.1767 18.1808 14.1767C17.8977 14.1767 17.6646 14.0851 17.4815 13.9019C17.2983 13.7188 17.2068 13.494 17.2068 13.2276V11.7291ZM29.0449 9.93092C30.4768 10.3638 31.7256 11.0381 32.7912 11.9539C33.8568 12.8696 34.6893 13.9769 35.2887 15.2756C36.2211 17.2403 36.5458 19.5047 36.2627 22.0688C35.9797 24.6329 35.1222 27.2469 33.6903 29.9109C33.2574 30.7434 32.9244 31.5593 32.6913 32.3585C32.5581 32.9912 32.4582 33.7571 32.3916 34.6562C32.325 35.189 32.275 36.0048 32.2417 37.1037V37.1537C32.2084 39.0851 32.1085 40.517 31.942 41.4494C31.1428 46.1114 29.5278 49.0585 27.0969 50.2906C26.0646 50.7901 25.0905 50.9982 24.1748 50.9149C23.259 50.8317 22.4848 50.4737 21.8521 49.841C21.2194 49.2083 20.8198 48.3259 20.6533 47.1937C20.5534 46.4944 20.4868 45.3122 20.4535 43.6472C20.3869 41.7158 20.287 40.2672 20.1538 39.3015C20.0539 38.7021 19.9041 38.0528 19.7043 37.3535C19.4712 36.5543 19.2048 35.9049 18.9051 35.4054C18.7053 35.0058 18.4555 34.7727 18.1558 34.7061C17.8894 34.7727 17.6563 35.0058 17.4565 35.4054C17.1568 35.9049 16.8904 36.5543 16.6573 37.3535C16.4575 38.0528 16.3077 38.7021 16.2078 39.3015C16.0746 40.2672 15.9747 41.7158 15.9081 43.6472C15.8748 45.3122 15.8082 46.4944 15.7083 47.1937C15.5418 48.3259 15.1422 49.2166 14.5095 49.866C13.8768 50.5153 13.1025 50.8733 12.1868 50.9399C11.271 51.0065 10.297 50.7901 9.26471 50.2906C6.83381 49.0585 5.21875 46.1114 4.41955 41.4494C4.25305 40.517 4.15315 39.0684 4.11985 37.1037C4.05325 35.3388 3.95335 34.0734 3.82015 33.3075C3.65365 32.142 3.2707 31.0098 2.6713 29.9109C1.2394 27.2469 0.381924 24.6329 0.0988737 22.0688C-0.184177 19.5047 0.140499 17.2403 1.0729 15.2756C1.6723 13.9769 2.5048 12.8696 3.5704 11.9539C4.636 11.0381 5.88475 10.3638 7.31666 9.93092C6.88376 8.73212 6.79218 7.49169 7.04193 6.20964C7.29168 4.92759 7.89941 3.82036 8.86511 2.88796C9.69761 2.05546 10.68 1.48936 11.8122 1.18966C12.9444 0.889957 14.0766 0.881634 15.2088 1.16468C16.341 1.44773 17.3233 2.00551 18.1558 2.83801C19.0216 2.00551 20.0206 1.44773 21.1528 1.16468C22.285 0.881634 23.4172 0.889957 24.5494 1.18966C25.6816 1.48936 26.664 2.05546 27.4965 2.88796C28.4622 3.85366 29.0699 4.96921 29.3197 6.23462C29.5694 7.50002 29.4778 8.73212 29.0449 9.93092ZM16.8571 4.28656C15.958 3.35416 14.8591 2.88796 13.5604 2.88796C12.2617 2.88796 11.1545 3.34584 10.2387 4.26159C9.32298 5.17734 8.86511 6.28456 8.86511 7.58327C8.86511 8.88197 9.31466 9.98087 10.2138 10.88L18.1558 18.2726L26.1478 10.88C27.0469 9.94757 27.4965 8.84034 27.4965 7.55829C27.4965 6.27624 27.0386 5.17734 26.1228 4.26159C25.2071 3.34584 24.0999 2.88796 22.8012 2.88796C21.5025 2.88796 20.4036 3.35416 19.5045 4.28656L18.8551 4.88596C18.6886 5.08576 18.4638 5.18566 18.1808 5.18566C17.8977 5.18566 17.673 5.08576 17.5065 4.88596L16.8571 4.28656ZM30.7932 31.9089C31.0596 30.9432 31.4425 29.9775 31.942 29.0118C33.2407 26.6142 34.0316 24.2832 34.3147 22.0188C34.5977 19.7544 34.3396 17.7731 33.5404 16.0748C32.4748 13.8437 30.6433 12.3785 28.0459 11.6792C27.8794 11.879 27.6963 12.0788 27.4965 12.2786L18.8551 20.3205C18.6553 20.5203 18.4305 20.6202 18.1808 20.6202C17.931 20.6202 17.7063 20.5203 17.5065 20.3205L8.86511 12.3285C8.69861 12.162 8.51546 11.9456 8.31566 11.6792C5.71825 12.3785 3.88675 13.8437 2.82115 16.0748C2.02195 17.7731 1.76388 19.7544 2.04693 22.0188C2.32998 24.2832 3.12085 26.6142 4.41955 29.0118C4.91905 29.9775 5.302 30.9432 5.5684 31.9089C5.7349 32.6415 5.85145 33.4907 5.91805 34.4564C5.98465 35.0225 6.0346 35.8883 6.0679 37.0538V37.1037C6.1012 38.9352 6.2011 40.2839 6.3676 41.1497C7.03361 45.1457 8.29901 47.6099 10.1638 48.5423C11.1961 49.0418 12.0453 49.1251 12.7113 48.7921C13.2774 48.4924 13.627 47.8597 13.7602 46.894C13.8601 46.2946 13.9267 45.229 13.96 43.6972V43.5973C14.0266 41.5992 14.1265 40.0841 14.2597 39.0518C14.3596 38.3525 14.5428 37.5866 14.8092 36.7541C15.0756 35.855 15.3919 35.0891 15.7582 34.4564C16.3243 33.4241 17.1069 32.858 18.1059 32.7581H18.2557C19.2547 32.858 20.0373 33.4241 20.6034 34.4564C20.9697 35.0891 21.286 35.8716 21.5524 36.804C21.7855 37.6032 21.9687 38.3525 22.1019 39.0518C22.2351 40.0841 22.335 41.6159 22.4016 43.6472C22.4349 45.2123 22.5015 46.2946 22.6014 46.894C22.7346 47.8597 23.0842 48.4924 23.6503 48.7921C24.3163 49.1251 25.1655 49.0418 26.1978 48.5423C28.0626 47.6099 29.328 45.1457 29.994 41.1497C30.1605 40.2839 30.2604 38.9352 30.2937 37.1037V37.0538C30.327 35.8883 30.3769 35.0225 30.4435 34.4564C30.5101 33.4907 30.6267 32.6415 30.7932 31.9089Z" fill="#88C040"/>
</svg>
