<svg width="122" height="123" viewBox="0 0 122 123" fill="none" xmlns="http://www.w3.org/2000/svg">
<rect x="11" y="11.3799" width="100" height="100" rx="50" fill="#88C040"/>
<g clip-path="url(#clip0_14_1504)">
<path d="M44.0627 77.5636C43.4872 77.148 42.8559 77.0041 42.1685 77.132C41.4812 77.2599 40.9458 77.6035 40.5622 78.163C40.1785 78.7224 40.0427 79.3458 40.1546 80.0331C40.2664 80.7204 40.6021 81.2639 41.1616 81.6635C41.721 82.0631 42.3444 82.1989 43.0317 82.0711C43.719 81.9432 44.2625 81.5995 44.6621 81.0401C45.0617 80.4807 45.1975 79.8573 45.0696 79.17C44.9418 78.4827 44.6061 77.9472 44.0627 77.5636ZM43.3434 80.105C43.2155 80.3288 43.0237 80.4567 42.7679 80.4887C42.5122 80.5206 42.2964 80.4807 42.1206 80.3688C41.9448 80.2569 41.8249 80.113 41.761 79.9372C41.697 79.7614 41.689 79.5856 41.737 79.4097C41.7849 79.2339 41.8728 79.0821 42.0007 78.9542C42.1286 78.8263 42.2724 78.7464 42.4323 78.7144L42.6241 78.6665C42.9757 78.6984 43.2395 78.8743 43.4153 79.194C43.5911 79.5136 43.5671 79.8173 43.3434 80.105ZM54.8998 59.102C54.74 59.0061 54.5482 58.9742 54.3244 59.0061C54.1006 59.0381 53.9248 59.142 53.7969 59.3178C53.669 59.4937 53.6211 59.6935 53.6531 59.9172C53.685 60.141 53.7969 60.3168 53.9887 60.4447L56.7699 62.4107C57.0257 62.5706 57.2974 62.5866 57.5851 62.4587C57.8728 62.3308 58.0247 62.115 58.0407 61.8113C58.0567 61.5076 57.9368 61.2599 57.681 61.0681L54.8998 59.102ZM53.4133 61.2119C53.1895 61.0201 52.9338 60.9882 52.6461 61.116C52.3584 61.2439 52.1985 61.4677 52.1665 61.7874C52.1346 62.107 52.2465 62.3468 52.5022 62.5066L55.3314 64.4727C55.5871 64.6645 55.8509 64.6964 56.1226 64.5686C56.3943 64.4407 56.5462 64.2169 56.5781 63.8972C56.6101 63.5776 56.4982 63.3378 56.2425 63.178L53.4133 61.2119ZM51.9747 63.3218C51.7829 63.194 51.5831 63.146 51.3753 63.178C51.1675 63.2099 50.9997 63.3218 50.8718 63.5136C50.744 63.7054 50.696 63.9052 50.728 64.113C50.76 64.3208 50.8718 64.4887 51.0637 64.6165L53.8449 66.5826C54.0367 66.7104 54.2365 66.7584 54.4443 66.7264C54.6521 66.6945 54.8199 66.5826 54.9478 66.3908C55.0756 66.1989 55.1236 65.9991 55.0916 65.7914C55.0597 65.5836 54.9478 65.4157 54.756 65.2879L51.9747 63.3218ZM50.4882 65.3838C50.3284 65.2559 50.1366 65.2159 49.9128 65.2639C49.689 65.3118 49.5132 65.4237 49.3853 65.5995C49.2575 65.7754 49.2095 65.9752 49.2415 66.1989C49.2734 66.4227 49.3853 66.5985 49.5771 66.7264L52.3584 68.6925C52.5502 68.8203 52.758 68.8603 52.9817 68.8123C53.2055 68.7644 53.3733 68.6525 53.4852 68.4767C53.5971 68.3008 53.6371 68.101 53.6051 67.8773C53.5731 67.6535 53.4613 67.4777 53.2694 67.3498L50.4882 65.3838ZM49.0497 67.4937C48.8579 67.3658 48.6501 67.3178 48.4263 67.3498C48.2025 67.3818 48.0267 67.4937 47.8988 67.6855C47.7709 67.8773 47.731 68.0771 47.7789 68.2849C47.8269 68.4927 47.9308 68.6605 48.0906 68.7884L50.9198 70.7544C51.1436 70.9462 51.3993 70.9782 51.687 70.8503C51.9747 70.7224 52.1346 70.4986 52.1665 70.179C52.1985 69.8593 52.0866 69.6195 51.8309 69.4597L49.0497 67.4937ZM83.0477 41.8393L76.0467 38.6265C74.4802 37.9232 72.8259 37.5396 71.0836 37.4757C69.3414 37.4117 67.6551 37.6835 66.0247 38.2909L65.0177 38.7224C63.6431 39.3938 62.3643 40.3848 61.1815 41.6954C60.3823 42.6225 59.4553 43.9012 58.4003 45.5316C53.0936 53.8433 48.5542 60.9242 44.7819 66.7744L44.2065 67.5896C43.727 68.1969 43.3274 68.8363 43.0077 69.5076L37.8768 77.3718C37.3653 78.139 37.0776 78.9702 37.0137 79.8653C36.9498 80.7604 37.1096 81.6155 37.4932 82.4307C37.8768 83.2459 38.4443 83.9172 39.1955 84.4447C39.9468 84.9722 40.7779 85.2759 41.689 85.3558C42.6001 85.4357 43.4633 85.2919 44.2784 84.9242C45.0936 84.5566 45.7729 84.0051 46.3164 83.2699L59.5512 65.2879C60.0946 64.5526 60.8059 64.0731 61.685 63.8493C62.5641 63.6255 63.4193 63.7054 64.2505 64.0891L71.4433 67.3498C72.1466 67.6695 72.8738 67.7414 73.6251 67.5656C74.3763 67.3898 74.9917 66.9822 75.4712 66.3428C75.9508 65.6715 76.1346 64.9122 76.0227 64.0651C75.9108 63.2179 75.5352 62.5226 74.8958 61.9792L81.2734 47.9292C82.1046 48.0891 82.8798 47.9292 83.5991 47.4497C84.3184 46.9702 84.758 46.3148 84.9178 45.4837C85.1096 44.7164 85.0217 43.9892 84.6541 43.3018C84.2864 42.6145 83.751 42.111 83.0477 41.7914V41.8393ZM68.9498 59.15C67.9588 58.7024 67.1116 58.0791 66.4083 57.2799C65.705 56.4807 65.1855 55.5776 64.8499 54.5706C64.5142 53.5636 64.4023 52.5246 64.5142 51.4537C64.6261 50.3828 64.9538 49.3838 65.4972 48.4567C66.1685 47.3378 67.0557 46.4507 68.1586 45.7953C69.2615 45.14 70.4603 44.7724 71.755 44.6925C73.0497 44.6125 74.2884 44.8443 75.4712 45.3878L79.739 47.3538L73.4573 61.2119L68.9498 59.15ZM83.3833 45.148C83.2874 45.6275 83.0077 45.9792 82.5442 46.2029C82.0806 46.4267 81.6251 46.4427 81.1775 46.2509L76.1426 43.9492C74.704 43.2779 73.2095 42.9902 71.6591 43.0861C70.1086 43.182 68.6621 43.6295 67.3194 44.4287C65.9767 45.2279 64.9058 46.2988 64.1066 47.6415C63.4672 48.7924 63.0756 50.0071 62.9318 51.2859C62.7879 52.5646 62.9158 53.8193 63.3154 55.0501C63.715 56.2809 64.3464 57.3838 65.2095 58.3588C66.0726 59.3338 67.0956 60.0931 68.2784 60.6365L73.5532 62.9862C74.0007 63.2099 74.2884 63.5696 74.4163 64.0651C74.5442 64.5606 74.4642 65.0161 74.1765 65.4317C73.9208 65.7194 73.6011 65.9112 73.2175 66.0071C72.8339 66.103 72.4662 66.0551 72.1146 65.8633L64.8738 62.6025C63.691 62.0591 62.4842 61.9552 61.2535 62.2909C60.0227 62.6265 59.0237 63.3058 58.2565 64.3288L45.0217 82.3588C44.4463 83.126 43.687 83.5816 42.744 83.7254C41.8009 83.8693 40.9298 83.6615 40.1306 83.102C39.3314 82.5426 38.8439 81.7914 38.668 80.8483C38.4922 79.9052 38.676 79.0341 39.2195 78.2349L44.3983 70.2269C44.718 69.6195 45.0856 69.0441 45.5012 68.5006L46.1246 67.6375C50.0247 61.6275 54.5641 54.5466 59.743 46.3948C60.702 44.8603 61.5492 43.6775 62.2844 42.8463C63.3713 41.6635 64.5222 40.7684 65.737 40.161L66.6001 39.7774C67.8788 39.2978 69.2055 39.0581 70.5801 39.0581C72.2744 39.0581 73.8888 39.4097 75.4233 40.113L82.3763 43.2779C82.76 43.4377 83.0397 43.6855 83.2155 44.0211C83.3913 44.3568 83.4473 44.7324 83.3833 45.148Z" fill="white"/>
</g>
<rect x="0.5" y="0.879883" width="121" height="121" rx="60.5" stroke="#88C040"/>
<defs>
<clipPath id="clip0_14_1504">
<rect width="48" height="48" fill="white" transform="matrix(1 0 0 -1 37 85.3799)"/>
</clipPath>
</defs>
</svg>
