<svg width="50" height="51" viewBox="0 0 50 51" fill="none" xmlns="http://www.w3.org/2000/svg">
<g clip-path="url(#clip0_14_1744)">
<path d="M1.94805 18.0227V10.6301H42.957V18.0227H1.94805ZM0 18.1226C0 18.6554 0.18315 19.0966 0.549451 19.4462C0.915751 19.7959 1.34865 19.9707 1.84815 19.9707H43.0569C43.5897 19.9707 44.031 19.7959 44.3806 19.4462C44.7303 19.0966 44.9051 18.6554 44.9051 18.1226V10.5302C44.9051 9.99735 44.7303 9.5478 44.3806 9.1815C44.031 8.8152 43.5897 8.63205 43.0569 8.63205H1.84815C1.34865 8.63205 0.915751 8.8152 0.549451 9.1815C0.18315 9.5478 0 9.99735 0 10.5302V18.1226ZM3.14685 43.9967C3.14685 44.7959 3.4299 45.4869 3.996 46.0696C4.5621 46.6524 5.2614 46.9437 6.09391 46.9437H26.3736C26.64 46.9437 26.8648 46.8438 27.048 46.644C27.2311 46.4442 27.3227 46.2111 27.3227 45.9447C27.3227 45.6783 27.2311 45.4536 27.048 45.2704C26.8648 45.0873 26.64 44.9957 26.3736 44.9957H6.09391C5.79421 44.9957 5.55278 44.8958 5.36963 44.696C5.18648 44.4962 5.0949 44.2631 5.0949 43.9967V19.9707H39.8102V23.717C39.8102 23.9834 39.9101 24.2165 40.1099 24.4163C40.3097 24.6161 40.5428 24.716 40.8092 24.716C41.0756 24.716 41.3004 24.6161 41.4835 24.4163C41.6667 24.2165 41.7582 23.9834 41.7582 23.717V19.0217C41.7582 18.7553 41.6667 18.5222 41.4835 18.3224C41.3004 18.1226 41.0756 18.0227 40.8092 18.0227H4.0959C3.8295 18.0227 3.60473 18.1226 3.42158 18.3224C3.23843 18.5222 3.14685 18.7553 3.14685 19.0217V43.9967ZM18.5315 46.9437C18.8312 46.9437 19.0726 46.8438 19.2557 46.644C19.4389 46.4442 19.5305 46.2111 19.5305 45.9447V35.8548C19.5305 35.5884 19.4389 35.3553 19.2557 35.1555C19.0726 34.9557 18.8395 34.8558 18.5564 34.8558C18.2734 34.8558 18.0403 34.9557 17.8571 35.1555C17.674 35.3553 17.5824 35.5884 17.5824 35.8548V45.9447C17.5824 46.2111 17.674 46.4442 17.8571 46.644C18.0403 46.8438 18.2651 46.9437 18.5315 46.9437ZM26.3736 28.5621C26.64 28.5621 26.8648 28.4705 27.048 28.2874C27.2311 28.1042 27.3227 27.8795 27.3227 27.6131V19.0217C27.3227 18.7553 27.2311 18.5222 27.048 18.3224C26.8648 18.1226 26.64 18.0227 26.3736 18.0227H18.5315C18.2651 18.0227 18.0403 18.1226 17.8571 18.3224C17.674 18.5222 17.5824 18.7553 17.5824 19.0217V27.0636C17.5824 27.33 17.674 27.5548 17.8571 27.7379C18.0403 27.9211 18.2734 28.0127 18.5564 28.0127C18.8395 28.0127 19.0726 27.9211 19.2557 27.7379C19.4389 27.5548 19.5305 27.33 19.5305 27.0636V19.9707H25.3746V27.6131C25.3746 27.8795 25.4745 28.1042 25.6743 28.2874C25.8741 28.4705 26.1072 28.5621 26.3736 28.5621ZM17.5824 19.0217C17.5824 19.2881 17.674 19.5128 17.8571 19.696C18.0403 19.8791 18.2651 19.9707 18.5315 19.9707H26.3736C26.64 19.9707 26.8648 19.8791 27.048 19.696C27.2311 19.5128 27.3227 19.2881 27.3227 19.0217V9.63105C27.3227 9.36465 27.2311 9.13155 27.048 8.93176C26.8648 8.73195 26.64 8.63205 26.3736 8.63205H18.5315C18.2651 8.63205 18.0403 8.73195 17.8571 8.93176C17.674 9.13155 17.5824 9.36465 17.5824 9.63105V19.0217ZM19.5305 18.0227V10.6301H25.3746V18.0227H19.5305ZM17.5824 9.63105C17.5824 9.89745 17.674 10.1306 17.8571 10.3304C18.0403 10.5302 18.2651 10.6301 18.5315 10.6301H26.3736C26.64 10.6301 26.8648 10.5302 27.048 10.3304C27.2311 10.1306 27.3227 9.89745 27.3227 9.63105V8.0826C27.3227 7.1835 27.1062 6.35933 26.6733 5.61007C26.2404 4.86082 25.6493 4.26975 24.9001 3.83685C24.1508 3.40395 23.335 3.1875 22.4525 3.1875C21.5701 3.1875 20.7542 3.40395 20.005 3.83685C19.2557 4.26975 18.6647 4.86082 18.2318 5.61007C17.7989 6.35933 17.5824 7.1835 17.5824 8.0826V9.63105ZM19.5305 8.63205V8.0826C19.5305 7.2501 19.8135 6.5508 20.3796 5.9847C20.9457 5.4186 21.6367 5.13555 22.4525 5.13555C23.2684 5.13555 23.9594 5.4186 24.5255 5.9847C25.0916 6.5508 25.3746 7.2501 25.3746 8.0826V8.63205H19.5305ZM9.74026 5.73495C9.74026 6.60075 9.96503 7.40828 10.4146 8.15753C10.8641 8.90678 11.4635 9.50618 12.2128 9.95573C12.962 10.4053 13.7696 10.6301 14.6354 10.6301H18.5315C18.8312 10.6301 19.0726 10.5302 19.2557 10.3304C19.4389 10.1306 19.5305 9.89745 19.5305 9.63105V5.73495C19.5305 4.83585 19.314 4.01167 18.8811 3.26242C18.4482 2.51317 17.8571 1.9221 17.1079 1.4892C16.3586 1.0563 15.5428 0.839844 14.6603 0.839844C13.7779 0.839844 12.962 1.0563 12.2128 1.4892C11.4635 1.9221 10.8641 2.51317 10.4146 3.26242C9.96503 4.01167 9.74026 4.83585 9.74026 5.73495ZM14.6354 8.63205C13.8362 8.63205 13.1535 8.349 12.5874 7.7829C12.0213 7.2168 11.7383 6.53415 11.7383 5.73495C11.7383 4.93575 12.0213 4.24477 12.5874 3.66202C13.1535 3.07927 13.8445 2.7879 14.6603 2.7879C15.4762 2.7879 16.1672 3.07927 16.7333 3.66202C17.2994 4.24477 17.5824 4.93575 17.5824 5.73495V8.63205H14.6354ZM5.89411 3.7869C5.89411 5.019 6.20213 6.15953 6.81818 7.20848C7.43423 8.25743 8.25841 9.08993 9.29071 9.70598C10.323 10.322 11.4719 10.6301 12.7373 10.6301H18.5315C18.8312 10.6301 19.0726 10.5302 19.2557 10.3304C19.4389 10.1306 19.5305 9.89745 19.5305 9.63105C19.5305 9.36465 19.4389 9.13155 19.2557 8.93176C19.0726 8.73195 18.8312 8.63205 18.5315 8.63205H12.7373C11.8382 8.63205 11.014 8.4156 10.2647 7.9827C9.51548 7.5498 8.92441 6.96705 8.49151 6.23445C8.05861 5.50185 7.84216 4.686 7.84216 3.7869C7.84216 3.5205 7.75058 3.2874 7.56743 3.0876C7.38428 2.8878 7.15118 2.7879 6.86813 2.7879C6.58508 2.7879 6.35198 2.8878 6.16883 3.0876C5.98568 3.2874 5.89411 3.5205 5.89411 3.7869ZM25.3746 9.63105C25.3746 9.89745 25.4745 10.1306 25.6743 10.3304C25.8741 10.5302 26.1072 10.6301 26.3736 10.6301H30.2697C31.1688 10.6301 31.993 10.4053 32.7423 9.95573C33.4915 9.50618 34.0826 8.90678 34.5155 8.15753C34.9484 7.40828 35.1648 6.59243 35.1648 5.70998C35.1648 4.82753 34.9484 4.01167 34.5155 3.26242C34.0826 2.51317 33.4915 1.9221 32.7423 1.4892C31.993 1.0563 31.1772 0.839844 30.2947 0.839844C29.4123 0.839844 28.5964 1.0563 27.8472 1.4892C27.0979 1.9221 26.4985 2.51317 26.049 3.26242C25.5994 4.01167 25.3746 4.83585 25.3746 5.73495V9.63105ZM27.3227 8.63205V5.73495C27.3227 4.93575 27.6141 4.24477 28.1968 3.66202C28.7796 3.07927 29.4705 2.7879 30.2697 2.7879C31.0689 2.7879 31.7599 3.07927 32.3427 3.66202C32.9254 4.24477 33.2168 4.93575 33.2168 5.73495C33.2168 6.53415 32.9254 7.2168 32.3427 7.7829C31.7599 8.349 31.0689 8.63205 30.2697 8.63205H27.3227ZM25.3746 9.63105C25.3746 9.89745 25.4745 10.1306 25.6743 10.3304C25.8741 10.5302 26.1072 10.6301 26.3736 10.6301H32.2178C33.4499 10.6301 34.5904 10.322 35.6394 9.70598C36.6883 9.08993 37.5125 8.25743 38.1119 7.20848C38.7113 6.15953 39.011 5.019 39.011 3.7869C39.011 3.5205 38.9194 3.2874 38.7363 3.0876C38.5531 2.8878 38.3283 2.7879 38.0619 2.7879C37.7955 2.7879 37.5624 2.8878 37.3626 3.0876C37.1628 3.2874 37.0629 3.5205 37.0629 3.7869C37.0629 4.686 36.8465 5.50185 36.4136 6.23445C35.9807 6.96705 35.3896 7.5498 34.6404 7.9827C33.8911 8.4156 33.0836 8.63205 32.2178 8.63205H26.3736C26.1072 8.63205 25.8741 8.73195 25.6743 8.93176C25.4745 9.13155 25.3746 9.36465 25.3746 9.63105ZM35.9141 48.8918C33.7496 48.8918 31.7349 48.3507 29.8701 47.2684C28.0053 46.1862 26.5318 44.7126 25.4495 42.8478C24.3673 40.983 23.8262 38.9601 23.8262 36.7789C23.8262 34.5978 24.3673 32.5748 25.4495 30.71C26.5318 28.8452 28.0053 27.3716 29.8701 26.2894C31.7349 25.2071 33.7579 24.666 35.9391 24.666C38.1202 24.666 40.1432 25.2071 42.008 26.2894C43.8728 27.3716 45.3463 28.8452 46.4286 30.71C47.5108 32.5748 48.0519 34.5978 48.0519 36.7789C48.0519 38.9601 47.5108 40.983 46.4286 42.8478C45.3463 44.7126 43.8728 46.1862 42.008 47.2684C40.1432 48.3507 38.1119 48.8918 35.9141 48.8918ZM21.8781 36.8039C21.8781 39.3347 22.5108 41.699 23.7762 43.8968C25.0416 45.9947 26.7233 47.6763 28.8212 48.9417C31.019 50.2071 33.3916 50.8398 35.9391 50.8398C38.4865 50.8398 40.8591 50.2071 43.0569 48.9417C45.1548 47.6763 46.8365 45.9947 48.1019 43.8968C49.3673 41.699 50 39.3264 50 36.7789C50 34.2315 49.3673 31.8588 48.1019 29.661C46.8365 27.5631 45.1548 25.8815 43.0569 24.6161C40.8591 23.3507 38.4865 22.718 35.9391 22.718C33.3916 22.718 31.019 23.3507 28.8212 24.6161C26.7233 25.8815 25.0416 27.5631 23.7762 29.661C22.5108 31.8588 21.8781 34.2398 21.8781 36.8039ZM32.9171 43.1975C33.1502 43.2974 33.3916 43.3057 33.6414 43.2225C33.8911 43.1392 34.0826 42.9644 34.2158 42.698L39.5604 31.659C39.6936 31.4259 39.7103 31.1762 39.6104 30.9098C39.5105 30.6434 39.344 30.4519 39.1109 30.3353C38.8778 30.2188 38.6364 30.2105 38.3866 30.3104C38.1369 30.4103 37.9454 30.5768 37.8122 30.8099L32.4176 41.8488C32.3177 42.1152 32.3094 42.3733 32.3926 42.6231C32.4759 42.8728 32.6507 43.0643 32.9171 43.1975ZM32.0679 32.8578C31.8681 33.0909 31.6017 33.2075 31.2687 33.2075C30.9357 33.2075 30.6527 33.0909 30.4196 32.8578C30.1865 32.6247 30.0699 32.3417 30.0699 32.0087C30.0699 31.6757 30.1865 31.4009 30.4196 31.1845C30.6527 30.9681 30.9357 30.8598 31.2687 30.8598C31.6017 30.8598 31.8765 30.9681 32.0929 31.1845C32.3094 31.4009 32.4176 31.6757 32.4176 32.0087C32.4176 32.3417 32.301 32.6247 32.0679 32.8578ZM33.4665 34.2065C32.8671 34.8392 32.1345 35.1555 31.2687 35.1555C30.4029 35.1555 29.6703 34.8392 29.0709 34.2065H33.4665ZM41.6084 42.3483C41.3753 42.5814 41.1006 42.698 40.7842 42.698C40.4679 42.698 40.1931 42.5814 39.96 42.3483C39.7269 42.1485 39.6104 41.8821 39.6104 41.5491C39.6104 41.2161 39.7269 40.9331 39.96 40.7C40.1931 40.4669 40.4679 40.3503 40.7842 40.3503C41.1006 40.3503 41.3753 40.4669 41.6084 40.7C41.8415 40.9331 41.958 41.2161 41.958 41.5491C41.958 41.8821 41.8415 42.1485 41.6084 42.3483ZM43.007 43.7469C42.4076 44.3463 41.675 44.646 40.8092 44.646C39.9434 44.646 39.1941 44.3463 38.5614 43.7469H43.007Z" fill="#88C040"/>
</g>
<defs>
<clipPath id="clip0_14_1744">
<rect width="50.02" height="50" fill="white" transform="matrix(1 0 0 -1 -0.0100098 50.8398)"/>
</clipPath>
</defs>
</svg>
