<svg width="50" height="50" viewBox="0 0 50 50" fill="none" xmlns="http://www.w3.org/2000/svg">
<path d="M35.4208 34.0159C35.4874 34.2157 35.4625 34.4155 35.3459 34.6153C35.2294 34.8151 35.0712 34.9317 34.8714 34.965L20.4358 38.8111L20.236 38.8611C20.0695 38.8611 19.9197 38.8111 19.7865 38.7112C19.6533 38.6113 19.5617 38.4615 19.5117 38.2617C19.4618 38.0619 19.4868 37.8704 19.5867 37.6873C19.6866 37.5041 19.8364 37.3792 20.0362 37.3126L34.4718 33.4665C34.6716 33.3999 34.8631 33.4249 35.0462 33.5414C35.2294 33.658 35.3542 33.8161 35.4208 34.0159ZM17.4888 25.4245C17.0892 25.1914 16.8394 24.8584 16.7395 24.4255L14.1921 15.0349C14.0922 14.602 14.1504 14.1941 14.3669 13.8111C14.5833 13.4282 14.908 13.1701 15.3409 13.0369L26.3799 10.0899C26.8128 9.95666 27.2207 10.0066 27.6036 10.2397C27.9866 10.4728 28.2447 10.8058 28.3779 11.2387L30.8754 20.6293C31.0086 21.0622 30.9586 21.4701 30.7255 21.8531C30.4924 22.236 30.1594 22.4941 29.7265 22.6273L18.6876 25.5744C18.5544 25.6077 18.4212 25.6243 18.288 25.6243C17.9883 25.6243 17.7219 25.5577 17.4888 25.4245ZM29.3769 21.0289L28.7275 18.6813L25.7805 16.3836L22.5337 21.5284C22.3672 21.7615 22.1341 21.8781 21.8344 21.8781C21.7012 21.8781 21.5514 21.8281 21.3849 21.7282C21.2184 21.6283 21.1185 21.4701 21.0852 21.2537C21.0519 21.0372 21.0852 20.8458 21.1851 20.6793L21.6346 19.98L19.9363 18.8311L17.6386 21.8281L18.238 24.0259L18.288 24.0759L29.3269 21.1288C29.3602 21.0955 29.3769 21.0622 29.3769 21.0289ZM15.7405 14.6353L17.1391 19.93L19.1371 17.3326C19.2703 17.1661 19.4368 17.0662 19.6366 17.0329C19.8364 16.9996 20.0196 17.0329 20.1861 17.1328L22.4838 18.6313L24.9313 14.7852C25.0645 14.6187 25.2477 14.5104 25.4808 14.4605C25.7139 14.4105 25.9137 14.4688 26.0802 14.6353L28.0782 16.1838L26.8294 11.6383V11.5884L15.7405 14.5354C15.7072 14.5354 15.6906 14.5687 15.6906 14.6353H15.7405ZM22.0342 16.8331C22.2673 16.7665 22.4505 16.625 22.5837 16.4085C22.7169 16.1921 22.7502 15.959 22.6836 15.7092C22.617 15.4595 22.4671 15.268 22.234 15.1348C22.0009 15.0016 21.7678 14.9683 21.5347 15.0349C21.3016 15.1015 21.1185 15.243 20.9853 15.4595C20.8521 15.6759 20.8188 15.909 20.8854 16.1588C20.952 16.4085 21.0935 16.6 21.3099 16.7332C21.5264 16.8664 21.7678 16.8997 22.0342 16.8331ZM45.8104 26.3236C45.9769 26.6233 46.0602 26.923 46.0602 27.2227C46.0602 27.5224 45.9769 27.8055 45.8104 28.0719C45.6439 28.3383 45.4275 28.5464 45.1611 28.6963C44.8947 28.8461 44.595 28.9044 44.262 28.8711C43.0299 28.8378 42.0309 28.8378 41.265 28.8711C41.7978 30.6027 42.0642 32.2177 42.0642 33.7162C42.0309 34.915 41.6479 35.9806 40.9153 36.913C40.1827 37.8454 39.2337 38.4781 38.0682 38.8111L13.0932 45.5044C12.627 45.6043 12.1441 45.6543 11.6446 45.6543C10.7122 45.6543 9.8464 45.4295 9.0472 44.98C8.248 44.5304 7.59865 43.8894 7.09915 43.0569C6.13345 41.4585 5.4175 39.5604 4.9513 37.3626C4.6516 36.0306 4.36855 33.9826 4.10215 31.2187C3.90235 29.1541 3.7192 27.589 3.5527 26.5234C3.2863 24.7918 2.90335 23.2267 2.40385 21.8281C1.83775 20.1631 1.08849 18.6313 0.156094 17.2327C-0.0104063 17.0329 -0.0437063 16.8081 0.0561938 16.5584C0.156094 16.3086 0.322594 16.1505 0.555694 16.0839L3.6526 15.2347C3.586 14.6686 3.53605 14.1192 3.50275 13.5864C3.50275 13.3866 3.56102 13.2201 3.67757 13.0869C3.79412 12.9537 3.93565 12.8538 4.10215 12.7872L6.0502 12.2877L6.10015 11.5884C6.10015 11.4219 6.1501 11.272 6.25 11.1388C6.3499 11.0056 6.4831 10.9224 6.6496 10.8891L31.6246 4.19576C31.891 4.12916 32.1325 4.17911 32.3489 4.34561C32.5654 4.51211 32.6569 4.72856 32.6236 4.99496C32.4904 7.05956 32.7901 9.27401 33.5227 11.6383C34.0888 13.4365 35.0212 15.6343 36.3199 18.2317L37.269 16.6333C37.602 16.0672 38.0848 15.7842 38.7175 15.7842C39.3835 15.7842 39.883 16.0672 40.216 16.6333L41.8144 19.4305C42.3805 19.2973 42.93 19.3389 43.4628 19.5554C43.9956 19.7718 44.4035 20.1298 44.6866 20.6293C44.9696 21.1288 45.0778 21.6699 45.0112 22.2527C44.9446 22.8354 44.7115 23.3266 44.3119 23.7262L45.8104 26.3236ZM42.7135 20.929L43.4128 22.2277C43.5127 21.928 43.4878 21.6533 43.3379 21.4035C43.1881 21.1538 42.9799 20.9956 42.7135 20.929ZM33.1231 29.8701L35.1711 28.6713L32.9233 24.7752L30.8754 25.974C30.4758 26.2071 30.1761 26.5068 29.9763 26.8731V26.973C29.8098 27.306 29.7265 27.6556 29.7265 28.0219C29.7265 28.3882 29.8264 28.7379 30.0262 29.0709C30.3259 29.6037 30.7838 29.945 31.3999 30.0949C32.0159 30.2447 32.5903 30.1698 33.1231 29.8701ZM35.3709 30.3696L36.9193 33.0169C37.0192 33.2167 37.1608 33.3499 37.3439 33.4165C37.5271 33.4831 37.7185 33.4831 37.9183 33.4165L35.9703 30.0199L35.3709 30.3696ZM41.7145 27.2727L37.3189 19.6803C36.22 21.4785 35.1877 22.8771 34.222 23.8761L36.6196 28.0219C38.0515 27.5557 39.7498 27.306 41.7145 27.2727ZM8.09815 41.6583C8.56435 41.7915 9.03055 41.8081 9.49675 41.7082C10.0629 41.5417 10.5207 41.2337 10.8704 40.7842C11.22 40.3346 11.4115 39.8101 11.4448 39.2107C11.5114 37.6456 11.1451 35.7142 10.3459 33.4165C9.8797 32.0512 8.99725 29.8867 7.69855 26.923C6.66625 24.6586 5.93365 22.9603 5.50075 21.8281C4.76815 19.93 4.23535 18.2484 3.90235 16.7832L2.00425 17.2827C3.23635 19.314 4.13545 21.6117 4.70155 24.1758C5.03455 25.7076 5.3509 28.0053 5.6506 31.0689C5.917 33.5664 6.16675 35.4145 6.39985 36.6133C6.76615 38.578 7.33225 40.2597 8.09815 41.6583ZM15.4908 40.3596C15.5241 38.628 15.0912 36.63 14.1921 34.3656C13.6593 33.0003 12.6436 30.8857 11.1451 28.0219C9.58 24.9916 8.4811 22.6939 7.8484 21.1288C6.8161 18.4981 6.23335 16.0839 6.10015 13.8861L5.10115 14.1358C5.20105 15.8008 5.66725 17.7822 6.49975 20.0799C6.99925 21.4452 7.86505 23.5098 9.09715 26.2737V26.3236C10.4625 29.3872 11.3949 31.635 11.8944 33.0669C12.6936 35.4645 13.0599 37.5291 12.9933 39.2607C12.96 40.2264 12.6603 41.0672 12.0942 41.7832C11.5281 42.4991 10.7955 42.9736 9.89635 43.2067C9.72985 43.24 9.5467 43.2733 9.3469 43.3066C9.8131 43.6729 10.3376 43.9144 10.9203 44.0309C11.5031 44.1475 12.0942 44.1225 12.6936 43.956C13.5261 43.7562 14.2004 43.3233 14.7165 42.6573C15.2327 41.9913 15.4908 41.2254 15.4908 40.3596ZM39.6666 28.971C38.8674 29.0709 38.1181 29.2207 37.4188 29.4205L39.6666 33.3666C39.7998 33.5331 39.8331 33.7246 39.7665 33.941C39.6999 34.1575 39.5833 34.3156 39.4168 34.4155L38.8674 34.7152C38.5011 34.915 38.1015 35.0149 37.6686 35.0149C37.2357 35.0149 36.8278 34.915 36.4448 34.7152C36.0619 34.5154 35.7705 34.2157 35.5707 33.8161L34.0222 31.1688L33.8724 31.2187C33.3063 31.5517 32.6736 31.7182 31.9743 31.7182C31.6413 31.7182 31.3083 31.6849 30.9753 31.6183L30.7755 31.5184L19.3369 34.6153H19.0872C18.9207 34.6153 18.7708 34.5654 18.6376 34.4655C18.5044 34.3656 18.4128 34.2157 18.3629 34.0159C18.3129 33.8161 18.3379 33.6247 18.4378 33.4415C18.5377 33.2584 18.6876 33.1335 18.8874 33.0669L29.0272 30.3696C28.894 30.2031 28.7775 30.0199 28.6776 29.8201C28.278 29.1541 28.1115 28.4382 28.1781 27.6723L18.1881 30.3696H17.9883C17.7885 30.3696 17.622 30.3196 17.4888 30.2197C17.3556 30.1198 17.264 29.97 17.214 29.7702C17.1641 29.5704 17.1891 29.3789 17.289 29.1958C17.3889 29.0126 17.5554 28.8877 17.7885 28.8211L28.7775 25.8741C29.1105 25.3413 29.5434 24.925 30.0762 24.6253L32.7735 23.0769C33.606 22.311 34.4718 21.2287 35.3709 19.8301C33.9723 17.0662 32.9566 14.7852 32.3239 12.987C31.4581 10.4895 31.0252 8.15846 31.0252 5.99396L7.59865 12.2377C7.56535 13.8694 7.7818 15.5844 8.248 17.3826C8.6476 18.8811 9.26365 20.5461 10.0962 22.3776C10.5957 23.4765 11.4115 25.1082 12.5437 27.2727C14.1088 30.2697 15.1744 32.5008 15.7405 33.966C16.6396 36.3303 17.0725 38.4781 17.0392 40.4095C17.0392 41.3419 16.8061 42.2077 16.3399 43.0069L37.6686 37.2627C38.5011 37.0629 39.1754 36.63 39.6916 35.964C40.2077 35.298 40.4658 34.5321 40.4658 33.6663C40.4991 32.2677 40.2327 30.7026 39.6666 28.971ZM44.4618 27.1228L38.8674 17.4325C38.8341 17.3659 38.7841 17.3326 38.7175 17.3326C38.6842 17.3326 38.6509 17.3659 38.6176 17.4325L38.218 18.1318L43.5127 27.3226H44.3119C44.3785 27.3226 44.4285 27.2977 44.4618 27.2477C44.4951 27.1978 44.4951 27.1561 44.4618 27.1228ZM43.3129 18.5314C43.3795 18.5314 43.4461 18.5314 43.5127 18.5314C43.7125 18.5314 43.879 18.4815 44.0122 18.3816C44.1454 18.2817 44.2453 18.1485 44.3119 17.982L44.6116 16.7332C44.6782 16.5334 44.6533 16.3419 44.5367 16.1588C44.4202 15.9756 44.262 15.8591 44.0622 15.8091C43.8624 15.7592 43.6709 15.7842 43.4878 15.8841C43.3046 15.984 43.1797 16.1338 43.1131 16.3336L42.7635 17.5824C42.7302 17.7822 42.7635 17.9736 42.8634 18.1568C42.9633 18.3399 43.1131 18.4648 43.3129 18.5314ZM46.1101 20.5794C46.2433 20.5794 46.3765 20.5461 46.5097 20.4795L47.6086 19.8301C47.7751 19.7302 47.8917 19.5804 47.9583 19.3806C48.0249 19.1808 47.9999 18.9893 47.8834 18.8061C47.7668 18.623 47.6086 18.4981 47.4088 18.4315C47.209 18.3649 47.0092 18.3816 46.8094 18.4815L45.7105 19.1308C45.544 19.2307 45.4275 19.3889 45.3609 19.6053C45.2943 19.8218 45.3276 20.0133 45.4608 20.1798C45.594 20.4462 45.8104 20.5794 46.1101 20.5794ZM47.8584 22.6773L46.6596 22.3276C46.4265 22.261 46.2184 22.286 46.0352 22.4025C45.8521 22.5191 45.7355 22.6773 45.6856 22.8771C45.6356 23.0769 45.6606 23.2767 45.7605 23.4765C45.8604 23.6763 46.0269 23.7928 46.26 23.8261L47.4588 24.1758H47.6586C47.8251 24.1758 47.9833 24.1258 48.1331 24.0259C48.283 23.926 48.3829 23.7762 48.4328 23.5764C48.4828 23.3766 48.4495 23.1851 48.3329 23.0019C48.2164 22.8188 48.0582 22.7106 47.8584 22.6773Z" fill="#88C040"/>
</svg>
