<svg width="123" height="123" viewBox="0 0 123 123" fill="none" xmlns="http://www.w3.org/2000/svg">
<rect x="11.95" y="11.1899" width="100" height="100" rx="50" fill="#88C040"/>
<g clip-path="url(#clip0_14_1534)">
<path d="M68.4475 43.4237C68.3516 43.1999 68.1997 43.0401 67.9919 42.9442C67.7842 42.8483 67.5684 42.8483 67.3446 42.9442C65.906 43.4876 64.1957 43.8553 62.2137 44.0471C60.2317 44.2389 58.2497 44.2389 56.2677 44.0471C54.2857 43.8553 52.5754 43.4876 51.1368 42.9442C50.913 42.8483 50.6972 42.8483 50.4894 42.9442C50.2817 43.0401 50.1378 43.1999 50.0579 43.4237C49.978 43.6475 49.986 43.8633 50.0819 44.0711C50.1778 44.2789 50.3216 44.4147 50.5134 44.4787C51.6962 44.9262 53.0469 45.2699 54.5654 45.5096C56.0839 45.7494 57.6423 45.8693 59.2407 45.8693C60.8391 45.8693 62.3975 45.7494 63.916 45.5096C65.4345 45.2699 66.7852 44.9262 67.968 44.4787C68.1598 44.4147 68.3036 44.2789 68.3995 44.0711C68.4954 43.8633 68.5114 43.6475 68.4475 43.4237ZM78.6613 59.3438C78.8211 59.1839 79.0129 59.096 79.2367 59.0801C79.4605 59.0641 79.6603 59.128 79.8361 59.2719C80.0119 59.4157 80.1078 59.5995 80.1238 59.8233C80.1398 60.0471 80.0679 60.2549 79.908 60.4467L74.969 66.153C74.8091 66.3448 74.6013 66.4407 74.3456 66.4407C74.0579 66.4407 73.8341 66.3448 73.6743 66.153L70.8451 62.6045C70.6853 62.4127 70.6213 62.2049 70.6533 61.9811C70.6853 61.7574 70.7892 61.5736 70.965 61.4297C71.1408 61.2858 71.3406 61.2299 71.5644 61.2619C71.7882 61.2938 71.98 61.3897 72.1398 61.5496L74.3456 64.3308L78.6613 59.3438ZM78.2777 44.143C78.2777 42.6725 77.9899 41.4097 77.4145 40.3548C76.967 39.5556 76.3596 38.9002 75.5923 38.3887C74.5694 37.6535 73.3306 37.2539 71.8761 37.1899C70.4215 37.126 68.911 37.3817 67.3446 37.9572C65.906 38.5006 64.1957 38.8763 62.2137 39.084C60.2317 39.2918 58.2497 39.2918 56.2677 39.084C54.2857 38.8763 52.5754 38.5006 51.1368 37.9572C49.5704 37.3817 48.0599 37.126 46.6053 37.1899C45.1508 37.2539 43.912 37.6535 42.8891 38.3887C42.1218 38.9002 41.5144 39.5556 41.0669 40.3548C40.4914 41.4097 40.2037 42.6725 40.2037 44.143C40.2037 50.4407 40.4994 55.4677 41.0908 59.2239C41.6823 62.9802 42.5854 65.5296 43.8001 66.8723C44.5034 67.6395 45.0549 69.11 45.4545 71.2838C45.8541 73.4577 46.0859 76.1909 46.1498 79.4836C46.1818 80.9222 46.6293 82.1849 47.4924 83.2719C48.3556 84.3588 49.4105 84.9821 50.6573 85.142C50.8811 85.174 51.1048 85.1899 51.3286 85.1899C52.5434 85.1899 53.6143 84.7744 54.5414 83.9432C55.1808 83.3997 55.6683 82.7444 56.0039 81.9772C56.3396 81.2099 56.5074 80.3947 56.5074 79.5316V71.5716C56.5074 70.7084 56.7712 69.9732 57.2986 69.3658C57.8261 68.7584 58.4655 68.4547 59.2167 68.4547C59.968 68.4547 60.6153 68.7504 61.1588 69.3418C61.7022 69.9332 61.974 70.6765 61.974 71.5716V79.3398C61.974 80.8423 62.4135 82.145 63.2926 83.2479C64.1718 84.3508 65.2667 84.9821 66.5774 85.142C68.0159 85.3018 69.2787 84.9022 70.3656 83.9432C70.973 83.4317 71.4445 82.8003 71.7802 82.0491C72.1158 81.2978 72.2996 80.4906 72.3316 79.6275C72.3955 75.6315 72.7152 72.4507 73.2906 70.085C73.9939 70.2769 74.6813 70.3728 75.3526 70.3728C76.8231 70.3728 78.1977 69.9971 79.4765 69.2459C80.7552 68.4946 81.7622 67.4876 82.4974 66.2249C83.2327 64.9622 83.6003 63.5796 83.6003 62.0771C83.6003 60.2868 83.0729 58.6725 82.0179 57.2339C80.963 55.7953 79.6043 54.8043 77.942 54.2609C78.1658 51.3837 78.2777 48.0111 78.2777 44.143ZM70.6533 79.6275C70.6533 80.2349 70.5334 80.8023 70.2936 81.3298C70.0539 81.8573 69.7102 82.3128 69.2627 82.6964C68.5274 83.3358 67.7042 83.6075 66.7931 83.5116C65.8821 83.4157 65.1228 82.9602 64.5154 82.145C63.908 81.3298 63.6043 80.3947 63.6043 79.3398V71.5716C63.6043 70.2609 63.1888 69.142 62.3576 68.2149C61.942 67.7674 61.4625 67.4157 60.919 67.16C60.3756 66.9042 59.8161 66.7764 59.2407 66.7764C58.4415 66.7764 57.7062 66.9921 57.0349 67.4237C56.3636 67.8553 55.8361 68.4387 55.4525 69.174C55.0689 69.9092 54.8771 70.7084 54.8771 71.5716V79.5316C54.8771 80.139 54.7572 80.7224 54.5174 81.2818C54.2777 81.8413 53.934 82.3128 53.4865 82.6964C52.7192 83.3678 51.8561 83.6395 50.897 83.5116C50.0339 83.3837 49.3066 82.9362 48.7152 82.169C48.1238 81.4017 47.8281 80.5066 47.8281 79.4836C47.6683 72.2269 46.7412 67.6555 45.0469 65.7694C44.1518 64.7784 43.4325 62.8443 42.8891 59.9672C42.2177 56.163 41.8821 50.8882 41.8821 44.143C41.8821 42.097 42.5214 40.6265 43.8001 39.7314C44.5993 39.1879 45.5983 38.8922 46.7971 38.8443C47.9959 38.7963 49.2347 39.0281 50.5134 39.5396C52.1118 40.115 53.966 40.5066 56.0759 40.7144C58.1858 40.9222 60.2956 40.9222 62.4055 40.7144C64.5154 40.5066 66.3696 40.115 67.968 39.5396C69.2467 39.0281 70.4855 38.7963 71.6843 38.8443C72.8831 38.8922 73.8821 39.1879 74.6813 39.7314C75.96 40.6265 76.5993 42.097 76.5993 44.143C76.5993 47.8513 76.5034 51.096 76.3116 53.8773C75.96 53.8453 75.6403 53.8293 75.3526 53.8293C73.8501 53.8293 72.4675 54.1969 71.2047 54.9322C69.942 55.6675 68.935 56.6665 68.1838 57.9292C67.4325 59.1919 67.0569 60.5746 67.0569 62.0771C67.0569 63.7074 67.4805 65.1859 68.3276 66.5126C69.1748 67.8393 70.3016 68.8383 71.7082 69.5096C71.0689 72.0351 70.7172 75.4077 70.6533 79.6275ZM75.3526 68.6944C74.1378 68.6944 73.0269 68.3987 72.0199 67.8073C71.0129 67.2159 70.2137 66.4167 69.6223 65.4097C69.0309 64.4027 68.7352 63.2998 68.7352 62.101C68.7352 60.9022 69.0309 59.7913 69.6223 58.7684C70.2137 57.7454 71.0129 56.9382 72.0199 56.3468C73.0269 55.7554 74.1298 55.4597 75.3286 55.4597C76.5274 55.4597 77.6303 55.7554 78.6373 56.3468C79.6443 56.9382 80.4515 57.7454 81.0589 58.7684C81.6663 59.7913 81.97 60.9022 81.97 62.101C81.97 63.2998 81.6663 64.4027 81.0589 65.4097C80.4515 66.4167 79.6443 67.2159 78.6373 67.8073C77.6303 68.3987 76.5354 68.6944 75.3526 68.6944Z" fill="white"/>
</g>
<rect x="1.44995" y="0.689941" width="121" height="121" rx="60.5" stroke="#88C040"/>
<defs>
<clipPath id="clip0_14_1534">
<rect width="43.5" height="48" fill="white" transform="matrix(1 0 0 -1 40.2 85.1899)"/>
</clipPath>
</defs>
</svg>
