<svg width="123" height="123" viewBox="0 0 123 123" fill="none" xmlns="http://www.w3.org/2000/svg">
<rect x="11.47" y="11.1899" width="100" height="100" rx="50" fill="#88C040"/>
<g clip-path="url(#clip0_14_1528)">
<path d="M65.4914 39.3478C65.6512 39.2199 65.8111 39.108 65.9709 39.0121C67.3456 38.0211 68.6882 37.4297 69.9989 37.2379C71.6293 37.0141 73.0918 37.4217 74.3865 38.4607C75.6812 39.4996 76.5523 41.0581 76.9999 43.136C77.2876 44.3827 77.4155 45.7574 77.3835 47.2599C77.3515 48.6025 77.1997 49.9212 76.928 51.2159C76.6562 52.5106 76.2806 53.7973 75.8011 55.0761C75.5134 55.8433 75.0339 56.9782 74.3625 58.4806C73.7232 59.8553 73.2437 60.9262 72.924 61.6934C71.901 64.3468 71.2776 67.2719 71.0538 70.4687C70.926 72.2589 70.9579 74.4647 71.1497 77.086V77.5656C71.2457 78.7164 71.1657 79.8193 70.91 80.8743C70.6542 81.9292 70.2706 82.7923 69.7591 83.4637C68.928 84.6145 67.873 85.1899 66.5943 85.1899C65.0279 85.1899 63.6373 84.135 62.4225 82.0251C61.1118 79.7873 59.929 76.143 58.874 71.092C58.8101 70.7404 58.6423 70.4607 58.3705 70.2529C58.0988 70.0451 57.7871 69.9412 57.4355 69.9412C57.0838 69.9412 56.7721 70.0531 56.5004 70.2769C56.2287 70.5006 56.0608 70.7724 55.9969 71.092C54.942 76.143 53.7591 79.7873 52.4484 82.0251C51.2337 84.135 49.8271 85.1899 48.2287 85.1899C46.9819 85.1899 45.943 84.6145 45.1118 83.4637C44.6003 82.7923 44.2167 81.9292 43.9609 80.8743C43.7052 79.8193 43.6093 78.7164 43.6732 77.5656L43.7212 77.086C43.881 74.4647 43.913 72.2589 43.8171 70.4687C43.5933 67.2719 42.9539 64.3468 41.899 61.6934C41.6113 60.9262 41.1477 59.8553 40.5084 58.4806C39.8371 56.9782 39.3575 55.8433 39.0698 55.0761C38.5903 53.7973 38.2147 52.5106 37.943 51.2159C37.6712 49.9212 37.5194 48.6025 37.4874 47.2599C37.4235 45.7574 37.5354 44.3827 37.8231 43.136C38.3026 41.0581 39.1897 39.4996 40.4844 38.4607C41.7791 37.4217 43.2417 37.0141 44.872 37.2379C46.1827 37.4297 47.5254 38.0211 48.9 39.0121L49.3316 39.3478C51.8251 38.3887 54.5264 37.9092 57.4355 37.9092C60.3446 37.9092 63.0299 38.3887 65.4914 39.3478ZM51.0099 40.6425C51.0419 40.6745 51.1058 40.7224 51.2017 40.7863C52.5444 41.8733 53.5513 42.6405 54.2227 43.088C55.4694 43.8872 56.5324 44.2868 57.4115 44.2868C58.2906 44.2868 59.3535 43.8872 60.6003 43.088C61.3036 42.6405 62.3426 41.8573 63.7172 40.7384L63.861 40.6425C61.847 40.0031 59.7052 39.6834 57.4355 39.6834C55.1657 39.6834 53.0239 40.0031 51.0099 40.6425ZM57.4355 46.0611C56.2207 46.0611 54.8301 45.5656 53.2636 44.5746C52.5923 44.127 51.5853 43.3598 50.2427 42.2729C49.1877 41.4097 48.4045 40.8023 47.893 40.4507C46.8061 39.7154 45.7991 39.2519 44.872 39.0601C43.6572 38.8043 42.5623 39.0681 41.5873 39.8513C40.6123 40.6345 39.933 41.8573 39.5493 43.5196C39.2936 44.6385 39.1977 45.8852 39.2616 47.2599C39.2936 48.4747 39.4215 49.6575 39.6453 50.8083C39.933 52.0551 40.3006 53.3018 40.7481 54.5486C41.0359 55.3158 41.5154 56.4187 42.1867 57.8573C42.7941 59.1999 43.2576 60.2709 43.5773 61.0701C44.6962 63.8513 45.3675 66.9362 45.5913 70.3248C45.7192 72.2109 45.6872 74.5446 45.4954 77.3258L45.4474 77.6615C45.3515 79.3238 45.6073 80.7304 46.2147 81.8813C46.7262 82.9042 47.3975 83.4157 48.2287 83.4157C48.7402 83.4157 49.2357 83.2079 49.7152 82.7923C50.0988 82.4407 50.4984 81.8972 50.914 81.162C52.1288 79.084 53.2476 75.6155 54.2706 70.7564C54.4305 69.9891 54.8061 69.3658 55.3975 68.8862C55.9889 68.4067 56.6682 68.167 57.4355 68.167C58.2027 68.167 58.89 68.4067 59.4974 68.8862C60.1048 69.3658 60.4884 69.9891 60.6482 70.7564C61.6712 75.6155 62.7741 79.084 63.9569 81.162C64.3725 81.8972 64.7881 82.4407 65.2037 82.7923C65.6512 83.2079 66.1148 83.4157 66.5943 83.4157C67.4574 83.4157 68.1448 82.9042 68.6562 81.8813C69.2636 80.7304 69.5034 79.3238 69.3755 77.6615V77.3258C69.1837 74.5446 69.1517 72.2109 69.2796 70.3248C69.5034 66.9362 70.1747 63.8513 71.2936 61.0701C71.6133 60.3028 72.0768 59.2319 72.6842 57.8573C73.3236 56.4187 73.7871 55.3158 74.0748 54.5486C74.5543 53.3018 74.922 52.0551 75.1777 50.8083C75.4335 49.6575 75.5773 48.4747 75.6093 47.2599C75.6413 45.8852 75.5294 44.6385 75.2736 43.5196C74.89 41.8573 74.2187 40.6345 73.2596 39.8513C72.3006 39.0681 71.2137 38.8043 69.9989 39.0601C69.0718 39.2519 68.0648 39.7154 66.9779 40.4507C66.4664 40.8023 65.6832 41.4097 64.6283 42.2729C63.2856 43.3598 62.2786 44.127 61.6073 44.5746C60.0409 45.5656 58.6502 46.0611 57.4355 46.0611Z" fill="white"/>
</g>
<rect x="0.969971" y="0.689941" width="121" height="121" rx="60.5" stroke="#88C040"/>
<defs>
<clipPath id="clip0_14_1528">
<rect width="48" height="48" fill="white" transform="matrix(1 0 0 -1 37.47 85.1899)"/>
</clipPath>
</defs>
</svg>
