<svg width="123" height="123" viewBox="0 0 123 123" fill="none" xmlns="http://www.w3.org/2000/svg">
<rect x="11.95" y="11.3799" width="100" height="100" rx="50" fill="#88C040"/>
<g clip-path="url(#clip0_14_1516)">
<path d="M61.8781 44.5727C60.3436 44.5407 58.921 44.1251 57.6103 43.3259C57.4505 43.23 57.3466 43.0782 57.2986 42.8704C57.2507 42.6626 57.2827 42.4788 57.3945 42.3189C57.5064 42.1591 57.6583 42.0552 57.8501 42.0073C58.0419 41.9593 58.2177 41.9833 58.3776 42.0792C59.4645 42.7505 60.6313 43.0862 61.8781 43.0862C63.1248 43.0862 64.2916 42.7505 65.3786 42.0792C65.5384 41.9833 65.7142 41.9593 65.906 42.0073C66.0978 42.0552 66.2417 42.1671 66.3376 42.3429C66.4335 42.5187 66.4655 42.7026 66.4335 42.8944C66.4015 43.0862 66.3056 43.23 66.1458 43.3259C64.8351 44.1571 63.4125 44.5727 61.8781 44.5727ZM79.8601 52.3889C79.6683 52.3889 79.5004 52.3169 79.3566 52.1731C79.2127 52.0292 79.1408 51.8614 79.1408 51.6696V50.3269C79.1728 48.249 78.7332 46.3309 77.8221 44.5727C76.911 42.8144 75.6803 41.4158 74.1298 40.3769C72.5794 39.3379 70.893 38.8184 69.0709 38.8184C67.3126 38.8504 65.6982 39.3299 64.2277 40.257C63.4924 40.7046 62.7092 40.9283 61.8781 40.9283C61.0469 40.9283 60.2637 40.7046 59.5284 40.257C58.0579 39.3299 56.4435 38.8504 54.6853 38.8184C52.8631 38.8184 51.1768 39.3379 49.6263 40.3769C48.0759 41.4158 46.8451 42.8144 45.934 44.5727C45.0229 46.3309 44.5674 48.249 44.5674 50.3269C44.5674 50.9024 44.5834 51.3499 44.6153 51.6696C44.6153 51.8614 44.5514 52.0292 44.4235 52.1731C44.2956 52.3169 44.1278 52.3969 43.92 52.4128C43.7122 52.4288 43.5364 52.3649 43.3925 52.221C43.2487 52.0772 43.1608 51.9094 43.1288 51.7175V50.3269C43.1288 47.9933 43.6483 45.8354 44.6873 43.8534C45.7262 41.8714 47.1328 40.297 48.907 39.1301C50.6813 37.9633 52.5993 37.3799 54.6613 37.3799C56.7232 37.3799 58.6013 37.9233 60.2956 39.0103C60.7752 39.298 61.3026 39.4418 61.8781 39.4418C62.4535 39.4418 62.981 39.298 63.4605 39.0103C65.1548 37.9233 67.0329 37.3799 69.0948 37.3799C71.1568 37.3799 73.0749 37.9633 74.8491 39.1301C76.6233 40.297 78.0299 41.8714 79.0689 43.8534C80.1078 45.8354 80.6273 47.9933 80.6273 50.3269V51.7175C80.6273 51.9094 80.5554 52.0772 80.4115 52.221C80.2677 52.3649 80.0839 52.4368 79.8601 52.4368V52.3889ZM71.1808 85.3799C70.7332 85.3799 70.3176 85.252 69.934 84.9963C68.5274 83.9413 67.1927 81.9833 65.93 79.1221C64.6673 76.261 63.5884 72.6726 62.6932 68.3569C62.6293 68.1651 62.5254 68.0053 62.3816 67.8774C62.2377 67.7495 62.0619 67.6856 61.8541 67.6856C61.6463 67.6856 61.4705 67.7495 61.3266 67.8774C61.1828 68.0053 61.0789 68.1651 61.0149 68.3569C60.1198 72.6726 59.0489 76.261 57.8021 79.1221C56.5554 81.9833 55.2127 83.9413 53.7742 84.9963C53.4865 85.1881 53.1668 85.308 52.8151 85.3559C52.4635 85.4039 52.1198 85.3639 51.7842 85.236C51.4485 85.1082 51.1528 84.8924 50.897 84.5887C50.6413 84.285 50.4815 83.9573 50.4175 83.6057C49.97 81.1761 49.3786 78.5387 48.6433 75.6936C48.1957 73.9673 47.5564 71.5857 46.7252 68.5487L45.8141 65.3359C45.7502 65.1122 45.7662 64.9203 45.8621 64.7605C45.958 64.6007 46.1018 64.4888 46.2936 64.4248C46.4855 64.3609 46.6693 64.3769 46.8451 64.4728C47.0209 64.5687 47.1408 64.7125 47.2047 64.9044L48.1638 68.309C49.0269 71.4099 49.6663 73.7915 50.0819 75.4538C50.8171 78.267 51.4245 80.8884 51.904 83.3179C51.968 83.6057 52.1118 83.7895 52.3356 83.8694C52.5594 83.9493 52.7672 83.9253 52.959 83.7975C54.2057 82.8704 55.4125 81.0322 56.5794 78.283C57.7462 75.5337 58.7612 72.1131 59.6243 68.0212C59.7842 67.286 60.1997 66.7505 60.8711 66.4148C61.5424 66.0792 62.2137 66.0792 62.8851 66.4148C63.5564 66.7505 63.972 67.286 64.1318 68.0212C64.9949 72.1131 66.0099 75.5337 67.1768 78.283C68.3436 81.0322 69.5504 82.8704 70.7971 83.7975C70.989 83.9253 71.1967 83.9413 71.4205 83.8454C71.6443 83.7495 71.7882 83.5737 71.8521 83.3179C72.3316 80.8884 72.939 78.267 73.6743 75.4538C74.0899 73.7595 74.7292 71.3779 75.5923 68.309L76.5514 64.9523C76.5834 64.7605 76.6793 64.6007 76.8391 64.4728C76.9989 64.3449 77.1748 64.289 77.3666 64.305C77.5584 64.3209 77.7182 64.4089 77.8461 64.5687C77.974 64.7285 78.0219 64.9044 77.9899 65.0962C78.0219 65.1601 78.0219 65.224 77.9899 65.288L77.1268 68.5487C75.3686 74.4308 74.0899 79.4498 73.2906 83.6057C73.2267 83.9573 73.0669 84.285 72.8111 84.5887C72.5554 84.8924 72.2517 85.1082 71.9 85.236C71.6763 85.3319 71.4365 85.3799 71.1808 85.3799ZM47.4924 66.0552C47.3006 66.0552 47.1088 66.0392 46.917 66.0073L43.6083 65.0962C43.1288 64.9363 42.7452 64.6566 42.4575 64.257C42.1698 63.8574 42.0419 63.4019 42.0739 62.8904C42.2976 60.2051 41.7702 57.6956 40.4914 55.3619C40.2037 54.8824 40.1318 54.3709 40.2757 53.8274C40.4195 53.284 40.7312 52.8524 41.2107 52.5327L45.7662 49.6556C46.2777 49.304 46.8371 49.2081 47.4445 49.3679L49.6023 49.9913C50.0499 50.1191 50.4175 50.3589 50.7052 50.7106C50.9929 51.0622 51.1368 51.4618 51.1368 51.9094C51.1688 52.1012 51.2487 52.261 51.3766 52.3889C51.5044 52.5167 51.6643 52.5647 51.8561 52.5327H52.1917C52.6073 52.5327 52.983 52.6366 53.3186 52.8444C53.6543 53.0522 53.918 53.3319 54.1098 53.6836L54.3975 54.2111C54.6533 54.6586 54.7172 55.1381 54.5893 55.6496C54.4615 56.1611 54.1897 56.5767 53.7742 56.8964L52.4315 57.8554C52.2077 58.0152 52.1118 58.223 52.1438 58.4788L52.3356 59.4858C52.3676 59.7096 52.3676 59.9493 52.3356 60.2051L51.7602 63.1301C51.6323 63.7695 51.2966 64.249 50.7532 64.5687L48.5474 65.8154C48.2277 66.0073 47.8761 66.0872 47.4924 66.0552ZM46.8691 50.8065C46.7412 50.8065 46.6133 50.8384 46.4855 50.9024L41.93 53.8274C41.8021 53.9233 41.7142 54.0512 41.6663 54.2111C41.6183 54.3709 41.6423 54.5307 41.7382 54.6906C43.1768 57.28 43.7682 60.0452 43.5124 62.9863C43.5124 63.1461 43.5604 63.29 43.6563 63.4178C43.7522 63.5457 43.8641 63.6256 43.9919 63.6576L47.3486 64.6166C47.5084 64.6486 47.6683 64.6166 47.8281 64.5207L50.0339 63.274C50.1937 63.1781 50.2896 63.0342 50.3216 62.8424L50.897 59.9173C50.897 59.8534 50.897 59.7735 50.897 59.6776L50.7532 58.6706C50.6892 58.287 50.7292 57.9114 50.8731 57.5437C51.0169 57.1761 51.2647 56.8804 51.6163 56.6566L52.959 55.6976C53.0869 55.6017 53.1668 55.4738 53.1987 55.3139C53.2307 55.1541 53.2147 54.9943 53.1508 54.8344L52.8631 54.307C52.7352 54.0512 52.5434 53.9393 52.2877 53.9713H51.904C51.3286 53.9713 50.8331 53.7795 50.4175 53.3959C50.0019 53.0122 49.7782 52.5327 49.7462 51.9573C49.7142 51.8294 49.6583 51.7096 49.5784 51.5977C49.4984 51.4858 49.3945 51.4138 49.2667 51.3819L47.0609 50.7585C46.9969 50.7585 46.933 50.7585 46.8691 50.7585V50.8065ZM76.2637 66.0552C75.8801 66.0552 75.5124 65.9593 75.1608 65.7675L73.0029 64.5207C72.4275 64.2011 72.0918 63.7215 71.9959 63.0822L71.4205 60.1571C71.3886 59.9014 71.3886 59.6616 71.4205 59.4378L71.6123 58.4788C71.6443 58.223 71.5484 58.0152 71.3246 57.8554L69.982 56.8484C69.5664 56.5607 69.2946 56.1611 69.1668 55.6496C69.0389 55.1381 69.1028 54.6426 69.3586 54.1631L69.6463 53.6356C69.8061 53.3159 70.0539 53.0522 70.3895 52.8444C70.7252 52.6366 71.1008 52.5327 71.5164 52.5327H71.9C72.0918 52.5327 72.2517 52.4688 72.3796 52.3409C72.5074 52.2131 72.5874 52.0692 72.6193 51.9094C72.6193 51.4298 72.7632 51.0142 73.0509 50.6626C73.3386 50.311 73.7062 50.0872 74.1538 49.9913L76.3116 49.3679C76.919 49.2081 77.4944 49.288 78.0379 49.6077L82.5933 52.5327C83.0729 52.8204 83.3766 53.236 83.5044 53.7795C83.6323 54.3229 83.5684 54.8504 83.3126 55.3619C82.0019 57.6956 81.4585 60.2051 81.6823 62.8904C81.7142 63.4019 81.5864 63.8654 81.2986 64.281C81.0109 64.6966 80.6273 64.9683 80.1478 65.0962L76.8391 66.0073C76.6473 66.0392 76.4555 66.0552 76.2637 66.0552ZM72.8591 59.9173L73.4345 62.8424C73.4984 63.0342 73.6103 63.1781 73.7702 63.274L75.928 64.5207C76.0879 64.6166 76.2637 64.6486 76.4555 64.6166L79.7642 63.6576C79.924 63.6256 80.0439 63.5457 80.1238 63.4178C80.2037 63.29 80.2437 63.1461 80.2437 62.9863C80.0199 60.0452 80.6273 57.264 82.0659 54.6426C82.1298 54.4828 82.1458 54.3229 82.1138 54.1631C82.0819 54.0033 81.986 53.8754 81.8261 53.7795L77.2707 50.8544C77.1108 50.7585 76.935 50.7425 76.7432 50.8065L74.5854 51.3819C74.2657 51.4778 74.1058 51.6856 74.1058 52.0053C74.0739 52.5807 73.8421 53.0602 73.4105 53.4438C72.979 53.8274 72.4755 54.0192 71.9 54.0192H71.5644C71.2767 53.9873 71.0689 54.0992 70.941 54.3549L70.6533 54.8824C70.5893 55.0103 70.5734 55.1541 70.6053 55.3139C70.6373 55.4738 70.7172 55.6017 70.8451 55.6976L72.2357 56.7046C72.5554 56.9283 72.7872 57.224 72.931 57.5917C73.0749 57.9593 73.1148 58.3349 73.0509 58.7185L72.907 59.7255C72.8751 59.7895 72.8591 59.8534 72.8591 59.9173Z" fill="white"/>
</g>
<rect x="1.44995" y="0.879883" width="121" height="121" rx="60.5" stroke="#88C040"/>
<defs>
<clipPath id="clip0_14_1516">
<rect width="43.5" height="48" fill="white" transform="matrix(1 0 0 -1 40.2 85.3799)"/>
</clipPath>
</defs>
</svg>
