<svg width="51" height="50" viewBox="0 0 51 50" fill="none" xmlns="http://www.w3.org/2000/svg">
<path d="M9.12482 12.4373C6.479 15.9373 4.9165 20.2915 4.9165 24.9998C4.9165 36.4998 14.2498 45.8332 25.7498 45.8332C37.2498 45.8332 46.5832 36.4998 46.5832 24.9998C46.5832 13.4998 37.2498 4.1665 25.7498 4.1665" stroke="#36ADF0" stroke-width="1.5625" stroke-linecap="round" stroke-linejoin="round"/>
<path opacity="0.34" d="M11.1665 25C11.1665 33.0625 17.6873 39.5834 25.7498 39.5834C33.8123 39.5834 40.3331 33.0625 40.3331 25C40.3331 16.9375 33.8123 10.4167 25.7498 10.4167" stroke="#36ADF0" stroke-width="1.5625" stroke-linecap="round" stroke-linejoin="round"/>
<path opacity="0.34" d="M25.75 33.3334C30.3541 33.3334 34.0834 29.6043 34.0834 25C34.0834 20.3959 30.3541 16.6667 25.75 16.6667" stroke="#36ADF0" stroke-width="1.5625" stroke-linecap="round" stroke-linejoin="round"/>
</svg>
