<svg width="51" height="50" viewBox="0 0 51 50" fill="none" xmlns="http://www.w3.org/2000/svg">
<path opacity="0.34" d="M35.5835 12.8542C39.7501 15.75 42.6251 20.3542 43.2085 25.6667" stroke="#36ADF0" stroke-width="1.5625" stroke-linecap="round" stroke-linejoin="round"/>
<path opacity="0.34" d="M7.521 25.7708C8.06266 20.479 10.896 15.8749 15.021 12.9583" stroke="#36ADF0" stroke-width="1.5625" stroke-linecap="round" stroke-linejoin="round"/>
<path opacity="0.34" d="M17.3125 43.625C19.7291 44.8541 22.4791 45.5416 25.375 45.5416C28.1666 45.5416 30.7916 44.9166 33.1459 43.7709" stroke="#36ADF0" stroke-width="1.5625" stroke-linecap="round" stroke-linejoin="round"/>
<path d="M25.3751 16.0419C28.5738 16.0419 31.1668 13.4488 31.1668 10.2501C31.1668 7.05151 28.5738 4.4585 25.3751 4.4585C22.1765 4.4585 19.5835 7.05151 19.5835 10.2501C19.5835 13.4488 22.1765 16.0419 25.3751 16.0419Z" stroke="#36ADF0" stroke-width="1.5625" stroke-linecap="round" stroke-linejoin="round"/>
<path d="M10.3122 41.4999C13.5109 41.4999 16.1038 38.9068 16.1038 35.7081C16.1038 32.5096 13.5109 29.9165 10.3122 29.9165C7.11352 29.9165 4.52051 32.5096 4.52051 35.7081C4.52051 38.9068 7.11352 41.4999 10.3122 41.4999Z" stroke="#36ADF0" stroke-width="1.5625" stroke-linecap="round" stroke-linejoin="round"/>
<path d="M40.1872 41.4999C43.3858 41.4999 45.9789 38.9068 45.9789 35.7081C45.9789 32.5096 43.3858 29.9165 40.1872 29.9165C36.9886 29.9165 34.3955 32.5096 34.3955 35.7081C34.3955 38.9068 36.9886 41.4999 40.1872 41.4999Z" stroke="#36ADF0" stroke-width="1.5625" stroke-linecap="round" stroke-linejoin="round"/>
</svg>
