<svg width="51" height="50" viewBox="0 0 51 50" fill="none" xmlns="http://www.w3.org/2000/svg">
<g clip-path="url(#clip0_1_105)">
<path d="M32.523 16.2002V13.8729C32.523 6.64861 27.5048 3.88498 21.3957 7.71531L14.3169 12.1517C13.5411 12.6123 12.6442 12.8789 11.7472 12.8789H8.28054C3.43206 12.8789 1.00781 15.3032 1.00781 20.1517V29.8486C1.00781 34.6971 3.43206 37.1214 8.28054 37.1214H13.129" stroke="#36ADF0" stroke-width="1.51515" stroke-linecap="round" stroke-linejoin="round"/>
<path opacity="0.4" d="M21.3955 42.2848C27.5046 46.1151 32.5228 43.3272 32.5228 36.1272V27.303" stroke="#36ADF0" stroke-width="1.51515" stroke-linecap="round" stroke-linejoin="round"/>
<path opacity="0.4" d="M41.759 18.7454C43.9408 23.9575 43.2863 30.0423 39.7954 34.6969" stroke="#36ADF0" stroke-width="1.51515" stroke-linecap="round" stroke-linejoin="round"/>
<path opacity="0.4" d="M47.4319 14.8184C50.9956 23.279 49.9289 33.1699 44.2319 40.7578" stroke="#36ADF0" stroke-width="1.51515" stroke-linecap="round" stroke-linejoin="round"/>
<path d="M49.4927 0.757568L1.00781 49.2424" stroke="#36ADF0" stroke-width="1.51515" stroke-linecap="round" stroke-linejoin="round"/>
</g>
<defs>
<clipPath id="clip0_1_105">
<rect width="50" height="50" fill="white" transform="translate(0.25)"/>
</clipPath>
</defs>
</svg>
