<svg width="51" height="50" viewBox="0 0 51 50" fill="none" xmlns="http://www.w3.org/2000/svg">
<path d="M19.4998 45.8332H31.9998C38.2498 45.8332 40.3331 43.7498 40.3331 37.4998V12.4998C40.3331 6.24984 38.2498 4.1665 31.9998 4.1665H19.4998C13.2498 4.1665 11.1665 6.24984 11.1665 12.4998V37.4998C11.1665 43.7498 13.2498 45.8332 19.4998 45.8332Z" stroke="#36ADF0" stroke-width="1.5625" stroke-miterlimit="10" stroke-linecap="round" stroke-linejoin="round"/>
<path opacity="0.4" d="M25.75 37.5C29.2018 37.5 32 34.7018 32 31.25C32 27.7982 29.2018 25 25.75 25C22.2982 25 19.5 27.7982 19.5 31.25C19.5 34.7018 22.2982 37.5 25.75 37.5Z" stroke="#36ADF0" stroke-width="1.5625" stroke-miterlimit="10" stroke-linecap="round" stroke-linejoin="round"/>
<path opacity="0.4" d="M25.75 18.75C27.4759 18.75 28.875 17.3509 28.875 15.625C28.875 13.8991 27.4759 12.5 25.75 12.5C24.0241 12.5 22.625 13.8991 22.625 15.625C22.625 17.3509 24.0241 18.75 25.75 18.75Z" stroke="#36ADF0" stroke-width="1.5625" stroke-miterlimit="10" stroke-linecap="round" stroke-linejoin="round"/>
</svg>
