<svg width="47" height="61" viewBox="0 0 47 61" fill="none" xmlns="http://www.w3.org/2000/svg">
<path d="M34.4065 31.0195C34.3666 31.0195 34.3466 31.0195 34.3466 31.0195H34.4065C32.8481 31.0195 31.5194 31.559 30.4205 32.6379C29.3216 33.7168 28.7721 35.0555 28.7721 36.6539C28.7721 37.6529 29.0319 38.5719 29.5514 39.4111C30.0708 40.2503 30.7602 40.9196 31.6193 41.4191C32.4784 41.9186 33.4075 42.1683 34.4065 42.1683C35.965 42.1683 37.2936 41.6289 38.3925 40.55C39.4914 39.471 40.0409 38.1624 40.0409 36.6239C40.0409 35.0854 39.4814 33.7667 38.3626 32.6678C37.2437 31.5689 35.925 31.0195 34.4065 31.0195ZM34.4065 40.2503C33.3676 40.2503 32.4884 39.8906 31.7691 39.1713C31.0499 38.4521 30.6902 37.5829 30.6902 36.5639C30.6902 35.545 31.0599 34.6658 31.7991 33.9266C32.5384 33.1873 33.4175 32.8377 34.4365 32.8776C35.4555 32.9176 36.3246 33.2872 37.0439 33.9865C37.7632 34.6858 38.1228 35.5749 38.1228 36.6539C38.1228 37.6129 37.7532 38.4521 37.0139 39.1713C36.2746 39.8906 35.4055 40.2503 34.4065 40.2503ZM46.0948 36.7138C46.5743 36.1144 46.7741 35.4351 46.6942 34.6758C46.6143 33.9166 46.2547 33.2972 45.6153 32.8177L44.7761 32.1584C44.5364 31.9985 44.4165 31.7188 44.4165 31.3192L44.4764 30.3602C44.5963 29.6009 44.3765 28.9016 43.8171 28.2623C43.3775 27.7428 42.7182 27.4231 41.8391 27.3032L40.88 27.1833C40.5604 27.1833 40.3006 27.0235 40.1008 26.7038L39.6213 25.8646C39.2617 25.1853 38.7022 24.7358 37.943 24.516C37.1837 24.2962 36.4844 24.3661 35.8451 24.7258H35.7252L34.7662 25.3851C34.4465 25.5849 34.1268 25.5849 33.8071 25.3851L32.968 24.9056C32.2886 24.546 31.5793 24.466 30.8401 24.6658C30.1008 24.8656 29.5314 25.3052 29.1318 25.9845V26.0445L28.7122 26.9436C28.4724 27.2233 28.2127 27.3632 27.933 27.3632H26.9739C26.2147 27.4431 25.5654 27.7727 25.0259 28.3522C24.4864 28.9316 24.2367 29.6009 24.2766 30.3602L24.3965 31.3791C24.3965 31.7787 24.2766 32.0784 24.0369 32.2782L23.2577 32.8177C22.6583 33.2573 22.2886 33.8666 22.1488 34.6459C22.0089 35.4251 22.1588 36.1144 22.5983 36.7138L23.2577 37.6129C23.4974 37.9326 23.5374 38.2123 23.3775 38.4521L22.958 39.2912C22.6782 40.0105 22.6982 40.7198 23.0179 41.4191C23.3376 42.1184 23.8571 42.6079 24.5763 42.8876H24.6962L25.6553 43.1873C25.7751 43.2273 25.895 43.3172 26.0149 43.4571C26.1348 43.5969 26.1947 43.7268 26.1947 43.8467L26.3146 44.4461L24.0369 51.7588C23.917 51.9985 23.927 52.2383 24.0669 52.478C24.2067 52.7178 24.4165 52.8577 24.6962 52.8976C24.896 53.0175 25.0758 53.0175 25.2357 52.8976L28.4125 51.9386L30.3306 54.516C30.4904 54.7957 30.7302 54.9356 31.0499 54.9356H31.2297C31.6293 54.8157 31.889 54.5959 32.0089 54.2762L33.8071 48.4621C34.2067 48.542 34.5863 48.542 34.946 48.4621L36.8641 54.2762C36.944 54.5959 37.2037 54.8157 37.6433 54.9356H37.8231C38.1827 54.9356 38.4425 54.7957 38.6023 54.516L40.5204 51.9386L43.6373 52.8976C43.877 53.0175 44.1168 53.0175 44.3566 52.8976C44.5963 52.7777 44.7662 52.6079 44.8661 52.3881C44.966 52.1683 44.9759 51.9586 44.896 51.7588L42.6183 44.7458L42.7981 43.8467C42.918 43.487 43.0978 43.2672 43.3376 43.1873L44.2966 42.8876C45.0159 42.6479 45.5554 42.1783 45.915 41.479C46.2746 40.7797 46.3146 40.0904 46.0349 39.4111V39.2912L45.6153 38.4521C45.4954 38.0525 45.5354 37.7727 45.7352 37.6129L46.0948 36.7138ZM30.6902 52.0585L29.4315 50.4401C29.1118 50.0804 28.7721 49.9606 28.4125 50.0804L26.3745 50.7398L27.6333 46.7238C28.3925 47.1633 29.1318 47.2832 29.8511 47.0834L30.7502 46.9036C30.91 46.8636 31.0698 46.8736 31.2297 46.9336C31.3895 46.9935 31.5294 47.0834 31.6493 47.2033L32.1288 47.6828L30.6902 52.0585ZM40.2806 50.0804C40.0808 50.0005 39.881 49.9905 39.6812 50.0505C39.4814 50.1104 39.3416 50.2403 39.2617 50.4401L38.0029 52.0585L36.5044 47.563L37.0439 47.0235C37.2437 46.8237 37.5434 46.7238 37.943 46.7238L38.902 46.9036C39.5813 47.1034 40.2607 47.0035 40.94 46.6039L42.3186 50.6199L40.2806 50.0804ZM44.5963 35.515L43.9969 36.2343C43.7172 36.6339 43.5374 37.0734 43.4575 37.553C43.3775 38.0325 43.4375 38.492 43.6373 38.9316L43.9969 39.7707C44.1168 40.0105 44.1268 40.2403 44.0269 40.4601C43.927 40.6798 43.7572 40.8297 43.5174 40.9096L42.6183 41.2093C42.1388 41.3292 41.7392 41.5889 41.4195 41.9885C41.0998 42.3881 40.88 42.8277 40.7602 43.3072L40.5803 44.2662C40.5404 44.506 40.4105 44.7058 40.1907 44.8656C39.9709 45.0255 39.7612 45.0654 39.5614 44.9855L38.6023 44.8057C38.1228 44.7258 37.6433 44.7558 37.1638 44.8956C36.6842 45.0355 36.2647 45.2652 35.905 45.5849L35.2457 46.2443C35.0459 46.4441 34.8261 46.544 34.5863 46.544C34.3466 46.544 34.1268 46.4441 33.927 46.2443L33.2677 45.5849C32.6683 45.0255 31.9889 44.7458 31.2297 44.7458C30.91 44.7458 30.6902 44.7657 30.5703 44.8057L29.6113 44.9855C29.3715 45.0654 29.1518 45.0355 28.952 44.8956C28.7522 44.7558 28.5923 44.5659 28.4724 44.3262L28.2926 43.3671C28.2127 42.9276 28.0029 42.518 27.6633 42.1384C27.3236 41.7588 26.934 41.469 26.4944 41.2692L25.5354 41.0295C25.2956 40.9096 25.1158 40.7398 24.9959 40.52C24.876 40.3002 24.8561 40.0904 24.936 39.8906L25.3556 38.9915C25.7152 38.0724 25.5753 37.1534 24.936 36.2343L24.3965 35.4551C24.2367 35.2952 24.1767 35.0854 24.2167 34.8257C24.2567 34.5659 24.3765 34.3761 24.5763 34.2563L25.3556 33.6569C25.7552 33.3771 26.0549 33.0175 26.2547 32.5779C26.4545 32.1384 26.5344 31.6788 26.4944 31.1993L26.3745 30.2403C26.3346 30.0005 26.4045 29.7807 26.5843 29.5809C26.7642 29.3811 26.9939 29.2812 27.2736 29.2812L28.2926 29.2213C28.7721 29.1414 29.2317 28.9715 29.6712 28.7118C30.1108 28.4521 30.4505 28.1024 30.6902 27.6629L31.1697 26.8237C31.2497 26.5839 31.4095 26.4341 31.6493 26.3741C31.889 26.3142 32.1288 26.3442 32.3685 26.464L33.2677 26.8836C33.6673 27.1234 34.1168 27.2433 34.6163 27.2433C35.1158 27.2433 35.5853 27.1234 36.0249 26.8836L36.8641 26.464C37.1038 26.3042 37.3436 26.2642 37.5833 26.3442C37.8231 26.4241 38.0029 26.5839 38.1228 26.8237L38.6023 27.6629C38.8421 28.1024 39.1618 28.4521 39.5614 28.7118C39.961 28.9715 40.4205 29.1414 40.94 29.2213L41.899 29.2812C42.1388 29.2812 42.3486 29.3811 42.5284 29.5809C42.7082 29.7807 42.7981 30.0005 42.7981 30.2403L42.6782 31.1993C42.6383 31.6788 42.7182 32.1384 42.918 32.5779C43.1178 33.0175 43.4175 33.3771 43.8171 33.6569L44.5963 34.2563C44.6762 34.4161 44.7262 34.6159 44.7462 34.8557C44.7662 35.0954 44.7162 35.2952 44.5963 35.4551V35.515ZM14.0269 17.9526C13.8271 17.7528 13.5973 17.6529 13.3376 17.6529C13.0778 17.6529 12.8681 17.7528 12.7082 17.9526L9.95097 20.7098L8.27265 19.2113C8.11281 19.0115 7.90302 18.9116 7.64328 18.9116C7.38354 18.9116 7.15377 19.0115 6.95397 19.2113C6.75417 19.4111 6.65427 19.6309 6.65427 19.8706C6.65427 20.1104 6.75417 20.3302 6.95397 20.53L9.23169 22.7478C9.43149 22.9076 9.66126 22.9875 9.921 22.9875C10.1807 22.9875 10.4105 22.9076 10.6103 22.7478L14.0269 19.2712C14.2267 19.1114 14.3266 18.9016 14.3266 18.6419C14.3266 18.3821 14.2267 18.1524 14.0269 17.9526ZM29.5514 20.3502C29.5514 20.1104 29.4615 19.8906 29.2816 19.6908C29.1018 19.491 28.872 19.3911 28.5923 19.3911H17.1438C16.8641 19.3911 16.6343 19.481 16.4545 19.6609C16.2746 19.8407 16.1847 20.0605 16.1847 20.3202C16.1847 20.5799 16.2746 20.8097 16.4545 21.0095C16.6343 21.2093 16.8641 21.3092 17.1438 21.3092H28.5923C28.8321 21.3092 29.0519 21.2093 29.2517 21.0095C29.4515 20.8097 29.5514 20.5899 29.5514 20.3502ZM22.4185 29.7008C22.4185 29.4211 22.3286 29.1913 22.1488 29.0115C21.969 28.8317 21.7392 28.7418 21.4595 28.7418H17.1438C16.8641 28.7418 16.6343 28.8217 16.4545 28.9815C16.2746 29.1414 16.1847 29.3612 16.1847 29.6409C16.1847 29.9206 16.2746 30.1504 16.4545 30.3302C16.6343 30.51 16.8641 30.5999 17.1438 30.5999H21.4595C21.6992 30.5999 21.919 30.51 22.1188 30.3302C22.3186 30.1504 22.4185 29.9406 22.4185 29.7008ZM17.1438 38.1524C16.8641 38.1524 16.6343 38.2423 16.4545 38.4221C16.2746 38.6019 16.1847 38.8217 16.1847 39.0814C16.1847 39.3412 16.2746 39.5709 16.4545 39.7707C16.6343 39.9705 16.8641 40.0704 17.1438 40.0704H20.0209C20.3006 40.0704 20.5304 39.9805 20.7102 39.8007C20.89 39.6209 20.9799 39.4011 20.9799 39.1414C20.9799 38.8816 20.89 38.6519 20.7102 38.4521C20.5304 38.2523 20.3006 38.1524 20.0209 38.1524H17.1438ZM14.0269 27.3632C13.8271 27.2033 13.5973 27.1234 13.3376 27.1234C13.0778 27.1234 12.8681 27.2033 12.7082 27.3632L9.95097 30.1803L8.27265 28.6219C8.11281 28.4221 7.90302 28.3222 7.64328 28.3222C7.38354 28.3222 7.15377 28.4221 6.95397 28.6219C6.75417 28.8217 6.65427 29.0515 6.65427 29.3112C6.65427 29.5709 6.75417 29.7807 6.95397 29.9406L9.23169 32.0385C9.43149 32.2383 9.66126 32.3382 9.921 32.3382C10.1807 32.3382 10.4105 32.2383 10.6103 32.0385L14.0269 28.6219C14.2267 28.4221 14.3266 28.2023 14.3266 27.9626C14.3266 27.7228 14.2267 27.523 14.0269 27.3632ZM12.7082 36.7138L9.95097 39.471L8.27265 37.9725C8.11281 37.7727 7.90302 37.6728 7.64328 37.6728C7.38354 37.6728 7.15377 37.7727 6.95397 37.9725C6.75417 38.1723 6.65427 38.3921 6.65427 38.6319C6.65427 38.8716 6.75417 39.0914 6.95397 39.2912L9.23169 41.509C9.43149 41.6688 9.66126 41.7488 9.921 41.7488C10.1807 41.7488 10.4105 41.6688 10.6103 41.509L14.0269 38.0325C14.1468 37.8726 14.1867 37.6529 14.1468 37.3731C14.1068 37.0934 13.9969 36.8836 13.8171 36.7438C13.6373 36.6039 13.4475 36.534 13.2477 36.534C13.0479 36.534 12.8681 36.5939 12.7082 36.7138ZM34.2866 55.1154C34.0069 55.1154 33.7771 55.2053 33.5973 55.3851C33.4175 55.5649 33.3276 55.7947 33.3276 56.0744C33.3276 56.8337 33.0479 57.473 32.4884 57.9925C31.929 58.512 31.2696 58.7518 30.5104 58.7118H5.75517C4.95596 58.7118 4.27664 58.4621 3.7172 57.9626C3.15776 57.463 2.87804 56.8337 2.87804 56.0744V5.18533C2.87804 4.42609 3.16775 3.78673 3.74717 3.26725C4.32659 2.74777 4.99592 2.50801 5.75517 2.54797H10.4904V3.56695C10.4904 4.32619 10.7202 4.96555 11.1797 5.48503C11.6393 6.00451 12.2087 6.26425 12.888 6.26425H23.3775C24.0169 6.26425 24.5664 5.99452 25.0259 5.45506C25.4854 4.9156 25.7152 4.28623 25.7152 3.56695V2.54797H30.5104C31.2696 2.54797 31.929 2.79772 32.4884 3.29722C33.0479 3.79672 33.3276 4.42609 33.3276 5.18533V22.6279C33.3276 22.8676 33.4175 23.0874 33.5973 23.2872C33.7771 23.487 34.0069 23.5869 34.2866 23.5869C34.5664 23.5869 34.7961 23.497 34.9759 23.3172C35.1558 23.1374 35.2457 22.9076 35.2457 22.6279V5.18533C35.2457 3.90661 34.7761 2.82769 33.8371 1.94857C32.898 1.06944 31.7891 0.629884 30.5104 0.629884H5.75517C4.43648 0.629884 3.30761 1.06944 2.36855 1.94857C1.42949 2.82769 0.959961 3.90661 0.959961 5.18533V56.0744C0.959961 57.3532 1.42949 58.4321 2.36855 59.3112C3.30761 60.1903 4.43648 60.6299 5.75517 60.6299H30.5104C31.7891 60.6299 32.898 60.1903 33.8371 59.3112C34.7761 58.4321 35.2457 57.3532 35.2457 56.0744C35.2457 55.8347 35.1458 55.6149 34.946 55.4151C34.7462 55.2153 34.5264 55.1154 34.2866 55.1154ZM12.4085 2.54797H23.8571V3.56695C23.8171 3.80671 23.7472 3.99652 23.6473 4.13638C23.5474 4.27624 23.4575 4.34617 23.3775 4.34617H12.888C12.7682 4.34617 12.6583 4.27624 12.5584 4.13638C12.4585 3.99652 12.4085 3.80671 12.4085 3.56695V2.54797Z" fill="white"/>
</svg>
