<svg width="61" height="61" viewBox="0 0 61 61" fill="none" xmlns="http://www.w3.org/2000/svg">
<g clip-path="url(#clip0_13_854)">
<path d="M58.0926 44.3862C58.8918 44.3862 59.5711 44.0965 60.1306 43.5171C60.69 42.9377 60.9697 42.2284 60.9697 41.3892V32.5181C60.9697 31.8388 60.8399 31.1095 60.5801 30.3303C60.3204 29.5511 60.0107 28.9017 59.651 28.3823L54.1965 20.7099C53.7969 20.1505 53.2375 19.681 52.5182 19.3013C51.7989 18.9217 51.0796 18.7319 50.3603 18.7319H41.669V15.9147C41.669 14.5561 41.1795 13.3872 40.2005 12.4082C39.2215 11.4292 38.0726 10.9397 36.7539 10.9397H5.82487C4.46623 10.9397 3.31738 11.4292 2.37832 12.4082C1.43926 13.3872 0.969727 14.5561 0.969727 15.9147V39.5311C0.969727 40.8897 1.43926 42.0386 2.37832 42.9777C3.31738 43.9167 4.46623 44.3862 5.82487 44.3862H6.90379C7.06363 45.9047 7.70299 47.2234 8.82187 48.3423H1.92877C1.64905 48.3423 1.41928 48.4422 1.23946 48.642C1.05964 48.8418 0.969727 49.0816 0.969727 49.3613C0.969727 49.641 1.05964 49.8708 1.23946 50.0506C1.41928 50.2304 1.64905 50.3203 1.92877 50.3203H18.2924C18.5721 50.3203 18.8019 50.2204 18.9817 50.0206C19.1615 49.8208 19.2514 49.591 19.2514 49.3313C19.2514 49.0716 19.1515 48.8418 18.9517 48.642C18.7519 48.4422 18.5322 48.3423 18.2924 48.3423H18.2325C19.3513 47.2234 20.0107 45.9047 20.2105 44.3862H43.647C43.8069 45.9047 44.4462 47.2234 45.5651 48.3423H43.5272C43.2474 48.3423 43.0177 48.4422 42.8379 48.642C42.658 48.8418 42.5681 49.0816 42.5681 49.3613C42.5681 49.641 42.668 49.8708 42.8678 50.0506C43.0676 50.2304 43.2874 50.3203 43.5272 50.3203H60.0107C60.2904 50.3203 60.5202 50.2204 60.7 50.0206C60.8798 49.8208 60.9697 49.591 60.9697 49.3313C60.9697 49.0716 60.8698 48.8418 60.67 48.642C60.4702 48.4422 60.2504 48.3423 60.0107 48.3423H55.0357C56.1945 47.2234 56.8538 45.9047 57.0137 44.3862H58.0926ZM13.5571 48.3423C12.2385 48.3423 11.0896 47.8628 10.1106 46.9037C9.13156 45.9447 8.64205 44.7958 8.64205 43.4572C8.64205 42.1185 9.12157 40.9597 10.0806 39.9807C11.0397 39.0016 12.1885 38.5121 13.5272 38.5121C14.8658 38.5121 16.0147 39.0016 16.9737 39.9807C17.9328 40.9597 18.4123 42.1185 18.4123 43.4572C18.4123 44.7958 17.9328 45.9447 16.9737 46.9037C16.0147 47.8628 14.8758 48.3423 13.5571 48.3423ZM39.691 42.4682H20.2704C20.0307 40.7499 19.2814 39.3313 18.0227 38.2124C16.7639 37.0935 15.2954 36.5341 13.6171 36.5341C11.9388 36.5341 10.4702 37.0935 9.21148 38.2124C7.95274 39.3313 7.20349 40.7499 6.96373 42.4682H5.82487C5.02567 42.4682 4.34635 42.1785 3.78691 41.599C3.22747 41.0196 2.94775 40.3103 2.94775 39.4712V15.9147C2.94775 15.1155 3.22747 14.4262 3.78691 13.8468C4.34635 13.2674 5.02567 12.9777 5.82487 12.9777H36.7539C37.5531 12.9777 38.2425 13.2674 38.8219 13.8468C39.4013 14.4262 39.691 15.1155 39.691 15.9147V42.4682ZM50.3004 48.3423C48.9817 48.3423 47.8329 47.8628 46.8538 46.9037C45.8748 45.9447 45.3853 44.7958 45.3853 43.4572C45.3853 42.1185 45.8648 40.9597 46.8239 39.9807C47.7829 39.0016 48.9318 38.5121 50.2704 38.5121C51.6091 38.5121 52.7579 39.0016 53.717 39.9807C54.676 40.9597 55.1555 42.1185 55.1555 43.4572C55.1555 44.7958 54.676 45.9447 53.717 46.9037C52.7579 47.8628 51.6191 48.3423 50.3004 48.3423ZM50.3004 36.5341C48.6221 36.5341 47.1535 37.0935 45.8948 38.2124C44.6361 39.3313 43.8868 40.7499 43.647 42.4682H41.669V20.7699H50.3603C50.7599 20.7699 51.1895 20.8997 51.649 21.1595C52.1086 21.4192 52.4383 21.7089 52.6381 22.0286L58.0926 29.5811C58.3324 29.9807 58.5422 30.4702 58.722 31.0496C58.9018 31.629 58.9917 32.1385 58.9917 32.5781V41.5091C58.9917 41.7888 58.9018 42.0286 58.722 42.2284C58.5422 42.4282 58.3324 42.5281 58.0926 42.5281H57.0137C56.7739 40.8098 56.0247 39.3813 54.7659 38.2424C53.5072 37.1035 52.0187 36.5341 50.3004 36.5341ZM31.8988 24.7259H8.76193C8.48221 24.7259 8.25244 24.8158 8.07262 24.9956C7.8928 25.1755 7.80289 25.4052 7.80289 25.6849C7.80289 25.9647 7.90279 26.2044 8.10259 26.4042C8.30239 26.604 8.52217 26.7039 8.76193 26.7039H31.8988C32.1785 26.7039 32.4083 26.604 32.5881 26.4042C32.7679 26.2044 32.8678 25.9747 32.8878 25.7149C32.9078 25.4552 32.8179 25.2254 32.6181 25.0256C32.4183 24.8258 32.1785 24.7259 31.8988 24.7259ZM31.8988 16.8738H8.76193C8.48221 16.8738 8.25244 16.9737 8.07262 17.1735C7.8928 17.3733 7.80289 17.613 7.80289 17.8927C7.80289 18.1725 7.90279 18.3922 8.10259 18.5521C8.30239 18.7119 8.52217 18.7918 8.76193 18.7918H31.8988C32.1785 18.7918 32.4083 18.7019 32.5881 18.5221C32.7679 18.3423 32.8678 18.1225 32.8878 17.8628C32.9078 17.603 32.8179 17.3733 32.6181 17.1735C32.4183 16.9737 32.1785 16.8738 31.8988 16.8738ZM31.8988 32.5781H8.76193C8.48221 32.5781 8.25244 32.678 8.07262 32.8778C7.8928 33.0776 7.80289 33.3173 7.80289 33.597C7.80289 33.8768 7.90279 34.1265 8.10259 34.3463C8.30239 34.5661 8.52217 34.676 8.76193 34.676H31.8988C32.1785 34.676 32.4083 34.5761 32.5881 34.3763C32.7679 34.1765 32.8678 33.9367 32.8878 33.657C32.9078 33.3773 32.8179 33.1275 32.6181 32.9077C32.4183 32.6879 32.1785 32.5781 31.8988 32.5781ZM39.2115 48.3423H22.728C22.4482 48.3423 22.2185 48.4422 22.0387 48.642C21.8588 48.8418 21.7689 49.0816 21.7689 49.3613C21.7689 49.641 21.8688 49.8708 22.0686 50.0506C22.2684 50.2304 22.4882 50.3203 22.728 50.3203H39.1515C39.3913 50.3203 39.6011 50.2204 39.7809 50.0206C39.9607 49.8208 40.0606 49.601 40.0806 49.3613C40.1006 49.1215 40.0207 48.8917 39.8409 48.672C39.661 48.4522 39.4512 48.3423 39.2115 48.3423ZM51.1396 24.1864C50.9398 23.8668 50.66 23.7069 50.3004 23.7069H44.4862C44.2065 23.7069 43.9767 23.8068 43.7969 24.0066C43.6171 24.2064 43.5272 24.4462 43.5272 24.7259V30.66C43.5272 30.8997 43.6271 31.1295 43.8269 31.3493C44.0267 31.5691 44.2464 31.679 44.4862 31.679H54.1366C54.4962 31.679 54.7759 31.4792 54.9757 31.0796C55.0556 30.9597 55.0956 30.7998 55.0956 30.6C55.0956 30.4002 55.0157 30.2204 54.8558 30.0606L51.1396 24.1864ZM45.5052 29.7009V25.7449H49.8209L52.4582 29.7009H45.5052Z" fill="white"/>
</g>
<defs>
<clipPath id="clip0_13_854">
<rect width="60.02" height="60" fill="white" transform="matrix(1 0 0 -1 0.959961 60.6299)"/>
</clipPath>
</defs>
</svg>
