<svg width="61" height="61" viewBox="0 0 61 61" fill="none" xmlns="http://www.w3.org/2000/svg">
<g clip-path="url(#clip0_13_849)">
<path d="M40.9103 21.1895L34.6166 20.2305L31.8594 14.4762C31.6995 14.2764 31.4997 14.1266 31.26 14.0267C31.0202 13.9268 30.7804 13.9268 30.5407 14.0267C30.3009 14.1266 30.1411 14.2764 30.0612 14.4762L27.244 20.2305L20.9503 21.1895C20.6706 21.2295 20.4608 21.3494 20.3209 21.5492C20.181 21.749 20.1311 21.9787 20.1711 22.2385C20.211 22.4982 20.3109 22.668 20.4708 22.748L24.9663 27.1835L23.9473 33.4173C23.9073 33.6171 23.9273 33.8069 24.0072 33.9867C24.0871 34.1666 24.187 34.2964 24.3069 34.3763C24.6666 34.6161 25.0262 34.6561 25.3858 34.4962L31.0202 31.4992L36.5946 34.3763C36.6745 34.4563 36.8344 34.4962 37.0741 34.4962C37.3139 34.4962 37.5037 34.4563 37.6436 34.3763C37.7834 34.2964 37.8933 34.1666 37.9733 33.9867C38.0532 33.8069 38.0732 33.6171 38.0332 33.4173L36.8943 27.3634L41.3898 22.8678C41.5896 22.668 41.6895 22.4283 41.6895 22.1486C41.6895 21.8688 41.5896 21.6291 41.3898 21.4293C41.3099 21.2694 41.1501 21.1895 40.9103 21.1895ZM35.216 26.2245C35.0961 26.3444 35.0062 26.4842 34.9463 26.6441C34.8863 26.8039 34.8763 26.9438 34.9163 27.0637L35.7555 31.8589L31.4398 29.5811C31.1601 29.3813 30.8604 29.3813 30.5407 29.5811L26.225 31.8589L27.0642 27.0637C27.1041 26.9438 27.0941 26.8039 27.0342 26.6441C26.9742 26.4842 26.8843 26.3444 26.7645 26.2245L23.228 22.8678L27.9633 22.2085C28.243 22.2085 28.5027 22.0087 28.7425 21.6091L30.9003 17.2335L33.0582 21.6091C33.258 21.9288 33.4977 22.1286 33.7774 22.2085L38.5727 22.8678L35.216 26.2245ZM31.0202 7.58313C27.8234 7.58313 24.8464 8.38234 22.0891 9.98074C19.4118 11.5791 17.274 13.697 15.6755 16.3344C14.0771 19.0916 13.2779 22.0686 13.2779 25.2655C13.2779 28.4623 14.0771 31.4393 15.6755 34.1965C17.274 36.8738 19.4118 38.9917 22.0891 40.5502C24.8464 42.1885 27.8134 43.0077 30.9902 43.0077C34.1671 43.0077 37.1341 42.1885 39.8913 40.5502C42.5687 38.9917 44.7065 36.8738 46.3049 34.1965C47.9033 31.4393 48.7025 28.4623 48.7025 25.2655C48.7025 22.0686 47.9033 19.0916 46.3049 16.3344C44.7065 13.697 42.5687 11.5791 39.8913 9.98074C37.1341 8.38234 34.177 7.58313 31.0202 7.58313ZM31.0202 41.0297C28.1431 41.0297 25.4957 40.3304 23.0781 38.9318C20.6606 37.5332 18.7525 35.6251 17.3539 33.2075C15.9553 30.7899 15.256 28.1526 15.256 25.2954C15.256 22.4383 15.9553 19.8009 17.3539 17.3833C18.7525 14.9658 20.6606 13.0577 23.0781 11.6591C25.4957 10.2605 28.1331 9.56116 30.9902 9.56116C33.8474 9.56116 36.4847 10.2605 38.9023 11.6591C41.3199 13.0577 43.228 14.9658 44.6266 17.3833C46.0252 19.8009 46.7245 22.4383 46.7245 25.2954C46.7245 28.1526 46.0252 30.7899 44.6266 33.2075C43.228 35.6251 41.3199 37.5332 38.9023 38.9318C36.4847 40.3304 33.8374 41.0297 30.9603 41.0297H31.0202ZM60.6905 45.4653L51.5197 36.2345L51.1601 31.739L54.0372 28.3823C54.8364 27.4633 55.236 26.3943 55.236 25.1755C55.236 23.9568 54.8364 22.9078 54.0372 22.0287L51.1601 18.732L51.5197 14.2964C51.5996 13.0976 51.2899 12.0187 50.5906 11.0597C49.8913 10.1006 48.9423 9.50122 47.7435 9.26146L43.4877 8.30241L41.21 4.46625C40.6106 3.42729 39.7215 2.72799 38.5427 2.36835C37.3639 2.00871 36.215 2.04867 35.0961 2.48823L31.0801 4.28643L27.0642 2.60811C25.9453 2.12859 24.8164 2.07864 23.6775 2.45826C22.5387 2.83788 21.6296 3.54717 20.9503 4.58613L18.7325 8.30241L14.4168 9.3214C13.218 9.60112 12.269 10.2405 11.5697 11.2395C10.8704 12.2385 10.5607 13.3174 10.6406 14.4762L11.0002 18.9118L8.1231 22.2684C7.3239 23.2275 6.9243 24.3064 6.9243 25.5052C6.9243 26.704 7.3239 27.763 8.1231 28.682L11.0002 31.9188L10.6406 36.0547L1.28993 45.4653C1.09013 45.6251 0.990234 45.8449 0.990234 46.1246C0.990234 46.4043 1.08014 46.6441 1.25996 46.8439C1.43978 47.0437 1.66956 47.1436 1.94928 47.1436L13.1581 47.0237V58.2924C13.1581 58.732 13.3579 59.0517 13.7575 59.2515H14.1171C14.3569 59.2515 14.5766 59.1516 14.7764 58.9518L21.9093 51.8189C22.0692 51.6191 22.1491 51.3793 22.1491 51.0996C22.1491 50.8199 22.0592 50.5901 21.8793 50.4103C21.6995 50.2305 21.4698 50.1406 21.19 50.1406C20.9103 50.1406 20.6706 50.2405 20.4708 50.4403L15.1361 55.7749L15.256 45.8249C15.256 45.4653 15.1561 45.2455 14.9563 45.1656C14.7565 44.9658 14.5367 44.8659 14.2969 44.8659L4.34688 45.0457L10.9403 38.3923C11.22 39.1516 11.6696 39.8009 12.2889 40.3404C12.9083 40.8798 13.6176 41.2295 14.4168 41.3893L18.7325 42.3484L20.9503 46.1845C21.4298 46.9038 22.0292 47.4633 22.7485 47.8629C23.4678 48.2625 24.247 48.4623 25.0861 48.4623C25.8054 48.4623 26.4648 48.3224 27.0642 48.0427L31.0801 46.3644L35.0961 48.0427C36.215 48.5222 37.3439 48.5721 38.4827 48.1925C39.6216 47.8129 40.5307 47.1236 41.21 46.1246L43.4877 42.2285L47.7435 41.2095C48.5027 41.0497 49.1721 40.72 49.7515 40.2205C50.3309 39.721 50.7605 39.1516 51.0402 38.5122L57.6336 45.0457L47.6835 44.8659C47.3239 44.8659 47.1041 44.9658 47.0242 45.1656C46.8244 45.3654 46.7245 45.5851 46.7245 45.8249L46.8444 55.7749L41.5097 50.4403C41.3099 50.2405 41.0702 50.1406 40.7904 50.1406C40.5107 50.1406 40.2809 50.2305 40.1011 50.4103C39.9213 50.5901 39.8314 50.8199 39.8314 51.0996C39.8314 51.3793 39.9113 51.6191 40.0712 51.8189L47.204 58.9518C47.4038 59.1516 47.6136 59.2515 47.8334 59.2515C48.0532 59.2515 48.183 59.2115 48.223 59.1316C48.6226 58.9318 48.8224 58.6121 48.8224 58.1725L48.7025 46.8439L59.9713 46.9638C60.1311 46.9638 60.3009 46.9038 60.4807 46.7839C60.6606 46.6641 60.8004 46.5342 60.9003 46.3943C61.0002 46.2545 61.0302 46.0946 60.9902 45.9148C60.9503 45.735 60.8504 45.5851 60.6905 45.4653ZM47.3239 39.4712L42.5886 40.5502C42.3089 40.67 42.0891 40.8299 41.9293 41.0297L39.5317 45.1656C39.1321 45.765 38.5926 46.1845 37.9133 46.4243C37.234 46.6641 36.5547 46.6441 35.8753 46.3644L31.4398 44.5062C31.2 44.4263 30.9603 44.4263 30.7205 44.5062L26.2849 46.3644C25.6456 46.6441 24.9762 46.684 24.2769 46.4842C23.5776 46.2844 23.0282 45.8649 22.6286 45.2255L20.1111 41.1496C20.0312 40.9498 19.8114 40.7899 19.4518 40.67L14.7764 39.5312C14.0572 39.4113 13.4877 39.0517 13.0682 38.4523C12.6486 37.8529 12.4588 37.1735 12.4987 36.4143L12.9183 31.679C12.9183 31.3993 12.8584 31.1396 12.7385 30.8998L9.50172 27.3634C9.06216 26.8039 8.84238 26.1646 8.84238 25.4453C8.84238 24.726 9.06216 24.0866 9.50172 23.5272L12.6186 19.8708C12.8184 19.6311 12.8783 19.3713 12.7984 19.0916L12.3189 14.2964C12.2789 13.5771 12.4688 12.9178 12.8883 12.3184C13.3079 11.719 13.8773 11.3594 14.5966 11.2395L19.272 10.1006C19.5517 10.0207 19.7715 9.86086 19.9313 9.6211L22.3888 5.48523C22.7485 4.88583 23.2779 4.46625 23.9772 4.22649C24.6765 3.98673 25.3659 4.00671 26.0452 4.28643L30.4208 6.14457C30.6606 6.22449 30.9203 6.22449 31.2 6.14457L35.5756 4.28643C36.255 4.00671 36.9443 3.97674 37.6436 4.19652C38.3429 4.4163 38.8724 4.82589 39.232 5.42529L41.8694 9.56116C41.9493 9.76096 42.1691 9.90082 42.5287 9.98074L47.204 11.0597C47.9233 11.1795 48.4927 11.5292 48.9123 12.1086C49.3319 12.688 49.5217 13.3574 49.4817 14.1166L49.0622 18.9118C49.0622 19.1516 49.1221 19.4113 49.242 19.691L52.4787 23.3474C52.9183 23.9068 53.1381 24.5462 53.1381 25.2655C53.1381 25.9847 52.9183 26.6241 52.4787 27.1835L49.3619 30.8399C49.1621 31.0397 49.1021 31.2794 49.182 31.5592L49.6616 36.3544C49.6616 37.0736 49.4418 37.723 49.0022 38.3024C48.5627 38.8818 48.0032 39.2714 47.3239 39.4712Z" fill="white"/>
</g>
<defs>
<clipPath id="clip0_13_849">
<rect width="60.02" height="60" fill="white" transform="matrix(1 0 0 -1 0.980469 60.6299)"/>
</clipPath>
</defs>
</svg>
