<svg width="54" height="66" viewBox="0 0 54 66" fill="none" xmlns="http://www.w3.org/2000/svg">
<g clip-path="url(#clip0_13_812)">
<path d="M50.834 40.5503H46.1586V17.5633C46.1586 14.533 45.4119 11.7408 43.9184 9.18668C42.4249 6.63257 40.3902 4.59794 37.8145 3.08279C35.2387 1.56763 32.4357 0.810058 29.4054 0.810058H29.0158C26.0721 0.810058 23.3664 1.51352 20.8989 2.92045C18.4314 4.32737 16.4292 6.24296 14.8924 8.6672C13.3556 11.0914 12.5006 13.7538 12.3275 16.6542H4.73006C3.60452 16.6542 2.6305 17.0546 1.80799 17.8555C0.985474 18.6564 0.574219 19.6412 0.574219 20.8101V61.7191C0.574219 62.8447 0.974652 63.8079 1.77552 64.6088C2.57638 65.4096 3.56123 65.8101 4.73006 65.8101H22.0028C23.1283 65.8101 24.1024 65.4096 24.9249 64.6088C25.7474 63.8079 26.1586 62.823 26.1586 61.6542V20.7451C26.1586 19.5763 25.7582 18.5806 24.9573 17.7581C24.1565 16.9356 23.1716 16.5243 22.0028 16.5243H14.4054C14.5785 14.0135 15.3361 11.7083 16.6781 9.60876C18.0201 7.50919 19.7842 5.84253 21.9703 4.60876C24.1565 3.37499 26.5482 2.75811 29.1456 2.75811H29.5353C32.176 2.75811 34.6327 3.41828 36.9054 4.73863C39.1781 6.05898 40.9855 7.85551 42.3275 10.1282C43.6695 12.401 44.3405 14.8793 44.3405 17.5633V40.5503H39.6651C38.9725 40.5503 38.3772 40.7884 37.8794 41.2646C37.3816 41.7408 37.1327 42.3469 37.1327 43.0828V54.1217C37.1327 54.3815 37.2301 54.6196 37.4249 54.836C37.6197 55.0525 37.8686 55.1607 38.1716 55.1607H39.3405V63.0828C39.3405 63.3425 39.4379 63.5698 39.6327 63.7646C39.8275 63.9594 40.0764 64.0568 40.3794 64.0568H50.3145C50.6175 64.0568 50.8664 63.9702 51.0612 63.7971C51.256 63.6239 51.3534 63.3858 51.3534 63.0828V55.1607H52.3924C52.6521 55.1607 52.8794 55.0633 53.0742 54.8685C53.269 54.6737 53.3664 54.4248 53.3664 54.1217V43.0828C53.3664 42.3469 53.1283 41.7408 52.6521 41.2646C52.176 40.7884 51.5699 40.5503 50.834 40.5503ZM21.8729 18.6023C22.479 18.6023 22.9876 18.8079 23.3989 19.2191C23.8101 19.6304 24.0158 20.1391 24.0158 20.7451V61.6542C24.0158 62.2603 23.8101 62.7689 23.3989 63.1802C22.9876 63.5914 22.479 63.7971 21.8729 63.7971H4.66513C4.05907 63.7971 3.55041 63.5806 3.13915 63.1477C2.7279 62.7148 2.52227 62.217 2.52227 61.6542V20.7451C2.52227 20.0958 2.71708 19.5763 3.10669 19.1867C3.4963 18.7971 4.01578 18.6023 4.66513 18.6023H21.8729ZM49.2106 62.0438H41.2236V55.1607H49.2106V62.0438ZM51.4833 53.0828C50.4011 53.0828 49.3405 53.0828 48.3015 53.0828H39.0807V43.0828C39.0807 42.9096 39.1456 42.7581 39.2755 42.6282C39.4054 42.4984 39.5353 42.4334 39.6651 42.4334H50.9638C51.0937 42.4334 51.2236 42.4984 51.3534 42.6282C51.4833 42.7581 51.5482 42.9096 51.5482 43.0828V53.0828H51.4833ZM44.4703 58.0179H42.8469V59.3166H44.4703V58.0179ZM47.5872 58.0179H45.9638V59.3166H47.5872V58.0179ZM19.0807 31.0698H7.45734V33.0179H19.0807V31.0698ZM19.0807 41.6542H7.45734V43.5373H19.0807V41.6542ZM19.0807 52.1737H7.45734V54.1217H19.0807V52.1737Z" fill="#7C9CCD"/>
</g>
<defs>
<clipPath id="clip0_13_812">
<rect width="52.8" height="65" fill="white" transform="matrix(1 0 0 -1 0.570312 65.8101)"/>
</clipPath>
</defs>
</svg>
