<svg width="66" height="66" viewBox="0 0 66 66" fill="none" xmlns="http://www.w3.org/2000/svg">
<g clip-path="url(#clip0_13_807)">
<path d="M65.1558 22.7581C60.9134 18.4291 56.0216 15.1283 50.4805 12.8555C44.9393 10.5828 39.1168 9.44643 33.0129 9.44643C26.909 9.44643 21.0865 10.5828 15.5454 12.8555C10.0043 15.1283 5.09086 18.4291 0.805144 22.7581C0.588694 22.9746 0.480469 23.2343 0.480469 23.5373C0.480469 23.8404 0.588694 24.0785 0.805144 24.2516L7.49346 31.0049C7.70991 31.178 7.96965 31.2646 8.27268 31.2646C8.57571 31.2646 8.8138 31.178 8.98696 31.0049C12.2337 27.7581 15.9783 25.2689 20.2207 23.5373C24.3333 21.8923 28.6082 21.0698 33.0454 21.0698C37.4826 21.0698 41.7359 21.8923 45.8051 23.5373C50.0476 25.2689 53.7922 27.7581 57.0389 31.0049C57.2554 31.178 57.4935 31.2646 57.7532 31.2646C58.0129 31.2646 58.251 31.178 58.4675 31.0049L65.1558 24.2516C65.3722 24.0785 65.4805 23.8404 65.4805 23.5373C65.4805 23.2343 65.3722 22.9746 65.1558 22.7581ZM57.7532 28.6672C53.2077 24.3815 47.9047 21.4811 41.8441 19.9659C35.9567 18.4941 30.0476 18.4941 24.1168 19.9659C18.0562 21.4811 12.7532 24.3815 8.20774 28.6672L3.01294 23.4724C7.0822 19.6196 11.6818 16.6759 16.8116 14.6412C21.9415 12.6066 27.3203 11.5893 32.948 11.5893C38.5757 11.5893 43.9653 12.6174 49.1168 14.6737C54.2683 16.73 58.8787 19.6845 62.948 23.5373L57.7532 28.6672ZM33.0129 26.3295C29.0735 26.3295 25.329 27.0655 21.7792 28.5373C18.2294 30.0092 15.0909 32.1088 12.3636 34.836C12.1471 35.0525 12.0389 35.2906 12.0389 35.5503C12.0389 35.8101 12.1471 36.0482 12.3636 36.2646L19.0519 42.9529C19.2683 43.1694 19.5281 43.2776 19.8311 43.2776C20.1341 43.2776 20.3939 43.1694 20.6103 42.9529C22.2554 41.2646 24.1493 39.9767 26.2922 39.0893C28.435 38.2018 30.6753 37.7581 33.0129 37.7581C35.3506 37.7581 37.5909 38.2127 39.7337 39.1218C41.8766 40.0308 43.7489 41.3079 45.3506 42.9529C45.567 43.1694 45.816 43.2776 46.0974 43.2776C46.3787 43.2776 46.606 43.1694 46.7792 42.9529L53.4675 36.2646C53.6839 36.0482 53.7922 35.7884 53.7922 35.4854C53.7922 35.1824 53.6839 34.9226 53.4675 34.7062C50.8268 31.9789 47.7316 29.901 44.1818 28.4724C40.632 27.0438 36.909 26.3295 33.0129 26.3295ZM46.0649 40.7451C44.2467 39.1001 42.2229 37.8555 39.9935 37.0114C37.764 36.1672 35.4264 35.7451 32.9805 35.7451C30.5346 35.7451 28.1861 36.1672 25.935 37.0114C23.6839 37.8555 21.6709 39.1001 19.8961 40.7451L14.7012 35.5503C17.1688 33.2127 19.9826 31.427 23.1428 30.1932C26.303 28.9594 29.6147 28.3425 33.0779 28.3425C36.5411 28.3425 39.8311 28.9594 42.948 30.1932C46.0649 31.427 48.9004 33.2127 51.4545 35.5503L46.0649 40.7451ZM33.0129 40.9399C31.5411 40.9399 30.1774 41.3079 28.922 42.0438C27.6666 42.7798 26.6709 43.7646 25.935 44.9984C25.1991 46.2321 24.8311 47.585 24.8311 49.0568C24.8311 50.5287 25.1991 51.8815 25.935 53.1153C26.6709 54.349 27.6666 55.3339 28.922 56.0698C30.1774 56.8057 31.5303 57.1737 32.9805 57.1737C34.4307 57.1737 35.7835 56.8057 37.0389 56.0698C38.2943 55.3339 39.29 54.349 40.0259 53.1153C40.7619 51.8815 41.1298 50.5287 41.1298 49.0568C41.1298 47.585 40.7619 46.2321 40.0259 44.9984C39.29 43.7646 38.2943 42.7798 37.0389 42.0438C35.7835 41.3079 34.4415 40.9399 33.0129 40.9399ZM33.0129 55.0308C31.3246 55.0308 29.8961 54.4464 28.7272 53.2776C27.5584 52.1088 26.974 50.7018 26.974 49.0568C26.974 47.9746 27.2445 46.9789 27.7857 46.0698C28.3268 45.1607 29.0627 44.4356 29.9935 43.8945C30.9242 43.3534 31.9307 43.0828 33.0129 43.0828C34.658 43.0828 36.0649 43.6672 37.2337 44.836C38.4025 46.0049 38.987 47.4118 38.987 49.0568C38.987 50.7018 38.4025 52.1088 37.2337 53.2776C36.0649 54.4464 34.658 55.0308 33.0129 55.0308Z" fill="#7C9CCD"/>
</g>
<defs>
<clipPath id="clip0_13_807">
<rect width="65" height="65" fill="white" transform="matrix(1 0 0 -1 0.480469 65.8101)"/>
</clipPath>
</defs>
</svg>
