<svg width="66" height="65" viewBox="0 0 66 65" fill="none" xmlns="http://www.w3.org/2000/svg">
<g clip-path="url(#clip0_13_802)">
<path d="M32.9827 -8.71718e-07C28.5238 -8.71718e-07 24.2814 0.844155 20.2554 2.53247C16.4026 4.17749 12.9718 6.50433 9.96318 9.51299C6.95452 12.5216 4.62768 15.9524 2.98266 19.8052C1.29435 23.8312 0.450195 28.0628 0.450195 32.5C0.450195 36.9372 1.29435 41.1688 2.98266 45.1948C4.62768 49.0476 6.95452 52.4784 9.96318 55.487C12.9718 58.4957 16.4026 60.8225 20.2554 62.4675C24.2814 64.1558 28.513 65 32.9502 65C37.3874 65 41.619 64.1558 45.645 62.4675C49.4978 60.8225 52.9286 58.4957 55.9372 55.487C58.9459 52.4784 61.2727 49.0476 62.9177 45.1948C64.606 41.1688 65.4502 36.9372 65.4502 32.5C65.4502 28.0628 64.606 23.8312 62.9177 19.8052C61.2727 15.9524 58.9459 12.5216 55.9372 9.51299C52.9286 6.50433 49.4978 4.17749 45.645 2.53247C41.619 0.844155 37.3982 -8.71718e-07 32.9827 -8.71718e-07ZM32.9827 2.27273C38.4372 2.27273 43.5021 3.65801 48.1775 6.42857C52.7662 9.06926 56.3809 12.684 59.0216 17.2727C61.7922 21.9481 63.1775 27.0238 63.1775 32.5C63.1775 37.9762 61.7922 43.0519 59.0216 47.7273C56.3809 52.316 52.7662 55.9307 48.1775 58.5714C43.5021 61.342 38.4264 62.7273 32.9502 62.7273C27.474 62.7273 22.3982 61.342 17.7229 58.5714C13.1342 55.9307 9.51946 52.316 6.87877 47.7273C4.1082 43.0519 2.72292 37.9762 2.72292 32.5C2.72292 27.0238 4.1082 21.9481 6.87877 17.2727C9.51946 12.684 13.1342 9.06926 17.7229 6.42857C22.3982 3.65801 27.4632 2.27273 32.9177 2.27273H32.9827ZM22.3333 22.6623C22.1169 22.6623 21.9653 22.684 21.8788 22.7273C21.4026 22.9004 21.0779 23.1602 20.9047 23.5065C20.7316 23.8528 20.645 24.2208 20.645 24.6104C20.6017 24.8701 20.6234 25.2814 20.7099 25.8442V25.9091C20.7532 26.3853 20.948 27.1429 21.2944 28.1818L21.4892 28.5714C22.0952 30.303 23.1775 32.5108 24.7359 35.1948C26.2078 37.7922 27.5714 39.8268 28.8268 41.2987C29.3896 42.0346 30.0498 42.7164 30.8073 43.3442C31.5649 43.9719 32.2792 44.2857 32.9502 44.2857C33.6212 44.2857 34.3355 43.9719 35.0931 43.3442C35.8506 42.7164 36.5108 42.0346 37.0736 41.2987C38.329 39.8268 39.6926 37.7922 41.1645 35.1948C42.5931 32.7273 43.6753 30.5195 44.4112 28.5714C44.8441 27.2727 45.1039 26.3853 45.1905 25.9091V25.8442C45.277 25.2814 45.2987 24.8701 45.2554 24.6104C45.2554 24.2208 45.1688 23.8528 44.9957 23.5065C44.8658 23.29 44.7143 23.1277 44.5411 23.0195C44.3679 22.9113 44.184 22.8355 43.9892 22.7922C43.7944 22.7489 43.5021 22.7273 43.1125 22.7273C42.8961 22.7273 42.5931 22.7922 42.2034 22.9221L41.4892 23.0519C40.5801 23.355 39.3247 23.8961 37.7229 24.6753C36.684 25.1948 35.4069 25.8874 33.8918 26.7532L32.8528 27.2727L31.619 26.7532C30.6234 26.1905 29.4112 25.5844 27.9827 24.9351C26.3376 24.1126 25.0389 23.5714 24.0866 23.3117C23.6969 23.1385 23.1558 22.987 22.4632 22.8571C22.5065 22.7273 22.4632 22.6623 22.3333 22.6623ZM43.0476 25V25.3247C42.8744 26.1039 42.658 26.8615 42.3982 27.5974C41.8788 29.026 40.8615 31.1255 39.3463 33.8961C38.0476 36.1039 36.7489 38.0303 35.4502 39.6753L35.2554 39.8701C34.5627 40.6926 34.0974 41.2013 33.8593 41.3961C33.6212 41.5909 33.3723 41.7316 33.1125 41.8182C33.1125 41.8182 33.1342 41.8182 33.1775 41.8182C33.2208 41.8182 33.1775 41.7965 33.0476 41.7532L32.3982 41.3636L32.0736 41.039C31.5108 40.5195 31.0779 40.0649 30.7749 39.6753C29.5195 38.0303 28.2316 36.1039 26.9112 33.8961C25.5909 31.6883 24.5627 29.5887 23.8268 27.5974C23.5671 26.8615 23.3506 26.1039 23.1775 25.3247V25C23.264 25 23.3939 25.0433 23.5671 25.1299L23.8268 25.2597C24.4762 25.4762 25.6666 26.0173 27.3982 26.8831C29.1298 27.7489 30.342 28.355 31.0346 28.7013C31.5541 28.9177 31.987 29.1342 32.3333 29.3506L32.5281 29.4156C32.6147 29.4589 32.6905 29.4913 32.7554 29.513C32.8203 29.5346 32.8961 29.5887 32.9827 29.6753H33.632L35.4502 28.7013C36.7489 27.9654 37.9394 27.3593 39.0216 26.8831C40.1905 26.2771 41.3376 25.7576 42.4632 25.3247C42.5498 25.1082 42.7446 25 43.0476 25Z" fill="#7C9CCD"/>
</g>
<defs>
<clipPath id="clip0_13_802">
<rect width="65" height="65" fill="white" transform="matrix(1 0 0 -1 0.450195 65)"/>
</clipPath>
</defs>
</svg>
