<svg width="66" height="66" viewBox="0 0 66 66" fill="none" xmlns="http://www.w3.org/2000/svg">
<g clip-path="url(#clip0_13_817)">
<path d="M32.9827 0.810058C28.5671 0.810058 24.3463 1.65421 20.3203 3.34253C16.4242 5.03084 12.9827 7.3685 9.99565 10.3555C7.00864 13.3425 4.67097 16.7841 2.98266 20.6802C1.29435 24.7062 0.450195 28.9161 0.450195 33.3101C0.450195 37.704 1.29435 41.914 2.98266 45.9399C4.67097 49.836 7.00864 53.2776 9.99565 56.2646C12.9827 59.2516 16.4242 61.5893 20.3203 63.2776C24.3463 64.9659 28.5563 65.8101 32.9502 65.8101C37.3441 65.8101 41.5541 64.9659 45.5801 63.2776C49.4762 61.5893 52.9177 59.2516 55.9047 56.2646C58.8918 53.2776 61.2294 49.836 62.9177 45.9399C64.606 41.914 65.4502 37.704 65.4502 33.3101C65.4502 28.9161 64.606 24.7062 62.9177 20.6802C61.2294 16.7841 58.8918 13.3425 55.9047 10.3555C52.9177 7.3685 49.4762 5.03084 45.5801 3.34253C41.5541 1.65421 37.355 0.810058 32.9827 0.810058ZM32.9827 63.5373C27.4848 63.5373 22.3982 62.152 17.7229 59.3815C13.1342 56.7408 9.51946 53.1261 6.87877 48.5373C4.1082 43.862 2.72292 38.7862 2.72292 33.3101C2.72292 27.8339 4.1082 22.7581 6.87877 18.0828C9.51946 13.494 13.1342 9.87932 17.7229 7.23863C22.3982 4.46807 27.474 3.08279 32.9502 3.08279C38.4264 3.08279 43.5021 4.46807 48.1775 7.23863C52.7662 9.87932 56.3809 13.494 59.0216 18.0828C61.7922 22.7581 63.1775 27.8339 63.1775 33.3101C63.1775 38.7862 61.7922 43.862 59.0216 48.5373C56.3809 53.1261 52.7662 56.7408 48.1775 59.3815C43.5021 62.152 38.4372 63.5373 32.9827 63.5373ZM32.9827 16.849C29.9957 16.849 27.2359 17.5849 24.7034 19.0568C22.171 20.5287 20.1688 22.5308 18.6969 25.0633C17.2251 27.5958 16.4892 30.3447 16.4892 33.3101C16.4892 36.2754 17.2251 39.0243 18.6969 41.5568C20.1688 44.0893 22.171 46.0914 24.7034 47.5633C27.2359 49.0352 29.9848 49.7711 32.9502 49.7711C35.9156 49.7711 38.6645 49.0352 41.1969 47.5633C43.7294 46.0914 45.7316 44.0893 47.2034 41.5568C48.6753 39.0243 49.4112 36.2754 49.4112 33.3101C49.4112 30.3447 48.6753 27.5958 47.2034 25.0633C45.7316 22.5308 43.7294 20.5287 41.1969 19.0568C38.6645 17.5849 35.9264 16.849 32.9827 16.849ZM32.9827 47.6282C30.3853 47.6282 27.9827 46.9897 25.7749 45.7127C23.5671 44.4356 21.8247 42.6932 20.5476 40.4854C19.2705 38.2776 18.632 35.8858 18.632 33.3101C18.632 30.7343 19.2705 28.3425 20.5476 26.1347C21.8247 23.9269 23.5671 22.1845 25.7749 20.9075C27.9827 19.6304 30.3744 18.9919 32.9502 18.9919C35.526 18.9919 37.9177 19.6304 40.1255 20.9075C42.3333 22.1845 44.0757 23.9269 45.3528 26.1347C46.6298 28.3425 47.2684 30.7343 47.2684 33.3101C47.2684 35.8858 46.6298 38.2776 45.3528 40.4854C44.0757 42.6932 42.3333 44.4356 40.1255 45.7127C37.9177 46.9897 35.5368 47.6282 32.9827 47.6282ZM32.9827 40.0308V42.3036C34.5844 42.3036 36.0779 41.9031 37.4632 41.1023C38.8485 40.3014 39.9415 39.2083 40.7424 37.823C41.5433 36.4378 41.9437 34.9443 41.9437 33.3425H39.671C39.671 34.5114 39.3679 35.6153 38.7619 36.6542C38.1558 37.6932 37.3333 38.5157 36.2944 39.1217C35.2554 39.7278 34.1515 40.0308 32.9827 40.0308Z" fill="#7C9CCD"/>
</g>
<defs>
<clipPath id="clip0_13_817">
<rect width="65" height="65" fill="white" transform="matrix(1 0 0 -1 0.450195 65.8101)"/>
</clipPath>
</defs>
</svg>
