<svg width="66" height="65" viewBox="0 0 66 65" fill="none" xmlns="http://www.w3.org/2000/svg">
<g clip-path="url(#clip0_13_797)">
<path d="M17.8593 -8.71718e-07C17.6862 -8.71718e-07 17.5563 0.0432892 17.4697 0.129869C13.6169 1.51515 10.197 3.7013 7.20999 6.68831C4.30955 9.50216 2.08012 12.9004 0.521675 16.8831C0.435095 17.1861 0.45674 17.4892 0.58661 17.7922C0.71648 18.0952 0.93293 18.29 1.23596 18.3766C1.53899 18.4632 1.84202 18.4416 2.14505 18.3117C2.44808 18.1818 2.64289 17.9654 2.72947 17.6623C4.02817 14.2424 6.0628 11.1472 8.83336 8.37662C11.6039 5.60606 14.7641 3.54978 18.3139 2.20779C18.6169 2.12121 18.8334 1.92641 18.9632 1.62338C19.0931 1.32035 19.1147 1.01732 19.0282 0.714285C18.7684 0.238094 18.3788 -8.71718e-07 17.8593 -8.71718e-07ZM48.2489 -8.71718e-07C47.9459 -8.71718e-07 47.6862 0.119047 47.4697 0.357142C47.2533 0.595237 47.1451 0.887445 47.1451 1.23377C47.1451 1.49351 47.21 1.70996 47.3399 1.88312C47.4697 2.05628 47.6429 2.1645 47.8593 2.20779C51.236 3.4632 54.3745 5.49783 57.2749 8.31169C60.0888 11.1255 62.1234 14.2424 63.3788 17.6623C63.4654 17.9654 63.6602 18.1818 63.9632 18.3117C64.2663 18.4416 64.5801 18.4632 64.9048 18.3766C65.2295 18.29 65.4567 18.0952 65.5866 17.7922C65.7165 17.4892 65.7381 17.1861 65.6515 16.8831C64.0931 12.9437 61.8853 9.54545 59.0282 6.68831C55.868 3.65801 52.4481 1.47186 48.7684 0.129869C48.6386 0.0432892 48.4654 -8.71718e-07 48.2489 -8.71718e-07ZM33.1191 8.63636C31.7338 8.63636 30.5541 9.12338 29.5801 10.0974C28.6061 11.0714 28.1191 12.2511 28.1191 13.6364C28.1191 14.7619 28.5087 15.8009 29.2879 16.7532C26.6905 17.316 24.3637 18.4091 22.3074 20.0325C20.2511 21.6558 18.6494 23.6364 17.5022 25.974C16.355 28.3117 15.7814 30.8225 15.7814 33.5065V46.9481H15.3269C14.0282 46.9481 12.9134 47.4134 11.9827 48.3442C11.052 49.2749 10.5866 50.4004 10.5866 51.7208C10.5866 53.0411 11.052 54.1667 11.9827 55.0974C12.9134 56.0281 14.0282 56.4935 15.3269 56.4935H24.0931V56.6883C24.0931 58.1602 24.4719 59.5346 25.2295 60.8117C25.987 62.0887 27.0044 63.1061 28.2814 63.8636C29.5585 64.6212 30.9654 65 32.5022 65C34.039 65 35.4567 64.6212 36.7554 63.8636C38.0541 63.1061 39.0715 62.0887 39.8074 60.8117C40.5433 59.5346 40.9113 58.1602 40.9113 56.6883V56.4935H50.9113C52.21 56.4935 53.3247 56.0281 54.2554 55.0974C55.1862 54.1667 55.6515 53.0411 55.6515 51.7208C55.6515 50.4004 55.1862 49.2749 54.2554 48.3442C53.3247 47.4134 52.21 46.9481 50.9113 46.9481H50.5217V33.5065C50.5217 30.8225 49.9264 28.3117 48.736 25.974C47.5455 23.6364 45.9329 21.6558 43.8983 20.0325C41.8637 18.4091 39.5476 17.316 36.9502 16.7532C37.7295 15.8874 38.1191 14.816 38.1191 13.539C38.1191 12.2619 37.6212 11.1255 36.6256 10.1299C35.6299 9.1342 34.4611 8.63636 33.1191 8.63636ZM21.0412 9.35065C20.8247 9.35065 20.6948 9.37229 20.6515 9.41558C18.1407 10.5411 16.0412 11.9481 14.3528 13.6364C12.5347 15.4113 11.1061 17.5108 10.0671 19.9351C9.93726 20.2381 9.92644 20.5411 10.0347 20.8442C10.1429 21.1472 10.3485 21.3636 10.6515 21.4935C10.9546 21.6234 11.2684 21.6234 11.5931 21.4935C11.9178 21.3636 12.1234 21.1472 12.21 20.8442V20.7143C13.0325 18.6364 14.2771 16.7965 15.9438 15.1948C17.6104 13.5931 19.4827 12.381 21.5606 11.5584C21.8637 11.4719 22.0801 11.2771 22.21 10.974C22.3399 10.671 22.3182 10.368 22.1451 10.0649C21.9286 9.58874 21.5606 9.35065 21.0412 9.35065ZM45.1321 9.35065C44.829 9.35065 44.5585 9.45887 44.3204 9.67532C44.0823 9.89177 43.9632 10.1515 43.9632 10.4545C43.9632 10.974 44.2013 11.342 44.6775 11.5584C46.5823 12.2944 48.4438 13.5281 50.2619 15.2597C51.8637 16.8182 53.1191 18.6364 54.0282 20.7143C54.158 21.0173 54.3745 21.2338 54.6775 21.3636C54.9805 21.4935 55.2836 21.4935 55.5866 21.3636C55.8896 21.2338 56.1061 21.0173 56.236 20.7143C56.3658 20.4113 56.3442 20.1082 56.171 19.8052C55.1321 17.4242 53.6927 15.3139 51.8528 13.474C50.013 11.6342 47.9243 10.2597 45.5866 9.35065H45.1321ZM33.1191 10.974C33.855 10.974 34.4827 11.2338 35.0022 11.7532C35.5217 12.2727 35.7814 12.8896 35.7814 13.6039C35.7814 14.3182 35.5109 14.9351 34.9697 15.4545C34.4286 15.974 33.8009 16.2338 33.0866 16.2338C32.3723 16.2338 31.7554 15.974 31.236 15.4545C30.7165 14.9351 30.4567 14.3182 30.4567 13.6039C30.4567 12.8896 30.7165 12.2727 31.236 11.7532C31.7554 11.2338 32.3831 10.974 33.1191 10.974ZM33.1191 18.5714C35.8463 18.5714 38.3572 19.2424 40.6515 20.5844C42.9459 21.9264 44.7749 23.7338 46.1386 26.0065C47.5022 28.2792 48.184 30.7792 48.184 33.5065V46.9481H18.1191V33.5065C18.1191 30.8225 18.7901 28.3333 20.1321 26.039C21.4741 23.7446 23.2922 21.9264 25.5866 20.5844C27.881 19.2424 30.3918 18.5714 33.1191 18.5714ZM15.2619 49.2857H50.9113C51.6039 49.2857 52.1775 49.5238 52.6321 50C53.0866 50.4762 53.3139 51.0498 53.3139 51.7208C53.3139 52.3918 53.0758 52.9654 52.5996 53.4416C52.1234 53.9177 51.5606 54.1558 50.9113 54.1558H15.2619C14.526 54.1558 13.9308 53.9286 13.4762 53.474C13.0217 53.0195 12.7944 52.4351 12.7944 51.7208C12.7944 51.0065 13.0325 50.4221 13.5087 49.9675C13.9849 49.513 14.5693 49.2857 15.2619 49.2857ZM26.4308 56.4935H38.6386V56.6883C38.6386 58.3333 38.0325 59.7619 36.8204 60.974C35.6083 62.1861 34.1689 62.7922 32.5022 62.7922C30.8355 62.7922 29.407 62.197 28.2165 61.0065C27.026 59.816 26.4308 58.3766 26.4308 56.6883V56.4935Z" fill="#7C9CCD"/>
</g>
<defs>
<clipPath id="clip0_13_797">
<rect width="65" height="65" fill="white" transform="matrix(1 0 0 -1 0.469727 65)"/>
</clipPath>
</defs>
</svg>
